<?xml version="1.0" encoding="UTF-8" standalone="no"?>
<!-- Generator: Adobe Illustrator 16.0.0, SVG Export Plug-In . SVG Version: 6.00 Build 0)  -->

<svg
   xmlns:dc="http://purl.org/dc/elements/1.1/"
   xmlns:cc="http://creativecommons.org/ns#"
   xmlns:rdf="http://www.w3.org/1999/02/22-rdf-syntax-ns#"
   xmlns:svg="http://www.w3.org/2000/svg"
   xmlns="http://www.w3.org/2000/svg"
   xmlns:sodipodi="http://sodipodi.sourceforge.net/DTD/sodipodi-0.dtd"
   xmlns:inkscape="http://www.inkscape.org/namespaces/inkscape"
   version="1.1"
   id="Capa_1"
   x="0px"
   y="0px"
   width="612px"
   height="612px"
   viewBox="0 0 612 612"
   style="enable-background:new 0 0 612 612;"
   xml:space="preserve"
   inkscape:version="0.48.5 r10040"
   sodipodi:docname="more9.svg"><metadata
   id="metadata44"><rdf:RDF><cc:Work
       rdf:about=""><dc:format>image/svg+xml</dc:format><dc:type
         rdf:resource="http://purl.org/dc/dcmitype/StillImage" /></cc:Work></rdf:RDF></metadata><defs
   id="defs42" /><sodipodi:namedview
   pagecolor="#ffffff"
   bordercolor="#666666"
   borderopacity="1"
   objecttolerance="10"
   gridtolerance="10"
   guidetolerance="10"
   inkscape:pageopacity="0"
   inkscape:pageshadow="2"
   inkscape:window-width="648"
   inkscape:window-height="490"
   id="namedview40"
   showgrid="false"
   inkscape:zoom="0.38562092"
   inkscape:cx="435.77137"
   inkscape:cy="261.35382"
   inkscape:window-x="0"
   inkscape:window-y="30"
   inkscape:window-maximized="0"
   inkscape:current-layer="Capa_1" />
<g
   id="g3"
   style="fill:#333333"
   transform="matrix(0,1,-1,0,612,0)">
	<g
   id="Ellipse_2_copy_3"
   style="fill:#333333">
		<g
   id="g6"
   style="fill:#333333">
			<path
   d="M 55.636,250.364 C 24.907,250.364 0,275.27 0,306 c 0,30.73 24.907,55.636 55.636,55.636 30.729,0 55.637,-24.906 55.637,-55.636 0,-30.73 -24.907,-55.636 -55.637,-55.636 z m 259.637,0 c -30.73,0 -55.636,24.907 -55.636,55.636 0,30.729 24.907,55.636 55.636,55.636 30.729,0 55.636,-24.905 55.636,-55.636 0,-30.73 -24.906,-55.636 -55.636,-55.636 z m 241.091,0 c -30.73,0 -55.636,24.907 -55.636,55.636 0,30.729 24.906,55.636 55.636,55.636 30.729,0 55.636,-24.906 55.636,-55.636 0,-30.73 -24.907,-55.636 -55.636,-55.636 z"
   id="path8"
   style="fill:#333333"
   inkscape:connector-curvature="0" />
		</g>
	</g>
</g>
<g
   id="g10">
</g>
<g
   id="g12">
</g>
<g
   id="g14">
</g>
<g
   id="g16">
</g>
<g
   id="g18">
</g>
<g
   id="g20">
</g>
<g
   id="g22">
</g>
<g
   id="g24">
</g>
<g
   id="g26">
</g>
<g
   id="g28">
</g>
<g
   id="g30">
</g>
<g
   id="g32">
</g>
<g
   id="g34">
</g>
<g
   id="g36">
</g>
<g
   id="g38">
</g>
</svg>