<?xml version="1.0" standalone="no"?>
<!DOCTYPE svg PUBLIC "-//W3C//DTD SVG 20010904//EN"
 "http://www.w3.org/TR/2001/REC-SVG-20010904/DTD/svg10.dtd">
<svg version="1.0" xmlns="http://www.w3.org/2000/svg"
 width="200.000000pt" height="200.000000pt" viewBox="0 0 200.000000 200.000000"
 preserveAspectRatio="xMidYMid meet">
<metadata>
Created by potrace 1.11, written by Peter Selinger 2001-2013
</metadata>
<g transform="translate(0.000000,200.000000) scale(0.100000,-0.100000)"
fill="#000000" stroke="none">
<path d="M200 1985 c0 -16 -12 -20 -23 -8 -12 11 -71 10 -116 -3 -25 -7 -48
-11 -53 -8 -5 3 -8 -14 -6 -38 l3 -43 45 2 c25 1 72 4 105 7 70 5 105 -7 131
-45 13 -19 21 -24 26 -16 5 8 8 7 8 -5 0 -22 35 -41 60 -33 16 5 20 2 20 -14
0 -26 15 -27 42 -1 14 13 22 36 26 70 3 31 9 50 17 50 7 0 15 14 19 30 3 17
10 30 16 30 6 0 8 -10 4 -25 -4 -15 -2 -25 5 -25 6 0 11 7 11 16 0 10 6 14 14
11 16 -6 30 19 20 35 -4 6 0 14 7 19 10 6 8 9 -10 9 -13 0 -30 -8 -37 -17 -13
-17 -13 -17 -14 0 0 15 -14 17 -160 17 -136 0 -160 -2 -160 -15z m40 -55 c0
-11 -4 -20 -9 -20 -5 0 -7 9 -4 20 3 11 7 20 9 20 2 0 4 -9 4 -20z"/>
<path d="M886 1984 c-42 -10 -62 -11 -66 -4 -11 18 -58 0 -84 -31 -14 -16 -27
-25 -31 -19 -7 11 -34 2 -58 -20 -19 -19 -40 -78 -31 -91 7 -12 34 -11 34 1 0
6 8 14 18 17 9 4 43 27 75 51 47 36 69 45 121 53 35 4 70 11 80 15 19 7 23
-21 4 -30 -7 -3 -3 -3 9 -1 11 3 46 6 77 6 34 1 60 6 67 15 13 16 59 19 59 4
0 -5 -4 -10 -10 -10 -21 0 -9 -20 13 -21 21 0 21 -1 -3 -11 -14 -6 -43 -13
-65 -15 -22 -3 -49 -10 -60 -17 -18 -10 -17 -11 13 -14 35 -4 45 -22 12 -22
-11 0 -20 -4 -20 -10 0 -13 -100 -13 -119 -1 -12 8 -9 11 13 17 24 6 26 8 12
16 -9 5 -42 10 -74 11 -63 1 -132 -27 -184 -75 -33 -30 -37 -52 -9 -43 14 4
23 0 31 -16 11 -20 16 -21 64 -13 28 4 90 8 139 9 48 0 87 3 87 8 0 4 0 10 1
15 0 4 -10 10 -23 14 -16 4 -10 6 21 7 33 1 42 -2 34 -10 -11 -11 2 -35 32
-60 60 -50 86 -67 123 -78 26 -7 48 -22 59 -39 10 -15 22 -30 27 -34 6 -4 11
-42 11 -85 1 -88 16 -127 71 -181 19 -18 34 -39 34 -46 0 -7 11 -18 24 -24 39
-17 95 -72 112 -108 9 -19 17 -59 18 -90 1 -31 7 -58 14 -63 14 -8 19 -72 9
-116 -4 -16 -9 -41 -12 -54 -2 -13 -12 -33 -22 -43 -10 -11 -17 -28 -15 -38 1
-9 -9 -28 -22 -41 -14 -13 -26 -30 -26 -38 0 -8 -6 -11 -16 -7 -13 5 -15 2
-11 -14 3 -12 0 -20 -7 -20 -16 0 -61 -58 -61 -78 0 -19 -21 -27 -30 -13 -9
16 -25 13 -25 -4 0 -8 -4 -15 -10 -15 -5 0 -15 -20 -21 -44 -10 -39 -15 -45
-45 -51 -41 -7 -54 -1 -54 26 0 10 -4 19 -10 19 -5 0 -10 9 -10 20 0 25 -24
36 -117 50 -40 7 -73 15 -73 20 0 4 -9 10 -20 13 -24 6 -27 51 -8 122 10 35 9
48 0 57 -10 10 -11 6 -6 -18 9 -45 -17 -61 -116 -73 -130 -17 -150 -21 -150
-32 0 -5 11 -15 25 -21 23 -10 24 -13 12 -32 -7 -12 -13 -43 -13 -71 1 -39 4
-50 18 -50 16 0 58 -45 58 -63 0 -5 7 -15 15 -22 13 -11 15 -8 15 18 0 45 25
55 86 36 27 -9 57 -17 68 -19 10 -3 26 -11 35 -19 10 -9 26 -13 39 -9 12 3 29
0 37 -7 8 -7 21 -10 30 -7 20 8 28 -8 11 -22 -15 -13 -67 -5 -77 12 -4 6 -19
3 -39 -7 -41 -20 -40 -20 -40 4 0 17 -4 19 -27 14 -55 -13 -73 -24 -73 -42 0
-28 -11 -34 -26 -14 -12 16 -13 16 -20 -2 -4 -11 -2 -21 5 -26 7 -4 14 -25 15
-46 1 -22 4 -44 8 -49 11 -19 2 -88 -12 -95 -32 -16 -88 -30 -118 -30 -17 0
-34 -5 -37 -10 -11 -17 121 -12 135 5 16 19 40 19 40 0 0 -13 71 -15 575 -15
l575 0 0 181 0 181 -24 -19 c-13 -10 -55 -44 -95 -77 -42 -35 -77 -56 -86 -53
-23 9 -12 73 19 107 24 28 25 30 6 30 -20 0 -27 14 -11 24 5 3 9 47 10 98 1
51 6 97 12 104 6 7 6 13 0 16 -13 4 -21 67 -10 74 5 3 8 13 7 21 -2 10 10 21
30 30 23 10 31 10 26 2 -7 -12 23 -9 56 5 12 5 20 -6 33 -46 9 -29 18 -69 20
-88 2 -19 5 117 5 303 1 209 -2 336 -7 332 -6 -3 -13 0 -18 7 -11 18 -49 38
-72 38 -10 0 -30 -9 -44 -20 -45 -36 -54 -14 -9 25 41 36 87 42 123 16 l29
-22 0 280 c0 154 -3 281 -7 283 -5 2 -16 17 -25 33 -10 17 -22 29 -28 27 -7
-1 -9 2 -6 7 4 5 -5 29 -18 53 l-24 43 -356 2 c-213 1 -356 -2 -356 -8 0 -5
-7 -9 -15 -9 -8 0 -15 5 -15 10 0 15 -71 12 -101 -4 -56 -29 -102 -29 -78 1
15 17 -5 16 -85 -3z m181 -30 c-3 -3 -12 -4 -19 -1 -8 3 -5 6 6 6 11 1 17 -2
13 -5z m873 -824 c0 -5 -4 -10 -10 -10 -5 0 -10 5 -10 10 0 6 5 10 10 10 6 0
10 -4 10 -10z m20 -52 c0 -14 5 -18 15 -14 11 4 15 -1 15 -19 0 -34 -15 -31
-31 4 -9 20 -16 26 -21 18 -5 -7 -8 -1 -8 15 0 20 4 26 15 22 8 -4 15 -15 15
-26z m-17 -59 c6 -21 -30 -89 -53 -104 -20 -12 2 -26 31 -20 26 6 29 4 29 -17
0 -13 -9 -43 -20 -67 -17 -36 -22 -41 -35 -31 -8 7 -12 16 -9 21 3 5 2 9 -3 9
-4 0 -18 -16 -31 -35 -26 -40 -39 -43 -76 -14 -18 14 -26 30 -26 51 0 28 2 30
26 24 18 -5 32 -2 45 10 21 19 16 34 -12 34 -18 0 -19 2 -6 26 9 18 30 32 63
43 48 17 49 18 46 54 -3 27 0 37 11 37 8 0 17 -10 20 -21z m40 -51 c-3 -16 -9
-28 -14 -28 -10 0 -11 16 -3 48 9 32 24 14 17 -20z m-1143 -514 c0 -15 -18
-18 -45 -8 -14 6 -13 8 7 19 26 13 38 10 38 -11z m81 -250 c24 -26 75 -58 94
-59 6 0 11 -15 13 -32 3 -30 1 -33 -22 -33 -17 0 -26 5 -26 16 0 12 -6 15 -22
11 -18 -5 -28 2 -48 31 -37 54 -45 92 -20 92 4 0 17 -12 31 -26z m193 -40 c9
-35 -3 -46 -42 -38 -29 6 -46 24 -22 24 6 0 10 6 10 14 0 14 14 24 36 25 7 1
15 -11 18 -25z m578 -46 c7 -19 -17 -38 -48 -38 l-27 0 29 25 c33 28 41 30 46
13z"/>
<path d="M507 1883 c-15 -14 -6 -39 13 -39 11 0 20 3 20 6 -1 12 -28 39 -33
33z"/>
<path d="M555 1800 c3 -5 13 -10 21 -10 8 0 12 5 9 10 -3 6 -13 10 -21 10 -8
0 -12 -4 -9 -10z"/>
<path d="M610 1786 c0 -8 5 -18 10 -21 6 -3 10 3 10 14 0 12 -4 21 -10 21 -5
0 -10 -6 -10 -14z"/>
<path d="M469 1718 c-20 -8 -26 -18 -27 -42 -1 -22 2 -26 8 -16 7 11 10 6 10
-17 0 -23 5 -33 15 -33 8 0 15 6 16 13 0 6 4 33 8 60 4 26 5 47 2 46 -3 -1
-18 -6 -32 -11z"/>
<path d="M7 1543 c-4 -3 -7 -15 -7 -25 0 -13 7 -18 25 -18 29 0 32 12 9 34
-18 18 -18 18 -27 9z"/>
<path d="M838 1228 c-41 -11 -118 -72 -114 -91 17 -79 77 -140 176 -179 l74
-29 19 25 c13 19 28 26 50 26 18 0 49 9 69 20 21 11 59 25 85 30 61 14 72 24
68 64 -7 77 -49 114 -152 132 -89 15 -220 17 -275 2z"/>
<path d="M438 1156 c-3 -28 -1 -57 3 -65 4 -8 2 -23 -4 -32 -9 -14 -7 -26 6
-54 22 -47 21 -72 -3 -85 -11 -6 -20 -17 -20 -25 0 -8 -4 -15 -8 -15 -4 0 -13
-14 -19 -31 -7 -17 -21 -33 -31 -36 -22 -5 -19 -38 4 -47 17 -7 19 -46 2 -46
-7 0 -32 -17 -56 -38 -40 -36 -43 -42 -40 -83 3 -38 7 -45 31 -54 23 -8 30 -6
38 8 6 9 21 17 34 17 14 0 25 4 25 9 0 5 9 7 21 4 13 -4 29 3 48 21 l29 28
-15 55 c-14 54 -14 55 10 76 49 45 67 89 64 158 -2 62 -3 64 -31 69 -35 6 -47
28 -14 27 13 -1 33 2 45 7 18 6 29 1 53 -25 19 -22 33 -30 40 -23 14 14 16
129 2 146 -6 8 -35 25 -64 37 -78 35 -90 39 -120 44 -25 4 -26 2 -30 -47z m68
-34 c6 -4 14 -17 18 -29 4 -13 12 -23 17 -23 6 0 7 -5 4 -10 -7 -11 -65 44
-65 61 0 11 11 11 26 1z"/>
<path d="M91 1173 c-33 -12 -46 -13 -49 -4 -2 6 -12 11 -23 11 -18 0 -19 -11
-19 -290 0 -159 3 -290 8 -290 4 0 18 25 32 56 20 48 31 60 67 76 54 24 56 48
8 91 -22 19 -31 34 -26 41 13 17 19 147 6 143 -12 -5 -45 11 -45 21 0 5 15 14
34 20 19 7 37 19 40 27 3 8 15 15 26 15 11 0 20 5 20 11 0 6 7 17 15 25 22 23
18 43 -11 54 -31 12 -28 12 -83 -7z m-11 -99 c0 -23 -31 -30 -46 -9 -10 13
-11 22 -3 31 14 17 49 1 49 -22z"/>
<path d="M310 501 c0 -6 4 -13 10 -16 6 -3 7 1 4 9 -7 18 -14 21 -14 7z"/>
<path d="M1185 480 c-4 -6 -3 -16 3 -22 6 -6 12 -6 17 2 4 6 3 16 -3 22 -6 6
-12 6 -17 -2z"/>
<path d="M416 345 c-4 -14 -13 -25 -21 -25 -11 0 -13 -5 -6 -17 5 -10 19 -44
32 -76 23 -60 44 -80 60 -56 6 10 9 6 9 -13 0 -54 16 -27 18 30 1 31 4 74 8
95 6 36 0 43 -28 38 -5 0 -8 4 -8 10 0 14 -30 38 -46 39 -7 0 -15 -11 -18 -25z"/>
<path d="M0 25 c0 -25 0 -25 97 -25 94 0 117 7 54 16 -17 2 -45 6 -62 8 -18 3
-37 10 -42 15 -21 21 -47 13 -47 -14z"/>
</g>
</svg>
