<?xml version="1.0" encoding="utf-8"?>
<!-- Generator: Adobe Illustrator 18.1.0, SVG Export Plug-In . SVG Version: 6.00 Build 0)  -->
<svg version="1.1" id="Layer_1" xmlns="http://www.w3.org/2000/svg" xmlns:xlink="http://www.w3.org/1999/xlink" x="0px" y="0px"
	 viewBox="0 0 142.8 150" enable-background="new 0 0 142.8 150" xml:space="preserve">
<g>
	<path fill="#413F3F" d="M139.1,55.4c-0.7-1-2.1-1.4-3.3-1.1c-2-7.4-12.5-15.6-16.6-19.6c-11.4-11.1-24-21.5-37.5-30
		c-31.2-19.6-57.2,27.7-80.1,42c-1.9,1.2-1.4,3.3,0,4.2c0,0.5,0.1,1,0.1,1.5c0,0.1,0,0.2,0,0.4c2.3,29.6-6.2,61.7,1.5,90.4
		c0.6,2.3,3.6,2.7,5.1,1.4c0.2,0.1,0.3,0.2,0.5,0.2c20.2,4.4,40.9,4.6,61.5,4.5c20.7-0.1,42.4,1.3,63-0.6c1.6-0.2,2.7-1.5,2.9-2.9
		c0.3,0.3,0.5,0.6,0.8,0.8c0.6,0.6,1.8,0.4,2-0.5c1.5-6.3-0.6-13.3-0.8-19.8c-0.3-8.7,0.6-17.5,1.4-26.2
		C140.8,87.6,146.4,66.4,139.1,55.4L139.1,55.4z M128.8,56.4c-0.6,0.1-1.2,0.4-1.8,0.6c-0.9-0.7-1.7-1.3-2.5-2
		c-2.7-2.4-5.2-4.9-7.9-7.3c-0.7-0.6-1.6-0.5-2.1,0c-0.3-2.8-0.7-5.6-1.1-8.4C118.7,44.8,123.8,50.6,128.8,56.4L128.8,56.4z
		 M123.1,59.1c-2.5,1.7-4.9,3.8-6.7,5.5c0-4.2-1-8.7-1.5-12.6c-0.1-0.6-0.1-1.1-0.2-1.7c2.3,2.5,4.6,4.9,7,7.3
		C122.2,58.1,122.7,58.6,123.1,59.1L123.1,59.1z M108.9,52.1c0.3,5.7-0.1,12.3,1.7,17.7c0,0.1,0.1,0.2,0.2,0.3
		c-8.9,8.9-16.9,18.7-26.5,26.8c-1.3-0.2-2.4,0.9-2.6,2.1c-0.3,0.2-0.5,0.5-0.8,0.7c-13.8,10.5-30.6-6.3-40.9-15.2
		c-1.9-1.6-3.8-3.4-5.7-5.1c-0.2-12.1-6.3-45.3,7.3-47c22.6-2.8,44,0.1,66.4,2.4C108,40.7,108.5,46.4,108.9,52.1L108.9,52.1z
		 M78.2,10.7c8,4.8,15.4,10.3,22.2,16.3c-3.7-0.7-7.4-1.1-11.1-1.5c-9.4-6.1-19.5-11-28.7-17.4C66.3,6.6,72.2,7.1,78.2,10.7
		L78.2,10.7z M57.2,9.2c6.2,5.7,13.2,10.9,20.5,15.4c-3.2-0.1-6.5-0.3-9.7-0.3c-2.5-1.8-5.7-3.2-8-4.8c-3.2-2.2-6.2-4.6-9.3-7.1
		C52.9,11.1,55,10,57.2,9.2L57.2,9.2z M48.6,13.8c3.5,3.1,7,6.1,10.6,9.1c0.5,0.4,1,0.9,1.6,1.3c-2.2-0.1-4.6-0.1-7.2-0.1
		c-1.3-0.6-2.9-1.1-3.9-1.5c-2.4-1.2-4.8-2.6-6.9-4.3C44.8,16.6,46.7,15.1,48.6,13.8L48.6,13.8z M40.9,19.9c1.8,1.7,3.9,3.2,6.1,4.4
		c-5,0.4-9.7,1.3-12.7,3.3c-5.9,3.9-7.7,11.9-7.9,20.7c-0.6-0.4-1.2-0.8-1.7-1.3c-1.8-1.4-3.5-3.1-4.9-4.9c-1.1-1.4-3.3,0.4-2.4,1.8
		c1.4,2.4,3.4,4.3,5.5,6.1c0.9,0.8,2.2,2.1,3.6,2.5c0.1,2.3,0.3,4.6,0.5,6.9c-3-0.9-6.2-3.6-8.4-5.4c-2.7-2.1-5.3-4.5-7.8-6.9
		C20.6,40.5,30.5,28.9,40.9,19.9L40.9,19.9z M7,52c-0.1-0.7-0.3-1.4-0.4-2.1C7.4,49.5,8.2,49,9,48.5c3.3,3.4,6.7,6.7,10.3,9.8
		c2.2,1.8,5.1,4.4,8.1,4.4c0.6,4.4,1.3,8.6,1.9,12.2C21.5,67.6,14.2,59.9,7,52L7,52z M8.9,134.9C7.8,111,11.4,86.4,8.7,62.7
		c7.1,8.9,15.8,16.9,23.9,24.5c5.3,4.9,11.4,10.6,18.2,15.2c-7.4,1.8-14.6,9-20.3,13.7C23.1,122.1,15.9,128.5,8.9,134.9L8.9,134.9z
		 M75.2,142c-21.5,0.4-42.9-0.3-64.3-2.2c6.1-4.4,11.9-9.3,17.8-13.9c8.2-6.4,17-11.9,25.3-18.1c0.9-0.7,1.3-1.5,1.3-2.4
		c4.7,2.7,9.7,4.8,14.8,5.5c5.9,0.8,11.6-2.2,16.7-6.2c7.5,5.4,14.7,11.1,21.8,16.9c4.7,3.8,19.5,13.2,20,19.7
		c0,0.3,0.1,0.5,0.2,0.8C111.4,139.5,92.5,141.6,75.2,142L75.2,142z M132.2,103.7c-0.7,7.3-2.6,19.7-1,29.8
		C123,123,101.6,108,90.9,100.9c2.9-2.7,5.5-5.5,7.7-7.7c7.8-7.9,18.8-24.8,30.6-29.2c0.1,0,0.2,0.1,0.3,0.1
		c0.8,0.3,1.6-0.2,2.1-0.8c0.6-0.1,1.2-0.3,1.8-0.3c0.2,0,0.4-0.1,0.6-0.1c0.2,3.8,0.7,7.7,0.6,11.6
		C134.4,84.2,133.1,94,132.2,103.7L132.2,103.7z M132.2,103.7"/>
	<path fill="#413F3F" d="M91.4,59.6c-9-3.1-22.6-0.4-32-0.2c-1.6,0-21.7-0.9-19.3,3.5c2.4,4.5,19.5,2.2,23.8,2.3
		c8.2,0.1,19.7,2.4,27.6-0.3C94.1,64.1,94.1,60.6,91.4,59.6L91.4,59.6z M91.4,59.6"/>
	<path fill="#413F3F" d="M67.6,46c-2-2.6-6.6-1.8-9.5-1.8c-5.2,0-10.7-0.3-15.8,0.3c-2.7,0.3-2.7,3.8,0,4.1c4.4,0.5,9,0.3,13.5,0.6
		c3.5,0.2,7.3,1.3,10.8,0.7C68.5,49.7,68.6,47.3,67.6,46L67.6,46z M67.6,46"/>
</g>
</svg>
