<?xml version="1.0" encoding="utf-8"?>
<!-- Generator: Adobe Illustrator 18.1.0, SVG Export Plug-In . SVG Version: 6.00 Build 0)  -->
<svg version="1.1" id="Слой_1" xmlns="http://www.w3.org/2000/svg" xmlns:xlink="http://www.w3.org/1999/xlink" x="0px" y="0px"
	 viewBox="0 0 2270.7 1052.8" enable-background="new 0 0 2270.7 1052.8" xml:space="preserve">
<g>
	<path fill="#FDEED1" d="M1624.3,988.5c-12.5-1-26.6-5.3-39.8-13.8c-58.8-38.1-114.2-80.8-168.1-125.4c-36-29.8-71.3-60.5-106-92
		c-56.6-51.4-99.3-112-127.5-182.6c-12.2-30.5-19.8-63-24.8-95.5c-3.3-21.4-4.9-43.6-3.1-65.1c2.7-32.1,9.2-63.9,22.1-93.8
		c17-39.3,39.3-75.3,70.2-105.2c31.6-30.6,68-54.3,112.8-59.4c23.3-2.7,46.5-5.6,71-1c24.9,4.6,50.7,5.3,74.8,14.6
		c28.9,11.2,55.8,26,78.6,47.5c9.1,8.6,18.9,16.4,27.6,25.3c5.6,5.7,9,4.7,14.2-0.4c27.5-27.2,57.9-50.4,93.5-66
		c22.9-10.1,46.6-16.2,71.5-20.8c20.9-3.9,41.6-2.1,61.8-2.5c20.7-0.4,43,4.8,63.2,14c80.7,36.9,131.9,99.1,155,183.9
		c7,25.8,7.4,52.9,7.8,80.1c0.8,48-5.5,94.4-21.4,139.2c-16.8,47.3-41.6,90.5-72.8,130.3c-41.2,52.5-93.4,92.9-143.7,135.4
		c-53.4,45.1-107.8,89-163.7,131.1C1662.5,977.5,1647.2,988.6,1624.3,988.5z"/>
	<path fill="#918879" d="M1899,543.2c9-20.7,17.9-41.4,26.9-62.1c5.6-12.9,19.4-18.8,32.6-13.8c14.5,5.6,23.2,16.3,26.8,31.3
		c2.9,12,2.3,24,0.4,36.1c-3.7,24.1-12.7,46.4-24.9,67.4c-0.5,0.8-1,1.6-1.7,2.6c-20.6-19.1-41.1-38.1-61.9-57.4
		C1897.9,545.7,1898.4,544.4,1899,543.2z M1875.7,716.8c-10.6,10.8-21.2,21.6-31.9,32.4c-5.3,5.3-11,9.9-17.8,13.3
		c-14.8,7.3-29.4,5.6-43.1-2.3c-12.7-7.2-20.7-18.4-22.1-33.4c-0.6-6.2,0.8-12.1,3.3-17.7c2.7-6.1,6.3-11.5,11.3-16.1
		c17.1-15.8,33.9-31.9,50.9-47.8c1-0.9,2-1.9,3.2-3c21.5,18.3,43,36.5,64.9,55.1C1888.1,703.9,1881.9,710.4,1875.7,716.8z
		 M1926.8,709.4c-3.3-2.6-6.4-5-9.6-7.5c-41.2-32.2-80.4-66.7-118.8-102.1c-11.9-10.9-23.6-22-35.4-33c-10-9.4-12.3-20.8-8.7-33.6
		c2.1-7.6,6.5-14,11.8-19.7c5.5-6,11.2-11.8,18.1-16.3c7.2-4.7,14.9-7.7,23.7-7.3c5.1,0.3,9.5,1.7,13.5,5.2
		c27.4,24.2,55.3,47.8,82.3,72.3c24.5,22.2,48.2,45.3,72.2,68.1c0.7,0.6,1.2,1.4,1.9,2.2C1962.7,662.9,1945.7,686.6,1926.8,709.4z
		 M1634.5,292.1c-1.3,1-3.8,3.8-4.7,4.9c-2.6,3.1-5,6.2-7.7,9.2c-2.7,3.1-5.7,3.1-8.5,0c-0.6-0.6-1-1.3-1.6-1.9
		c-9.7-11.9-19.9-23.2-30.9-33.9c-21.8-21.2-45.9-39.1-73.3-52.5c-22.9-11.1-47-17.9-72.2-21.3c-20.8-2.8-41.5-2.9-62.2,0.5
		c-29.8,4.9-56.6,17-80.6,35.3c-22.7,17.3-41.1,38.7-56.9,62.3c-23.5,35.1-35.2,73.8-36.6,115.9c-0.3,9.8,0.1,19.6,1.1,29.4
		c1.4,61.1,33.7,134.2,84.2,214.4c10.1,13.1,20.2,26.2,30.3,39.3c16.5,20.9,32.7,39.1,48.2,52.8c17.1,17.2,35,33.4,53.9,48.7
		c67.3,54.6,136.7,106.3,207.8,155.7c1,0.7,2.1,1.3,3.2,2.1c0.9-0.6,1.7-1,2.5-1.6c34.4-24.7,69-49,103.1-74.1
		c39.5-29,78-59.1,115.6-90.5c24.5-20.4,47.2-42.8,68.4-66.6c0.8-0.9,1.5-1.9,2.3-3c-5.9-4.6-11.4-9-17.1-13.5
		c-0.9,0.9-1.5,1.4-2.1,2c-14.5,14.9-29,29.9-43.6,44.7c-5.7,5.8-11.6,11.5-18,16.3c-14.8,11-31.2,13.6-48.9,7.9
		c-17.2-5.5-29.3-16.7-36.7-32.9c-8.2-18-1.9-39,11.5-52.6c17.3-17.4,35.6-33.8,53.4-50.6c1.2-1.1,2.3-2.2,3.5-3.5
		c-1.5-1.4-2.7-2.5-4-3.7c-21.2-19.5-42.4-39-63.5-58.6c-7.8-7.3-11.6-16.6-12.3-27.2c-0.7-10.2,2.5-19.4,7.9-27.7
		c7.8-12.1,17.7-22.2,29.7-30.1c8.3-5.5,17.6-8.6,27.7-8.3c7.9,0.3,14.9,2.4,21.1,7.9c18.8,16.8,38,33.2,57.1,49.7
		c1,0.9,2.1,1.7,3.4,2.8c0.8-1.7,1.4-3,2-4.4c8.2-18.8,16.4-37.6,24.5-56.5c2.9-6.9,7.5-12.5,13.2-17.2c7.9-6.5,17.1-8.7,26.8-6.1
		c19.5,5.1,33.3,16.7,39.1,36.6c3.9,13.2,3.9,26.7,2,40.2c-2.9,21.5-9.6,41.8-19.5,61.1c-3.2,6.2-6.6,12.4-9.4,17.8
		c5.4,5.7,10.6,11.1,16,16.8c0.8-1.3,1.6-2.6,2.3-3.9c10.6-18.9,20.1-38.3,28.7-58.2c15.1-34.7,26.5-70.4,30.6-108.1
		c2.1-19.3,1.9-38.5-0.8-57.7c-0.2-1.7-0.6-3.3-1-5.8c-2-10-4.1-19.2-6.9-28.6c-3.7-17.7-22.3-59-34.4-71.8
		c-12.3-17.5-29.3-37-52.4-55.9c-10.6-10.5-37.9-26.8-54.3-32.1c-6-2.1-12.6-4.4-12.6-4.4s-3.2-0.9-3.8-1c-10-1.8-20-4.1-30.1-5.2
		c-14.3-1.5-28.6-1.1-42.9,0.6c-22.7,2.7-44.8,7.8-65.9,16.6c-33.9,14.2-63.1,35.3-89,61.3c-0.6,0.6-1.9,2.3-2.5,3
		C1643,282.6,1639.8,286,1634.5,292.1z M1189.4,435.6c-2.4-36.1,1.9-71.2,15.6-105c10.8-26.7,26.6-50.1,45.1-71.9
		c19.3-22.7,41.9-41.5,68.7-54.9c18-9,37-15.3,57-17.6c65.7-7.8,125.1,8.7,178.4,47.7c22.1,16.2,41.7,35.2,59.5,56
		c1.3,1.6,2.6,3.1,4.2,5c5.9-6.6,11.2-12.9,16.9-19c22.4-24.1,47.6-44.8,76.4-60.8c26.5-14.8,54.9-24.1,85-28.4
		c17-2.4,34.1-3.3,51.1-2c30.9,2.3,59.6,11.6,86,28.1c9.5,5.9,18.5,12.5,26.8,20c20.4,17.2,38.2,37,52.4,56.9c1,1.3,1.8,2.6,2.7,3.8
		c16.1,22.5,25.9,47.9,33.4,74.6c6.7,24,9.4,48.4,8.3,73.2c-1.6,39.6-11.7,77.2-26.3,113.8c-22,55.1-51.4,105.8-88.6,152
		c-27.3,34-58,64.7-91.6,92.3c-65.6,53.8-133.6,104.4-203.3,152.8c-16.5,11.4-10.9,7.7-14.2,10c-4.3,3-5.2,3-9.6-0.1
		c-29-20.6-58.1-41-86.9-61.9c-44.3-32.2-87.7-65.6-129.9-100.4c-13.6-11.2-26.4-23.4-39.6-35.2c-0.8-0.7-1.6-1.5-2.6-2.4
		c-22.6-21-42.9-42.3-59.2-64.1c-0.3-0.4-0.6-0.8-0.9-1.2c-11.1-14.8-22.3-29.6-33.4-44.4C1221.6,574.2,1191.5,501.1,1189.4,435.6z"
		/>
	<path fill="#FCEED2" d="M1978.2,637.4c-15.2,25.1-32.2,48.8-51.1,71.6c-3.3-2.6-6.4-5-9.6-7.5c-41.2-32.2-80.4-66.7-118.8-102.1
		c-11.9-10.9-23.6-22-35.4-33c-10-9.4-12.3-20.8-8.7-33.6c2.1-7.6,6.5-14,11.8-19.7c5.5-6,11.2-11.8,18.1-16.3
		c7.2-4.7,14.9-7.7,23.7-7.3c5.1,0.3,9.5,1.7,13.5,5.2c27.4,24.2,55.3,47.8,82.3,72.3c24.5,22.2,48.2,45.3,72.2,68.1
		C1976.9,635.9,1977.5,636.6,1978.2,637.4z"/>
	<path fill="#FCEED2" d="M1894.7,697c-6.3,6.6-12.5,13.1-18.8,19.4c-10.6,10.8-21.2,21.6-31.9,32.4c-5.3,5.3-11,9.9-17.8,13.3
		c-14.8,7.3-29.4,5.6-43.1-2.3c-12.7-7.2-20.7-18.4-22.1-33.4c-0.6-6.2,0.8-12.1,3.3-17.7c2.7-6.1,6.3-11.5,11.3-16.1
		c17.1-15.8,33.9-31.9,50.9-47.8c1-0.9,2-1.9,3.2-3C1851.3,660.1,1872.8,678.4,1894.7,697z"/>
	<path fill="#FCEED2" d="M1897.6,546.9c0.6-1.5,1.1-2.8,1.7-4c9-20.7,17.9-41.4,26.9-62.1c5.6-12.9,19.4-18.8,32.6-13.8
		c14.5,5.6,23.2,16.3,26.8,31.3c2.9,12,2.3,24,0.4,36.1c-3.7,24.1-12.7,46.4-24.9,67.4c-0.5,0.8-1,1.6-1.7,2.6
		C1938.8,585.2,1918.4,566.2,1897.6,546.9z"/>
</g>
<g>
	<path fill="#FCEED2" d="M1543.9,868.9c-14.6,0-29.2-6.8-42.3-19.5c-2.2-2.2-4.5-4.4-6.6-6.6c-1.7,4.9-5,10.9-11.8,15
		c-4,2.4-8.6,3.6-13.2,3.6c-10,0-19.7-5.8-24.6-14.8c-0.6-1.1-1.2-2.3-1.7-3.5c-10.8,10.8-24.5,18.9-37.7,22.1
		c-3.7,0.9-7.5,1.4-11.3,1.4c-10.1,0-19.2-3.2-26.3-9.3c-3.7-3.2-6.7-6.9-9-11.1c-3.2,2.9-6.6,5.4-10.1,7.6
		c-4.2,2.6-8.3,4.4-11.8,5.9c-0.8,0.3-1.6,0.7-2.3,1c-8.1,3.6-15.6,5.3-22.9,5.3c-1,0-2,0-2.9-0.1c-9.3-0.6-17.9-4.3-24.1-10.5
		c-3.4-3.4-6.1-7.6-8.1-12.3c-0.1,0.1-1.1,0.5-1.1,0.5c-12.7,5.9-25,9.9-36.5,11.7l-31.6,5.1c-0.1,0-0.1,0.1-0.2,0.1
		c-1.7,0.7-4.4,1.9-7.9,2.7c-2,0.4-4,0.6-6,0.6c-8.4,0-16.7-3.6-22.6-9.9c-12.3-12.9-10-30-8.8-38.1c0.2-1.2,0.3-3.2,0.5-5.7
		c-0.2-0.2-0.5-0.5-0.7-0.7c-3.6-3.9-6-8.7-6.7-13.7c-1-6.3,0.6-12.9,4.4-18.4c0.4-0.6,0.8-1.1,1.3-1.7l0,0c-0.1-1-0.3-2-0.4-3
		c-8-0.7-14.4-3.2-19.6-7.6c-10.9-9.2-13.5-25.5-5.7-37c5.1-7.6,13.1-11.9,24-12.9c3.3-0.3,6.7-0.5,10.2-0.5c12.9,0,25,2,36.7,3.9
		l2.7,0.4c8.3,1.4,16.6,3,24.5,5c1.2,0.3,2.4,0.6,3.7,0.9l0.4,0.1c6.9,1.6,14.6,3.4,22.1,6.8c7.1,3.2,12.7,8.3,16.1,14.5
		c5.3,9.5,5,20.6-0.4,30c2.6,1,4.9,2.3,7.1,3.8c0.3-0.8,0.6-1.5,0.9-2.3c3.1-7.7,7.1-13.8,10.9-19.5c8.9-13.1,22.8-20.9,37.4-20.9
		h0.2l6,0.5l0.2,0c10.7,1.6,21,7.4,29.1,16.1c2.1,2.3,4,4.6,5.8,7.1c0.1-0.2,0.3-0.4,0.4-0.6c7.7-11.1,19.2-19.2,31.4-22
		c3.2-0.7,6.3-1.1,9.4-1.1c12.6,0,21.8,5.9,28.5,11.3c-0.1-1.1-0.1-2.1-0.2-3.2c-0.6-8.6-1.5-21.7,6.4-33.6
		c3.6-5.5,8.6-9.5,14.2-11.7c3-1.1,6.2-1.7,9.4-1.7c6.9,0,13.4,2.6,18.1,7.4c7.8,7.8,7.7,17.8,7.7,21l-0.1,9.5c8.6-3.2,18-5,27.1-5
		c4.4,0,8.7,0.4,12.8,1.2c8.7,1.7,17.2,6,23.9,12.1c8.3,7.5,13.3,17.2,14.1,27.4c0.9,11.5-3.8,20.6-7.7,26.3
		c0.8,0.1,1.6,0.3,2.5,0.4c9.8,2.2,17.6,10.3,19.7,20.5c0.6,2.8,0.8,5.6,0.5,8.5c-0.2,2.8-0.8,5.5-1.8,8.5
		c-4.1,12.3-13.2,22.5-24.9,28C1557.6,867.4,1550.8,868.9,1543.9,868.9z"/>
	<path fill="#918879" d="M1472,703.4c5.6,0,10.8,2.1,14.6,5.9c6.3,6.4,6.2,14.4,6.2,17.4l-0.2,17.3c9.7-4.9,21.1-7.7,32.2-7.7
		c4.1,0,8.1,0.4,11.8,1.1c7.8,1.5,15.4,5.4,21.5,10.9c7.3,6.6,11.8,15.2,12.5,24.1c1,13.1-6.3,22.6-9.8,27.1c-1.5,1.9-3,3.7-4.7,5.4
		c2.7-1.2,5.6-1.8,8.6-1.8c1.5,0,3.1,0.2,4.5,0.5c7.9,1.8,14.2,8.3,15.9,16.6c0.5,2.3,0.6,4.7,0.4,7.1c-0.2,2.4-0.7,4.8-1.6,7.3
		c-3.7,11-11.8,20.1-22.3,25.1c-5.7,2.7-11.7,4.1-17.9,4.1c-13.3,0-26.7-6.3-38.9-18.1c-4.4-4.3-8.8-8.8-12.9-13.2
		c-0.2,0.9-0.3,1.8-0.5,2.7c-0.6,3.5-2.2,12.9-11.1,18.2c-3.2,1.9-6.9,2.9-10.7,2.9c-8.2,0-16.2-4.8-20.2-12.2
		c-2.2-4.1-3.1-8.2-3.3-11.8c-0.9,1.2-1.8,2.3-2.8,3.4c-10.5,12-25.1,21.1-38.8,24.4c-3.3,0.8-6.7,1.2-10.1,1.2
		c-8.9,0-16.9-2.8-23.1-8.1c-5.6-4.8-8.8-10.5-10.5-16.1c-4.3,4.8-9.2,8.9-14.5,12.2c-3.9,2.4-7.8,4.1-11.2,5.6
		c-0.8,0.3-1.6,0.7-2.4,1c-7.4,3.3-14.2,4.9-20.9,4.9c-0.9,0-1.7,0-2.6-0.1c-8.1-0.5-15.6-3.7-20.9-9c-4.1-4.1-7.1-9.5-8.6-15.8
		c-1.9,1-3.8,1.9-5.5,2.7l-0.7,0.3c-12.3,5.7-24.1,9.6-35.2,11.3l-10,1.6l-11.6,1.9l-0.6,0.1l-10.1,1.6c-0.2,0.1-0.6,0.2-0.8,0.4
		c-1.6,0.7-3.9,1.7-6.9,2.4c-1.7,0.3-3.3,0.5-5,0.5c-7,0-14-3-19-8.3c-10.7-11.2-8.6-26-7.5-34c0.3-1.9,0.5-5.2,0.6-8.5
		c-0.7-0.6-1.4-1.3-2.1-2.1c-3-3.2-4.8-7-5.5-11.1c-0.8-5.1,0.5-10.4,3.5-14.8c0.5-0.8,1.1-1.5,2.4-2.9c-0.1-0.8-0.2-1.6-0.3-2.3
		c-0.3-2.5-0.7-4.9-1.1-7.1c-0.1,0-0.2,0-0.4,0c-8.5-0.1-15.1-2.2-20.2-6.6c-9.1-7.6-11.2-21-4.8-30.5c4.2-6.2,11-9.8,20.3-10.7
		c3.1-0.3,6.4-0.4,9.8-0.4c12.4,0,24.3,2,35.8,3.9l2.7,0.4c8.2,1.3,16.3,3,24.1,4.9c1.4,0.3,2.7,0.7,4.1,1
		c6.6,1.5,14.1,3.3,21.1,6.5c6.1,2.8,10.9,7.1,13.9,12.4c5.5,9.8,3.8,21.6-4.3,30.3c0.4,0.1,0.9,0.2,1.3,0.3
		c0.5,0.1,1.1,0.3,1.7,0.4c4.9,1.2,10.3,3.9,14.6,9.2c0.9-3,2-6.2,3.3-9.4c2.9-7.2,6.7-13.1,10.4-18.5c7.9-11.7,20.3-18.7,33.2-18.7
		h0l5.6,0.4c9.6,1.5,18.9,6.6,26.2,14.5c3.9,4.2,7,8.7,9.5,13.4c1.3-2.6,2.8-5.1,4.4-7.4c7-10.1,17.4-17.4,28.4-20
		c2.8-0.6,5.6-1,8.3-1c11.3,0,19.4,5.4,25.9,10.6c3,2.4,5.7,5.2,8.1,8.1c-0.1-5.3-0.4-10.6-0.7-16c-0.6-8.5-1.4-20,5.5-30.4
		c3.1-4.6,7.2-8,11.8-9.8C1466.8,703.9,1469.4,703.4,1472,703.4 M1472,693.4c-3.8,0-7.6,0.7-11.2,2c-6.7,2.5-12.4,7.2-16.6,13.6
		c-6.8,10.2-7.8,21-7.5,29.6c-6.2-3.6-13.7-6.4-23-6.4c-3.5,0-7,0.4-10.6,1.2c-11.6,2.7-22.6,9.6-30.7,19.2c-0.7-0.8-1.3-1.5-2-2.3
		c-8.8-9.5-20.2-15.8-32-17.6l-0.4-0.1l-0.4,0l-5.6-0.4l-0.4,0h-0.4c-16.2,0-31.7,8.6-41.5,23.1c-1.9,2.8-3.8,5.7-5.6,8.8
		c0.7-6.9-0.7-14-4.3-20.5c-4-7.2-10.4-12.9-18.4-16.6c-7.9-3.6-16-5.5-23-7.2l-0.1,0c-1.3-0.3-2.6-0.6-3.9-0.9
		c-8-2-16.4-3.7-24.9-5.1l-2.7-0.4c-11.9-2-24.2-4-37.5-4c-3.7,0-7.3,0.2-10.7,0.5c-15.5,1.4-23.7,9-27.7,15.1
		c-4.5,6.7-6.2,14.9-4.9,23.1c1.3,8,5.4,15.3,11.6,20.6c4.5,3.9,10,6.5,16.4,7.9c-3.5,6.1-4.8,13-3.8,19.7c0.9,5.7,3.4,11,7.2,15.5
		c-0.1,1.9-0.3,2.8-0.3,3.2c-1.2,9-3.8,27.6,10.2,42.3c6.9,7.3,16.5,11.4,26.2,11.4c2.4,0,4.7-0.2,7.1-0.7c3.8-0.8,6.7-2,8.6-2.8
		l8.8-1.4l0.6-0.1l11.6-1.9l10-1.6c11-1.8,22.6-5.3,34.5-10.6c1.9,3.5,4.2,6.6,6.9,9.3c7.1,7,16.8,11.2,27.3,11.9
		c1.1,0.1,2.2,0.1,3.2,0.1c8.1,0,16.2-1.9,25-5.8c0.7-0.3,1.5-0.6,2.2-1l0.1,0c3.5-1.5,7.9-3.4,12.5-6.3c2.2-1.3,4.3-2.8,6.3-4.4
		c2,2.7,4.3,5.2,6.9,7.4c8,6.9,18.2,10.5,29.6,10.5c4.2,0,8.4-0.5,12.5-1.5c12.1-2.9,24.6-9.7,35.1-18.8
		c6.1,9.3,16.7,15.2,27.7,15.2c5.6,0,11-1.5,15.8-4.3c5-3,8.5-6.9,10.8-10.7c0.5,0.5,1.1,1.1,1.6,1.6c14.1,13.7,29.9,20.9,45.8,20.9
		c7.7,0,15.2-1.7,22.2-5c12.9-6.1,22.9-17.4,27.5-31c1.1-3.4,1.8-6.5,2-9.7c0.3-3.4,0.1-6.7-0.6-9.9c-2.2-10.6-9.6-19.3-19.3-23
		c3.1-6,5.7-14,4.9-23.5c-0.9-11.4-6.5-22.3-15.8-30.7c-7.4-6.7-16.7-11.4-26.3-13.3c-4.4-0.9-9.1-1.3-13.8-1.3
		c-7.3,0-14.8,1.1-22,3.1l0-2.5c0-3.8,0.2-15.3-9.1-24.6C1488,696.6,1480.3,693.4,1472,693.4L1472,693.4z"/>
</g>
<path fill="#918879" d="M1338.1,835.9c-3.7,2.3-7.7,3.8-11.7,5.6c-4.5,2-9.4,3.5-14.4,3.5c-0.5,0-1,0-1.6,0
	c-3.9-0.3-7.9-1.7-10.7-4.4c-2.4-2.4-3.8-5.6-4.5-8.9c-2.2-9.9-0.3-19.6,2-29.3c1.4-5.6,3-11.4,5.2-16.8c2.3-5.7,5.4-10.5,8.8-15.5
	c4.6-6.8,11.8-11.7,20-11.7c1,0,2.1,0.1,3.1,0.2c6.5,1,12.4,4.7,16.9,9.6c7.4,8,11.9,18,11.2,28.9c-0.3,4.7-1.4,9.4-3.3,13.9
	C1355.1,821,1347.4,830.1,1338.1,835.9z M1332.3,771.4c-0.6,0-1.3,0.1-1.9,0.3c-3.7,1.1-7.5,4.5-10.2,7.1
	c-12.7,12.3-13.7,30.5-13.5,47.2c0,0.9,0.2,1.8,0.6,2.5c1.3,2.5,4.2,3.7,7,3.7c0.1,0,0.2,0,0.3,0c2.8-0.1,5.4-1.2,7.9-2.4
	c4.1-2,8.3-3.2,12-6c8.8-6.6,15.2-16.3,15.4-26.8c0.1-3.8-0.7-7.8-2.4-11.7C1345.1,780.4,1338.9,771.4,1332.3,771.4z"/>
<g>
	<path fill="#FCEED2" d="M422.8,876c-5.4,0-10.5-1.7-14.8-4.8c-5.1-3.8-8.6-9.5-9.7-15.8c-4.9,2.3-10.3,4.2-16.3,5.3
		c-3.1,0.6-6.3,0.8-9.5,0.8c-11.1,0-22.1-3.4-31.2-9.6c-7.5-5.1-13.5-11.8-17.4-19.4c-3.6-7-5.8-14.5-6.8-22.4
		c-0.4-3.3-0.6-6.6-0.5-9.8c-1.1-1.9-2-3.9-2.6-6.1c-2.3-8.1-1.1-17,3.2-24.2c-1.9-2.3-3.5-4.8-4.6-7.7c-3.6-9.5-1.7-20.6,4.9-28.5
		c7.3-8.6,17.3-10.9,21.6-11.8c17.3-3.9,36.4-5.8,58.5-5.9l2.1,0c8.9,0,16.7,0.2,24.1,0.6c4.4,0.3,9.1,0.8,14.2,3.1
		c7.4,3.4,12.9,9.7,15.2,17c8.3,0.5,15.8,4.3,21.4,10.8c3.2-2.4,5.9-4.3,8.5-6.1c2.2-1.4,7.2-4.8,13.9-5.9c1.5-0.2,2.9-0.4,4.4-0.4
		c10.6,0,20.4,6.3,24.8,16.1c0.4,0.9,0.8,1.8,1.1,2.7c4.5-6.3,12.8-15.1,26.8-17.3c2-0.3,4-0.5,6-0.5c13.3,0,26.5,6.9,34.9,17.7
		c0-0.5,0-1,0.1-1.6c0.1-3.5,0.1-7,0.1-10.7c0-5.4,0-11,0.3-16.7c0.2-3.7,0.8-8.6,3.8-13.7c4.7-8.1,13.1-13,22.7-13
		c8.1,0,16.2,3.6,21.7,9.5c4.8,5.2,7.7,11.9,8.5,19.5c0.5,4.6,0.1,8.8-0.2,11.9l0,0.5c-0.6,6.7-1,13.8-1.4,23.2
		c-0.3,7.9-1,15.5-1.7,23l-0.2,2.3c-0.1,0.9-0.2,1.8-0.2,2.8c2.4-0.9,4.9-1.5,7.3-1.8c0.4-3.1,0.7-6.1,0.9-8.9
		c0.2-2.5,0.2-4.7,0.1-6.7c0-0.1,0-0.3-0.1-0.5c-0.5-3.6-2-14.2,6.2-23.3c5.4-5.9,13.7-9.5,22.3-9.5c8.1,0,15.3,3.1,20.4,8.8
		c4.6,5.1,7,11.6,7.4,19.3c0.2,3.9-0.2,7.4-0.6,10.4c2.4-2.7,4.6-5.4,6.4-7.6c1.9-2.5,3.6-5.2,5-8c0.1-0.2,0.2-0.4,0.2-0.7
		c4-11.6,11.3-18.3,21.6-20l0.4-0.1l0.4-0.1c1.1-0.1,2.3-0.2,3.4-0.2c12.5,0,23.8,8.6,27.2,20.4c2.5-4.4,5.8-8.4,9.8-11.8
		c9.4-8.1,20.4-11.7,29.9-14.2c5.3-1.4,11.1-2.7,17.7-2.7c1.8,0,3.5,0.1,5.2,0.3c6.3,0.7,13.4,3.1,19.6,6.8
		c-1.9-4.1-2.8-8.7-2.3-13.4c1-9.8,6.8-16.8,10.3-21c0.5-0.6,1.2-1.4,1.4-1.7l6-8.1c0.1-0.2,0.3-0.6,0.5-0.8
		c2-3.3,5.3-8.8,11.4-12.5c3.7-2.2,8-3.4,12.3-3.4c5.4,0,9.7,1.7,12.4,3c19.3,9.1,19,24.7,18.4,29.3c-0.2,1.9-0.7,3.9-1.4,5.8
		c-2.2,6.3-6.2,10.5-9.4,13.4c-3.6,3.3-7.2,6.2-10.7,9c0,0-1,0.8-1.1,0.8c0.9,0.7,1.8,1.4,2.6,2.2c2.5,2.4,4.2,5.1,5.3,7.5
		c0.5-0.7,1.1-1.3,1.7-1.9c5.2-5.3,12.2-8.2,19.9-8.2c5.2,0,10.3,1.4,14.9,3.9c6.8,3.8,10.9,9.3,14.1,14.2
		c4.1,6.3,7.3,12.2,9.7,17.8c0.6,1.3,1.1,2.6,1.5,3.9c1.1-1.9,2.2-3.8,3.2-5.6c2.8-5.1,5.9-10.8,7.8-16c3.6-10.1,9.3-19.2,16.9-26.9
		c5.2-5.3,11.9-8.2,18.9-8.2c1.2,0,2.4,0.1,3.6,0.3c8.2,1.2,15.3,6.6,19,14.1c1.6-1.1,3.2-2.2,4.9-3.2c5.4-3.2,11.6-4.9,17.9-4.9
		c10.3,0,20.3,4.3,27.6,11.9c8.4,8.7,12.4,20.9,10.5,32.5c-1.3,7.9-4.5,15.8-9.3,22.7c11.2,4.8,17.8,17.4,15.5,30
		c-1.5,7.9-5.7,13.4-9.2,17.3c-10.1,11.3-22.1,18.9-34.6,21.9c-4,1-8.1,1.4-12.2,1.4c-13.5,0-26.1-5.2-34.7-14.4
		c-5.7-6-9.5-13.4-11.4-21.9c-2.9,4.4-6,8.5-9.1,12.2c-0.4,0.4-0.7,0.9-1.1,1.3c-2.7,3.2-6.3,7.6-11.4,11.2
		c-5.4,3.8-11.6,5.7-17.9,5.7c-2.5,0-5.1-0.3-7.5-1c-7-1.9-11.5-5.7-14.1-7.9c-0.2-0.2-0.5-0.4-0.7-0.6l-0.1-0.1l-3.2-3.1l-0.3-0.4
		c-3.2-4.6-5.6-9.3-7.5-13.4c-3.3,3.1-6.7,5.6-9.4,7.5l-1.1,0.8c-5.2,3.8-10.8,7.3-16.6,10.7c-5.1,2.9-12.1,6.3-20.6,6.3
		c-2.7,0-5.3-0.3-7.9-1c-6-1.6-11.6-5.2-15.9-10.2c-1.4,1.2-3,2.3-4.5,3.3c-11.3,7.1-22.8,7.5-31.2,7.8c-2.1,0.1-4,0.1-5.7,0.3
		l-5,0.4l0-0.4c-1.8,0-3.8,0.1-5.8,0.1c-7.6,0-13.9-0.4-19.9-1.1c-4.9-0.6-10.5-1.7-16.2-4.6c-6.8,3.1-13.9,4.8-20.8,4.8
		c-3.6,0-7.2-0.5-10.6-1.3c-9.1-2.4-17.1-7.8-23-15.5c-6,5.4-14.9,13-26.9,15.2c-1.9,0.4-3.9,0.5-5.8,0.5c-8.7,0-17.1-3.5-23.6-9.8
		c-0.9-0.9-1.7-1.8-2.4-2.9c-5.2,3.7-9.8,6.4-14.6,8.6c-5.6,2.6-13,5.5-21.4,5.5c-4.1,0-8.1-0.7-11.8-2.2
		c-7.2-2.8-13.4-8.1-17.8-14.8c-0.5,0.5-1.1,0.9-1.6,1.4c-8.4,7-19.3,12.3-30.7,15.1c-4.6,1.1-9.3,1.7-13.8,1.7
		c-6.2,0-12.2-1.1-17.7-3.1c-2.1-0.8-4-1.8-5.7-3.1c-3.8,2.9-8.3,4.9-13.2,6c-2.6,0.6-5.4,0.9-8.1,0.9c-2.8,0-5.5-0.3-8.2-0.9
		c-14.6-3.2-24.9-12.4-33.5-22.8c-2.8,3.5-5.9,7.3-9.6,11.5c-2.3,2.6-4.6,5.2-6.7,7.6c-1,1.1-1.9,2.1-2.7,2.9
		c-0.7,0.7-1.7,1.8-2,2.1c-1.5,2.1-4.6,6.4-9.9,9.7C432.3,874.7,427.6,876,422.8,876z M503.2,796.1c1.1,1.3,2.1,2.6,3.1,3.8
		c1.2,1.5,2.4,3,3.5,4.4c-0.5-3.7-0.5-7.3,0.3-10.8c0.3-1.3,0.6-2.6,1-3.9C508.7,791.5,506.1,793.6,503.2,796.1z M771.8,791.2
		c-1.7,3.7-2.8,7.1-3.3,10.4c1.6-0.3,3.2-0.5,4.8-0.5l0.5,0c0.3,0,0.6,0,0.9,0C773.3,797.9,772.3,794.6,771.8,791.2z"/>
	<path fill="#918879" d="M899,684.8c4.4,0,8,1.4,10.3,2.5c15.8,7.5,16.2,19.4,15.6,24.2c-0.2,1.6-0.6,3.1-1.1,4.7
		c-1.8,5.2-5.1,8.7-8.1,11.4c-3.5,3.2-7,6-10.4,8.7l-1,0.8c-0.8,0.6-1.6,1.4-2.5,2.2c-1,0.9-2.1,1.8-3.2,2.8c3.1,1,5.8,2.6,7.9,4.7
		c5.5,5.3,6.2,12,6.4,14.2c1.1,10.4-0.1,20.1-1.4,28.3c-0.3,1.8-0.6,3.6-0.8,5.5c1.8-1.2,4.4-2.7,7.7-3.5c1.7-0.4,3.5-0.7,5.3-0.7
		c0.4,0,0.7,0,1.1,0c-0.1-0.1-0.2-0.2-0.3-0.4c-0.4-0.4-0.7-0.9-1.1-1.3c-2-2.4-4.7-5.6-6.7-10c-4.1-9.4-2.6-19.8,4-26.6
		c4.2-4.3,10-6.7,16.3-6.7c4.3,0,8.6,1.1,12.4,3.3c5.8,3.3,9.4,8,12.3,12.6c3.9,6.1,7,11.7,9.3,17.1c2.1,5.1,3.3,9.9,4.3,14.3
		c3.4-5.1,6.5-10.3,9.4-15.6c2.9-5.2,6.1-11.2,8.1-16.7c3.4-9.4,8.7-17.9,15.8-25c4.3-4.3,9.7-6.7,15.3-6.7h0c1,0,1.9,0.1,2.8,0.2
		c7.7,1.1,14.2,6.9,16.4,14.6c0.3,1,0.5,2,0.7,3c3-2.7,6.4-5.2,10-7.4c4.6-2.8,9.9-4.2,15.4-4.2h0c8.9,0,17.7,3.8,24.1,10.4
		c7.4,7.6,10.8,18.2,9.2,28.3c-1.5,9.6-6.2,18.9-13.1,26.5c1.9,0.1,3.8,0.5,5.6,1.2c9.8,3.5,15.7,14.2,13.7,25
		c-1.2,6.7-4.9,11.5-8,14.9c-9.4,10.6-20.5,17.6-32,20.4c-3.6,0.9-7.3,1.3-11,1.3c-12.1,0-23.4-4.7-31-12.8
		c-8-8.5-11.9-20-11.5-34.3c-2.5,4.7-5,8.9-7.7,12.9c-2.8,4.2-5.8,8.2-8.8,11.8c-0.4,0.5-0.8,0.9-1.1,1.4
		c-2.6,3.2-5.8,7.1-10.4,10.2c-4.6,3.2-9.8,4.9-15,4.9c-2.1,0-4.2-0.3-6.2-0.8c-5.9-1.6-9.7-4.8-12.2-6.9c-0.2-0.2-0.5-0.4-0.8-0.6
		L950,846c-4.4-6.4-7.5-13.1-10.1-19.8c-4.1,5.7-9.5,9.6-13.8,12.7c-0.4,0.3-0.8,0.6-1.2,0.8c-5,3.6-10.5,7.1-16.2,10.4
		c-4.6,2.6-10.8,5.6-18.1,5.6c-2.3,0-4.5-0.3-6.6-0.9c-6.8-1.8-12.7-6.5-16.5-12.9c-2.3,2.5-5,4.8-7.9,6.6
		c-10.2,6.4-20.5,6.7-28.7,7c-2.1,0.1-4.1,0.1-6,0.3l0-0.1c-3.4,0.1-6.9,0.2-10.4,0.2c-7.3,0-13.5-0.3-19.3-1.1
		c-5.1-0.7-11-1.8-16.6-5.4c-6.7,3.5-14,5.4-20.9,5.4c-3.2,0-6.3-0.4-9.3-1.2c-9.7-2.5-18-9.1-23.4-18.3c-0.7,0.7-1.5,1.4-2.3,2.1
		c-0.5,0.4-0.9,0.8-1.4,1.3c-5.9,5.3-14,12.5-25,14.5c-1.6,0.3-3.3,0.4-4.9,0.4c-7.4,0-14.5-3-20.1-8.4c-2.2-2.2-3.3-4.6-3.8-7.1
		c-0.3,0.2-0.5,0.4-0.7,0.6c-6.7,5.1-12.3,8.6-18,11.3c-5.1,2.3-11.9,5-19.3,5c-3.5,0-6.9-0.6-10-1.8c-8.1-3.2-14.7-9.9-18.3-18.5
		c-2,2.1-4,4.1-6.1,5.8c-7.8,6.5-18,11.5-28.7,14.1c-4.2,1-8.5,1.6-12.6,1.6c-5.6,0-11-0.9-15.9-2.8c-3.2-1.2-5.5-2.9-7.3-5.1
		c-3.8,3.9-8.8,6.6-14.4,7.9c-2.3,0.5-4.6,0.8-7,0.8c-2.4,0-4.8-0.3-7.2-0.8c-16.3-3.5-26.9-15.9-34.7-26c0,0,0,0,0,0
		c-3.7,4.9-7.9,10.1-13.3,16.3c-2.3,2.6-4.5,5.2-6.7,7.6c-0.9,1-1.8,1.9-2.5,2.7c-1,1-1.9,2-2.4,2.7c-1.4,2-4,5.6-8.4,8.3
		c-3.4,2-7.2,3.1-11,3.1c-4.3,0-8.4-1.3-11.8-3.9c-5.7-4.3-8.8-11.5-7.9-18.9c0-0.3,0.1-0.7,0.2-1c-6.3,3.4-13.6,6.9-22.1,8.4
		c-2.8,0.5-5.7,0.8-8.7,0.8c-10.1,0-20.1-3.1-28.3-8.7c-6.8-4.6-12.3-10.7-15.7-17.5c-3.3-6.5-5.4-13.4-6.3-20.7
		c-0.4-3.7-0.6-7.2-0.4-10.6c-1.2-1.8-2.2-3.8-2.9-6.1c-2.2-7.6-0.6-15.8,3.8-21.9c0-0.8,0.1-1.7,0.1-2.5c-2.3-2.1-4.2-4.8-5.4-8
		c-3-7.8-1.4-17,4-23.4c6.2-7.3,14.8-9.2,18.9-10.2c16.9-3.8,35.7-5.7,57.5-5.8c0.7,0,1.4,0,2,0c8.8,0,16.5,0.2,23.8,0.6
		c3.6,0.2,7.9,0.6,12.4,2.7c7.3,3.3,12.4,10,13.3,17.5c0.7,0,1.3-0.1,2-0.1c8.1,0,15.4,3.6,20.5,10.1c0.7,0.9,1.3,1.8,1.9,2.7
		c0.4-0.3,0.8-0.6,1.1-0.8c0.8-0.5,1.5-1.1,2.1-1.5c3.4-2.6,6.3-4.7,9.1-6.6c2-1.4,6.3-4.2,11.9-5.1c1.2-0.2,2.4-0.3,3.6-0.3
		c8.7,0,16.6,5.2,20.3,13.2c3.7,8.1,2.4,17.3-3.4,23.9c-2.3,2.7-4.9,4.4-6.5,5.5l-0.3,0.2c-3.9,2.7-7.9,5.8-12.5,9.9
		c-0.9,0.8-1.8,1.6-2.8,2.5c0.8,1,1.6,2.1,2.6,3.2c1.2,1.4,2.3,2.9,3.4,4.3c3,3.7,5.7,7.3,8.6,9.4c1.4,1,2.1,1.4,2.3,1.6
		c0.6,0.1,2,0.3,3,0.4c0.4,0,0.8,0.1,1.2,0.1c-2.3-7.5-3.8-14.3-2.4-19.9c0.9-3.9,2-7.7,3.4-11.5c2.7-7.7,6.2-15,10.4-21.9
		c2.9-4.7,10.6-17.1,26.3-19.6c1.7-0.3,3.5-0.4,5.2-0.4c14.1,0,28,8.7,34.7,21.7c2.2,4.3,3.6,9.1,4.1,14c0.4-7.9,0.8-16.1,1.1-24.3
		c0.1-3.5,0.1-7.1,0.1-10.9c0-5.3,0-10.8,0.3-16.4c0.2-3.1,0.7-7.3,3.1-11.5c3.8-6.6,10.6-10.5,18.4-10.5c6.8,0,13.5,2.9,18,7.9
		c4,4.4,6.5,10.1,7.2,16.7c0.4,4.1,0.1,7.9-0.2,10.9l0,0.5c-0.6,6.8-1,14-1.4,23.4c-0.3,7.7-1,15.3-1.6,22.7l-0.2,2.3
		c-0.3,3.5-0.5,7-0.6,10.7c0,0.4,0,0.7,0,1.1c5.3-3.7,10.5-5.5,15.7-5.5c0.5,0,1,0,1.5,0c0.1-0.5,0.1-1.1,0.2-1.6
		c0.5-4.2,1-8.1,1.2-11.9c0.2-2.8,0.2-5.2,0.1-7.5c0-0.2-0.1-0.5-0.1-0.8c-0.5-3.2-1.6-11.8,5-19.2c4.4-4.9,11.4-7.8,18.5-7.8
		c6.6,0,12.5,2.5,16.6,7.1c3.8,4.2,5.8,9.7,6.1,16.2c0.2,4.5-0.4,8.5-0.9,11.8c-0.2,1.5-0.4,2.9-0.5,4.1c-0.2,2.4-0.3,4.8-0.4,7.3
		c1.6-1.4,3.3-2.8,4.8-4.3c4.6-4.3,8.7-9.3,11.7-13.2c2.2-2.8,4.1-5.9,5.6-9.1c0.1-0.2,0.3-0.7,0.4-1.1c1.2-3.6,5-14.5,17.7-16.7
		l0.3-0.1l0.3,0c0.9-0.1,1.8-0.2,2.8-0.2c10.4,0,19.9,7.3,22.6,17.3c2.6,9.7-1.7,17.8-4,22.1c-4.2,7.9-6,15.3-5.4,21.9
		c2.7-1.1,6.1-2.2,10.2-2.3c0.1,0,0.3,0,0.4,0c0.3,0,0.6,0,1,0c2.3,0.1,3.6,0.6,4.3,1.4c0.8-1.1,1.9-1.9,3.5-2.4
		c-4.2-6.3-6.4-13.7-6.2-21.5c0.3-11.1,5.4-21.8,14-29.2c8.7-7.4,19-10.8,27.9-13.2c5-1.3,10.4-2.5,16.4-2.5c1.6,0,3.1,0.1,4.6,0.3
		c11.4,1.3,24.8,8.4,28.6,17.8l0.4-4.5c1-1.9,2.3-3.6,3.8-5c-0.7-0.4-1.4-0.8-2.1-1.3c-5.6-4-8.7-11-7.9-18.1
		c0.8-8.3,5.9-14.3,9.2-18.3c0.6-0.7,1.3-1.5,1.6-2l6.1-8.3c0.1-0.2,0.5-0.8,0.7-1.1c1.8-3.1,4.6-7.7,9.6-10.7
		C892.1,685.7,895.5,684.8,899,684.8 M863.7,797.2c0.3-3.1,0.5-6.3,0.8-9.5c0.2-2.2,0.4-4.5,0.6-6.6l1-9.1c-1.7,3.3-4,6.4-6.4,9.4
		c-3.4,4.1-7.9,6.7-12.9,7.5c5.4,2,10.9,4.5,16.1,7.8C863.2,796.9,863.5,797.1,863.7,797.2 M899,674.8c-5.3,0-10.4,1.4-14.9,4.1
		c-7.2,4.3-11,10.7-13.1,14.2l-0.1,0.1c-0.1,0.2-0.2,0.4-0.3,0.6l-5.8,8c-0.2,0.3-0.8,1-1.2,1.5c-3.9,4.6-10.3,12.4-11.5,23.7
		c-0.2,1.6-0.2,3.3-0.1,4.9c-3.9-1.4-7.9-2.3-11.6-2.8c-1.9-0.2-3.8-0.3-5.8-0.3c-7.1,0-13.3,1.4-18.9,2.8
		c-10,2.6-21.7,6.5-31.9,15.3c-2.1,1.8-3.9,3.7-5.7,5.7c-6-9.4-16.7-15.5-28.1-15.5c-1.3,0-2.7,0.1-4,0.2l-0.3,0l-0.2,0l-0.2,0
		l-0.3,0.1c-7.9,1.3-14.6,5.3-19.4,11.5c-3.7,4.8-5.4,9.7-6.1,11.8c-0.1,0.2-0.1,0.3-0.2,0.4c-0.5,0.9-1,1.9-1.5,2.8
		c-1-7-3.8-13.1-8.3-18.2c-6-6.7-14.6-10.4-24.1-10.4c-10,0-19.7,4.2-26,11.1c-1.2,1.3-2.2,2.6-3,3.9c0.2-3.6,0.5-6.9,0.8-10.2
		l0-0.5c0.3-3.3,0.7-7.7,0.2-12.9c-0.9-8.7-4.3-16.4-9.8-22.4c-6.4-7-15.9-11.1-25.4-11.1c-11.4,0-21.5,5.8-27.1,15.5
		c-3.5,6.1-4.2,12-4.4,15.9c-0.3,5.9-0.3,11.5-0.3,17c0,0.1,0,0.3,0,0.4c-8.6-6.8-19.3-10.8-30-10.8c-2.3,0-4.5,0.2-6.8,0.5
		c-11.3,1.8-19.4,7.5-24.9,13.2c-5.9-9.1-16.1-14.8-27-14.8c-1.7,0-3.5,0.1-5.2,0.4c-7.8,1.3-13.5,5-15.9,6.6
		c-1.7,1.1-3.4,2.3-5.3,3.7c-5.2-4.7-11.5-7.7-18.3-8.8c-3.2-7.3-9.1-13.5-16.8-17c-5.8-2.6-11.1-3.3-16-3.5
		c-7.4-0.4-15.4-0.6-24.4-0.6c-0.7,0-1.4,0-2.1,0c-22.5,0.1-42,2-59.6,6c-4.8,1.1-16,3.6-24.4,13.5c-7.8,9.2-10,22.3-5.7,33.5
		c0.9,2.3,2,4.4,3.3,6.4c-3.7,7.8-4.5,16.8-2.1,25.1c0.6,2.1,1.4,4.1,2.4,6c0,3,0.1,6.1,0.5,9.2c1,8.4,3.5,16.5,7.3,24.1
		c4.2,8.3,10.8,15.7,19,21.2c9.9,6.7,21.9,10.4,34,10.4c3.5,0,7-0.3,10.4-0.9c4.3-0.8,8.4-2,12.2-3.4c2,5.2,5.4,9.7,9.9,13.1
		c5.1,3.8,11.3,5.8,17.8,5.8c5.7,0,11.3-1.6,16.2-4.5c6.1-3.7,9.6-8.6,11.4-10.9c0.3-0.3,1-1.1,1.6-1.7c0.8-0.8,1.8-1.8,2.8-3
		c2.2-2.4,4.5-5,6.8-7.7c2.2-2.5,4.1-4.8,6-7c8.4,9.2,18.6,16.9,32.3,19.9c3,0.7,6.2,1,9.3,1c3.1,0,6.2-0.3,9.2-1
		c4.4-1,8.5-2.6,12.2-4.9c1.2,0.7,2.5,1.2,3.8,1.8c6.1,2.3,12.6,3.5,19.4,3.5c4.9,0,10-0.6,15-1.8c11.1-2.7,21.7-7.7,30.2-14.1
		c4.6,5.5,10.4,9.8,16.9,12.3c4.2,1.7,8.8,2.5,13.6,2.5c9.3,0,17.4-3.2,23.4-5.9c3.9-1.8,7.7-3.9,11.6-6.5c7.4,7.1,16.9,11,26.8,11
		c2.2,0,4.5-0.2,6.7-0.6c10.9-2,19.3-7.9,25.5-13.1c6.2,6.5,13.8,11.1,22.3,13.3c3.8,1,7.8,1.5,11.9,1.5c6.9,0,13.9-1.5,20.7-4.3
		c5.7,2.5,11.2,3.5,15.7,4.1c6.3,0.8,12.8,1.2,20.6,1.2c0.4,0,0.8,0,1.3,0l0.1,0.8l10-0.9c1.6-0.1,3.5-0.2,5.5-0.3
		c9-0.3,21.2-0.7,33.7-8.6c0.4-0.3,0.9-0.6,1.3-0.9c4.4,4,9.5,6.9,15.2,8.4c3,0.8,6.1,1.2,9.2,1.2c9.8,0,17.8-4,23.1-6.9
		c6-3.4,11.8-7.1,17.1-11c0.3-0.2,0.7-0.5,1-0.7l0.2-0.1c1.5-1.1,3.1-2.3,4.9-3.6c1.5,2.7,3.1,5.5,5,8.3l0.6,0.8l0.7,0.7l2.7,2.6
		l0.3,0.3l0.3,0.2c0.2,0.2,0.4,0.3,0.6,0.5l0.1,0.1c2.8,2.4,7.9,6.7,16,8.9c2.9,0.8,5.8,1.2,8.8,1.2c7.3,0,14.5-2.3,20.7-6.6
		c5.7-3.9,9.6-8.7,12.4-12.1l0.1-0.1c0.3-0.4,0.7-0.8,1-1.2c1.2-1.4,2.4-2.9,3.6-4.4c2.3,5.3,5.5,10.1,9.5,14.4
		c9.5,10.1,23.5,15.9,38.3,15.9c4.5,0,9-0.5,13.4-1.6c13.5-3.2,26.3-11.4,37.2-23.4c3.6-4.1,8.7-10.5,10.4-19.7
		c2.4-12.9-3.2-25.8-13.3-32.7c3.6-6.3,6.1-13.2,7.2-20.1c2.1-13.2-2.4-26.9-11.9-36.8c-8.2-8.5-19.6-13.4-31.2-13.4
		c-7.3,0-14.3,1.9-20.5,5.6c-0.2,0.1-0.5,0.3-0.7,0.5c-4.7-6.4-11.8-10.9-19.8-12c-1.4-0.2-2.9-0.3-4.3-0.3
		c-8.3,0-16.3,3.5-22.5,9.7c-8.1,8.2-14.2,17.9-18.1,28.7c-1.4,3.8-3.5,8-5.7,12c-2.1-4.2-4.6-8.6-7.6-13.2
		c-3.5-5.4-8.1-11.5-15.8-15.8c-5.3-3-11.3-4.6-17.3-4.6c-7.7,0-14.9,2.5-20.7,7.2c-0.4-0.5-0.8-1-1.2-1.4c2.4-2,4.9-4.1,7.5-6.4
		c3.6-3.3,8.1-8.1,10.7-15.4c0.8-2.2,1.3-4.5,1.6-6.8c0.7-5.4,1.1-23.9-21.2-34.4C911.7,677.4,906.1,674.8,899,674.8L899,674.8z"/>
</g>
<g>
	<path fill="#918879" d="M918.5,550.5c2.5-10.5,4.1-21.3,7.2-31.6c4.8-15.7-2.5-37.4-19.5-46.1c-7.7-4-16-7-24.1-10.1
		c-10.6-4.5-20.3-4.7-26.5-4.6c-6.2,0.1-14.4,2.2-21,4.9c-6.6,2.6-12.7,6.5-18.8,9.8c-23.1-20-51.4-26.5-73.2,6.2
		c-8.2-1.7-16.3-4.9-24.2-4.5c-8.1,0.4-16.1,4.3-24.7,6.9c-0.6-0.7-1.9-2.3-3.3-3.8c-12.2-12.1-26.4-16.6-42.9-10.7
		c-3.5,1.3-5.9,0.1-8.7-1c-7.7-3-15.2-6.4-23.1-8.6c-15.1-4.2-30.1-3.6-44.3,3.6c-7.3,3.7-14.1,8.2-21.9,12.7
		c-9.1-4.1-19.4-5.6-30.6-2.1c-4.8-19.2-16.9-30.3-35.7-32.1c-18.8-1.7-32.3,7.8-41.3,24.6c-31.7-15.1-61.8-16.4-89.4,9.2
		c-0.8-2.5-1.3-4.4-2-6.3c-5.4-16.6-17.1-26.4-34.1-28.4c-16.5-2-29.5,5.2-38.6,19.1c-1.7,2.5-2.6,5.6-3.9,8.3
		c-4.8,10.3-10.7,19.8-21.7,26.1c-0.8-4.5-1.2-8.2-2.1-11.9c-5.3-22-21.1-33.4-41-32.6c-24.7,1-41.6,21.9-38.2,46.3
		c0.9,6.1,1.8,12.2,2.3,18.4c2.1,25.5-3.1,50.2-9.2,74.7c-2.8,11.3-2.1,21.9,3.7,32c8,14.1,20.4,21.3,36.3,20.3
		c16.4-1.1,29.3-9,35.6-25.3c0.8-2,1.7-4,2.7-6.1c2.9,1.2,5,2.1,7.2,3c11.8,4.5,23.4,9.3,35.4,13.2c13.1,4.3,26.8,5.2,40.4,2.4
		c6.2-1.3,12.2-3.8,18.3-5.7c1.7,1,3.5,2.1,5.3,3c14.4,7.5,29.5,9.4,44.8,3.9c5.6-2,10-2.2,15.2,0.3c13.2,6.3,26.2,4.7,38.2-3.1
		c5-3.3,9.1-8,13.8-12.4c1.2,0.9,2.6,2,4,3c12.3,9.3,26.3,14.5,41.6,14.1c10.2-0.3,20.4-2.4,30.4-4.4c3.8-0.8,6.6-0.9,10.1,1
		c13.8,7.4,28.4,9.7,43.1,3.6c5.8-2.4,10.4-2.7,15.9,0c13.2,6.4,26.1,4.5,38.2-3c3.6-2.2,6.8-5.3,10.1-7.9
		c18.9,17.1,42.5,18.7,64.6-4.7c7.3,14.5,19.7,21.9,35.2,22.7c15.8,0.7,27.8-7.5,36.9-20.1c1.2,1,2,1.6,2.8,2.3
		c0.8,0.7,1.4,1.5,2.2,2.2c17.9,14.7,37.4,20.1,59.4,10.1c2.9-1.3,5-1,7.8,0.5c24,12.4,45.9-0.3,54.2-14.2c0.8-1.4,1.5-2.9,2.8-5.3
		C929.8,584,913.5,582.7,918.5,550.5z M899.3,619.7c-10.7,7-24.5,8-36.9-2.9c-0.4-0.3-0.8-0.6-1.8-1.2c-12.6,7.5-26.3,12.4-41.3,6.5
		c-14-5.5-24.1-15.1-29-31.9c-3.5,7-6.1,12.2-8.6,17.4c-3.8,8.2-10.2,13.4-18.6,16.3c-12.3,4.2-25-0.6-32.7-12.5
		c-3.8-5.8-6.9-12-10.3-18.1c-0.7-1.2-1.6-2.4-2.9-4.4c-2.6,5.4-5.3,9.7-7,14.4c-3.8,10.5-19.9,17.8-29,16.8
		c-11.5-1.3-21.4-9.3-24.8-21.2c-3.1-10.6-5.8-21.3-8.8-32c-0.4-1.4-1-2.7-1.9-4c-1,7.5,0.6,14.6,3,21.6c3.8,11.2,0.2,23.4-8.6,30.6
		c-10,8.2-23.5,9-34.4,1.9c-1.9-1.2-3.7-2.7-6.2-4.6c-18.9,12.3-37.8,12.2-56.1-2.3c-16.5,7.3-33.5,10.3-51.2,6.3
		c-18.4-4.2-29.6-17.3-39.1-32.8c1.9,14.6-2.1,26.6-15.4,33.3c-12.4,6.2-24.5,4-34.9-6.1c-9.3,5.8-19.3,8.6-30.1,8.1
		c-10.7-0.5-19.7-5.2-28.3-12.1c-2.2,1-4.5,1.9-6.7,3c-14.7,7.6-30.1,7.4-45.8,4.2c-18.1-3.7-34.5-11.4-50.4-20.4
		c-1.3-0.8-2.8-1.4-4.2-1.9c-0.7-0.3-1.5-0.4-3.1-0.7c-1.2,4.4-2.7,8.7-3.4,13.1c-2.5,16.8-21.7,25.8-32.3,23.6
		c-17.2-3.4-27.3-18-24.1-34.3c3.2-16.3,6.5-32.7,9.1-49.1c2.7-16.9,1.9-33.8-1.2-50.6c-3-16.8,6.8-31.4,23.1-34.3
		c15.5-2.8,30.3,7.3,33.1,22.8c1.5,8.6,2.4,17.3,3.7,26.7c10.9-3.2,20.2-8.5,28.1-16.6c7.5-7.7,11.6-17.5,16.4-26.8
		c6.2-12.1,19.3-18.3,32.2-15.3c12.1,2.8,21.3,14.6,21.5,27.8c0,2-0.3,4.1-0.9,6.1c-7.6,26.8-23.4,47.7-45.9,63.8
		c-1.8,1.3-3.6,2.6-6.1,4.4c7,4.4,14.1,5.1,21,6c1.5,0.2,3.4-1,4.7-2.1c5.3-4.4,11.4-6.9,18.6-8c2.4-9.2,4.4-18.7,7.3-28
		c6.6-21.4,16.7-40.3,38.2-50.5c11.4-5.4,23.2-6.4,35.4-3.8c13.5,2.8,24,7.5,36.6,16.1c0.6-2.3,1.4-4.3,1.7-6.4
		c2.4-15.4,14.8-25.6,30.1-24.9c15.4,0.7,25.6,12.9,26.8,27.8c0.1,1.8,0.1,3.5,0.2,6c15-1.9,30.2-7.9,43,3.8
		c7-5.3,13.2-10.8,20.1-14.9c13.2-7.8,27.7-9.5,42.3-4.7c10.2,3.3,20.1,7.7,30.7,11.9c9.3-6.1,19.5-6,30.1-1
		c11,5.1,13.5,15.8,16.7,27.8c1.7-3.2,2.6-4.7,3.4-6.2c6-11.1,16.8-16.8,29.5-15.4c12.4,1.4,19.8,9.1,23.7,20.4
		c1.6,4.5,2.6,9.2,4.3,15.1c3.5-5.3,3.7-9.1,1.7-13.8c-7.7-17.8,3.4-37.1,22.6-39.8c7.6-1,14.2,2.1,20.5,5.5
		c7.3,3.9,13.4,9.4,17.3,16.8c5.4-4.1,10.3-8.2,15.6-11.7c14.7-9.6,30.6-11,47.2-5.7c8.8,2.8,17.4,6.1,25.2,11.2
		c11.3,7.5,16.1,20.7,12.1,33.6c-4.2,13.8-7.4,27.8-8.2,42.2c-0.5,9-0.2,18.1,3.2,26.6C914.9,600.1,907.7,614.3,899.3,619.7z"/>
	<path fill="#FCEED2" d="M644.3,480.7c9.3-6.1,19.5-6,30.1-1c11,5.1,13.5,15.8,16.7,27.8c1.7-3.2,2.6-4.7,3.4-6.2
		c6-11.1,16.8-16.8,29.5-15.4c12.4,1.4,19.8,9.1,23.7,20.4c1.6,4.5,2.6,9.2,4.3,15.1c3.5-5.3,3.7-9.1,1.7-13.8
		c-7.7-17.8,3.4-37.1,22.6-39.8c7.6-1,14.2,2.1,20.5,5.5c7.3,3.9,13.4,9.4,17.3,16.8c5.4-4.1,10.3-8.2,15.6-11.7
		c14.7-9.6,30.6-11,47.2-5.7c8.8,2.8,17.4,6.1,25.2,11.2c11.3,7.5,16.1,20.7,12.1,33.6c-4.2,13.8-7.4,27.8-8.2,42.2
		c-0.5,9-0.3,18.1,3.2,26.6c5.7,14-1.4,28.1-9.9,33.6c-10.7,7-24.5,8-36.9-2.9c-0.4-0.3-0.8-0.6-1.8-1.2
		c-12.6,7.5-26.3,12.4-41.3,6.5c-14-5.5-24.1-15.1-29-31.9c-3.5,7-6.1,12.2-8.6,17.4c-3.8,8.2-10.2,13.4-18.6,16.3
		c-12.3,4.2-25-0.6-32.7-12.5c-3.8-5.8-6.9-12-10.3-18.1c-0.7-1.2-1.6-2.4-2.9-4.4c-2.6,5.4-5.3,9.7-7,14.4
		c-3.8,10.5-19.9,17.8-29,16.8c-11.5-1.3-21.4-9.3-24.8-21.2c-3.1-10.6-5.8-21.3-8.8-32c-0.4-1.4-1-2.7-1.9-4
		c-1,7.5,0.6,14.6,3,21.6c3.8,11.2,0.2,23.4-8.6,30.6c-10,8.2-23.5,9-34.4,1.9c-1.9-1.2-3.7-2.7-6.2-4.6
		c-18.9,12.3-37.8,12.2-56.1-2.3c-16.5,7.3-33.5,10.3-51.2,6.3c-18.4-4.2-29.6-17.3-39.1-32.8c1.9,14.6-2.1,26.6-15.4,33.3
		c-12.4,6.2-24.5,4-34.9-6.1c-9.3,5.8-19.3,8.6-30.1,8.1c-10.7-0.5-19.7-5.2-28.3-12.1c-2.2,1-4.5,1.9-6.7,3
		c-14.7,7.6-30.1,7.4-45.8,4.2c-18.1-3.7-34.5-11.4-50.4-20.4c-1.3-0.8-2.8-1.4-4.2-1.9c-0.7-0.3-1.5-0.4-3.1-0.7
		c-1.2,4.4-2.7,8.7-3.4,13.1c-2.5,16.8-21.7,25.8-32.3,23.6c-17.2-3.4-27.3-18-24.1-34.3c3.2-16.3,6.5-32.7,9.1-49.1
		c2.7-16.9,1.9-33.8-1.2-50.6c-3-16.8,6.8-31.4,23.1-34.3c15.5-2.8,30.3,7.3,33.1,22.8c1.5,8.6,2.4,17.3,3.7,26.7
		c10.9-3.2,20.2-8.5,28.1-16.6c7.5-7.7,11.6-17.5,16.4-26.8c6.2-12.1,19.3-18.3,32.2-15.3c12.1,2.8,21.3,14.6,21.5,27.8
		c0,2-0.3,4.1-0.9,6.1c-7.6,26.8-23.4,47.7-45.9,63.8c-1.8,1.3-3.6,2.6-6.1,4.4c7,4.4,14.1,5.1,21,6c1.5,0.2,3.4-1,4.7-2.1
		c5.3-4.4,11.4-6.9,18.6-8c2.4-9.2,4.4-18.7,7.3-28c6.6-21.4,16.7-40.3,38.2-50.5c11.4-5.4,23.2-6.4,35.4-3.8
		c13.5,2.8,24,7.5,36.6,16.1c0.6-2.3,1.4-4.3,1.7-6.4c2.4-15.4,14.8-25.6,30.1-24.9c15.4,0.7,25.6,12.9,26.8,27.8
		c0.1,1.8,0.1,3.5,0.2,6c15-1.9,30.2-7.9,43,3.8c7-5.3,13.2-10.8,20.1-14.9c13.2-7.8,27.7-9.5,42.3-4.7
		C623.8,472.2,633.7,476.5,644.3,480.7z M223.2,532.1c0-3.8,0.1-6.3-0.1-8.9c-0.9-11.8-1.5-23.6-2.8-35.3c-0.8-7-5.7-10.8-11.2-10
		c-5.8,0.9-9.2,5.9-7.9,12.7c5,27.8,3,55.3-2.9,82.7c-1.8,8-3.6,16-5.3,24.1c-0.9,4.6,1,8.3,4.8,10.4c3.5,1.9,8,1.6,10.7-1.3
		c1.6-1.8,2.9-4.3,3.5-6.7c2.8-11.5,5.2-23.1,7.8-34.6c0.4-1.6,0.9-3.2,1.5-5.3c3.9,2.4,7.2,4.3,10.5,6.3
		c19.1,11.7,38.7,22.5,60.5,28.4c8.5,2.3,17.1,3.4,25.9,2.1c8.8-1.3,16-5.3,21.4-12.5c3.8-5.2,3.7-10.2-0.2-13.8
		c-4.2-3.8-9.2-3.9-13.7,0.6c-5.9,5.9-12.9,7.3-20.6,6.3c-4.6-0.6-9.1-1.6-13.5-3c-15.1-4.6-28.8-12.3-42.4-20.2
		c-2.2-1.2-4.2-2.6-7.1-4.4c1.8-0.8,2.6-1.3,3.5-1.6c8.2-2.9,16.8-5,24.7-8.7c24.8-11.7,40.8-31.5,50.1-56.9
		c2.3-6.2,0.4-10.6-4.8-12.8c-5.6-2.4-9.9-0.4-12.9,5.9c-1.5,3.3-3,6.6-4.6,9.8C282.5,515.3,256.4,528.5,223.2,532.1z M718,542
		c1.4,3.1,2.1,4.6,2.7,6.2c3,7.4,5.7,14.9,9.1,22.1c5,10.2,10.2,20.2,15.9,29.9c5.1,8.7,13.8,8.1,18.7-0.7c0.4-0.7,0.7-1.4,1-2.1
		c12.1-24.3,20.9-49.8,27.5-76c1.3-5.2,2.6-10.5,3.6-15.8c1.6-8.7-9.6-20.2-18.5-18.9c-1.2,0.2-2.5,0.7-3.6,1.4
		c-5.5,3.4-6.4,10-1.6,15.2c2.1,2.2,3.7,4,2.6,7.3c-6.4,20.1-12.7,40.2-19.1,60.2c-0.4,1.2-1.6,2.2-2.8,3.9c-1.6-2.9-2.9-5.1-4-7.4
		c-7.9-16.5-14.3-33.6-19-51.3c-0.5-2-0.9-4.1-1.8-5.9c-3.4-6.8-11.8-7.6-16.4-1.6c-0.9,1.2-1.6,2.6-2.3,4
		c-4.9,10.5-9.6,21-14.5,31.5c-2.6,5.7-5.4,11.2-9,18.5c-1.3-4.3-2.2-6.7-2.8-9.1c-4.3-15.9-8.6-31.8-12.9-47.7
		c-0.5-1.7-0.8-3.5-1.6-5.2c-1.8-3.8-7-6.3-10.9-5.5c-4.2,0.9-7.6,5-7.5,9.6c0,2,0.6,4.1,1.1,6c7.1,26.6,14.3,53.1,21.5,79.7
		c0.5,1.7,0.9,3.5,1.7,5.1c3.6,7,12.6,7.6,17,1.1c0.9-1.3,1.3-2.8,2-4.2C702,576.1,709.6,559.8,718,542z M607.2,579.5
		c1.9,6.2,3.3,11.5,5.2,16.5c2.5,6.2,7.3,8.3,12.9,6.3c5-1.9,7.3-6.8,5.3-12.7c-5.4-15.2-5.8-30.8-3.1-46.4c2-11.6,5-23.1,7.5-34.6
		c1.4-6.4,0.3-9.8-5.4-12.9c-5.4-2.9-11-5.5-16.8-7.5c-20.7-7.1-39.1-0.1-49.7,19.2c-10.8,19.8-15.2,41.3-16.4,63.6
		c-0.2,3,0.5,6.1,0.8,9.2c1.6,15.5,21.2,29.4,38.7,18c5.5-3.6,10.3-8.4,15.4-12.7C603.4,583.9,605,581.9,607.2,579.5z M868.5,583.4
		c0.6,2.5,1.2,4.9,1.9,7.4c0.8,2.7,1.5,5.5,2.6,8.1c2.5,6.1,7.4,8.5,12.8,6.7c5.4-1.8,7.7-6.8,5.4-13.2c-4.8-13.7-5.7-27.7-3.4-41.8
		c2-12.4,4.9-24.7,7.8-36.9c1.9-8.1,1.1-11.4-6.2-15.2c-5.7-3-11.6-5.7-17.7-7.6c-18.6-5.8-34.8,0.2-45.7,16.3
		c-1.9,2.8-3.4,5.7-4.9,8.7c-7,14.5-10.5,30-12.6,45.9c-0.9,7.1-0.7,14.3-0.2,21.5c0.4,6,3.1,11.3,7.9,15.4
		c10.3,8.6,20.7,9.7,31.8,2.1C855.4,595.8,861.5,589.4,868.5,583.4z M410.2,577.9c0.9,3.1,1.4,5.5,2.2,7.8c1.2,3.6,2.2,7.5,4.1,10.8
		c3.3,5.9,11.7,6.4,15.7,1.2c2.4-3.1,2.7-6.5,1.3-10.2c-5.4-14.4-5.7-29.2-3.3-44.1c1.9-11.9,4.8-23.7,7.5-35.4
		c1.8-7.7,0.9-11.1-6.1-14.6c-6.9-3.4-14-6.6-21.4-8.5c-15.3-3.8-28.7,0.3-38.6,12.8c-3.9,5-7.7,10.5-9.8,16.4
		c-4.2,12.1-7.7,24.5-10.5,37c-2.2,9.5-2.9,19.3-0.6,29.1c3.2,13.2,14.7,21,28.2,19.5c7.6-0.8,13.7-4.3,19-9.3
		C402,586.7,405.7,582.5,410.2,577.9z M482.5,527.9c16-2.7,31.2-5.3,46.3-7.9c2-0.3,4.1-0.6,6-1.2c4.5-1.6,7.1-5.7,6.6-10.2
		c-0.5-4.2-3.4-7.5-8-8.2c-2-0.3-4.1,0-6.1,0.3c-10.4,1.7-20.8,3.5-31.2,5.2c-3.5,0.6-7,1.2-11.4,1.9c0.4-3.4,0.6-5.9,1-8.4
		c1-6.4,2.3-12.7,3-19c0.6-5.2-2.5-9.4-7.1-10.5c-5.1-1.1-9.7,1.5-11.3,6.8c-0.8,2.7-1.2,5.5-1.7,8.3c-1.2,6.9-2.4,13.9-3.6,21.2
		c-3.8-1.1-6.7-2.2-9.7-2.8c-6.6-1.3-11.9,3.2-11.7,9.8c0.2,4.7,3,7.5,7.2,9c4,1.4,8.1,2.8,11.8,4c0.3,7.3,0.4,13.5,0.9,19.6
		c0.8,10.6,2.8,21,7.8,30.4c7.1,13.4,17.7,22.3,33.4,22.6c7.6,0.2,15.3-1.4,22.8-2.9c6.2-1.3,8.9-6,7.6-11.4
		c-1.3-5.5-6.1-8.2-12.6-7c-3,0.6-6,1.4-9.1,1.7c-14.1,1.4-23.2-4.6-27.5-18.1C482.7,550.7,482,539.8,482.5,527.9z M528.2,557.8
		c1.1-6.1,2.2-12,3.4-18.9c-10.4,1.7-19.9,3.3-30.1,5c0.9,4.3,1.7,8,2.5,11.7c0.9,3.9,3.2,5.7,7.2,5
		C516.7,559.6,522,558.8,528.2,557.8z"/>
	<path fill="#918879" d="M1352.7,477.3c9.7-9,21.6-15.6,36.7-12.8c14.6,2.7,25.3,10.6,31.2,25.8c10.3-19.5,25.6-27.5,45.2-25.4
		c1-7.3,1.3-14.1,2.9-20.7c1.1-4.4,3.6-8.5,6-12.3c3.6-5.6,7.8-10.8,11.5-16.4c4.9-7.3,11.4-12.4,19.3-16
		c16.3-7.5,38.8-0.6,48.3,14.7c9.9,16.1,8.9,31.6-1.6,46.9c-2.3,3.4-4.6,6.7-6.9,9.9c2.9,4.6,5.6,8.6,8.2,12.7
		c4.4-3.5,8.4-7.2,12.9-10.1c11.9-7.7,24.9-10.7,39.1-8.4c12.5,2.1,24.8,5,35.5,12.1c18,11.9,27.7,29.1,30.2,50.5
		c2.8,23.7-11.4,68.8-30.1,86.8c-21.2,20.4-45.5,28.2-74.2,18.9c-2.7-0.9-5.3-1.7-8.7-2.8c-0.7,3.1-1.3,5.8-1.9,8.5
		c-4.2,18.3-9.6,35.9-24.2,49c-15.7,14-33.4,19.2-54.2,13.2c-15.5-4.5-28.6-12.7-40-23.7c-4.8-4.7-9.4-9.5-14-14.3
		c-10.8-11.4-17-24.4-13.4-41.6c-19.3,4-35.9-1.1-51.2-13.1c-11.8,15.5-26.7,25.9-45.7,29.6c-19.1,3.7-36.7-0.1-52.9-11.7
		c-19.5,11.6-37.2,8.7-53.8-7.4c-8.2,11.7-19.2,19.6-33.6,20.2c-14.1,0.6-26-5.2-34.9-17c-2,0.8-3.9,1.5-5.6,2.4
		c-14.4,8.2-30.2,11.7-46.5,13c-29.9,2.4-59.6-0.5-89-6c-8.9-1.7-17.9-5-25.9-9.4c-17.3-9.6-24.1-36.2-18.6-51.4
		c6-16.7,13.4-26.6,31.4-37.8c-0.2-1.6-0.4-3.3-0.8-5c-3.4-15.2,0.7-28.6,10.4-40.2c3.4-4.1,7.4-8,11.7-11.1
		c34.6-25.1,72.5-32.9,114-21.2c1.2,0.3,2.5,0.6,4.4,1.1c0.9-2.1,1.9-4,2.5-6.1c5-18.6,30.3-31.1,48.4-24.9
		c17.3,5.9,25.8,17.6,29.2,34.4c0.8,4,1.3,8,2.1,12.6c22.6-9.5,41.6-5,57.8,13.3c1.3-1,2.8-1.9,4-3.1c16.3-15.6,35.5-19.9,57.1-14.2
		C1334,470.9,1342.9,474.2,1352.7,477.3z M1407.6,546.2c0.4-6.2,0.5-11,1-15.7c0.9-8.4,2.4-16.8,3-25.2
		c1.2-18.6-15.6-32.9-33.8-29.2c-11,2.3-18.4,8.7-22.2,20.3c-8.7-9.1-19.4-13.1-30.7-16.1c-24.9-6.7-43.7,0.3-57.5,21.1
		c-1.5,2.2-2.9,4.4-4.7,7c-12.1-31.8-41-38.6-65.5-15.4c-1.6-10.4-2.8-20.6-4.8-30.7c-1-4.9-2.6-10.1-5.2-14.3
		c-6.1-9.9-15.8-13.7-27.1-12.3c-10.8,1.3-18.2,7.3-22.4,17.6c-2.6,6.6-2.5,13.3-1.3,21.1c-9.4-5.6-18.6-8.2-28.2-10.1
		c-32.3-6.3-62.4-1.1-89.8,17.4c-5.3,3.6-10.5,7.6-14.7,12.3c-8.5,9.5-12.4,20.6-8.5,33.5c1.4,4.8,3.4,9.4,5.2,14.3
		c-7.1-0.4-13.2,1.8-18.3,5.9c-7.5,6-13.5,13.4-17.3,22.4c-5.8,13.6-2.1,36.1,16.4,44.8c6.6,3.1,14.1,4.8,21.4,6
		c27.4,4.7,55,7.4,82.8,5.2c14.9-1.2,29.6-4.1,42.7-11.9c5-3,9.6-6.6,14.6-10.1c0.8,2.3,1.4,4.6,2.4,6.6c5.9,12.4,20.1,21,35.3,15.5
		c9.5-3.5,15-10.4,18.9-19.1c2.9-6.7,5.9-13.4,8.8-20c0.5-0.1,1-0.2,1.6-0.3c-1,14.2,3.1,25.8,16.1,32.2c13.7,6.7,25.3,1.7,35.6-8.1
		c2.5,2.3,4.5,4.3,6.6,6.2c6.7,6.1,14.7,9.2,23.6,10.3c25.9,3.2,45.5-7.2,60-28.2c2.4-3.4,4.5-7,7.2-11.2
		c7.7,14.3,19.2,22,34.2,23.4c14.7,1.4,27.6-4.4,40-12.1c2.1,1.8,4.1,3.3,6.4,5.3c-1.7,1.1-2.9,2-4.2,2.8
		c-14.5,8.2-19.8,30.4-6.5,43.8c6.5,6.6,12.6,13.6,19.2,20c9.2,8.8,19.7,15.4,32.1,19.1c18.3,5.4,35.5,0.5,48-14
		c11.6-13.4,15.7-29.7,18.5-46.5c1.2-7,1.7-14,2.7-22.1c2.3,2.3,3.7,3.8,5.1,5.2c7,6.9,15.2,11.4,25,12.7
		c20.4,2.6,38.4-2.7,52.6-17.9c18.9-20,27.2-44.7,27.9-71.6c1.1-40.5-32.5-61.2-67.1-59.6c-16.5,0.8-27.9,10.8-36.6,24.1
		c-2.9,4.5-5.4,9.3-8.5,14.6c-1.2-8.3-2-16-3.6-23.4c-1.7-8.2-8.4-13.1-14.6-18.1c5.1-7.2,9.8-14,14.5-20.7c3.7-5.2,5.6-11,5.3-17.4
		c-0.6-12.7-8.6-22.8-21-26.6c-10.9-3.3-23.4,0.9-30.8,10.7c-5,6.6-9.7,13.3-14.3,20.1c-9,13.1-6.2,29.9,6.7,39.7
		c1.4,1,2.6,2.2,3.3,2.7c-2,6.4-3.8,12-5.8,18.4c-1.3-3.2-2.1-5.3-2.9-7.5c-5.1-13.5-22.1-18.9-33.3-15.6
		c-10.1,3-16.9,9.6-20.1,19.6c-3.3,10.5-6.4,21.1-9,31.9C1420.1,536.3,1415.5,541.2,1407.6,546.2z"/>
	<path fill="#918879" d="M223.2,532.1c33.2-3.6,59.3-16.7,74.9-46.7c1.7-3.2,3.1-6.5,4.6-9.8c3-6.3,7.3-8.3,12.9-5.9
		c5.2,2.2,7.1,6.6,4.8,12.8c-9.3,25.5-25.4,45.2-50.1,56.9c-7.8,3.7-16.4,5.9-24.7,8.7c-0.9,0.3-1.7,0.8-3.5,1.6
		c2.9,1.8,4.9,3.2,7.1,4.4c13.6,7.8,27.2,15.6,42.4,20.2c4.4,1.3,9,2.4,13.5,3c7.7,1,14.7-0.4,20.6-6.3c4.5-4.5,9.5-4.4,13.7-0.6
		c3.9,3.6,3.9,8.6,0.2,13.8c-5.3,7.2-12.6,11.2-21.4,12.5c-8.8,1.3-17.4,0.2-25.9-2.1c-21.9-5.9-41.4-16.7-60.5-28.4
		c-3.3-2-6.6-3.9-10.5-6.3c-0.6,2.1-1.1,3.7-1.5,5.3c-2.6,11.5-5,23.1-7.8,34.6c-0.6,2.4-1.8,4.9-3.5,6.7c-2.7,2.9-7.2,3.2-10.7,1.3
		c-3.8-2.1-5.7-5.8-4.8-10.4c1.6-8.1,3.5-16.1,5.3-24.1c6-27.4,8-54.9,2.9-82.7c-1.2-6.9,2.1-11.8,7.9-12.7c5.6-0.9,10.5,3,11.2,10
		c1.3,11.7,2,23.5,2.8,35.3C223.3,525.7,223.2,528.3,223.2,532.1z"/>
	<path fill="#918879" d="M718,542c-8.4,17.9-16,34.2-23.7,50.4c-0.7,1.4-1.1,2.9-2,4.2c-4.4,6.5-13.4,5.9-17-1.1
		c-0.8-1.6-1.2-3.4-1.7-5.1c-7.2-26.6-14.4-53.1-21.5-79.7c-0.5-2-1.1-4-1.1-6c-0.1-4.6,3.2-8.6,7.5-9.6c4-0.9,9.2,1.6,10.9,5.5
		c0.7,1.6,1.1,3.4,1.6,5.2c4.3,15.9,8.6,31.8,12.9,47.7c0.7,2.4,1.5,4.8,2.8,9.1c3.5-7.2,6.3-12.8,9-18.5c4.9-10.5,9.6-21,14.5-31.5
		c0.6-1.4,1.3-2.8,2.3-4c4.7-6,13.1-5.2,16.4,1.6c0.9,1.8,1.3,3.9,1.8,5.9c4.7,17.7,11.1,34.8,19,51.3c1.1,2.3,2.4,4.4,4,7.4
		c1.3-1.7,2.4-2.7,2.8-3.9c6.4-20.1,12.7-40.2,19.1-60.2c1-3.3-0.5-5-2.6-7.3c-4.8-5.1-3.9-11.8,1.6-15.2c1.1-0.7,2.3-1.2,3.6-1.4
		c8.8-1.2,20,10.2,18.5,18.9c-1,5.3-2.3,10.6-3.6,15.8c-6.6,26.3-15.4,51.7-27.5,76c-0.3,0.7-0.6,1.4-1,2.1
		c-5,8.8-13.6,9.3-18.7,0.7c-5.8-9.7-11-19.8-15.9-29.9c-3.5-7.1-6.1-14.7-9.1-22.1C720.1,546.6,719.4,545,718,542z"/>
	<path fill="#918879" d="M607.2,579.5c-2.2,2.4-3.7,4.4-5.6,6c-5,4.4-9.8,9.1-15.4,12.7c-17.5,11.4-37.1-2.5-38.7-18
		c-0.3-3.1-0.9-6.2-0.8-9.2c1.2-22.3,5.6-43.8,16.4-63.6c10.5-19.3,29-26.4,49.7-19.2c5.8,2,11.4,4.6,16.8,7.5
		c5.7,3.1,6.8,6.5,5.4,12.9c-2.5,11.5-5.5,23-7.5,34.6c-2.7,15.6-2.4,31.2,3.1,46.4c2.1,5.9-0.3,10.8-5.3,12.7
		c-5.6,2.1-10.4,0-12.9-6.3C610.4,591,609.1,585.8,607.2,579.5z M614.1,510.1c-16.6-9-28-5.6-35.9,10.4c-0.2,0.5-0.4,0.9-0.6,1.4
		c-6.2,13.1-9.2,27.2-11,41.5c-0.5,4.3-0.5,8.7,0.2,13c0.8,5.1,4.4,7.2,9,5c3.8-1.8,7.5-4.5,10.5-7.6c8.7-8.9,15-19.5,20.8-30.3
		c0.6-1.1,1-2.3,1.3-3.6C610.2,530.1,612.1,520.3,614.1,510.1z"/>
	<path fill="#918879" d="M868.5,583.4c-7,6.1-13.2,12.4-20.3,17.2c-11.2,7.6-21.5,6.5-31.8-2.1c-4.8-4-7.5-9.4-7.9-15.4
		c-0.5-7.1-0.7-14.4,0.2-21.5c2-15.8,5.6-31.4,12.6-45.9c1.4-3,3-6,4.9-8.7c10.9-16.2,27-22.1,45.7-16.3c6.1,1.9,12,4.6,17.7,7.6
		c7.3,3.8,8.1,7.2,6.2,15.2c-2.9,12.2-5.8,24.5-7.8,36.9c-2.3,14.1-1.4,28.1,3.4,41.8c2.3,6.5,0,11.4-5.4,13.2
		c-5.4,1.8-10.3-0.6-12.8-6.7c-1.1-2.6-1.8-5.3-2.6-8.1C869.7,588.3,869.2,585.9,868.5,583.4z M875,513.1
		c-17.2-8.9-27-6.1-35.8,10.4c-6.3,11.9-9,25.1-11.1,38.3c-0.8,5.3-1.2,10.7-0.8,16c0.6,7.1,5.2,9.4,11.3,5.8c3.5-2,6.9-4.7,9.4-7.8
		c5.8-7.5,11.1-15.3,16.4-23.2c1.8-2.7,3.8-5.7,4.5-8.9C871.2,533.8,872.9,523.7,875,513.1z"/>
	<path fill="#918879" d="M410.2,577.9c-4.5,4.6-8.2,8.7-12.3,12.6c-5.3,5-11.5,8.5-19,9.3c-13.5,1.5-25.1-6.3-28.2-19.5
		c-2.3-9.7-1.6-19.6,0.6-29.1c2.8-12.5,6.3-24.9,10.5-37c2.1-5.9,5.8-11.5,9.8-16.4c9.9-12.6,23.3-16.6,38.6-12.8
		c7.4,1.8,14.5,5.1,21.4,8.5c7,3.5,7.8,6.9,6.1,14.6c-2.7,11.8-5.6,23.5-7.5,35.4c-2.4,14.9-2.1,29.7,3.3,44.1
		c1.4,3.7,1.1,7.1-1.3,10.2c-4,5.2-12.4,4.6-15.7-1.2c-1.9-3.3-2.8-7.1-4.1-10.8C411.6,583.4,411.1,581,410.2,577.9z M416.9,508.7
		c-16.7-10.3-28.4-5.1-35.3,8.8c-7.7,15.5-11.2,32-12.7,48.9c-0.4,4.9-1.3,11,4.7,13.5c5.8,2.4,9.9-2.1,13.2-5.8
		c6-6.7,11.4-13.9,16.5-21.2c3.1-4.4,6.1-9.2,7.5-14.2C413.4,528.8,414.9,518.6,416.9,508.7z"/>
	<path fill="#918879" d="M482.5,527.9c-0.5,11.9,0.2,22.8,3.6,33.5c4.3,13.5,13.4,19.5,27.5,18.1c3.1-0.3,6.1-1.2,9.1-1.7
		c6.5-1.2,11.3,1.5,12.6,7c1.2,5.3-1.4,10.1-7.6,11.4c-7.5,1.6-15.2,3.1-22.8,2.9c-15.7-0.3-26.3-9.2-33.4-22.6
		c-5-9.5-7-19.9-7.8-30.4c-0.5-6.1-0.6-12.3-0.9-19.6c-3.7-1.3-7.7-2.6-11.8-4c-4.2-1.5-7.1-4.3-7.2-9c-0.2-6.6,5.1-11.1,11.7-9.8
		c3,0.6,5.9,1.7,9.7,2.8c1.2-7.3,2.4-14.3,3.6-21.2c0.5-2.8,0.8-5.6,1.7-8.3c1.6-5.3,6.3-7.9,11.3-6.8c4.6,1,7.7,5.2,7.1,10.5
		c-0.8,6.4-2,12.7-3,19c-0.4,2.5-0.6,5-1,8.4c4.3-0.7,7.8-1.3,11.4-1.9c10.4-1.7,20.8-3.5,31.2-5.2c2-0.3,4.1-0.6,6.1-0.3
		c4.6,0.8,7.5,4,8,8.2c0.5,4.5-2,8.6-6.6,10.2c-1.9,0.7-4,0.9-6,1.2C513.7,522.6,498.5,525.2,482.5,527.9z"/>
	<path fill="#918879" d="M528.2,557.8c-6.3,1-11.6,1.8-16.9,2.7c-4.1,0.7-6.4-1.1-7.2-5c-0.8-3.7-1.6-7.4-2.5-11.7
		c10.2-1.7,19.7-3.3,30.1-5C530.4,545.7,529.4,551.6,528.2,557.8z"/>
	<path fill="#FCEED2" d="M1407.6,546.2c7.9-5,12.5-9.9,14.3-17.6c2.6-10.7,5.7-21.3,9-31.9c3.2-10,9.9-16.6,20.1-19.6
		c11.2-3.4,28.2,2.1,33.3,15.6c0.8,2.2,1.7,4.3,2.9,7.5c2-6.4,3.8-12,5.8-18.4c-0.7-0.5-1.9-1.7-3.3-2.7
		c-12.8-9.8-15.7-26.5-6.7-39.7c4.7-6.8,9.4-13.5,14.3-20.1c7.4-9.8,19.9-14,30.8-10.7c12.4,3.8,20.4,14,21,26.6
		c0.3,6.4-1.7,12.2-5.3,17.4c-4.7,6.7-9.4,13.4-14.5,20.7c6.2,5,12.8,9.9,14.6,18.1c1.6,7.5,2.3,15.1,3.6,23.4
		c3.1-5.3,5.5-10.1,8.5-14.6c8.7-13.3,20.1-23.3,36.6-24.1c34.7-1.7,68.2,19.1,67.1,59.6c-0.7,26.9-9,51.5-27.9,71.6
		c-14.3,15.1-32.2,20.4-52.6,17.9c-9.8-1.2-18-5.8-25-12.7c-1.4-1.4-2.8-2.9-5.1-5.2c-1,8.1-1.5,15.1-2.7,22.1
		c-2.8,16.8-6.9,33.1-18.5,46.5c-12.5,14.5-29.7,19.4-48,14c-12.4-3.7-23-10.2-32.1-19.1c-6.7-6.4-12.7-13.4-19.2-20
		c-13.3-13.4-8-35.6,6.5-43.8c1.3-0.7,2.5-1.6,4.2-2.8c-2.3-1.9-4.3-3.5-6.4-5.3c-12.4,7.7-25.4,13.5-40,12.1
		c-15-1.4-26.5-9.1-34.2-23.4c-2.7,4.2-4.8,7.8-7.2,11.2c-14.5,21-34.1,31.4-60,28.2c-8.9-1.1-16.9-4.2-23.6-10.3
		c-2.1-1.9-4.1-3.8-6.6-6.2c-10.3,9.8-21.9,14.8-35.6,8.1c-13-6.4-17.1-18-16.1-32.2c-0.5,0.1-1,0.2-1.6,0.3
		c-2.9,6.7-5.9,13.4-8.8,20c-3.9,8.8-9.4,15.6-18.9,19.1c-15.2,5.6-29.4-3.1-35.3-15.5c-1-2.1-1.6-4.3-2.4-6.6
		c-5,3.5-9.6,7.1-14.6,10.1c-13.1,7.8-27.8,10.8-42.7,11.9c-27.8,2.2-55.4-0.5-82.8-5.2c-7.3-1.3-14.8-2.9-21.4-6
		c-18.5-8.8-22.2-31.2-16.4-44.8c3.8-8.9,9.8-16.3,17.3-22.4c5.1-4.1,11.2-6.4,18.3-5.9c-1.8-5-3.8-9.6-5.2-14.3
		c-3.9-12.8,0-24,8.5-33.5c4.2-4.7,9.4-8.7,14.7-12.3c27.4-18.5,57.5-23.7,89.8-17.4c9.6,1.9,18.9,4.5,28.2,10.1
		c-1.1-7.8-1.3-14.4,1.3-21.1c4.1-10.3,11.5-16.3,22.4-17.6c11.4-1.4,21,2.4,27.1,12.3c2.6,4.2,4.2,9.4,5.2,14.3
		c2,10.1,3.2,20.3,4.8,30.7c24.5-23.2,53.3-16.4,65.5,15.4c1.7-2.6,3.2-4.8,4.7-7c13.8-20.8,32.6-27.8,57.5-21.1
		c11.2,3,22,7,30.7,16.1c3.9-11.6,11.3-18,22.2-20.3c18.2-3.8,35,10.6,33.8,29.2c-0.5,8.4-2.1,16.8-3,25.2
		C1408.1,535.2,1407.9,540,1407.6,546.2z M1001.7,582.5c2.5-3,3.7-4.3,4.8-5.8c3.3-4.7,2.9-9.9-0.7-13.3c-3.8-3.6-9.8-3.7-13.8,0.6
		c-3.5,3.7-6.7,7.9-9.1,12.3c-4.2,7.9-0.7,17.7,7.2,21.7c2.9,1.5,6.3,2.3,9.5,3c19.7,4.1,39.7,6,59.7,6.7
		c14.4,0.5,28.8,0.1,42.9-3.5c8.3-2.1,16.2-5.2,22.9-10.7c18.9-15.7,17.1-35.4-4.4-47.1c-12.8-7-26.8-10.4-40.9-13.6
		c-12.5-2.9-25.1-5.5-37.6-8.5c-3.6-0.9-7.4-2.1-9.3-5.9c0.5-0.9,0.8-1.6,1.4-2.1c0.9-0.9,2-1.6,3.1-2.3
		c17.2-11.4,36.2-15.9,56.6-13c7.1,1,13.9,3.4,20.9,5.2c5.7,1.4,10.2-0.7,12-5.5c2-5.2-0.3-10-5.8-12.5c-1.2-0.5-2.4-0.8-3.6-1.3
		c-16.3-6.2-33.1-6.6-50.2-4.6c-17,2-31.2,10-44.6,19.8c-2.2,1.6-4.1,3.9-5.9,6c-3.6,4.4-4.7,9.3-3.3,15.1c1.7,7,6.1,11.6,12.1,14.1
		c9.7,4.1,19.6,7.6,29.8,10.4c10.1,2.8,20.7,4,30.9,6.8c8.4,2.3,16.7,5.2,24.7,8.7c9.9,4.5,10,9.3,1.4,15.4c-1.5,1-3,2.2-4.6,2.7
		c-7.1,2.2-14.2,5.2-21.4,5.9c-12,1.1-24.2,1.3-36.2,0.6C1034.3,586.6,1018.9,584.4,1001.7,582.5z M1182.7,550.1
		c-0.3-3.4-0.5-5.7-0.7-7.9c-2.5-24.8-5-49.6-7.6-74.4c-0.2-2.3-0.6-4.6-1.4-6.8c-1.7-4.6-6.5-7.3-11-6.5c-4.4,0.7-7.7,5.2-7.5,10.3
		c0,1.3,0.4,2.5,0.6,3.8c6.5,42.3,10,84.8,6.9,127.6c-0.1,1-0.2,2.1-0.2,3.1c0.3,4.4,3,8.1,7,9.2c4.1,1.2,8.6-0.7,11.1-5
		c1.3-2.2,2.3-4.6,3.4-6.9c5.7-12.4,11-25,17.1-37.1c5.7-11.2,12.1-22.1,18.6-32.9c2.2-3.6,4.7-7.4,10.5-9c0.5,4.3,1.3,8.3,1.3,12.2
		c-0.4,18.8-1.1,37.5-1.7,56.3c-0.1,2.8-0.5,5.7-0.1,8.5c0.6,4.7,4.4,8,8.8,8.3c4.1,0.3,8-2.4,9.5-6.5c0.5-1.4,0.9-3,0.9-4.5
		c1.1-21.6,2.2-43.2-1.1-64.7c-0.9-5.8-2.3-11.7-4.6-17.1c-5.6-13.4-17-16-27.6-6.1c-5,4.7-9.5,10.2-13.3,15.9
		C1195,529.2,1189.4,539.1,1182.7,550.1z M1270.8,537.2c-1.9,9.2-3.9,16.7-4.8,24.3c-1.8,15.9,1.5,30.3,14.5,40.9
		c2.9,2.4,6.5,4.4,10.1,5.2c17.2,3.7,31.7-1.2,42.3-15.4c12-16.1,18.2-34.4,18.9-54.5c0.6-17.2-8.5-33.6-28.7-38.7
		c-2.7-0.7-5.5-1-8.3-1.6c-13.6-3-23.9,2.1-30.8,13.6C1278.7,519.9,1274.7,529.4,1270.8,537.2z M1559.3,536.9
		c-2.9,10.9-5.1,21.7-4.5,32.9c0.6,12.7,5.4,23.5,15.6,31.5c2.6,2,5.7,3.8,8.8,4.4c15.5,3.2,29.5-0.1,39.9-12.4
		c15.3-18,22-39.3,21.6-62.7c-0.3-12.2-6.2-21.8-16.7-27.9c-5.2-3.1-11.3-5-17.2-6.3c-17-3.8-26,0-35,15
		C1566.9,519.5,1563.4,528.4,1559.3,536.9z M1437.1,572.6c1,1.7,1.5,2.6,2,3.5c9,15.9,21.5,18.2,35.1,16.2c7.3-1.1,11-8.6,7.2-14.4
		c-2.5-3.9-6.2-4.7-10.7-4.6c-10.8,0.4-15-3.2-16.5-13.8c-0.4-2.7-0.1-5.6,0.5-8.3c0.8-4,2.2-7.9,3.4-11.9c3.1-10.3,6.5-20.6,9.4-31
		c2.1-7.2-1.9-12.8-8.7-13.1c-4.5-0.2-7.8,2.3-9.7,8.3c-4,12.7-7.9,25.6-11.9,38.3c-0.8,2.4-1.4,5.2-3.1,6.9
		c-9,8.8-18.5,17.2-30.1,22.5c-7.9,3.6-11.6,2-13.3-6.7c-1.4-7.5-2.1-15.3-1.8-22.9c0.5-11.8,2.2-23.5,3.4-35.3
		c0.6-6.5-2.1-10.8-7.2-11.7c-5.6-1.1-10.5,2.2-11.5,8.6c-2.9,18-5.6,36.2-3.6,54.4c0.8,7,2.6,14.2,5.3,20.8
		c4.6,10.9,14.9,15.6,26.5,13.6c8.3-1.4,15.6-5.2,22.4-10C1428.4,579.1,1432.5,576,1437.1,572.6z M1524.6,643.6
		c1.6-10.1,3.8-20.2,4.6-30.4c3.1-37.5,0.9-75-2.5-112.4c-0.1-1-0.2-2.1-0.4-3c-1.3-4.4-5.3-7.2-9.9-7c-4.5,0.2-8.1,3.5-8.7,8.3
		c-0.2,2,0.1,4.1,0.2,6.1c0.9,14.4,2.1,28.7,2.7,43.1c1,23.9,1.5,47.8-1.6,71.6c-1.2,9.4-2.5,18.9-7.5,27.3c-3.6,6-7,7.6-13.4,4.9
		c-4-1.6-8-3.8-11.2-6.6c-6.7-6-12.9-12.5-19.2-18.9c-4.8-4.9-9.9-5.7-14.2-2c-4.4,3.8-4.9,9.3-0.3,14.2c7.4,7.9,15.1,15.5,23,22.7
		c5.7,5.3,12.7,8.7,20.3,10.7c10.1,2.7,18.7,0.4,26-7.2C1518.1,658.9,1521.5,651.5,1524.6,643.6z M1529.6,439.8
		c1.5-4.8,0-8.9-3.8-11.2c-4.5-2.8-9.1-2.5-12.4,1.7c-4.9,6.2-9.5,12.8-14,19.3c-3.8,5.5-3,11.1,1.5,14.4c4.4,3.2,10,2.1,14-3.2
		c4.5-5.9,8.7-12.1,13-18.1C1528.7,441.5,1529.3,440.4,1529.6,439.8z M1489.1,506.6c-0.6-0.1-1.2-0.1-1.7-0.2
		c-4.4,15.7-8.8,31.3-13.4,47.5c6.1,1.9,11.7,3.7,18.3,5.8C1491.2,541.5,1490.1,524,1489.1,506.6z M1491.4,606.8
		c-7.5,2.2-13.7,4-20.5,6c5.2,5.9,9.3,12.2,17.3,16.3C1489.4,621.3,1490.4,614.3,1491.4,606.8z M1141.6,515.6
		c-6.7,3.9-12.3,7.1-17.8,10.3c6.2,3.9,12.3,7.8,19.4,12.3C1142.7,530.1,1142.1,523.1,1141.6,515.6z M1026.1,559.3
		c0.8,3.1,1.4,5.1,1.9,7.1c10.8,1.3,21,3,32.7,2.3C1048.7,565.5,1038.1,562.6,1026.1,559.3z"/>
	<path fill="#FCEED2" d="M614.1,510.1c-2,10.2-3.9,20-5.9,29.8c-0.2,1.2-0.7,2.5-1.3,3.6c-5.8,10.9-12.2,21.4-20.8,30.3
		c-3,3.1-6.6,5.8-10.5,7.6c-4.6,2.2-8.2,0.1-9-5c-0.6-4.2-0.7-8.7-0.2-13c1.8-14.3,4.8-28.3,11-41.5c0.2-0.5,0.4-0.9,0.6-1.4
		C586.1,504.6,597.5,501.1,614.1,510.1z"/>
	<path fill="#FCEED2" d="M875,513.1c-2.1,10.6-3.8,20.7-6.1,30.6c-0.7,3.1-2.6,6.1-4.5,8.9c-5.3,7.9-10.6,15.7-16.4,23.2
		c-2.4,3.2-5.9,5.8-9.4,7.8c-6.1,3.6-10.8,1.3-11.3-5.8c-0.4-5.3-0.1-10.8,0.8-16c2.1-13.2,4.8-26.3,11.1-38.3
		C848,507,857.8,504.3,875,513.1z"/>
	<path fill="#FCEED2" d="M416.9,508.7c-2,9.9-3.5,20.1-6.2,30c-1.4,5.1-4.4,9.9-7.5,14.2c-5.1,7.3-10.6,14.5-16.5,21.2
		c-3.3,3.7-7.4,8.2-13.2,5.8c-6-2.5-5.1-8.6-4.7-13.5c1.5-17,5-33.5,12.7-48.9C388.5,503.6,400.2,498.4,416.9,508.7z"/>
	<path fill="#918879" d="M1001.7,582.5c17.1,1.9,32.6,4.1,48.2,5.1c12,0.7,24.2,0.5,36.2-0.6c7.3-0.7,14.3-3.7,21.4-5.9
		c1.7-0.5,3.2-1.7,4.6-2.7c8.7-6.1,8.5-11-1.4-15.4c-7.9-3.6-16.3-6.5-24.7-8.7c-10.2-2.7-20.7-3.9-30.9-6.8
		c-10.1-2.8-20.1-6.3-29.8-10.4c-6-2.5-10.4-7.1-12.1-14.1c-1.4-5.8-0.3-10.7,3.3-15.1c1.8-2.2,3.7-4.4,5.9-6
		c13.4-9.8,27.6-17.8,44.6-19.8c17.1-2,33.9-1.6,50.2,4.6c1.2,0.5,2.5,0.8,3.6,1.3c5.6,2.5,7.8,7.3,5.8,12.5
		c-1.8,4.8-6.3,6.9-12,5.5c-7-1.7-13.8-4.2-20.9-5.2c-20.4-2.8-39.4,1.7-56.6,13c-1.1,0.7-2.1,1.5-3.1,2.3c-0.5,0.5-0.8,1.3-1.4,2.1
		c1.9,3.8,5.7,5,9.3,5.9c12.5,3,25.1,5.6,37.6,8.5c14.1,3.2,28.1,6.7,40.9,13.6c21.6,11.7,23.4,31.4,4.4,47.1
		c-6.7,5.5-14.6,8.6-22.9,10.7c-14.1,3.6-28.5,4-42.9,3.5c-20.1-0.7-40-2.7-59.7-6.7c-3.2-0.7-6.6-1.5-9.5-3
		c-7.9-4-11.4-13.8-7.2-21.7c2.4-4.5,5.6-8.6,9.1-12.3c4-4.3,10-4.2,13.8-0.6c3.6,3.4,3.9,8.6,0.7,13.3
		C1005.5,578.2,1004.2,579.5,1001.7,582.5z"/>
	<path fill="#918879" d="M1182.7,550.1c6.7-11,12.3-20.8,18.6-30.2c3.8-5.7,8.3-11.2,13.3-15.9c10.6-9.9,22-7.3,27.6,6.1
		c2.3,5.4,3.7,11.3,4.6,17.1c3.3,21.5,2.3,43.1,1.1,64.7c-0.1,1.5-0.4,3.1-0.9,4.5c-1.5,4.1-5.4,6.8-9.5,6.5
		c-4.5-0.3-8.3-3.6-8.8-8.3c-0.3-2.8,0-5.6,0.1-8.5c0.6-18.8,1.3-37.5,1.7-56.3c0.1-3.9-0.8-7.9-1.3-12.2c-5.8,1.6-8.3,5.4-10.5,9
		c-6.5,10.8-12.9,21.6-18.6,32.9c-6.2,12.1-11.4,24.7-17.1,37.1c-1.1,2.3-2.1,4.7-3.4,6.9c-2.4,4.2-6.9,6.2-11.1,5
		c-3.9-1.1-6.7-4.8-7-9.2c-0.1-1,0.1-2.1,0.2-3.1c3.1-42.8-0.4-85.3-6.9-127.6c-0.2-1.3-0.6-2.5-0.6-3.8c-0.1-5.1,3.1-9.5,7.5-10.3
		c4.6-0.8,9.4,1.9,11,6.5c0.8,2.1,1.2,4.5,1.4,6.8c2.6,24.8,5.1,49.6,7.6,74.4C1182.2,544.4,1182.4,546.7,1182.7,550.1z"/>
	<path fill="#918879" d="M1270.8,537.2c3.9-7.8,7.9-17.3,13.1-26.1c6.8-11.5,17.2-16.6,30.8-13.6c2.8,0.6,5.6,0.9,8.3,1.6
		c20.3,5.1,29.3,21.4,28.7,38.7c-0.7,20-6.9,38.4-18.9,54.5c-10.6,14.2-25.1,19-42.3,15.4c-3.6-0.8-7.2-2.8-10.1-5.2
		c-13-10.7-16.3-25.1-14.5-40.9C1266.8,553.9,1268.9,546.4,1270.8,537.2z M1329.5,558.5c1.8-8.6,3.4-16.9,2.3-25.5
		c-0.9-7.1-4.6-11.8-11.4-14.1c-2-0.6-4-1.1-5.9-1.9c-6.4-2.5-11,0-14.7,5.1c-1.1,1.4-2.2,2.9-3,4.5c-5.9,11.2-10.2,23-11.5,35.7
		c-0.8,8.1,0.3,15.9,5.2,22.8c2,2.8,4.3,3.9,7.8,3.7c8.3-0.4,15.1-3.9,19.8-10.4C1322.5,572.2,1325.8,565.1,1329.5,558.5z"/>
	<path fill="#918879" d="M1559.3,536.9c4.1-8.5,7.6-17.5,12.4-25.6c9-15,18-18.8,35-15c5.9,1.3,12,3.3,17.2,6.3
		c10.4,6.1,16.4,15.7,16.7,27.9c0.5,23.5-6.3,44.8-21.6,62.7c-10.5,12.3-24.4,15.6-39.9,12.4c-3.1-0.6-6.3-2.4-8.8-4.4
		c-10.2-7.9-14.9-18.7-15.6-31.5C1554.3,558.7,1556.4,547.9,1559.3,536.9z M1618.3,557c-0.3-0.2-0.7-0.3-1-0.5
		c0.9-2.9,2.1-5.8,2.7-8.8c1.4-6.8,1.9-13.7-0.4-20.5c-3.2-9.3-11.2-11.3-19.5-12.6c-7-1.2-10.2,3.9-13,8.8
		c-7.1,12.1-11.5,25.2-12.7,39.2c-0.5,6.3,0.4,12.3,3.5,17.9c3.4,6,5.8,7.3,12.4,6.5c7.3-0.9,13.3-4.4,17.3-10.5
		C1611.7,570.3,1614.8,563.5,1618.3,557z"/>
	<path fill="#918879" d="M1437.1,572.6c-4.7,3.4-8.7,6.5-12.9,9.4c-6.8,4.7-14.1,8.5-22.4,10c-11.6,2-22-2.8-26.5-13.6
		c-2.7-6.5-4.6-13.7-5.3-20.8c-2-18.3,0.7-36.4,3.6-54.4c1-6.4,5.9-9.7,11.5-8.6c5.2,1,7.9,5.2,7.2,11.7
		c-1.1,11.8-2.8,23.5-3.4,35.3c-0.3,7.6,0.4,15.4,1.8,22.9c1.6,8.7,5.4,10.3,13.3,6.7c11.6-5.3,21.1-13.7,30.1-22.5
		c1.7-1.6,2.4-4.5,3.1-6.9c4-12.8,7.8-25.6,11.9-38.3c1.9-5.9,5.1-8.5,9.7-8.3c6.8,0.3,10.8,5.9,8.7,13.1c-3,10.4-6.3,20.7-9.4,31
		c-1.2,3.9-2.5,7.9-3.4,11.9c-0.6,2.7-0.9,5.6-0.5,8.3c1.5,10.6,5.7,14.2,16.5,13.8c4.5-0.2,8.2,0.7,10.7,4.6
		c3.8,5.8,0.1,13.3-7.2,14.4c-13.6,2-26.1-0.3-35.1-16.2C1438.7,575.2,1438.1,574.4,1437.1,572.6z"/>
	<path fill="#918879" d="M1524.6,643.6c-3.1,7.9-6.4,15.3-12.2,21.5c-7.2,7.6-15.9,10-26,7.2c-7.6-2-14.5-5.5-20.3-10.7
		c-7.9-7.3-15.6-14.9-23-22.7c-4.6-4.9-4.2-10.5,0.3-14.2c4.3-3.7,9.5-2.9,14.2,2c6.3,6.4,12.5,12.9,19.2,18.9
		c3.2,2.8,7.2,5,11.2,6.6c6.5,2.7,9.9,1.1,13.4-4.9c5-8.4,6.3-17.9,7.5-27.3c3.1-23.8,2.7-47.7,1.6-71.6
		c-0.6-14.4-1.8-28.7-2.7-43.1c-0.1-2-0.4-4.1-0.2-6.1c0.6-4.8,4.2-8.1,8.7-8.3c4.6-0.2,8.6,2.6,9.9,7c0.3,1,0.4,2,0.4,3
		c3.4,37.4,5.6,74.9,2.5,112.4C1528.3,623.3,1526.1,633.4,1524.6,643.6z"/>
	<path fill="#918879" d="M1529.6,439.8c-0.4,0.6-0.9,1.7-1.7,2.8c-4.3,6.1-8.5,12.2-13,18.1c-4,5.3-9.6,6.4-14,3.2
		c-4.5-3.3-5.2-8.9-1.5-14.4c4.5-6.6,9.1-13.1,14-19.3c3.3-4.2,7.9-4.5,12.4-1.7C1529.6,430.9,1531.1,435,1529.6,439.8z"/>
	<path fill="#918879" d="M1489.1,506.6c1,17.5,2.1,35,3.1,53.1c-6.5-2.1-12.1-3.9-18.3-5.8c4.6-16.2,9-31.8,13.4-47.5
		C1487.9,506.4,1488.5,506.5,1489.1,506.6z"/>
	<path fill="#918879" d="M1491.3,606.2c-1.1,7.5-2.1,14.4-3.3,22.4c-8-4.1-12.1-10.5-17.3-16.4
		C1477.6,610.2,1483.8,608.3,1491.3,606.2z"/>
	<path fill="#918879" d="M1141.6,515.6c0.5,7.5,1.1,14.5,1.7,22.6c-7.1-4.5-13.2-8.4-19.4-12.3
		C1129.3,522.7,1134.9,519.5,1141.6,515.6z"/>
	<path fill="#918879" d="M1026.1,559.3c12.1,3.3,22.7,6.2,34.6,9.5c-11.7,0.7-21.9-1-32.7-2.3
		C1027.5,564.4,1026.9,562.4,1026.1,559.3z"/>
	<path fill="#FCEED2" d="M1329.5,558.5c-3.7,6.7-7,13.7-11.4,19.9c-4.6,6.6-11.5,10-19.8,10.4c-3.5,0.2-5.9-1-7.8-3.7
		c-4.9-6.9-6-14.7-5.2-22.8c1.3-12.7,5.6-24.5,11.5-35.7c0.8-1.6,1.9-3,3-4.5c3.7-5.1,8.3-7.5,14.7-5.1c1.9,0.7,3.9,1.2,5.9,1.9
		c6.8,2.2,10.5,7,11.4,14.1C1332.9,541.6,1331.3,549.8,1329.5,558.5z M1304.1,562.3c6.3-6.4,8.5-14,7.2-22.8
		C1308.9,547.2,1306.5,554.7,1304.1,562.3z"/>
	<path fill="#FCEED2" d="M1618.3,557c-3.5,6.5-6.6,13.3-10.7,19.5c-3.9,6-9.9,9.5-17.3,10.5c-6.7,0.8-9.1-0.5-12.4-6.5
		c-3.1-5.6-4-11.6-3.5-17.9c1.2-14,5.5-27.1,12.7-39.2c2.9-4.9,6-10,13-8.8c8.3,1.4,16.3,3.3,19.5,12.6c2.3,6.8,1.8,13.7,0.4,20.5
		c-0.6,3-1.8,5.9-2.7,8.8C1617.6,556.7,1618,556.8,1618.3,557z M1593.9,559.6c5.2-6,8-12.8,6.6-20.9
		C1598.3,545.7,1596.1,552.7,1593.9,559.6z"/>
	<path fill="#918879" d="M1304.1,562.3c2.4-7.6,4.8-15.2,7.2-22.8C1312.6,548.3,1310.4,556,1304.1,562.3z"/>
	<path fill="#918879" d="M1593.9,559.6c2.2-7,4.4-13.9,6.6-20.9C1601.8,546.8,1599.1,553.6,1593.9,559.6z"/>
</g>
<path fill="#918879" d="M1092.8,823.3c-0.5,2.8-2.3,5.1-4.2,7.2c-6.4,7.2-14.5,13.2-23.8,15.5c-2.4,0.6-4.8,0.9-7.3,0.9
	c-7.2,0-14.5-2.5-19.4-7.7c-6.4-6.8-7.7-16.6-7-25.7c0.3-3.7,0.8-7.3,1.5-10.9c1.2-6.2,2.6-12.3,5.2-18.1c1.1-2.6,2.4-5,3.8-7.5
	c0.4-0.7,0.8-1.4,1.2-2.1c1.7-2.9,3.2-6.1,5.1-8.8c3.6-5.3,8.7-9.8,14.2-13.1c2.2-1.3,4.7-1.9,7.1-1.9c4.6,0,9.3,2.1,12.6,5.5
	c3.7,3.8,5.7,9.4,4.9,14.7c-1.4,9-6.8,17.1-14,22.6c-4.3,3.3-9.3,5.7-14.6,7c-2.6,0.6-5.3,0.7-7.9,1.2c-1.9,0.4-4,0.5-4,0.5
	s-1.7,8.8-2.3,12s-1,6.5,0.1,9.5c1.6,4.7,6.4,7.8,11.3,8.4c0.7,0.1,1.4,0.1,2.1,0.1c4.2,0,8.4-1.5,12-3.6c4.3-2.5,7.9-5.9,11.6-9.1
	c1.2-1.1,2.4-2.1,3.9-2.8c0.9-0.5,2-0.7,3-0.7c0.6,0,1.1,0.1,1.7,0.3C1092.1,817.2,1093.3,820.5,1092.8,823.3z M1060.5,782.6
	c1.9-0.8,3.8-1.9,5.5-3.2c2.3-1.8,4.4-3.9,6.1-6.3c1.2-1.7,3.8-5.2,1.7-7.2c-0.1-0.1-0.2-0.2-0.4-0.3c-0.5-0.3-1.1-0.4-1.8-0.4
	c-0.4,0-0.9,0.1-1.3,0.1c-3.3,0.7-6.1,2.6-8.4,5.1c-2.5,2.6-4.2,5.8-6.2,8.7c-1.3,2-3,4.4-3.8,6.7c0.9-0.4,1.8-0.5,2.8-0.7
	C1056.9,784.7,1058.6,783.4,1060.5,782.6z"/>
<path fill="#918879" d="M378.4,839.9c-1.9,0.3-3.9,0.5-5.9,0.5c-6.8,0-13.7-2.1-19.3-5.9c-4.3-2.9-8.1-6.9-10.5-11.6
	c-2.4-4.8-4-10-4.6-15.3c-0.6-5.1-0.5-10.3,1-15.3c0,0-3.8-0.8-4.8-4c-1.3-4.4,1-9.4,4.6-10.8c-0.6-4.2-0.2-10.1,0.6-14.1
	c0.2-0.8,1.4-5.5,1.4-5.5s-0.2,0-0.5,0c-0.9,0-2.8,0-4.1-0.2c-5-0.7-5.5-7.1-2.6-10.5c2.5-2.9,6.5-4.1,10.2-4.9
	c17.7-4,35.9-5.3,54-5.4c0.7,0,1.3,0,2,0c7.6,0,15.3,0.2,22.9,0.6c2.3,0.1,4.6,0.3,6.7,1.3c2.1,0.9,3.9,2.8,4.1,5.1
	c0.4,4.3-4.4,5.2-7.7,5.2c-0.2,0-0.3,0-0.5,0c-2.1-0.1-4.2-0.1-6.3-0.1c-16,0-31.9,1.5-47.6,4.5c-4.6,0.9-17.3,3.9-17.3,3.9
	s-2.2,9.9-1.6,17.3c0.1,0.9,0.1,2.2,0.2,3c1.8,0,5.2-0.1,7-0.1c3.3,0,6.5-0.1,9.8-0.1c6.5-0.1,13-0.3,19.5-0.5
	c7.2-0.3,14.4-0.6,21.5-1c3.5-0.2,7.1-0.4,10.6-0.6c2.3-0.1,5.1-0.7,7.6-0.7c0.9,0,1.8,0.1,2.6,0.3c0.5,0.1,0.9,0.3,1.3,0.5
	c0.4,1.1,0.9,2.2,1.4,3.2c-0.2,0.9-0.9,1.8-1.6,2.4c-3.5,3.4-9,4.4-13.7,5.3c-5.7,1.1-11.5,1.5-17.3,2c-4.1,0.3-47.8,2.6-48.4,3.5
	c-0.5,0.7,0,13.7,2.2,19.9c1.9,5.6,6.7,12.7,12.9,13.9c1.4,0.3,2.9,0.4,4.4,0.4c6.7,0,14-2.5,19.7-5.2c7.9-3.8,14.9-9.3,21.3-15.3
	c1.8-1.7,3.6-3.4,5.9-4.2c0.7-0.2,1.4-0.3,2.1-0.3c1.8,0,3.5,0.7,4.4,2.2c0.9,1.4,0.7,3.3,0.1,4.8c-0.6,1.4-1.6,2.6-2.6,3.7
	c-7.7,8.2-16.5,15.3-26.4,20.7C391.1,835.6,384.9,838.7,378.4,839.9z"/>
<path fill="#918879" d="M387.5,805.3c-0.8,0.4-1.6,0.8-2.3,1.2c-4.8,2.3-9.5,3.6-12.7,3.6c-0.1,0-0.2,0-0.3,0
	c-0.6-0.8-1.5-2.1-2-3.4c0-0.1-0.1-0.2-0.1-0.3"/>
<path fill="#918879" d="M520.6,834.5c-0.2,1-0.8,1.8-1.5,2.6c-1.7,1.9-4.1,3-6.5,3.6c-1.2,0.3-2.4,0.4-3.6,0.4
	c-1.3,0-2.5-0.1-3.8-0.4c-12.1-2.6-20.4-13.6-27.5-22.8c-2.1-2.7-4.2-5.5-6.3-8.2c-1-1.4-4.7-5.4-4.7-5.4s-2.6,2.5-3.3,3.5
	c-0.9,1.3-1.8,2.6-2.7,3.9c-2.1,3.1-4.3,6.2-6.5,9.2c-4,5.3-8.2,10.4-12.5,15.4c-2.2,2.5-4.4,5-6.6,7.4c-2,2.3-4.3,4.3-6,6.8
	c-1,1.5-2.1,2.9-3.7,3.9c-0.8,0.5-1.8,0.8-2.8,0.8c-0.8,0-1.6-0.2-2.3-0.7c-1.2-0.9-1.7-2.6-1.5-4.1c0.2-1.5,0.9-2.9,1.8-4.2
	c1.3-2,2.3-4.1,3.7-6c2.1-3,4.5-5.8,6.8-8.6c8.2-10.2,15.4-21.2,22.7-32.1c1.8-2.7,5.8-9,5.8-9s-3.2-5.3-4.9-7.5
	c-4.2-5.5-7.2-11.7-9.1-18.3c-0.9-3.1,1.3-6.3,4.6-6.6c0.4,0,0.7,0,1.1,0c2.8,0,5.6,1,8,4c0.9,1.1,1.5,2.4,2.1,3.7l5.4,13.1
	c0.5,1.2,1.8,3.6,1.8,3.6s3.4-3.9,4.7-5.3c1.9-2.1,3.8-4.2,5.9-6.1c2.3-2.1,5.1-3.9,7.6-5.8c2.7-2.1,5.4-4.1,8.3-5.9
	c1.8-1.2,3.6-2.3,5.7-2.6c0.3-0.1,0.7-0.1,1-0.1c5.2,0,8.4,6.5,4.8,10.6c-1.1,1.2-2.4,2.1-3.8,3c-5,3.4-9.6,7.2-14.1,11.2
	c-2.3,2-4.5,4-6.7,6.1c-1.1,1.1-2.2,2.1-3.4,3.2c-1.2,1.1-2,2.5-2,2.5s0.6,2.3,0.8,2.6c2.5,4.9,5.7,9.4,9.3,13.6
	c4.6,5.5,8.8,11.8,14.6,16.2c2,1.5,4.4,3.2,6.8,4c2.9,1,6.4,1.1,9.4,1.6c0.9,0.2,1.8,0.3,2.5,0.9
	C520.7,832.4,520.9,833.6,520.6,834.5z"/>
<path fill="#918879" d="M597.8,812.2c-3.5,6-7.7,11.7-13.1,16.2c-6.2,5.2-14.4,8.9-22.3,10.9c-2.9,0.7-5.9,1.1-8.8,1.1
	c-3.5,0-7-0.5-10.2-1.8c-6.6-2.5-10.6-9.3-12.7-15.7c-2.8-8.3-2-16.2-0.1-24.6c0.8-3.3,1.7-6.6,2.9-9.9c2.3-6.5,5.3-12.8,8.9-18.7
	c3.6-5.9,8-11.1,15.2-12.2c0.9-0.1,1.8-0.2,2.7-0.2c8.4,0,16.8,5.8,20.5,13c1.9,3.7,2.8,8,2.6,12.2c-0.2,3.2-0.7,7.4-3.9,9.1
	c-0.8,0.4-1.6,0.6-2.4,0.6c-3,0-6-2.7-7.2-5.4c-1.2-2.7-1.5-5.7-2.5-8.5c-1-2.8-3.2-5.5-6.2-5.7c-0.1,0-0.3,0-0.4,0
	c-1.9,0-3.7,1-5,2.4c-1.5,1.6-2.5,3.6-3.7,5.4c-1.4,2.1-2.6,4.4-3.7,6.7c-2.3,4.8-4.1,9.9-5.4,15c-1.4,5.8-2.6,12.9,0.4,18.4
	c1.3,2.5,3.6,4.3,6.2,5.2c1.1,0.4,2.3,0.5,3.5,0.5c3.3,0,6.7-1.2,9.8-2.1c10.5-3,21.3-9.2,26.2-19.4c0.9-1.9,1.7-4,3.5-5.2
	c0.8-0.5,1.7-0.7,2.6-0.7c0.8,0,1.6,0.2,2.3,0.6c4.1,2.3,2.9,8.2,1.1,11.5C598.4,811.3,598.1,811.8,597.8,812.2z"/>
<path fill="#FCEED2" d="M566.5,805.5c-2.3,1.3-5,2.4-8,3.2c-0.2,0.1-0.4,0.1-0.6,0.2c0.2-0.8,0.4-1.8,0.6-3c0.4-1.8,0.9-3.6,1.5-5.3
	C562,802.5,564.1,804.2,566.5,805.5z"/>
<path fill="#918879" d="M662.7,820.3c-1.4,2.4-3.6,4.2-5.8,5.9c-4.7,3.6-9.6,6.9-15,9.4c-3.6,1.6-8.3,3.6-12.6,3.6
	c-1.4,0-2.8-0.2-4.2-0.7c-4.5-1.7-7.9-5.9-9.5-10.3c-2.6-6.9-2.3-15.3-2.2-22.5c0.1-8.6,1.1-17.2,1.6-25.8
	c0.5-8.9,0.9-17.8,1.2-26.7c0.3-8.9-0.1-18,0.4-26.9c0.1-1.6,0.3-3.2,1-4.5c1-1.7,2.7-2.4,4.5-2.4c2.3,0,4.8,1.1,6.2,2.7
	c1.9,2,2.8,4.8,3.1,7.5c0.3,2.7,0,5.5-0.2,8.3c-0.7,8.1-1.1,16.2-1.4,24.3c-0.3,8.1-1.1,16.1-1.8,24.1c-0.5,5.2-0.6,10.5-0.9,15.7
	c-0.2,4.7-1.7,9.9-0.8,14.6c0.7,3.6,3.2,7.2,6.9,7.8c0.4,0.1,0.8,0.1,1.2,0.1c1.8,0,3.5-0.6,5-1.5c4-2.4,7.6-6.1,11.2-9.1
	c2.1-1.7,5.4-3.9,8.3-3.9c1.4,0,2.7,0.5,3.8,1.9c0.1,0.1,0.2,0.3,0.3,0.4C664.5,814.7,664.1,817.9,662.7,820.3z"/>
<path fill="#918879" d="M736.4,822.8c-2.7-7.2-2.6-15.2-1.6-22.8c-7.3,8.8-14.3,18-22.9,25.6c-5.3,4.7-11.5,10.7-18.7,12
	c-0.7,0.1-1.4,0.2-2.1,0.2c-3.3,0-6.4-1.4-8.9-3.8c-3.5-3.4-4.4-7.4-5.4-12.2c-1.5-7.2-1.8-14.7-1-22.1c0.7-6.1,1.6-12.2,2-18.3
	c0.2-3.1,0.2-6.3,0.1-9.4c-0.2-2.8-1.3-5.9,0.8-8.2c1.4-1.6,4.1-2.6,6.7-2.6c1.8,0,3.6,0.5,4.7,1.8c1.5,1.7,2,4,2.1,6.2
	c0.2,4.7-1,9.2-1.4,13.9c-0.4,4.8-0.6,9.7-0.7,14.5c-0.1,3.5-2,23,2.9,23.5c0.1,0,0.2,0,0.2,0c1.1,0,2.1-0.7,3-1.4
	c8.9-6.6,17.8-13.2,25.8-20.7c4.9-4.6,9.2-9.7,13.4-15c3-3.8,5.5-7.9,7.5-12.2c1.6-3.4,1.9-8,6.2-8.7c0.3,0,0.5,0,0.8,0
	c3.2,0,6.3,2.3,7.1,5.4c1,3.6-1,7.3-2.7,10.6c-5.5,10.5-8.7,22.2-6.7,34.1c0.7,3.8,1.7,7.5,4.7,10.1c2.1,1.9,5,3,7.8,3
	c0.7,0,1.4-0.1,2.1-0.2c2-0.4,3.9-1.4,5.8-2.3c1.7-0.8,3.6-1.5,5.5-1.6l0,0c0.1,0,0.2,0,0.3,0c2.1,0.1,4.2,1.2,4.9,3.2
	c0.5,1.5,0.1,3.2-0.7,4.5s-2.1,2.3-3.4,3.2c-4.6,3.2-10.3,5.6-16.1,5.9c-0.3,0-0.7,0-1,0c-1.8,0-3.5-0.2-5.3-0.7
	C744.9,836.3,739.1,830,736.4,822.8z"/>
<path fill="#918879" d="M860.5,822.7c-0.2,0.9-0.5,1.7-0.9,2.5c-1.7,4-4.8,7.5-8.5,9.8c-8.6,5.4-18,4.1-27.6,4.9c1-0.1,2-0.2,3-0.3
	c-4,0.1-8,0.2-12,0.2c-5.8,0-11.5-0.2-17.3-1c-3.7-0.5-7.5-1.2-10.6-3.3c-3.1-2.1-5.3-6-4.4-9.6c0.6-2.7,2.9-4.9,5.6-5.8
	c1-0.3,2.1-0.5,3.2-0.5c1.7,0,3.5,0.4,5,1.1c2.7,1.2,5.2,3.7,5.3,6.6c2.7,0.2,5.5,0.3,8.2,0.3c11.1,0,22.3-1.5,33-4.4
	c1.5-0.4,3.2-1.3,3-2.8c-0.1-0.8-0.8-1.4-1.5-1.8c-6-4-11.9-4.3-18.6-5.8c-3.3-0.8-6.4-2.3-9.4-3.6c-5.9-2.6-12.2-4.7-16.9-9.1
	c-10-9.5-8.4-24.9,1.7-33.5c6.1-5.2,13.9-7.8,21.6-9.9c4-1.1,8.2-2,12.3-2c0.9,0,1.9,0,2.8,0.2c8.1,0.9,16.8,8.1,10,16.4
	c-1,1.2-2.4,2-3.9,2c-0.3,0-0.5,0-0.8-0.1c-1.8-0.4-3-2-4.4-3.2c-1.2-1.1-2.7-1.5-4.2-1.5c-2.5,0-5.2,0.9-7.4,1.5
	c-4.1,1-7.6,3.2-11.5,4.8c-5.2,2.1-13.5,7.2-10.2,14.1c1.2,2.5,3.9,3.9,6.5,5c14.2,6,29.8,8.2,43,16.5
	C859.2,813.3,862,817,860.5,822.7z"/>
<path fill="#918879" d="M877.9,729.5c0.5-4.6,5.2-8.9,7.8-12.5c2-2.8,4.1-5.6,6.1-8.3c1.5-2,3.3-6.2,5.5-7.5c0.5-0.3,1-0.4,1.6-0.4
	c1.1,0,2.4,0.5,3.4,1c3.1,1.5,7,4,6.5,7.8c0,0.4-0.1,0.8-0.3,1.3c-0.7,2-2.2,3.5-3.8,4.9c-3.4,3.1-7,6-10.6,8.9
	c-3.5,2.8-6.9,6.4-11,8.5c-0.6,0.3-1.3,0.5-2,0.5c-0.7,0-1.3-0.2-1.9-0.6C878.2,732.2,877.8,730.8,877.9,729.5z"/>
<path fill="#918879" d="M927.5,815.9c-2.9,4.5-7.8,7.8-12.1,10.8c-4.7,3.4-9.6,6.5-14.7,9.4c-3.2,1.8-6.7,3.5-10.2,3.5
	c-0.8,0-1.7-0.1-2.5-0.3c-3.7-1-6.5-4.2-7.9-7.8c-2.1-5.2-2.2-11.4-1.8-17c0.6-8.6,1.3-17.1,2-25.6c0.7-8.3,2-16.8,1.5-25.2
	c-0.1-1.4-0.2-2.9,0.4-4.1c1.1-2,4.5-3.1,7.7-3.1c2.1,0,4.1,0.5,5.1,1.5c1.2,1.1,1.5,2.8,1.7,4.5c0.9,8,0,16.1-1.3,24
	c-1.3,7.8-2.1,16.3-4.2,23.8c-0.4,1.3-0.6,2.6-0.7,4c-0.2,4.3,2,7.6,5.8,7.6c0.8,0,1.6-0.1,2.4-0.4c3-0.9,5.5-3.2,8-5
	c3.8-2.6,7.6-5.3,11.5-7.9c1.2-0.8,2.4-1.7,3.8-2c0.4-0.1,0.8-0.2,1.2-0.2c2,0,4.1,1.2,5,2.9C929.5,811.6,928.9,813.8,927.5,815.9z"
	/>
<path fill="#918879" d="M1006.3,797.2c-3.7,7.8-7.7,15.4-12.4,22.6c-2.4,3.6-4.9,7.1-7.7,10.4c-2.5,3-5.1,6.5-8.4,8.8
	c-1.7,1.2-3.9,2-6,2c-0.7,0-1.3-0.1-2-0.3c-2.9-0.8-4.8-2.7-7-4.4c0.1,0.2,0.2,0.4,0.3,0.6c-11.9-17.3-13.4-40.4-26.5-56.7
	c-2-2.5-4.3-4.8-5.6-7.8s-1.3-6.7,0.9-9c1.3-1.3,3-1.9,4.8-1.9c1.6,0,3.2,0.4,4.5,1.2c2.9,1.7,5,4.5,6.8,7.3c3,4.6,5.8,9.5,7.9,14.6
	c2.2,5.2,3.1,10.4,4.5,15.8c0.8,3.5,1.8,6.9,3.2,10.2c1.4,3.2,2.2,6.6,3.8,9.7c0.7,1.4,1.2,3.5,2.9,3.5c0.3,0,0.5,0,0.9-0.2
	c1.2-0.4,2-1.4,2.7-2.3c9.1-11.5,17.4-23.7,24.4-36.5c3.4-6.1,6.8-12.4,9.2-19c2.6-7.2,6.7-13.8,12.1-19.2c1.1-1.1,2.5-2,3.9-2
	c0.2,0,0.3,0,0.5,0c1.7,0.2,2.9,1.7,3.4,3.3c0.5,1.6,0.2,3.3-0.2,4.9c0,0.2-0.1,0.3-0.1,0.5c-1.9,6.8-6.4,13.1-9.5,19.4
	C1013.9,780.9,1010.2,789.1,1006.3,797.2z"/>
<path fill="#918879" d="M1267,824.7c-9.8,4.6-20.3,8.3-31,10c-7.2,1.2-14.4,2.3-21.6,3.5c-3.7,0.6-7.4,1.2-11.1,1.8
	c-3,0.5-5.1,2.2-8,2.8c-0.6,0.1-1.2,0.2-1.8,0.2c-2.8,0-5.5-1.3-7.4-3.4c-5.2-5.5-4.2-14-3.2-20.8c0.8-6,1.1-19,1.1-19
	c0-0.2-2.4-1.4-2.6-1.5c-1.4-0.9-3-1.9-4.2-3.2c-0.7-0.7-1.2-1.6-1.3-2.5c-0.2-1.2,0.3-2.4,0.9-3.4c0.4-0.7,6.5-6.1,7.1-6.1
	c0,0,0,0,0,0c0,0-1.4-4-1.7-6.2c-0.7-4.5-1.1-8.8-2.1-13.3c-0.9-4.2-2.5-8.3-3.4-12.6c-3.2,0.1-7.6,0.8-11.9,0.8c-0.1,0-0.3,0-0.4,0
	c-3.9,0-7.5-0.7-10-2.8c-2.7-2.2-3.9-6.5-1.9-9.4c1.8-2.7,5.3-3.4,8.5-3.7c2.8-0.3,5.5-0.4,8.3-0.4c12,0,24.1,2.1,35.9,4.1
	c7.7,1.3,15.3,2.8,22.9,4.7c7.3,1.8,15.6,3.3,22.4,6.5c2.7,1.2,5.1,3.1,6.6,5.7c2.4,4.2,0.8,8.6-2.3,11.8c-5.7,5.9-16,8.3-23.6,11
	c-4.9,1.8-9.9,3.4-14.8,5c-4.4,1.4-13.9,4.9-13.9,4.9s2.8,0.2,3.5,0.5c1.3,0.4,2.6,0.6,4,0.7c0.7,0,1.4,0.1,2.1,0.1
	c2.1,0,4.3-0.2,6.4-0.2c0.1,0,0.3,0,0.4,0c6.2,0.1,12.4,0.2,18.6,0.7c8.9,0.6,17.9,1.6,26.6,3.9c6.2,1.6,17.9,3.8,19.6,11.2
	c0.9,4-1,8.3-4,11.2C1276.1,820.5,1271.3,822.6,1267,824.7z M1266,808.8c-1.6-0.3-3.5-1-4.3-1.2c-2-0.6-4.1-1.2-6.2-1.7
	c-4.8-1.2-9.7-2.1-14.7-2.5c-10-1-20.1-1.5-30.2-1.7c-3.4-0.4-14-1.3-14-1.3s0.4,6.4,0.6,9.8c0.3,5.3,0.6,10.7,0.8,16.1
	c0,0.7,0.3,2.7,0.3,2.7s1.8-0.2,2.7-0.3c11.9-1.8,23.7-3.6,35.4-6.4c11.2-2.7,21.9-5.8,31.4-12.7c0,0,0,0,0,0
	C1267.5,809.5,1266.4,808.9,1266,808.8z M1197.9,779.1c0,0,3-0.3,4.1-0.8c6-2.5,12-5,18.1-7.3c5.6-2.1,11.6-3.4,16.9-6.2
	c1.3-0.7,2.2-1.8,2.2-2.8c0-0.7-0.5-1.4-1.7-2c-3.1-1.4-6.4-1.6-9.7-2.2c-6.6-1.2-13.3-2.4-19.9-3.5c-3.2-0.6-12-2.3-12-2.3
	s0,9.9,0.3,12.6c0.3,3.7,0.7,7.5,1.2,11.2C1197.5,776.8,1197.9,779.1,1197.9,779.1z"/>
<g>
	<path fill="#918879" d="M1324.8,811.1c-0.4,0.3-1,0.6-1.7,1c0.9-10.6,3.5-17.2,8.3-21.8c0.1-0.1,0.2-0.2,0.3-0.3
		c0.4,0.6,0.8,1.3,1.1,1.9c0.7,1.6,1.1,3.2,1,4.9C1333.7,801.6,1330.2,807.1,1324.8,811.1z"/>
</g>
<path fill="#918879" d="M1443.5,797c-0.6,10.3-5.1,20.5-11.9,28.3c-7.7,8.7-19.2,16.7-30.6,19.5c-2,0.5-4.2,0.8-6.3,0.8
	c-4.6,0-9.2-1.3-12.6-4.2c-7.5-6.4-7.2-16-6-24.8c2.1-14.6,5.5-31.7,14-44.1c4.4-6.4,11.2-11.7,18.9-13.5c1.7-0.4,3.2-0.6,4.7-0.6
	c6,0,10.8,2.9,15.9,7c4.1,3.3,7.6,7.5,10,12.2C1442.7,783.6,1443.9,790.3,1443.5,797z M1416.8,771.1c-0.6-0.2-1.3-0.3-2-0.3
	c-5,0-11.7,5-14.2,8.1c-9.1,11.3-13.7,28.9-13.8,43.7c0,4,1.7,7.7,5.7,8.9c1.1,0.3,2.2,0.5,3.3,0.5c2.1,0,4.3-0.5,6.3-1.2
	c12.5-4,24.5-14.4,27.8-27.4c0.5-2.1,0.8-4.2,0.8-6.3c0-5.3-1.7-10.4-4.3-15.3C1424.4,777.8,1421.3,772.6,1416.8,771.1z"/>
<g>
	<path fill="#918879" d="M1414.5,799.5c-1.2,4.8-5.4,9.7-10.7,13.1c1.5-8.9,4.6-17.3,8.8-22.9c1.5,3,2.2,5.5,2.2,7.6
		C1414.8,798,1414.7,798.8,1414.5,799.5z"/>
</g>
<path fill="#918879" d="M1493,810.5c-2.1-2.2-4.3-4.4-5.4-7.2c-1.1-2.8-0.9-6.4,1.4-8.4c1.3-1.2,2.8-1.7,4.3-1.7c3.9,0,8,3,11.4,4.1
	c1.9,0.6,3.9,0.9,5.9,0.9c4.3,0,8.6-1.3,12.2-3.3c6.3-3.5,16.7-11.7,18.3-19.1c1.9-8.6-7.6-9.6-14.1-9.6c-0.8,0-1.5,0-2.2,0
	c-7.4,0.2-14.7,2.1-21.1,5.7c-22.1,12.2-24,38.6-27.8,60.7c-0.5,2.7-1.2,5.8-3.5,7.2c-0.8,0.5-1.6,0.7-2.4,0.7c-2.4,0-5-1.7-6.2-3.9
	c-1.6-3-1.6-6.6-1.4-10.1c1-27.6,2.6-55,0.7-82.6c-0.5-7-1-14.6,2.9-20.5c1-1.6,2.4-3,4.2-3.6c0.6-0.2,1.3-0.4,2-0.4
	c1.2,0,2.4,0.4,3.3,1.2c1.5,1.5,1.6,3.9,1.5,6c-0.2,19.4-0.4,38.9-0.7,58.3c3.9-10.2,11.2-19.1,20.5-24.8c8-4.9,18.3-7.7,28.1-7.7
	c3,0,5.9,0.3,8.8,0.8c9.7,1.9,20.3,10.1,21.1,20.5c0.5,6.4-2.8,11.3-6.5,16.1c-4.3,5.6-9.7,10.2-15.9,13.5c-6.7,3.6-13.3,4-20.3,6
	c1.9,5.3,6.9,11,10.8,15.1c4.4,4.5,10,8.2,16.2,9.2c1,0.2,2,0.2,3.1,0.2c5.3,0,10.7-2.1,13.9-6.3c1.4-1.8,2.3-3.9,3.8-5.6
	c1.3-1.5,3.1-2.7,5-2.7c0.3,0,0.6,0,1,0.1c2,0.5,3.4,2.3,3.8,4.3c0.2,0.8,0.2,1.6,0.1,2.5c-0.1,1.2-0.4,2.4-0.8,3.6
	c-2.3,6.8-7.4,12.7-14,15.7c-3.7,1.8-7.4,2.5-11,2.5c-10.3,0-20.1-6.2-27.7-13.6L1493,810.5z"/>
<path fill="#FCEED2" d="M1545.7,813.9c-0.7,1-1.3,1.9-1.8,2.7c-0.2,0.3-0.4,0.7-0.6,1c-0.2,0.1-0.7,0.3-1.4,0.3c-0.2,0-0.4,0-0.6,0
	c-0.5-0.1-0.9-0.2-1.4-0.4C1541.9,816.3,1543.9,815.1,1545.7,813.9z"/>
</svg>
