<?xml version="1.0" standalone="no"?>
<!DOCTYPE svg PUBLIC "-//W3C//DTD SVG 1.1//EN" "http://www.w3.org/Graphics/SVG/1.1/DTD/svg11.dtd" >
<svg xmlns="http://www.w3.org/2000/svg" xmlns:xlink="http://www.w3.org/1999/xlink" version="1.1">
<metadata></metadata>
<defs>
<font id="bkhandyboldcyrboldcyr" horiz-adv-x="1189" >
<font-face units-per-em="2048" ascent="1626" descent="-422" />
<missing-glyph horiz-adv-x="614" />
<glyph unicode="&#xd;" horiz-adv-x="681" />
<glyph unicode=" "  horiz-adv-x="614" />
<glyph unicode="&#x09;" horiz-adv-x="614" />
<glyph unicode="&#xa0;" horiz-adv-x="614" />
<glyph unicode="!" horiz-adv-x="591" d="M348 1430v-1033q0 -25 -16.5 -41t-41 -16t-41 16.5t-16.5 40.5v1033q0 25 16.5 41t41 16t41 -16t16.5 -41zM371 121l-4 -113q0 -25 -17.5 -41t-42 -15t-41 18.5t-14.5 41.5l4 113q0 25 17.5 41t42 15t41 -18t14.5 -42z" />
<glyph unicode="&#x22;" horiz-adv-x="790" d="M180 1378q109 -125 88 -264q-14 -113 -118 -244q-14 -18 -38 -20t-43.5 12.5t-21.5 38t12 43.5q84 104 97 184q12 90 -62 177q-16 18 -14 41.5t20.5 39t42 13t37.5 -20.5zM387 1368q2 0 4 1t9.5 4t17.5 5q55 20 92 -12q47 -41 57 -121q8 -55 -2 -133q-8 -53 -24 -127 l-13 -49q-8 -33 -12 -45q-4 -23 -24.5 -36t-43 -8t-36 25.5t-6.5 42.5q2 12 10 47t12 50q16 66 23 116q8 61 4 103q-2 23 -9 37q-27 -12 -43 -15q-23 -2 -42 11.5t-22 37t10 43t38 23.5z" />
<glyph unicode="#" horiz-adv-x="1253" d="M770 922q-152 20 -287 6l-14 -37q-100 -287 -117 -344q143 12 283 6l57 154q51 137 78 215zM66 541l24 -15l21 -12q14 -8 22 -8q25 -2 72 10l22 8q25 98 127 381q-76 -16 -196 -47q-23 -6 -43.5 6.5t-26.5 35t6 43t35 26.5q168 45 266 61l51 178l48 166q6 23 27.5 34 t44 5t33.5 -27.5t5 -44.5l-84 -294q131 8 283 -15l4 17q18 70 42.5 197.5t37.5 174.5q4 25 24.5 37t44 7t36 -25.5t5.5 -42.5l-34 -178q-27 -129 -45 -199l-3 -8q35 -6 72 -17q25 -4 37 -24.5t7 -44t-25.5 -35.5t-42.5 -6q-43 8 -80 16q-29 -92 -82 -235l-47 -123 q84 -10 166 -29q23 -4 36 -24.5t7.5 -43t-25.5 -36t-43 -7.5q-88 18 -182 27q-20 -57 -35 -106q-20 -61 -60 -224q-39 -158 -59 -227q-6 -23 -27.5 -34t-44 -5t-34 27.5t-4.5 44.5q20 68 57 223q37 147 61 227l27 82q-133 4 -270 -10l-2 -14q-10 -49 -15.5 -85t-7.5 -75 l-4 -61q0 -20 1 -79t1 -89q0 -25 -16.5 -41.5t-41 -16.5t-41 16.5t-16.5 41.5q0 31 -1 83t0 75.5t2 61.5t5.5 73.5t12.5 78.5q-43 -10 -80 -6q-31 4 -66 23l-22 12q-10 6 -17 8q-20 10 -28 32.5t1 44t31.5 30t45.5 0.5z" />
<glyph unicode="$" d="M387 748q-2 221 -4 503q-86 -35 -145.5 -101.5t-73.5 -152.5q-10 -55 -4 -90t35 -67q37 -41 116 -68q19 -8 76 -24zM592 666q0 98 -2 190q0 61 -8.5 205.5t-8.5 222.5q-39 2 -75 -2q0 -330 2 -575q51 -21 92 -41zM705 457q-2 -147 -7 -322q115 47 129 129q2 10 -12 45 q-14 33 -29 56q-32 49 -81 92zM592 537q-39 23 -90 45q4 -258 12 -486q35 0 72 6q6 242 6 435zM862 1063q-8 16 -18 43t-15.5 36t-14.5 23.5t-21 26.5q-45 43 -107 68q2 -63 9 -197.5t10 -202.5q2 -125 2 -260q111 -76 174 -174q20 -31 39 -74q27 -66 18 -108 q-14 -86 -80.5 -143.5t-157.5 -86.5l-4 -2q-4 -106 -10 -319q-2 -23 -18.5 -39t-40 -15t-40 17t-16.5 41q8 197 11 291q-33 -4 -64 -4q6 -162 14 -316q0 -23 -15 -40t-38.5 -18t-41 14.5t-19.5 39.5q-8 158 -15 328q-12 4 -26 6q-92 27 -173 102.5t-122 161.5 q-10 23 -2 44.5t29.5 31.5t43 2t31.5 -29q31 -66 91.5 -123t123.5 -77q-6 242 -10 518q-12 4 -35 10q-59 18 -82 25q-104 39 -159 98q-53 57 -64.5 124.5t4.5 127.5q20 133 111.5 226t218.5 132v195q0 23 17.5 40t40 17t40 -17.5t17.5 -39.5v-172q37 4 75 2q4 102 17 182 q2 25 21.5 38t43 10t37 -22.5t8.5 -41.5q-12 -82 -14 -185q109 -31 184 -104q20 -20 37 -44t24 -38t19.5 -45t14.5 -39q10 -20 1.5 -43t-30 -32t-44 -1t-30.5 31z" />
<glyph unicode="%" horiz-adv-x="1867" d="M305 829q109 -55 170 -36q47 12 57 71q10 70 -35.5 140.5t-127.5 87.5q-66 12 -101 -21q-33 -33 -35 -92q0 -93 72 -150zM186 791q-68 84 -65.5 190t69.5 172q78 74 199 49q131 -27 202 -135.5t52 -220.5q-8 -57 -43 -101.5t-94 -60.5q-45 -14 -100 -6q-14 -6 -29 -2 q-76 14 -133 57q-14 8 -31 17q-23 14 -27 41zM1032 240q-41 16 -35 59q0 6 1 37t4.5 59.5t11.5 50.5q25 72 121 121q86 43 186 49q72 4 134.5 -13t116.5 -68.5t70 -133.5q25 -121 -45.5 -211t-181 -118.5t-219.5 12.5t-164 156zM1319 1399l-59 -94q-29 -47 -60 -105l-51 -94 l-55 -105l-54 -98q-14 -29 -86 -164l-100 -186l-80 -156q-53 -104 -90 -188l-72 -168q-10 -23 -31.5 -32t-43 0t-30.5 30.5t-1 42.5l76 174q37 86 90 193l82 157l98 189q74 135 90 161q12 27 51 101l60 106l51 94l61 109q29 49 60 94q12 20 35.5 24.5t43 -8t23.5 -36 t-8 -41.5zM1128 299q37 -80 109 -109.5t149 -9.5q76 20 118 75.5t28 125.5q-14 66 -68.5 96.5t-136.5 24.5q-78 -4 -141 -35q-55 -29 -66 -57q-6 -16 -8 -88q10 -9 16 -23z" />
<glyph unicode="&#x26;" horiz-adv-x="1402" d="M530 784q94 51 154 101q57 51 86 123q20 49 25 61q6 18 5 39.5t-16 44.5q-45 84 -138 132t-173 38q-72 -10 -98 -74q-35 -86 20 -250q35 -98 135 -215zM915 412q55 147 66 252q2 23 19.5 37t41 12t38 -19.5t12.5 -42.5q-14 -141 -95 -325q86 -94 177 -226q12 -18 9 -40.5 t-22.5 -35t-42 -9.5t-35.5 24q-72 102 -137 178q-25 -45 -53 -86q-98 -145 -211 -192q-145 -59 -285 49q-33 25 -74.5 67.5t-62.5 79.5q-41 76 -55.5 137.5t-14.5 145.5q2 59 21.5 109.5t57.5 87t74 62t87 54.5q-100 119 -137 232q-70 205 -19 327q49 121 185 142 q115 16 237.5 -48.5t186.5 -177.5q23 -43 25.5 -88t-5.5 -70.5t-24 -68.5l-7 -12q-37 -90 -104.5 -151.5t-161.5 -115.5l17 -16q53 -53 155 -145zM506 645q-109 -57 -157 -105t-48 -122q-2 -72 10.5 -119t46.5 -111q12 -25 46 -59.5t59 -54.5q90 -68 176 -33q84 35 164 154 q33 49 63 110l-10 10q-43 43 -149.5 139.5t-161.5 151.5z" />
<glyph unicode="'" horiz-adv-x="507" d="M246 1466q57 -246 33 -551q-2 -23 -19.5 -38t-40 -13t-38 19.5t-13.5 40.5q23 289 -33 518q-4 23 8.5 42t35 24t42 -7t25.5 -35z" />
<glyph unicode="(" horiz-adv-x="923" d="M549 1417q-20 -20 -67.5 -62t-74 -72t-45.5 -62q-117 -209 -190 -488q-84 -317 -45 -502q37 -160 223 -381q86 -98 148.5 -145t152.5 -55q23 -2 38.5 -20.5t13 -42t-20.5 -39t-43 -13.5q-63 6 -117.5 27.5t-102.5 59.5t-79 70t-76 85q-96 111 -160 213q-63 100 -88 217 q-47 213 45 555q78 295 203 516q23 39 56.5 78t86 87t60.5 56q16 16 40.5 16.5t41 -16t16.5 -41.5t-16 -41z" />
<glyph unicode=")" horiz-adv-x="655" d="M80 1493q14 -45 36.5 -95t43.5 -85l53 -92l53 -93q102 -182 144 -397q39 -215 18 -432q-12 -133 -109 -334q-2 -4 -15 -32.5t-16 -35t-14.5 -32t-14.5 -34.5t-12 -30.5t-14 -33.5l-10 -31q-6 -18 -10 -34.5t-6 -33.5q-6 -25 -25.5 -38t-43 -8t-37 24.5t-9.5 42.5l12 45 q6 25 11.5 42t15.5 43.5t14.5 39t18.5 42t17 37t18.5 40t17.5 36.5q86 182 96 297q18 201 -18 398q-37 199 -127 362l-53 88l-58 98q-20 39 -45.5 95.5t-42.5 107.5q-6 23 5.5 43.5t34 27.5t43 -4t28.5 -34z" />
<glyph unicode="*" horiz-adv-x="927" d="M412 1370q-23 -49 -25 -139v-27q49 23 248 86q20 6 41.5 -4t28 -31.5t-4 -43t-32.5 -27.5q-172 -55 -197 -66q2 -8 0 -18q-4 -23 -20 -35l12 -16l86 -103q16 -16 15 -39.5t-18.5 -39t-41 -14.5t-37.5 19q-27 29 -90 105l-29 35q-12 -6 -26 -4q-10 0 -21 6 q-23 -47 -35 -103q-6 -23 -25.5 -35t-42 -7t-34.5 24.5t-8 42.5q18 82 59 154q-104 27 -190 79q-20 12 -25.5 34t6.5 42.5t33.5 25.5t42.5 -7q84 -49 194 -74v43q2 113 33 182q10 20 31.5 29.5t42 -0.5t30 -32t-0.5 -42z" />
<glyph unicode="+" horiz-adv-x="1343" d="M4 526q190 47 455 47q-4 270 4 463q0 25 18.5 40.5t42 15.5t39 -18.5t15.5 -41.5q-8 -193 -5 -461q193 -6 498 -43q25 -4 39 -22.5t11 -42t-21.5 -37.5t-40.5 -12q-297 35 -486 43q8 -451 9 -535q0 -25 -16.5 -41t-41 -16t-41 16.5t-16.5 40.5q0 84 -8 537 q-250 0 -426 -43q-23 -6 -43.5 6t-26.5 34.5t6 43t35 26.5z" />
<glyph unicode="," horiz-adv-x="595" d="M231 12q-51 18 -81 35q-37 20 -54 43q-16 20 -16 43q0 27 18 49q16 20 52 29q37 12 90 12q23 0 39 -2q12 -2 20 -6q27 -8 39 -31q18 -35 2 -73l2 -2q47 -72 31 -195q-14 -121 -70 -180q-25 -25 -67 -35q-10 -2 -19.5 -4t-13.5 -4q-25 -8 -47.5 3t-30.5 34.5t3 46t34 30.5 q4 0 47 11q4 2 6 2q29 35 39 110q4 45 -2 80q-11 0 -21 4z" />
<glyph unicode="-" horiz-adv-x="841" d="M74 653q223 -35 493 -59q25 -2 40.5 -20.5t13 -42t-20.5 -39t-41 -13.5q-293 25 -502 60q-25 4 -39 23.5t-10 43t23.5 37.5t42.5 10z" />
<glyph unicode="." horiz-adv-x="557" d="M213 41h-27q-25 2 -41 19.5t-14 39.5q0 20 14.5 36t34.5 20q2 6 8 14q23 27 64 25q20 -2 39 -13q25 -12 37 -32q29 -47 -15 -84l-2 -3q-4 -18 -18 -30q-18 -14 -42 -12t-38 20z" />
<glyph unicode="/" horiz-adv-x="788" d="M565 1407q-74 -166 -164 -432l-149 -443q-12 -35 -47 -112q-31 -68 -41 -105q-27 -80 -51 -223q-31 -180 -47 -239q-6 -23 -26 -34.5t-42.5 -5t-33.5 26t-5 41.5q14 53 45 230q27 152 53 237q14 43 47 117q33 72 46 104l147 443q90 266 166 440q10 20 31.5 28.5t42 -1 t28.5 -31t0 -41.5z" />
<glyph unicode="0" horiz-adv-x="1171" d="M379 1210q-113 -131 -176.5 -285.5t-57.5 -322.5t101 -299q104 -145 209 -162q139 -23 247 117q96 123 129 299q10 51 -10 191q-31 213 -127 313q-94 100 -309 147q-4 2 -6 2zM547 1284q145 -51 233 -143q121 -127 156 -377q23 -158 10 -227q-39 -205 -151 -351 q-150 -195 -361 -159q-152 25 -282 206q-88 123 -114 271.5t6 289t97 267.5q63 127 158 235q37 43 45 52q20 23 37 34q29 25 55 29q29 4 68 -2q0 -2 24 -6q10 -2 19 -4q23 -2 38 -21.5t11 -44.5q-2 -18 -16.5 -32.5t-32.5 -16.5z" />
<glyph unicode="1" horiz-adv-x="876" d="M451 1028q-104 -74 -273 -92q-25 -2 -43 13.5t-20 39t13 42t38 20.5q111 10 184.5 49t122.5 117l4 16q14 63 35 119q14 41 31 57q14 12 30 16q31 8 56 -10q20 -16 26 -49q6 -43 -20 -92q-2 -6 -17 -29q-8 -12 -10 -18q-12 -27 -26 -51q-16 -90 -17 -211q0 -63 -1 -222 t-1 -244t4 -214q4 -123 15 -238q2 -23 -13.5 -41t-39 -20t-42 13t-20.5 40q-8 106 -13 237.5t-5 216.5t1 248.5t1 223.5v63z" />
<glyph unicode="2" horiz-adv-x="1204" d="M74 1001q2 6 8 33t13 52.5t16 43.5q41 82 145 143.5t223 82.5q53 12 113.5 9t113 -18.5t96.5 -55.5t64 -99q68 -199 -116 -498q-59 -96 -158 -223l-137 -176l-62 -82q133 -8 259 -39t292 -86q23 -8 34 -29.5t3 -44t-29.5 -34t-44.5 -3.5q-176 59 -305 89t-264 32 q-14 0 -35 -4q-37 -45 -65 -74q-23 -25 -43 -36q-31 -23 -58 -23q-55 -2 -86 6q-55 12 -67.5 55.5t28.5 79.5q18 18 51 35q76 41 177 64l51 65l47 66q20 29 22 33l140 178q94 121 149 211q156 254 107 401q-20 57 -88 81t-168 5q-98 -16 -179 -63.5t-104 -96.5 q-8 -14 -12 -29.5t-9.5 -39t-11.5 -43.5q-6 -23 -27.5 -35t-44 -5t-34.5 28t-4 44z" />
<glyph unicode="3" horiz-adv-x="1163" d="M57 954v11q-2 16 -2 18q-4 35 6 59q18 41 64 74l31 23q16 10 24 16q135 115 303 148q223 45 336 -105q98 -129 53 -268q-29 -88 -106 -152q31 -12 57 -30q131 -88 119 -265q-4 -45 -28.5 -98t-42 -78.5t-52.5 -70.5q-100 -133 -241.5 -204t-276.5 -57q-147 16 -243.5 130 t-106.5 311q-2 25 14.5 42t40 19t40.5 -14.5t20 -38.5q8 -162 76.5 -243t171 -91t216 46.5t199.5 168.5q94 125 98 187q8 111 -67 159q-59 41 -162 45l-18 -6q-45 -14 -74 -16q-25 -4 -41 0q-18 4 -35.5 19.5t-17.5 43.5q0 45 41 66q18 10 47 10q10 0 32 -2h19h29 q49 16 59 23q98 49 125 131t-35 163q-72 92 -223 62q-139 -29 -252 -121q-14 -12 -33 -25q-23 -16 -26 -20q-20 -14 -27 -25v-6q0 -4 2 -10v-6q2 -12 2 -23q0 -25 -16.5 -41t-41 -16t-41 16t-16.5 41z" />
<glyph unicode="4" horiz-adv-x="1110" d="M827 1225q-12 -25 -19 -55.5t-9 -52t-5 -65.5t-8 -69q-31 -293 -36 -448q49 2 86 -3q25 -2 40 -20t13 -42t-20.5 -39t-41.5 -13q-35 2 -79 0q0 -182 22 -346q4 -25 -10.5 -43.5t-39 -22.5t-43 10.5t-22.5 38.5q-25 166 -24 351q-88 -14 -262 -50q-180 -37 -215 -41 q-51 -6 -82 -4q-61 4 -80 47q-8 20 -4 41q2 8 6 19q4 14 14 35q16 31 47 79q43 76 78 130l225 360q139 223 246 356q14 18 38 21.5t43.5 -12t22.5 -39t-14 -43.5q-104 -131 -237 -344q-217 -350 -226 -365q-35 -49 -77 -123l-25 -43q4 0 8 2q53 6 209 37q193 41 287 53 q6 166 39 473q2 16 5 62.5t6 73t13.5 67.5t24.5 76q10 20 32.5 29.5t44 -1t30.5 -32.5t-1 -45z" />
<glyph unicode="5" horiz-adv-x="1232" d="M895 1276q-27 -8 -70 -27l-75 -28q-100 -35 -181 -29q-82 8 -116 18q-23 6 -52 27q-6 -14 -12 -35q-23 -70 -47 -180q-20 -94 -35 -180q84 49 236 45q90 -4 175 -45t147.5 -108.5t103.5 -153.5t43 -179.5t-31 -185.5q-47 -109 -164 -163t-258 -58q-133 -2 -259 37 t-194 116q-20 23 -32.5 43.5t-19.5 44t-9 35t-5 42t-3 38.5q-4 23 10 41.5t38 21.5t42 -11.5t20 -39.5q2 -14 5.5 -39.5t4.5 -32.5t5 -21.5t10 -22.5q8 -8 21 -25q45 -53 146 -85t218 -27q119 2 205 41.5t112 109.5q39 84 21 173t-65.5 164t-126 124t-164.5 51 q-180 6 -209 -61q-2 -6 -2 -17l-2 -8q-2 -8 -7 -14q-16 -35 -53 -33q-14 0 -24.5 5t-14.5 11l-4 7q-4 4 -8 10l-6 12l-21 45q-6 10 -6 25v12q0 8 2 22l11 68q14 90 36 191q27 117 50 188q14 43 24 70q8 16 19 28q18 23 45 27q39 6 84 -23q27 -16 28 -16q29 -8 101 -14 q53 -6 129 20q16 6 71 29q49 18 80 26q23 8 43.5 -3t27.5 -33.5t-4 -43t-34 -26.5z" />
<glyph unicode="6" horiz-adv-x="1259" d="M127 584q12 -123 57 -230q59 -141 138 -188q68 -43 175 -47t210 33q106 37 164.5 104.5t52.5 153.5q-2 47 -54.5 106t-138.5 111q-84 51 -167 74.5t-130 13.5q-53 -12 -101 -48t-116 -98q-16 -16 -39.5 -16t-40.5 18q-6 7 -10 13zM762 1040q-8 92 -41 158t-82 94 q-104 63 -254 -47q-133 -100 -200.5 -266t-59.5 -348q4 12 14 20q47 47 77 72t85 57.5t109 44.5q76 18 179 -11.5t202 -88.5q100 -61 170.5 -141t76.5 -166q8 -137 -75 -234q-86 -94 -218 -141q-119 -43 -253 -39q-137 6 -232 64q-109 68 -182 241q-51 123 -63.5 267.5 t14 282.5t100.5 265q74 125 186 211q104 78 201 90q100 14 182 -34q78 -47 123 -137.5t56 -204.5q2 -23 -13.5 -41.5t-39 -20.5t-42 13t-20.5 40z" />
<glyph unicode="7" horiz-adv-x="1273" d="M14 1010q0 2 -5 29.5t-9 58t-4 53.5q2 141 110 168q49 10 123 -8q63 -14 80 -17q133 0 359 45l163 33l105 19q23 4 35 6q8 2 12 2h8q4 2 8 0q16 0 33 -15q27 -25 19 -61q-2 -12 -9 -27q-8 -18 -28 -45q-27 -43 -84 -116l-94 -121q-49 -63 -56 -74q-117 -186 -180 -299 q27 2 85 3t87 1q23 2 41 -14.5t19.5 -40t-15 -42t-41.5 -18.5q-33 -2 -115.5 -4t-125.5 -6q-166 -324 -187 -579q-2 -25 -19.5 -40.5t-42 -13.5t-40 19.5t-13.5 42.5q20 250 162 551q-74 -20 -127 -60q-20 -14 -43.5 -10t-38 23.5t-10.5 43t23 38.5q102 74 262 96 q74 137 221 370q12 18 61 84l95 119l43 58l-27 -5l-162 -32q-236 -47 -383 -45q-31 0 -108 18q-45 12 -66 6q-23 -4 -22 -53q0 -29 8 -75t8 -54q4 -23 -11.5 -42t-39 -22.5t-43 12t-21.5 40.5z" />
<glyph unicode="8" horiz-adv-x="1128" d="M584 805q18 6 34 14q152 66 175 176q27 119 -117 168q-68 25 -140.5 20t-115.5 -36q-111 -78 -109 -129q2 -41 82 -98q37 -27 191 -115zM412 774q-51 29 -84 53q-123 90 -127 185q-8 115 153 225q72 49 174.5 56t184.5 -23q98 -35 155.5 -112t34.5 -187 q-33 -150 -205 -238q53 -37 82 -74q70 -84 97 -200q27 -119 6 -232q-12 -70 -49 -141q-37 -70 -99 -102q-131 -70 -252 -52q-72 10 -150.5 66.5t-139.5 134.5q-66 82 -97 174q-31 90 -4 168q37 100 174 203l19 12q-2 6 -2 15q0 23 16 39t39 16q27 0 55 4zM569 682 q-66 -18 -137 -27l-100 -67q-111 -82 -133 -150q-16 -43 6 -106q23 -61 76 -129q51 -66 112.5 -110t106.5 -50q86 -12 182 39q31 16 55.5 63.5t34.5 102.5q16 90 -4 183t-74 159q-33 39 -125 92z" />
<glyph unicode="9" horiz-adv-x="1155" d="M885 979h4q23 -4 36 -23.5t9 -42.5l-21 -90q2 -18 2 -39q14 -270 -53 -444q-61 -158 -160 -274q-100 -117 -215 -152q-135 -41 -245.5 49t-171.5 309q-6 20 5 41t32.5 27t42 -5t26.5 -34q53 -182 137 -252q63 -53 142 -29q84 25 167 123.5t138 237.5q37 96 45 217 q-74 -92 -180 -131q-272 -94 -420 12.5t-139 390.5q8 293 145 414q53 49 147.5 63.5t151.5 -6.5q287 -69 375 -362zM801 831q-37 334 -316 404q-47 10 -109.5 1t-90.5 -34q-100 -90 -109 -336q-6 -225 94 -297q100 -74 318 4q55 18 92 53.5t76 98.5q27 45 45 106z" />
<glyph unicode=":" horiz-adv-x="620" d="M176 936q-8 55 10 90q23 43 70 43q35 2 74 -25q25 -16 32 -45q20 -16 25 -43q8 -41 -18 -108q-20 -47 -59.5 -57.5t-73.5 22.5q-33 31 -52 90q-2 2 -2 4q-6 15 -6 29zM254 35q-76 68 -86 117q-8 41 18 69q18 23 52 29q43 8 90 -10q63 -25 71 -74q6 -39 -14 -78 q-18 -31 -47 -43l-4 -4q-16 -18 -40 -19t-40 13z" />
<glyph unicode=";" horiz-adv-x="630" d="M201 907q-27 39 4 72q8 8 18 14l4 8q29 47 76 48q37 0 68 -33q18 -20 28 -49q12 -31 11 -58q0 -49 -39 -71q-39 -20 -88 4q-6 4 -15 8q-10 -2 -20 0q-20 4 -33.5 20.5t-13.5 36.5zM266 0q-8 -2 -18 -2q-41 4 -60 39q-10 23 -8 49q2 33 21 66q8 16 18 28q8 8 19 15 q16 10 36 8q8 8 17 14q41 20 78 -8q41 -33 28 -94q-6 -25 -18 -45q8 -49 2 -99q-8 -82 -56.5 -149.5t-142.5 -91.5q-23 -4 -44 8t-26.5 34.5t7 44t35.5 27.5q100 25 112 140v16z" />
<glyph unicode="&#x3c;" horiz-adv-x="1378" d="M1130 893q-356 -236 -854 -352q-2 -2 -10 -3t-19 -3.5t-20 -4.5q-39 -6 -63 -14q-8 -2 -17 -6l80 -41l281 -137q365 -176 467 -217q20 -8 29.5 -31t1 -44.5t-31 -30.5t-44.5 -1q-104 43 -471 219l-285 140l-94 51l-31 18q-8 6 -12 10q-16 14 -21 31q-16 63 33 109 q29 25 80 41q33 10 78 18q8 0 18.5 2t16.5 3t10 1q477 113 817 336q18 14 42 9t37 -24.5t7.5 -43t-25.5 -35.5z" />
<glyph unicode="=" horiz-adv-x="1306" d="M47 733q59 12 122.5 14.5t150 0t114.5 -2.5q55 0 268 3.5t328 3.5q23 0 39 -16.5t16 -39t-16 -39t-39 -16.5q-115 0 -326.5 -3t-269.5 -3q-37 0 -119 2t-139 0t-108 -10q-23 -4 -42.5 8t-22.5 34.5t9 42t35 21.5zM33 354q393 23 612 17q53 -2 197 -17q121 -12 190 -12 q23 0 39 -16.5t16 -39t-16 -39t-39 -16.5q-74 0 -201 15q-133 12 -190 14q-215 6 -600 -16q-25 0 -41 14t-17 37.5t13 40t37 18.5z" />
<glyph unicode="&#x3e;" horiz-adv-x="1382" d="M111 1051q25 -16 153 -97l178 -110q51 -29 147.5 -79t178.5 -81q8 -4 39 -16l76 -27l80 -29l114 -45q27 -10 39 -18q10 -4 19 -8l12 -11q16 -20 16 -45q-2 -23 -16 -36q-2 -4 -6 -9q-4 -2 -6 -4t-5 -2l-10 -4l-26 -12l-80 -37q-119 -53 -142 -59q-53 -14 -79 -21 q-12 -4 -21 -4q-6 -2 -12 -2h-10q-10 2 -21 6l-29 -8q-125 -35 -331 -148q-295 -158 -342 -180q-23 -10 -45.5 -2t-32.5 30.5t-2 45t30 33.5q49 23 336 178q219 119 355 158q125 35 145 36q12 2 25 0q6 -2 12 -6l111 49l-39 15l-82 28l-76 27q-29 12 -41 16q-88 35 -186 86 q-100 53 -152 84l-184 113l-152 92q-20 14 -26.5 38t7 44.5t37.5 26.5t44 -6z" />
<glyph unicode="?" horiz-adv-x="1191" d="M111 1059q0 2 6 25.5t14 46t19 38.5q45 76 145 138.5t213 89.5q76 14 148.5 15t142 -32.5t110.5 -101.5q96 -160 43 -311q-33 -102 -155 -236q-14 -16 -46 -49t-49 -51l-38 -45q-20 -25 -35 -47q-63 -94 -39 -177q6 -20 -5.5 -40.5t-33 -26.5t-42 5t-26.5 34 q-37 129 54 266q16 25 40.5 55.5t43.5 49.5l51 53q31 35 43 49q106 115 133 194q37 104 -33 220q-35 57 -109.5 74.5t-173.5 -7.5q-94 -23 -175 -73t-113 -103q-6 -10 -10.5 -21.5t-8.5 -31t-12 -37.5q-6 -20 -26.5 -30.5t-42 -3.5t-31.5 27.5t-2 43.5zM504 33l-4 4 q-2 2 -6.5 8t-12.5 14q-35 53 -8 96.5t86 43.5q53 -2 82 -37q31 -39 10 -94q-23 -57 -71 -62h-5q-20 -10 -41.5 -1.5t-29.5 28.5z" />
<glyph unicode="@" horiz-adv-x="1980" d="M1188 1049l4 12q27 78 49 119q16 31 34.5 45t41.5 16q29 4 51 -16q16 -12 21 -33v-12v-17q-2 -10 -7 -30q-8 -35 -18 -80l-21 -78q-12 -47 -14 -53q-31 -123 -84 -228q6 -150 62 -202q27 -27 67 -11q72 29 164 150q76 100 96 178q33 127 -31.5 232.5t-203.5 181.5 q-129 70 -283.5 98.5t-271.5 9.5q-125 -20 -243 -97t-193 -187q-47 -66 -76 -230q-57 -303 141 -483q168 -152 506 -219q94 -16 162.5 -23.5t148.5 -0.5t144 38q23 8 45 0t31.5 -29.5t1 -44t-28.5 -32.5q-82 -35 -180.5 -45.5t-172 -2t-172.5 28.5q-373 72 -563 244 q-246 223 -178 590q35 188 96 274q90 127 228 219q135 90 286 115q135 20 308.5 -12.5t318.5 -110.5q164 -90 250 -228.5t41 -314.5q-25 -98 -117 -219q-113 -145 -211 -186q-111 -43 -192 35q-51 51 -76 143q-166 -184 -389 -111l-55 21q-20 8 -53.5 26.5t-55 46 t-35.5 66.5q-49 150 28 297.5t210 228.5q143 88 260 50q90 -31 129 -129zM1102 920q-10 125 -80 147q-66 23 -164 -37q-106 -66 -163.5 -178.5t-22.5 -212.5q10 -33 37 -49q23 -16 88 -37q154 -51 272 82q31 37 59 86q0 66 9 133q2 4 4 16q-35 13 -39 50z" />
<glyph unicode="A" horiz-adv-x="1382" d="M807 623l-16 39q-129 307 -177 487l-84 -199l-55 -121l-63 -141q-29 -63 -52 -121l-20 -47q41 8 176 45q180 50 291 58zM684 1425q8 -158 61.5 -324.5t151.5 -395.5q4 -10 37 -91l43 -98l37 -88q29 -70 39 -100l32 -90q20 -59 31 -99l23 -90q14 -53 22 -98 q4 -25 -10 -44.5t-37.5 -23.5t-43 10.5t-23.5 36.5q-35 213 -195 586q-10 -6 -23 -6q-98 -6 -282 -55q-182 -49 -256 -64l-41 -119q4 -12 4 -24q0 -25 -16 -41q-6 -6 -13 -10q-41 -123 -84 -273q-6 -23 -27.5 -34t-44 -5t-33.5 27.5t-5 44.5q84 285 153 477q-4 31 21 51 l49 127l53 121l64 144l55 120q98 223 147 379l-4 41q-2 25 14.5 42.5t40 19.5t41 -14.5t19.5 -39.5z" />
<glyph unicode="B" horiz-adv-x="1386" d="M287 1350q-14 -225 -17 -512q61 4 147.5 6t145.5 4q57 4 111 16q88 20 155.5 75.5t126.5 172.5q49 94 2 170q-20 35 -106 55q-80 18 -219 21q-92 2 -240 -4q-75 -4 -106 -4zM748 766q-23 -8 -48 -12q-55 -14 -125.5 -18.5t-161.5 -7.5t-143 -5q0 -111 2 -318.5t2 -304.5 q129 -55 320 -53q213 0 315 72q96 68 131 217t-32 242q-43 61 -96.5 97t-147.5 77q-10 6 -16 14zM213 1464q31 -2 176 4q150 6 246 5q152 -2 244 -25q133 -31 178 -105q80 -131 2 -284.5t-187 -229.5q147 -74 230 -186q96 -133 49 -334q-18 -88 -64.5 -163.5t-111.5 -120.5 q-131 -92 -379 -95q-207 0 -358 62q-10 -4 -21 -4q-25 0 -41 16t-16 41q0 90 -3 402.5t0 516t15 400.5q-20 18 -18 45q2 25 19 41t40 14z" />
<glyph unicode="C" horiz-adv-x="1480" d="M1257 502q-39 -115 -83 -199t-113 -168q-33 -39 -81 -66.5t-80 -38t-87 -24.5q-182 -45 -301 -6q-125 39 -231 188q-86 121 -121 299q-35 174 -10 357q25 193 116 340q90 150 250 211q201 74 395 -13q43 -18 79 -44.5t66.5 -65.5t48 -64.5t46.5 -74.5l39 -64 q12 -20 7 -44t-25.5 -36t-44 -7t-35.5 26q-14 20 -42 67t-42.5 67.5t-38 51.5t-49 49.5t-54.5 32.5q-154 68 -309 8q-121 -45 -197 -166q-74 -123 -96 -291q-20 -160 10.5 -315.5t100.5 -253.5q84 -119 174 -147q86 -29 235 10q74 16 116 34.5t71 53.5q61 76 100 147 q39 76 76 183q8 23 29.5 34t44 2.5t33.5 -29.5t3 -44z" />
<glyph unicode="D" horiz-adv-x="1488" d="M238 117q115 -47 194 -51q127 -10 350 40q115 27 191 60t96 61q45 70 82 205q4 20 4 27.5t-2 31t-2 46.5q4 256 -148.5 470t-396.5 308q-135 51 -364 49q0 -23 5 -80t5 -96q0 -78 1 -221.5t1 -261t-2 -222.5q0 -12 -25 -178q-14 -100 -4 -147q5 -16 15 -41zM246 1477 q248 4 401 -56q274 -106 447 -350q172 -242 172 -534q0 -4 1 -32t0 -54.5t-5 -47.5q-41 -154 -99 -237q-39 -59 -147 -105q-84 -37 -207 -65q-242 -53 -385 -45q-88 6 -193 47q-2 0 -4 -2q-20 -8 -41.5 1t-31.5 32v2l-4 2q-20 8 -29.5 29.5t0.5 43.5q-6 14 -8 27 q-14 68 4 191q20 139 20 163q4 0 2 351l-2 350q0 20 -4 77.5t-3 107.5t9 91q4 23 24.5 35t43.5 8q27 -5 39 -30z" />
<glyph unicode="E" horiz-adv-x="1439" d="M262 1470q139 -10 375 -12q389 -4 471 -6q25 -2 41 -19.5t15 -42t-18.5 -41t-41.5 -16.5q-37 2 -469 6q-207 2 -348 11q10 -68 13 -155t2 -132t-8 -162t-7 -135q104 0 286 12q274 18 349 19q25 0 42 -17.5t17 -42t-17.5 -42t-41.5 -17.5q-98 0 -340 -16 q-207 -14 -299 -13q-6 -397 -21 -522q186 -14 406 -21q47 -2 150.5 1.5t191.5 0t161 -17.5q25 -4 39.5 -24.5t9 -44t-25.5 -38t-43 -8.5q-70 12 -147.5 14.5t-178.5 -1.5q-98 -2 -161 0q-236 6 -418 22q-6 -23 -25.5 -35t-42.5 -8q-20 2 -33.5 17.5t-15.5 35.5h-4 q-25 4 -40 22.5t-12 43.5t21.5 40t42.5 13l8 -2q8 84 12.5 167t6.5 220.5t2 173.5q2 57 11 211t7 255.5t-18 195.5h-4q-25 4 -40.5 22.5t-12.5 42.5q4 43 47 52q12 23 37 28q20 6 40.5 -4.5t28.5 -30.5z" />
<glyph unicode="F" horiz-adv-x="1513" d="M158 1505q78 -4 235 0q164 4 242 0q70 -2 204 -12t195.5 -12t196.5 2q25 2 43 -13.5t19 -40t-14 -43t-40 -18.5q-141 -4 -206.5 -2t-205.5 10l-196 15q-74 2 -236 -2q-82 -2 -114 -3q-10 -231 -13 -567q74 -2 301 4q223 6 357 -12q25 -2 39 -21.5t11 -44t-22.5 -39 t-44.5 -10.5q-123 16 -336 11q-225 -6 -305 -2q-2 -522 -6 -674q0 -23 -17.5 -40.5t-41 -16.5t-41 18.5t-15.5 42.5q2 145 4.5 620t14.5 734q-6 0 -12 2q-25 0 -41.5 18t-15.5 42t19.5 40t41.5 14z" />
<glyph unicode="G" horiz-adv-x="1687" d="M776 674q113 -6 194 4t167 45q2 0 3 1t7 5l14 12h2q12 29 43 33q37 6 58 -26q33 -20 41 -70q2 -12 4 -29q0 -18 2 -20q8 -102 6 -129q-4 -18 -12 -31l4 -31q25 -156 153 -422q10 -20 2 -42.5t-28.5 -33t-43 -2t-32.5 28.5q-109 227 -146 367q-57 -125 -162.5 -212 t-230.5 -122q-84 -18 -166 -18t-161.5 32.5t-145 89t-117.5 146.5q-51 90 -75 209q-23 104 -29 213q-4 111 8 228.5t56.5 228t113.5 190.5q106 121 289 156q256 51 442 -91q168 -127 240 -376q6 -23 -5 -43.5t-34 -27.5t-43 4t-29 34q-59 215 -198 319q-145 111 -353 70 q-143 -29 -223 -119q-78 -88 -116.5 -225t-35.5 -271.5t27 -265.5q20 -98 61.5 -174t93.5 -120t114.5 -70.5t127 -25.5t128.5 16q156 43 263 177t109 326q-94 -37 -183 -47t-208 -6q-25 2 -40 19.5t-14 41t18 39t40 15.5z" />
<glyph unicode="H" horiz-adv-x="1431" d="M1157 1407q-6 -86 -6 -178t1 -212t1 -177h6q23 -2 38 -19.5t14 -41t-18 -39t-42 -15.5q-8 -160 -6 -359.5t29 -351.5q4 -23 -9.5 -42t-36 -23t-42 9t-23.5 36q-29 158 -31 368.5t6 362.5q-20 0 -47 -2q-133 -8 -172 -10q-82 0 -303 6q-147 6 -233 4q-6 -326 -41 -696 q-4 -23 -21.5 -38.5t-41 -12t-39 20.5t-13.5 42q37 377 43 706q-8 12 -10 29q0 18 10 33q2 303 -27 645q-2 25 13.5 42t39 20.5t41 -12t21.5 -38.5q27 -305 25 -628q92 2 237 -5q217 -6 299 -4q33 0 164 9q33 2 57 4q0 57 -1 179t-1 215t4 177q2 25 19.5 40t41 14t39 -18 t15.5 -40z" />
<glyph unicode="I" horiz-adv-x="552" d="M219 -31q-8 90 -4 248q4 182 2 238q-2 98 -15.5 303t-17.5 311q0 70 3 203t1 198q0 23 16.5 39.5t40 17.5t40 -15.5t18.5 -41.5q0 -63 -3 -196t-1 -201q2 -109 15.5 -313.5t17.5 -300.5q0 -57 -4 -244q-4 -152 6 -233q2 -25 -13.5 -42.5t-39 -20.5t-41 12t-21.5 38z" />
<glyph unicode="J" horiz-adv-x="1009" d="M143 483q8 -147 25 -227q27 -129 78 -182q33 -33 90 -47.5t121.5 -4t114 41t69.5 73.5q33 70 33 191q-2 29 -4 110q-4 72 -2 115q4 135 4 860q0 25 16.5 41t41 16t40.5 -16t16 -41q0 -725 -4 -864q0 -37 2 -105q4 -86 4 -116q2 -147 -40 -240q-35 -74 -110 -120t-163 -60 q-86 -14 -171 6t-140 78q-76 78 -109 241q-18 90 -26 242q-2 25 14 43.5t39.5 19.5t42 -15.5t18.5 -39.5z" />
<glyph unicode="K" horiz-adv-x="1419" d="M539 743q-147 -160 -275 -266v-6q0 -31 3 -140.5t0 -187t-13 -149.5q-4 -23 -23.5 -37t-43 -10t-38 23.5t-10.5 43.5q8 45 11.5 102.5t3.5 88.5t-2 112.5t-2 98.5q-18 6 -29 20q-14 18 -11 42t21 38l19 14q0 506 -11 951q0 25 16.5 42t40 17t41 -16.5t17.5 -38.5 q8 -403 10 -856q100 92 228 233q6 23 26 33q4 2 6 4q238 266 285 313l57 64q43 47 67.5 71.5t65.5 60.5t80 60q18 14 42 9.5t37 -24t8 -43.5t-25 -36q-33 -23 -68 -53.5t-57.5 -53t-63.5 -67.5t-61 -65l-270 -301q332 -596 557 -775q18 -14 20 -37.5t-12.5 -43t-38 -21.5 t-43.5 12q-237 190 -565 774z" />
<glyph unicode="L" horiz-adv-x="1251" d="M258 1366q0 -53 14 -448q10 -283 2 -453q-2 -41 -6 -111.5t-7 -129t-3 -111.5q109 -12 322 -19q283 -8 401 -26q25 -4 39 -23.5t10 -43.5t-23.5 -38t-41.5 -10q-125 18 -390 27q-283 8 -403 28q-23 4 -37 23.5t-10 44.5q4 18 16 33q0 53 3 112.5t8.5 134t7.5 113.5 q6 137 -4 444q-12 348 -13 453q0 25 16.5 41t41 16t41 -16t16.5 -41z" />
<glyph unicode="M" horiz-adv-x="1656" d="M145 0q10 133 7.5 203.5t-12 202t-9.5 217.5q0 111 8 225.5t26.5 289.5t22.5 224q-16 51 -26 98q-4 23 8 43.5t34.5 24.5t43 -8.5t24.5 -34.5q8 -39 21 -78q10 -14 10 -33q14 -43 33 -92l45 -113l43 -100q51 -133 207 -479q106 -238 164 -383l51 129q203 526 287 719 q14 33 32.5 67.5t45 79.5t32.5 58q45 82 64 139v24q2 18 12 33q6 20 24.5 32.5t38.5 8.5q25 -2 38.5 -21.5t9.5 -41.5q-4 -27 -11 -52q-2 -102 2 -290q6 -258 4 -336q-8 -164 -7 -368t18 -363q4 -23 -11.5 -41.5t-38 -21.5t-41 12.5t-20.5 37.5q-18 166 -19 376t5 372 q4 106 -2 327q-2 33 -2 56q-49 -86 -72 -133q-115 -264 -283 -715q-2 -6 -59 -148q-35 -82 -49 -141q-6 -23 -26.5 -35t-43 -6t-35 26.5t-6.5 43.5l4 12q-6 8 -10 19q-63 176 -199 479q-166 373 -211 483l-38 96q-33 -324 -33 -501q0 -70 9 -205t11 -216t-10 -218 q-2 -23 -20.5 -37.5t-42 -11t-38 21.5t-10.5 43z" />
<glyph unicode="N" horiz-adv-x="1490" d="M115 -20q0 41 -1 232t0 269t5 219q4 133 12 258q4 63 27 228q12 90 16 143q-2 39 4 74v2q0 25 17.5 40t42 15t40 -17.5t15.5 -41.5v-12q-2 -27 -4 -60q6 -57 45 -135q51 -102 166 -244q70 -84 215 -239q133 -143 174 -195q35 -43 147 -209q41 -61 72 -100 q-39 590 47 1155q4 25 23.5 38t43 10t37 -22.5t11.5 -41.5q-100 -655 -29 -1330q2 -25 -12.5 -43t-39 -20t-43 12.5t-20.5 38.5l-2 21q-12 4 -20 12q-72 72 -162 205q-113 166 -143 204q-35 43 -168 187q-147 160 -219 246q-96 117 -152 211q-10 -82 -14 -140 q-8 -115 -12.5 -254t-5.5 -220t0 -265t1 -231q0 -25 -16 -41.5t-41 -16.5t-41 16.5t-16 41.5z" />
<glyph unicode="O" horiz-adv-x="1607" d="M467 1411q111 113 309 92q92 -8 180 -46t146 -93q18 -16 35 -37l30 -37q12 -16 27.5 -41.5t24 -38t23.5 -43t20.5 -40t20.5 -43t20 -40.5q186 -391 -37 -841q-37 -78 -87.5 -131.5t-129.5 -79.5q-100 -35 -209 -39t-210.5 18.5t-197.5 72.5t-171 121t-128 166t-74 204 q-2 41 -4 63.5t6.5 64.5t13.5 62t15 56t12 48q55 213 88 281q57 123 197 236q2 0 25 24q26 31 55 41zM602 1300q-14 -2 -35 0l-10 3h-16h-11q-8 -10 -16 -36t-16 -46q-8 -23 -31 -32t-45 1q-12 4 -21 14q-72 -68 -106 -143q-27 -57 -78 -260q-6 -20 -15 -55t-14.5 -51.5 t-11.5 -49.5t-5 -46t3 -44q18 -106 77.5 -198.5t144.5 -153t188.5 -98t212 -36.5t215.5 33q51 16 84.5 53.5t66.5 100.5q197 399 33 739q-2 6 -16.5 36t-18.5 37t-16 32.5t-19 34.5l-16 32q-12 20 -20 33l-21 27q-12 16 -25 28l-24 27q-41 39 -110.5 68.5t-143.5 38.5 q-61 4 -113 -7q4 -10 4 -22q2 -25 -15 -42.5t-40 -17.5z" />
<glyph unicode="P" horiz-adv-x="1378" d="M250 795q8 0 18 -2q152 -57 275 -62q115 -4 243 10q166 16 213 50q72 53 25 223q-20 78 -60 144.5t-75 92.5q-90 68 -189 82q-51 6 -221 13q-80 2 -133 2l-57 -2l-21 -9q-26 -200 -18 -542zM139 1393q4 2 25.5 16t45 27.5t42.5 19.5q23 8 94 8q55 0 137 -2 q176 -6 234 -14q129 -18 241 -102q55 -41 103.5 -125t75.5 -177q18 -66 21 -125t-18.5 -122.5t-74.5 -100.5q-72 -51 -266 -71q-135 -12 -260 -9q-135 4 -287 58q4 -223 0 -355q0 -51 -10.5 -147t-12.5 -139q0 -25 -18 -41.5t-42 -15.5t-40 19.5t-14 41.5q2 47 12 147 q8 90 10 140q2 115 -2 299t-4 355t14 310q-18 8 -28 25q-10 20 -4 44t26 36z" />
<glyph unicode="Q" horiz-adv-x="1959" d="M1110 178q-106 -156 -203 -201q-57 -29 -136 -33.5t-148 7.5q-68 10 -127 31q-143 51 -220 122q-96 88 -137 228.5t-41 285.5q0 369 140 596q182 297 550 259q23 -2 37 -5q18 18 47 17q141 -14 238.5 -112.5t151.5 -246.5q45 -127 56 -275.5t-13 -258.5 q-25 -127 -127 -305q18 -23 30 -47q35 -68 17 -164q-4 -27 -17 -72l-14 -59q-10 -57 2 -86q12 -25 61 -41q53 -18 140 -25q88 -6 280 6q25 2 42.5 -14t19.5 -40t-14.5 -41t-38.5 -19q-199 -12 -297 -7q-102 6 -168 31q-96 33 -127 101q-31 63 -13 157q4 20 17 68 q10 41 14 61q10 49 -2 82zM692 340q182 123 352 43q23 -10 43 -23q84 154 107 256q20 92 10 225.5t-51 245.5q-43 119 -111 191q-27 -6 -47 6q-92 61 -219 74q-297 31 -440 -203q-123 -201 -123 -537q0 -129 34 -245.5t107 -186.5q61 -55 178 -98q78 -27 169.5 -31t156.5 23 q74 35 170 182l-33 19q-68 29 -120 19.5t-117 -54.5q-20 -14 -44 -9t-37 24.5t-8 43t23 35.5z" />
<glyph unicode="R" horiz-adv-x="1667" d="M293 748q201 -10 420 6q147 10 237 34q96 25 121 54q20 29 19 110q-2 8 -3 27v25q0 6 -1 20t-2 18.5t-3 15.5t-4 16t-5 14.5t-7 16.5t-10 15t-13 19q-8 10 -22 19t-22.5 13.5t-34.5 16.5l-39 14q-172 74 -287 89.5t-291 -1.5q-4 -37 -8 -67q-10 -59 -19 -80 q-4 -14 -14 -27q-2 -14 -6 -39q-6 -47 -7 -98t0 -125.5t1 -105.5zM625 631q-178 -8 -334 0q-4 -172 -4 -635q0 -25 -16.5 -41t-41 -16t-41 16t-16.5 41q0 520 4 725q0 35 -1 111.5t1 142.5q0 61 8 119q8 59 13 73q2 10 6 17q4 8 12 16q4 16 8 43q4 29 6 80q4 72 7 88 q2 25 20 40t40.5 13t38 -18t15.5 -39q205 12 319.5 -3t299.5 -95q4 -2 25.5 -10.5t35.5 -14.5t34.5 -17.5t38 -25.5t31 -31.5t23.5 -35.5l19 -31q6 -12 12 -33l8 -29q2 -6 4 -30.5t3 -27.5t1 -34v-33q0 -29 1 -56.5t-9 -63t-35 -64.5q-45 -59 -172 -94q63 -63 72 -191 q0 -35 -2 -112q-2 -74 0 -107q6 -106 53 -155q10 -10 21.5 -17.5t26 -13.5t25.5 -10t30.5 -7.5t30.5 -5.5t36 -4t34 -2t37.5 -1t37.5 -3q25 0 41 -18.5t15 -42t-19.5 -40t-41.5 -14.5q-6 0 -41.5 1.5t-52 2.5t-51.5 5t-58.5 10t-53 16.5t-54 25.5t-45.5 36q-80 80 -88 231 q-2 39 0 117q4 72 2 104q-4 90 -47 121q-61 47 -240 23q-16 -2 -32 4z" />
<glyph unicode="S" horiz-adv-x="1292" d="M922 1006q45 125 -21 217q-59 88 -184 118q-129 31 -242 -16t-151 -168q-47 -145 28 -231q57 -63 238 -142q6 -4 47 -22l55 -23l49 -22q37 -16 58 -29l45 -26q29 -16 49 -33q164 -119 178 -303q8 -123 -31 -193q-53 -96 -158.5 -137t-230.5 -37q-113 4 -222.5 43 t-176.5 102q-63 59 -88 137t-35 181q-4 23 11.5 41t38 21t41 -12t20.5 -38q10 -90 28.5 -148.5t61.5 -99.5q51 -47 140 -78.5t185 -35.5q100 -4 176 26.5t111 91.5q20 37 14 127q-8 131 -129 222l-45 26l-39 25q-16 8 -50 23.5t-45 21.5t-54 23.5t-49 21.5q-203 88 -277 172 q-119 133 -51 342q29 86 88.5 148.5t131 89t153.5 34t153 -15.5q168 -41 252 -162q98 -141 33 -319q-8 -23 -29.5 -33t-43 -2t-31.5 30t-2 42z" />
<glyph unicode="T" horiz-adv-x="1378" d="M-12 1370q14 4 82.5 20.5t117 24.5t93.5 12q78 4 215 -8v2q0 25 17 42.5t42 17.5t42 -17.5t17 -42.5v-6v-6q63 -4 226 -8q170 -2 266 -12q25 -4 40 -22.5t12 -43.5t-21.5 -40t-42.5 -13q-92 10 -256 14q-158 2 -224 6q8 -391 -2 -534q-4 -66 -16 -187 q-12 -127 -17.5 -196.5t-1 -171t20.5 -185.5q6 -25 -8.5 -45t-38 -25t-44 9t-24.5 37q-18 92 -22 202.5t0 184.5t17.5 204t15.5 181q10 135 4 536q-141 14 -209 9q-41 -2 -82 -9.5t-105.5 -23.5t-89 -21.5t-45 8t-25.5 38t8 45t38 24.5z" />
<glyph unicode="U" horiz-adv-x="1443" d="M287 1417q4 -66 6 -287q2 -209 8 -352q8 -211 31 -338q25 -156 65 -217q35 -55 111 -79.5t172 -16.5q94 8 176 45t123 88q100 125 123 516q18 342 -25 578q-4 23 9.5 43t37 24t44 -9t24.5 -38q47 -248 27 -604q-25 -428 -150 -584q-57 -72 -160.5 -117.5t-216.5 -58.5 q-121 -10 -227.5 25t-165.5 123q-53 84 -82 264q-23 141 -33 352q-4 129 -7 350.5t-5 284.5q-2 25 14.5 43t40 19.5t42 -15t18.5 -39.5z" />
<glyph unicode="V" horiz-adv-x="1439" d="M682 125q2 -4 4 -6q2 4 -4 6zM94 1468q35 -94 105 -239q92 -186 116 -242q41 -92 103 -282q61 -188 96 -275q20 -53 96 -186l8 -15q18 102 74 260q215 610 420 932q14 20 36.5 25.5t43 -8t26 -36t-7.5 -42.5q-201 -313 -411 -907q-63 -182 -76 -297v-9q0 -2 1 -11t3 -21 q4 -70 -47 -95q-18 -8 -32.5 -6t-24 7.5t-9.5 7.5q-8 6 -16 16q-10 12 -27 37q-25 39 -61 106q-80 141 -102 197q-35 86 -99 285q-57 172 -100 272q-25 59 -113 238q-74 152 -108 247q-8 23 1 44.5t31.5 29.5t44 -1t29.5 -32z" />
<glyph unicode="W" horiz-adv-x="1988" d="M139 1405q27 -86 58 -238q31 -162 47 -227q23 -82 90 -283q66 -195 90 -292l39 -175q16 74 26 154q29 244 91.5 434.5t187.5 474.5q2 4 2 7.5t1 12.5t3 21q12 63 60 82q39 16 75 -8q18 -12 37 -37q23 -33 45 -92q8 -18 47 -143q43 -141 121 -426q68 -246 127 -437 l35 -112l47 155q25 98 150 517q96 319 135 512q6 23 25.5 36t43 7.5t37 -24.5t8.5 -44q-43 -203 -137 -520q-145 -492 -151 -512q-10 -39 -54 -180l-28 -93q-6 -20 -11 -32q-2 -6 -4 -11l-4 -8q-4 -6 -8 -10q-6 -6 -14 -10q-20 -12 -43 -8q-20 6 -35 22q-6 8 -12 19l-17 34 q-12 33 -30 88q-10 27 -19.5 59t-16.5 54.5t-7 24.5q-47 147 -127 438q-78 287 -121 424q-39 125 -45 139l-6 14q0 -2 -3 -4q-123 -283 -182 -465t-88 -411q-10 -96 -31 -182q-14 -68 -30 -107q-12 -29 -27 -45q-31 -33 -70 -29q-20 2 -36 17q-6 6 -10.5 13t-8.5 17 q-6 14 -12 39q-12 35 -27 101l-43 180q-27 109 -84 285q-70 203 -92 290q-18 68 -51 234q-29 145 -53 223q-8 25 3 46.5t34.5 28.5t45 -4t27.5 -34z" />
<glyph unicode="X" horiz-adv-x="1382" d="M1057 -37q-82 139 -262 361l-211 258l-19 -31q-156 -225 -422 -571q-14 -18 -37.5 -21.5t-42 11t-21.5 38t11 41.5q248 322 418 567l41 60l-2 6q-172 238 -422 680q-12 20 -6 42.5t26.5 35t43 6.5t34.5 -27q236 -416 394 -641l153 234q43 66 138.5 190.5t181.5 214.5 q16 16 39.5 17.5t40 -15t17.5 -40t-15 -40.5q-45 -47 -95 -106l-77 -94q-31 -39 -86 -119l-72 -102l-82 -127q-68 -102 -72 -111q14 -18 232 -285q180 -221 272 -375q12 -20 6 -42.5t-26.5 -35t-43 -6t-34.5 26.5z" />
<glyph unicode="Y" horiz-adv-x="1445" d="M152 1493q39 -104 99 -203.5t143 -220.5t130 -203q4 -6 29 -55l43 -80l16 -31q23 37 105 158q35 53 110.5 189.5t148.5 241t152 175.5q18 16 42 14.5t40.5 -19t14.5 -41t-19 -40.5q-76 -68 -139 -160t-136 -223t-120 -198q-80 -121 -104 -164v-2q0 -2 -1 -4t-1 -9l-5 -14 q-10 -31 -30 -47q10 -23 7 -147.5t-3 -126.5q2 -57 14 -156q16 -121 21 -166q2 -25 -13.5 -42t-40 -19t-42 13t-19.5 40q-2 33 -19 158q-14 106 -16 168q0 41 3 111.5t0 116.5t-17 87l-2 2q-20 29 -49 80l-39 78l-29 55q-41 68 -126 191.5t-149.5 233t-105.5 218.5 q-8 23 1 44.5t31.5 29.5t44.5 -1t30 -32z" />
<glyph unicode="Z" horiz-adv-x="1361" d="M125 1368q33 0 93.5 -1t78.5 -3q98 0 166 6q45 2 170 25q115 18 186 20h139q55 -2 91 -10q25 -4 41 -12q35 -18 43 -52q4 -20 -7 -45q-4 -8 -12 -20q-10 -16 -33 -45l-98 -117l-174 -190q-90 -98 -252 -330q-170 -242 -254 -342q-66 -78 -117 -131q59 -2 154 4 q59 4 326 33q68 6 417 20q23 0 40.5 -15.5t18.5 -39t-14.5 -40.5t-40.5 -20q-346 -12 -409 -20q-266 -27 -330 -31q-121 -8 -190 -4q-45 2 -74 10q-53 14 -66 54q-20 59 45 100q8 4 15.5 8t10.5 6t5 3t2 4q43 43 121 133q82 98 248 333q158 225 258 338l174 193 q63 70 94 110q-16 0 -37 3q-20 0 -135 -3q-57 0 -166 -18q-133 -23 -182 -27q-72 -4 -176 -4q-16 0 -76.5 1t-93.5 1q-23 0 -40 17.5t-17 40t17 40t40 17.5z" />
<glyph unicode="[" horiz-adv-x="755" d="M420 1313q-29 2 -127 2h-72q2 -18 2 -29q-6 -152 -22 -289q-37 -360 -11 -675q2 -35 17 -154q12 -100 16 -162q4 -117 -2 -158q0 -16 -14 -49v-4q2 -4 14 -8q27 -8 80 -4q41 2 98 12q10 2 27 4l29 6q12 2 18 2q23 4 41 -10t21.5 -37.5t-11 -42t-39.5 -20.5q-4 -2 -14 -4 t-24.5 -4t-26.5 -6q-66 -10 -113 -15q-74 -4 -121 13q-78 25 -92 94q-6 31 8 65q6 20 9 21q2 31 -2 141q-2 49 -15 152q-14 117 -18 159q-25 326 14 697q12 133 19 280v15q-2 18 -3 24q-2 53 31 82q10 8 23 12q4 0 8 2q6 0 14 2h29q31 2 82 0h131q25 -2 40 -19t14 -41 t-18 -39t-40 -15z" />
<glyph unicode="\" horiz-adv-x="802" d="M51 1352q76 -207 146 -371q18 -43 75 -143q53 -98 76 -160q18 -47 34.5 -98.5t39 -129t29.5 -102.5q57 -190 122 -297q12 -20 7 -43.5t-25 -36t-44 -7.5t-36 26q-72 115 -135 325q-10 33 -29 101q-20 74 -37 125l-32 96q-23 53 -72 143q-63 117 -80 156q-72 166 -149 375 q-8 23 2 45t32.5 30.5t45 -1.5t30.5 -33z" />
<glyph unicode="]" horiz-adv-x="593" d="M-35 1473q12 -2 129 -7q74 -4 123 -2q4 0 7 1t11.5 3t20.5 7q63 14 98 -23q14 -14 19 -37q0 -8 2 -22v-54q-2 -51 -10 -145q-2 -41 -7.5 -99.5t-7.5 -93t-2 -47.5q-2 -66 -6 -223.5t-5 -240t2 -209.5t15 -232l8 -72q6 -53 9 -92q4 -135 -58 -194q-39 -39 -139 -49 q-27 -4 -68 -7l-38 -2q-23 0 -41.5 14.5t-19.5 38t13.5 42t38.5 20.5l39 2q37 0 64 4q61 6 74 19q25 25 22 108q-2 33 -8 82q-8 72 -10 74q-10 109 -13.5 240t-2.5 216t5 242.5t4 218.5q0 14 5 50l8 98q4 61 6 100q6 92 8 141v15q-25 -6 -39 -8q-53 -2 -133 2q-121 6 -127 6 q-23 2 -39 18.5t-15 40t17 40t41 16.5z" />
<glyph unicode="^" horiz-adv-x="1001" d="M96 629q70 215 172 438q10 25 94 160l60 94q12 20 20 31q6 6 9.5 11t7.5 9q6 4 12 6q23 12 47 4q57 -23 55 -100q0 -12 -1 -24.5t-1 -14.5t2 -8q29 -111 91.5 -284t109.5 -249q12 -18 6 -41.5t-25.5 -36t-43 -6t-35.5 26.5q-47 78 -111 248q-61 168 -96 291l-10 -17 q-80 -129 -88 -145q-100 -219 -168 -430q-6 -20 -27.5 -31.5t-43 -4.5t-33 28.5t-3.5 44.5z" />
<glyph unicode="_" horiz-adv-x="1277" d="M18 -119q467 0 986 -22q23 0 39 -17.5t15 -40t-18.5 -39t-40.5 -14.5q-518 23 -981 23q-23 0 -39 16t-16 38.5t16 39t39 16.5z" />
<glyph unicode="`" horiz-adv-x="583" d="M111 1460l235 -221q16 -14 17.5 -37.5t-14 -41t-39 -18.5t-42.5 15l-235 221q-16 16 -17.5 40t15 40.5t40.5 17t40 -15.5z" />
<glyph unicode="a" horiz-adv-x="1337" d="M666 297q0 61 6 156q0 27 4 77t4 72q-115 31 -223.5 1t-193.5 -117t-107 -201q-20 -104 37 -181q55 -76 155 -47q45 12 168 113q4 4 64 55zM92 733q12 119 101.5 198t205.5 105q115 25 223.5 -5t151.5 -126q27 -59 25 -203q0 -20 -15 -256q-4 -74 -6 -124q4 -4 8 -11 q25 -37 -6 -69q0 -18 2 -35q8 -96 36 -117.5t100 -21.5q29 2 69 6q12 2 34.5 5t33.5 3q23 4 41 -10.5t21 -38t-11 -42t-39 -20.5q-8 -2 -30.5 -5t-35.5 -5q-47 -6 -81 -6q-113 -2 -172 47q-57 45 -74 156l-86 -74q-139 -117 -211 -137q-86 -23 -156 2q-72 25 -119 86 q-43 55 -57 129t0 145q29 139 127 246t237.5 152t276.5 12q0 104 -14 137q-23 49 -90 70q-70 20 -158 0q-90 -20 -150.5 -75.5t-66.5 -129.5q-4 -23 -21.5 -38t-41 -12t-39 20t-13.5 42z" />
<glyph unicode="b" horiz-adv-x="1153" d="M178 723q0 -248 -4 -467q18 -6 29 -23q6 -6 14 -18q31 -47 46.5 -68.5t41 -45t60.5 -42.5q104 -53 235 -5t182 155q66 141 13 375q-33 133 -64 184q-25 39 -69 80t-76 51q-57 20 -137 8t-148 -51q-98 -55 -123 -133zM59 631q-10 55 4 110v220q0 51 -2 144t-2 114 q-2 156 7 262q2 25 20 40t42 13t39 -20.5t13 -40.5q-8 -102 -6 -252q0 -20 2 -114.5t2 -145.5v-25v-25q31 25 66 45q88 49 188 64.5t191 -10.5q55 -18 114.5 -73.5t91.5 -107.5q41 -66 76 -221q63 -272 -20 -448q-45 -96 -144 -162q-100 -66 -211.5 -78t-218.5 37 q-82 43 -139 119v-37q0 -25 -17.5 -41t-41 -16t-40 17t-16.5 40q4 272 6 582q-2 6 -4 10z" />
<glyph unicode="c" horiz-adv-x="1110" d="M717 662q0 121 -48 204.5t-120 114.5q-47 16 -97.5 16t-111.5 -36.5t-117 -108.5q-59 -74 -78 -174q-12 -57 2 -146q12 -90 48 -178q37 -94 86 -153q49 -61 100 -76q100 -27 211 45q31 20 62.5 45t77.5 68t61 55q18 16 42.5 15t40 -19.5t14.5 -43t-20 -38.5 q-8 -6 -58 -52t-86 -76t-73 -52q-154 -98 -301 -58q-90 23 -156.5 105t-109.5 192q-39 100 -54.5 207t-0.5 184q25 125 102 224q102 129 227 171t236 -10q109 -47 172 -161.5t63 -263.5q0 -25 -16 -41.5t-40.5 -16.5t-41 16.5t-16.5 41.5z" />
<glyph unicode="d" horiz-adv-x="1116" d="M737 276q0 84 8.5 239t10.5 200q-35 -16 -64 8q-14 12 -45 47q-33 35 -51 51q-57 55 -86 64q-39 10 -98.5 -9.5t-108.5 -54.5q-80 -55 -115 -188q-33 -131 -4 -277q29 -150 109 -230.5t194 -64.5q76 10 126.5 56.5t95.5 132.5q10 18 28 26zM895 1440q-14 -311 -23 -672 q-2 -82 -11 -252t-10 -244.5t9 -244.5q2 -25 -13.5 -43.5t-39 -20.5t-41.5 13.5t-21 37.5q-4 35 -6 72q-94 -119 -235 -139q-90 -12 -168 15.5t-129 85.5t-86 131t-49 155q-33 168 8 335t158 246q63 43 147 72q82 29 154 8q59 -16 137 -92l53 -55l31 -29q6 317 20 625 q2 25 19.5 41t41 14t40 -19t14.5 -40z" />
<glyph unicode="e" d="M164 580q289 -18 344 -23q137 -4 223 0q45 2 76 6l24 8q16 12 21.5 45t-6.5 91q-12 49 -36 88t-48 49q-139 66 -283 26q-141 -39 -248 -157q-51 -57 -67 -133zM158 467q6 -63 32 -123q43 -98 121 -164q80 -66 172 -78q102 -12 205 66q23 16 48.5 40.5t41.5 43.5l49 51 q31 31 45 47q16 16 40 17.5t40.5 -15t17.5 -40t-16 -40.5q-12 -12 -42.5 -45.5t-51.5 -54.5l-49 -45q-29 -29 -53 -49q-141 -106 -291 -86q-125 16 -225 102q-100 84 -154 203q-35 80 -44 163t16.5 170t84.5 156q82 94 191.5 149.5t233.5 63t245 -52.5q51 -27 88 -86 t53 -127q10 -45 11.5 -88t-15 -89t-51.5 -75q-25 -18 -74 -28q-37 -6 -92 -11q-86 -4 -231 2q-53 3 -346 23z" />
<glyph unicode="f" horiz-adv-x="790" d="M-57 991q72 16 174 15h14q14 113 31 196q18 84 41 141q29 72 71 97q12 8 33 10q12 2 27 2q23 0 59 -2q8 0 92 -6q25 -2 40.5 -20.5t13.5 -42t-20.5 -39t-41.5 -13.5q-82 6 -90 6q-33 2 -51 2h-6q-10 -12 -21 -37q-18 -45 -35 -120q-14 -74 -26 -170q12 0 26 2 q31 4 105 26q80 25 129 29q23 2 41 -13.5t20 -39t-13 -42t-40 -20.5q-35 -2 -104 -24q-82 -25 -125 -31l-51 -4l-9 -78q-14 -199 -12 -381q0 -174 14 -227q6 -25 23 -62l27 -69q8 -23 -1.5 -44.5t-32 -29.5t-44 1t-29.5 32l-8 22q-4 10 -10.5 23.5t-8.5 21.5q-18 43 -26 76 q-18 66 -19 256q-2 186 15 389l4 68h-2q-92 0 -154 -10q-23 -6 -42 7t-24.5 36.5t8 43t38.5 23.5z" />
<glyph unicode="g" horiz-adv-x="1116" d="M731 692q-6 8 -18 33l-21 37l-16 29q-10 20 -17 30l-20 27q-10 14 -20.5 25.5t-22.5 21.5q-113 92 -227 29q-53 -31 -98.5 -88.5t-69.5 -126.5q-51 -147 -31 -324q14 -133 119 -266q49 -66 100 -64q47 2 131 62l47 35q14 10 30.5 24t25.5 21l32 34l47 52q33 33 72 10 q-4 53 -12 170q-10 145 -10 188v17q-15 8 -21 24zM891 1026q-20 -166 -21 -375q0 -47 9 -180q12 -160 16 -238q4 -141 -4 -235q-12 -127 -53 -191q-47 -78 -136.5 -139t-189.5 -90q-72 -18 -139.5 -19t-136 24.5t-119.5 78.5q-25 27 -45 70q0 2 -9.5 23.5t-15.5 31.5 q-12 23 -5 46.5t28.5 34.5t45 4t34.5 -28q2 -2 28 -61q14 -29 25 -39q94 -102 276 -51q82 23 152 71q72 49 108 105q25 41 35 139q6 74 4 182q-18 -20 -45 -47l-33 -32q-6 -6 -24.5 -22.5t-35.5 -30t-50 -35.5q-115 -82 -197 -84q-111 -6 -198 106q-123 162 -144 328 q-23 199 39 372q31 90 88.5 165t132.5 116q78 47 175.5 39t183.5 -80q49 -39 90 -100q4 80 12 153q4 25 23.5 40.5t43 12t39 -22.5t13.5 -42z" />
<glyph unicode="h" horiz-adv-x="1089" d="M207 1427q2 -16 10 -133q4 -78 12 -125q4 -29 18.5 -94t20.5 -100q51 61 115 90q92 45 189.5 7t170.5 -152q98 -156 111 -439q0 -10 4 -223q2 -127 10 -201q4 -25 -11 -44t-38.5 -22t-43 12t-21.5 38q-10 82 -13 217q-4 205 -4 219q-10 252 -92 381q-98 154 -213 103 q-53 -25 -94 -87.5t-51 -144.5v-2q6 -270 -33 -696q-2 -23 -20.5 -38.5t-42 -13t-39 20.5t-13.5 43q45 528 27 821q-4 55 -25.5 156.5t-25.5 128.5q-8 53 -15 137q-8 117 -8 129q-2 25 13.5 43.5t39 20.5t42 -13.5t20.5 -38.5z" />
<glyph unicode="i" horiz-adv-x="491" d="M211 1397q-10 -84 -10 -86q2 -4 8 -31l20 -86q4 -25 -9 -44.5t-36.5 -24.5t-43 8.5t-25.5 35.5q-8 43 -19 84q-8 33 -10 43q-2 16 10 113q2 25 21.5 40t43 12t39 -22t11.5 -42zM240 1020q-14 -229 -11 -512q4 -281 41 -502q4 -25 -10 -44t-37.5 -23.5t-43 10t-23.5 37.5 q-39 229 -43 521t12 517q0 25 18.5 41t42 15t40 -19t14.5 -41z" />
<glyph unicode="j" horiz-adv-x="507" d="M195 1440q0 -25 1 -45.5t1 -30.5v-14q0 -8 -7 -74q-4 -23 -21 -38t-41 -12t-39 20.5t-13 41.5q8 59 8 63.5t-1 13.5t-1 27.5t-2 43.5q0 25 16.5 41t40 17t40 -15t18.5 -39zM221 1032q115 -555 39 -1065q-20 -143 -39 -205q-49 -162 -149 -194q-33 -10 -80 -10l-31 2 q-14 2 -24 0q-23 0 -40.5 16t-18.5 39t15.5 40t38.5 19q14 0 35 -2h8h13h8q27 -2 39 2q45 14 78 121q16 55 37 189q72 487 -39 1024q-4 25 8 44t35.5 23t43 -8t23.5 -35z" />
<glyph unicode="k" horiz-adv-x="1118" d="M172 1464q37 -184 42 -449t-7 -485l135 129q0 29 23 46q16 12 34 10q199 186 338 301q18 14 43 12t39.5 -20.5t12 -43t-20.5 -38.5q-137 -111 -324 -289q254 -342 404 -617q12 -23 5 -45t-28.5 -34.5t-44 -5t-35.5 27.5q-141 264 -387 594l-202 -192q-8 -201 -9 -316 q0 -25 -16 -41t-40.5 -16t-41 16.5t-16.5 40.5q0 115 6 291q-14 16 -13 38.5t15 39.5q12 262 15 373.5t-5 311.5t-37 337q-4 25 9.5 44t37 24t43 -8t25.5 -36z" />
<glyph unicode="l" horiz-adv-x="501" d="M223 1458q-18 -154 -19 -339t5 -315t20 -343q4 -41 7.5 -118t6.5 -119t12 -103.5t24 -112.5q8 -23 -4.5 -44t-35 -28.5t-44 5t-27.5 34.5q-16 57 -26.5 125t-14.5 115t-7 125t-5 113q-16 215 -22.5 345t-4.5 322.5t21 349.5q2 25 21.5 40.5t43 12.5t38.5 -22.5t11 -42.5z " />
<glyph unicode="m" horiz-adv-x="1701" d="M887 698q29 -260 -74 -696q-4 -25 -24.5 -37t-44 -7t-36 25.5t-6.5 43.5q117 502 54 757q-27 106 -140 172q-115 66 -229 -26q-98 -82 -168 -240q-6 -12 -16 -20v-621q0 -25 -16.5 -41t-41 -16t-41 16.5t-16.5 40.5q0 782 8 1030q0 25 17.5 40.5t42 15.5t40 -17.5 t15.5 -42.5l-4 -176q51 72 108 119q174 143 359 37q123 -70 174 -189q104 154 248 164q96 6 180 -60.5t143.5 -191.5t63.5 -377q2 -186 -25 -370q-4 -23 -22.5 -37t-42 -11t-38 21.5t-12.5 42.5q25 174 25 354q-4 225 -51 328q-49 102 -105.5 145.5t-109.5 40.5 q-53 -4 -107.5 -53t-97.5 -147q-4 -9 -10 -17z" />
<glyph unicode="n" horiz-adv-x="1177" d="M111 698l4 66q10 168 10 258q0 23 17.5 40t40 17t40 -17.5t17.5 -39.5q0 -76 -7 -182q70 84 132.5 118.5t144.5 36.5t143 -22q264 -102 299 -453q20 -215 -49 -534q-4 -23 -24.5 -35t-43 -8t-35 24.5t-7.5 42.5q66 303 47 500q-29 281 -228 356q-45 18 -99 16.5 t-93 -22.5q-45 -27 -109 -102q-74 -92 -90 -109q-4 -86 -4 -149q-2 -27 1 -135.5t-2 -182t-21 -141.5q-6 -25 -25.5 -37t-43.5 -6t-36 25.5t-6 42.5q14 63 18 127.5t2 167t-2 139.5q2 57 4 129q-24 36 5 69z" />
<glyph unicode="o" horiz-adv-x="1171" d="M225 985q-10 43 31 62q113 57 264 24q166 -37 275 -170t143 -307q35 -176 -20 -338q-55 -164 -205 -254q-215 -133 -389 -33q-145 86 -213 303q-35 121 -38 252t35.5 257t116.5 204zM328 924q-102 -78 -133 -262.5t22 -356.5q55 -176 164 -239q115 -68 274 30 q113 70 158 200t16 277q-29 145 -117.5 253t-215.5 135q-88 20 -148 4q-2 -25 -20 -41z" />
<glyph unicode="p" horiz-adv-x="1148" d="M166 324q20 0 36.5 -13.5t20.5 -34.5q16 -86 88 -145q74 -57 172.5 -70.5t179 25.5t115.5 125q41 98 36 243.5t-56 264.5q-51 123 -137 170q-94 51 -224 0q-66 -27 -103.5 -64t-70.5 -104q-10 -18 -28 -27q-8 -90 -11 -116zM182 1124q25 -100 25 -225q55 59 149 96 q180 72 320 -6q119 -66 188 -225q59 -137 64.5 -305t-43.5 -289q-51 -131 -169 -186.5t-249 -36.5q-96 12 -180 62t-133 130q-16 -317 2 -547q2 -23 -13.5 -41t-39 -20t-42 13.5t-20.5 39.5q-6 72 -8 137q-2 70 -1 154t2 136t7 153l8 135q2 33 10.5 150.5t10.5 136.5 q2 25 11 128t10 142t-3 111.5t-16 132.5q-6 23 6 43t35.5 25.5t44 -7t24.5 -37.5z" />
<glyph unicode="q" horiz-adv-x="1087" d="M709 256q8 242 8 309q2 55 -6 189q-14 4 -25 12l-31 29q-16 14 -23 20t-14 10q-18 12 -71 25q-117 27 -198 -3t-146 -126q-80 -121 -54.5 -278.5t127.5 -270.5q100 -109 209 -96q122 14 224 180zM829 1049q-14 -47 -3.5 -234.5t10.5 -249.5q-2 -86 -9 -286q14 -29 -2 -56 q-10 -170 -2 -370.5t43 -364.5q6 -25 -7 -45.5t-37.5 -25.5t-45 8.5t-24.5 37.5q-53 242 -50 598q-94 -90 -202 -102q-168 -20 -310 133q-80 86 -124 207q-47 119 -40 253t78 239q170 242 467 174q76 -16 113 -41q8 -6 21 -17q0 88 6 154q4 25 22.5 40t43 12t39.5 -21 t13 -43z" />
<glyph unicode="r" horiz-adv-x="985" d="M170 549q2 -104 10 -195q2 -41 17.5 -179t19.5 -212q0 -25 -15.5 -42t-39 -18t-41 14t-19.5 38q-4 76 -18 212t-18 179q-20 256 4 741q2 25 19 40.5t41 14.5t39 -18.5t15 -40.5l-10 -190q37 47 78 86q168 158 321 102q20 -8 40 -18t36 -27l27 -28q12 -12 27.5 -35 t21.5 -31l18 -33q14 -23 15 -24q12 -20 6 -43t-26.5 -35t-43 -6t-35.5 26q-2 4 -8 15l-37 61q-12 20 -33.5 42t-43.5 30q-90 33 -207 -78q-53 -49 -93 -111.5t-57 -111.5q-4 -14 -2 -39v-62q-2 -12 -8 -24z" />
<glyph unicode="s" horiz-adv-x="1071" d="M602 958q-2 2 -8 3q-12 2 -39 4q-25 2 -66 4q-96 2 -161.5 -49.5t-75.5 -143.5q-4 -35 18.5 -59.5t79.5 -48.5q18 -8 121 -45q80 -29 117 -56q205 -147 252 -329q29 -119 -11 -201q-33 -70 -96 -105.5t-129.5 -33.5t-134.5 16q-100 25 -191.5 82t-132.5 125 q-12 18 -21 41.5t-17.5 50.5t-10.5 33q-10 23 0 44t33 30.5t44.5 -1t29.5 -32.5q8 -18 15 -41t12.5 -37t13.5 -27q29 -45 99.5 -90t152.5 -65q178 -45 227 59q23 45 2 123q-35 143 -203 264q-25 16 -90 41q-106 37 -127 47q-184 78 -168 227q14 141 117 220q100 80 240 75 q45 0 69 -2q29 -2 51 -6q35 -6 54 -18q23 -18 41 -38t31.5 -46.5t21.5 -45t16 -50t11.5 -45t9.5 -47t6 -37.5q4 -23 -9.5 -43.5t-37 -24.5t-44 9t-24.5 38q0 6 -5 32.5t-7 33t-6 29t-7 29.5t-8.5 24.5t-10.5 25.5t-11 20.5t-14.5 21.5t-18.5 15z" />
<glyph unicode="t" horiz-adv-x="894" d="M131 895q-55 -2 -106 -6q-25 -2 -43.5 13.5t-20.5 39t13.5 41.5t37.5 21q59 6 125 8q14 209 66 389q6 23 26.5 35t44 5t36 -27.5t3.5 -45.5q-45 -164 -59 -356q207 -6 377 -47q23 -6 35 -26.5t7 -44.5t-25.5 -36t-45.5 -8q-158 39 -354 45q-4 -246 39 -569 q27 -188 57 -238q14 -25 29 -22q37 2 102 61q16 16 41 15t41 -18.5t15 -42t-19 -40.5q-96 -88 -174 -92q-84 -4 -133 76q-45 72 -74 284q-45 334 -41 586z" />
<glyph unicode="u" horiz-adv-x="1150" d="M932 993q-4 -55 -19 -223q-12 -147 -14 -217q-2 -121 1 -343t3 -292q0 -25 -17.5 -42t-42 -17t-42 17.5t-17.5 41.5q0 76 -2 303l-102 -98l-100 -96q-25 -23 -41 -35q-25 -18 -41 -25q-92 -27 -152 4q-41 20 -96 90q-139 182 -141 498q0 100 14 258q16 203 18 236 q2 25 20.5 40t43 14t40 -19.5t15.5 -43.5q-2 -33 -20 -237q-14 -158 -13 -248q2 -274 117 -424q37 -51 53 -59q18 -8 62 4l8 4q12 10 33 31l98 92q156 152 176 168q2 2 6 2q-2 98 0 180q2 84 15 225q16 164 18 219q2 25 20.5 40.5t43 14.5t40 -19.5t15.5 -43.5z" />
<glyph unicode="v" horiz-adv-x="1161" d="M115 1108q-4 -45 3 -97.5t15 -93t31 -100.5l37 -92q12 -35 47 -102l47 -91q12 -25 54 -98.5t50 -89.5q4 -4 11.5 -19.5t19.5 -37.5l19 -37l10 41l8 37q2 12 2 14q35 131 61.5 216t71.5 198.5t105.5 209t136.5 175.5q16 16 39.5 17t40 -15.5t17.5 -40t-15 -39.5 q-129 -137 -203 -311t-143 -439q-2 -4 -5.5 -20.5t-9.5 -43t-10 -48.5q-10 -47 -18 -74q-6 -18 -10.5 -28.5t-10.5 -16.5q-14 -23 -39 -27q-29 -6 -51 15q-6 6 -12 14t-17 25q-14 25 -37 65l-34 68l-25 49q-6 8 -56 97t-65 116l-53 110q-41 80 -57 127l-37 117 q-23 72 -29 134.5t-4 123.5q2 23 19.5 38t41 14t39 -18t15.5 -42z" />
<glyph unicode="w" horiz-adv-x="1626" d="M96 1122q41 -281 64 -364q8 -35 90 -283l37 -110l2 -7q2 -2 2 -6q10 -12 28 -59l5 -8q2 -8 8 -23l12 -29q10 51 18 107q25 170 46 248q16 59 100 268q39 96 65 154q14 35 25 53q6 12 12 20q4 6 11 11q14 14 34 18q31 2 54 -22q6 -8 11 -20.5t9 -33.5q4 -25 10 -71 q2 -18 6 -74q4 -37 5 -43q20 -115 84 -334q72 -248 92 -330q41 88 86 265q98 387 293 647q14 18 36.5 21t42 -11t22.5 -36.5t-11 -43.5q-176 -236 -273 -606q-49 -188 -102 -299q-27 -55 -51 -82q-20 -20 -45 -27q-35 -10 -66 15q-33 27 -37 79q-2 12 -2 24.5t-2 19.5 q-18 82 -92 333q-66 223 -86 344q-2 10 -4 39l-23 -51q-80 -205 -94 -256q-23 -82 -45 -235q-12 -78 -22 -138q-12 -51 -25 -86q-8 -23 -18 -37q-29 -41 -74 -28q-16 6 -31 20q-4 6 -8 15q-6 8 -14 24q-12 25 -29 64q-4 12 -10 26l-11 25q-4 10 -7 19.5t-5 13.5l-2 6 q-12 27 -18 39q-4 4 -9 10l-4 8q0 2 -2 6l-6 19l-35 108q-84 252 -94 291q-23 90 -63 377q-4 23 10 42t36.5 22.5t42 -11t21.5 -37.5z" />
<glyph unicode="x" horiz-adv-x="1058" d="M41 45q29 18 47 42t43 65q27 41 49 71l45 62l49 65q18 23 42 58.5t40 66.5l-65 113l-90 139q-61 90 -109.5 170t-83.5 154q-8 20 -1 41.5t28.5 31t43 2t32.5 -29.5q33 -70 77.5 -143.5t104 -162t92.5 -145.5l33 -55q4 6 27.5 51t27.5 54.5t25.5 49t30 53t29 49.5t32.5 52 t32.5 47t36.5 51l37 47l45 50q16 16 40 17t40.5 -15.5t17.5 -40t-16 -39.5q-45 -47 -83 -96.5t-72 -108.5l-60 -102q-23 -39 -63 -119l-60 -115l105 -174q39 -66 101.5 -153t123.5 -150q16 -18 15 -41t-18 -39t-39.5 -15t-39.5 17q-139 147 -313 445q-18 -31 -150 -207 l-39 -62q-31 -49 -60.5 -84t-68.5 -61q-18 -12 -40.5 -8t-36 23.5t-9 42t24.5 36.5z" />
<glyph unicode="y" horiz-adv-x="1052" d="M815 985q20 -129 16 -188q-6 -100 -59 -277q-53 -178 -129 -360q-84 -199 -168 -336q-98 -166 -184 -215q-74 -41 -131 -45q-23 -2 -60 2q-47 2 -67 4q-25 0 -41.5 17.5t-15.5 42t18.5 41t42.5 14.5q23 0 72 -4q31 -2 43 0q33 2 81 30q57 33 144 172q35 55 65 121 q-12 2 -22 8q-201 123 -311 484q-84 285 -84 571q0 25 16 41t40.5 16t41 -16t16.5 -41q0 -268 82 -537q98 -319 260 -419q4 -2 11 -7l43 101q76 178 126 346t56 254q2 43 -17 164q-4 23 10.5 42t38 23t43 -10t23.5 -39z" />
<glyph unicode="z" horiz-adv-x="1157" d="M-57 993q59 23 128.5 35t109.5 15.5t126 7.5q8 0 49 3t101.5 6t109.5 7q102 4 160 6q35 2 55 2h19q6 -2 12 -2q18 -2 33 -18q29 -33 8 -80q-6 -18 -25 -41q-25 -35 -71 -88l-123 -127l-316 -316q-117 -121 -178 -194q-37 -43 -53 -68q2 -2 6 -2q53 -18 166 -4 q14 2 31.5 5t38 6.5t30.5 5.5q61 8 99 10q160 6 422 -4q25 0 40 -17.5t15 -42t-17.5 -40t-41.5 -15.5q-258 10 -414 4q-27 -2 -86 -10q-100 -14 -103 -14q-139 -18 -217 6q-29 10 -49 24q-41 27 -45 70q-2 23 10 47q6 14 19 35q23 31 61 78q66 78 185 198l315 320 q117 119 119 123l33 34q-51 -2 -130 -6q-51 -4 -111.5 -7t-101 -6t-51.5 -3q-82 -4 -120.5 -7t-98 -13.5t-108.5 -28.5q-23 -8 -44.5 1t-29.5 31.5t1 44t32 29.5z" />
<glyph unicode="{" horiz-adv-x="907" d="M561 1327q-115 6 -178 -137q-59 -129 -55 -293q0 -18 12 -76q16 -66 8 -108q-14 -100 -112 -160q-33 -20 -78 -37q88 -66 116 -174q27 -96 19 -279q-8 -203 -4 -241q12 -86 57 -107q76 -29 262 37q25 8 46.5 -2t29.5 -33.5t-2 -45t-33 -29.5q-231 -82 -346 -35 q-111 45 -131 200q-6 57 2 261q6 168 -14 245q-27 100 -121 136q-2 0 -12 2h-19h-16q-31 2 -51 12q-47 23 -43 74t51 67q20 8 51 6q14 0 27.5 -1t15.5 -1h8q80 18 123 45q51 31 59 76q2 23 -8 66q-14 70 -16 98q-4 193 65 346q98 217 295 207q25 -2 40.5 -20.5t14.5 -43 t-19.5 -40t-43.5 -15.5z" />
<glyph unicode="|" horiz-adv-x="487" d="M264 1350q-33 -94 -45 -225.5t-10 -225.5t12 -260q8 -166 10 -233q2 -63 0 -173q-4 -115 -4 -167q2 -23 -15 -40.5t-41 -18.5t-41 16.5t-17 42.5q-2 53 2 170q2 109 2 165q-2 55 -11.5 225.5t-11.5 270.5t11.5 243.5t48.5 245.5q8 23 29.5 34.5t44 3t33.5 -29.5t3 -44z " />
<glyph unicode="}" horiz-adv-x="907" d="M37 1403q10 6 22.5 14t16.5 10q29 16 55 15q25 -2 53 -23q4 -4 49 -39q158 -129 160 -307q0 -39 -12 -145q-10 -88 -6 -144q6 -82 57 -135t129 -59q4 2 11.5 5t9.5 3q23 10 39 10q20 2 38.5 -10t25.5 -34.5t-3 -45.5q-6 -18 -25 -29q-14 -10 -36 -14l-9 -2q-8 -2 -12 -2 q-55 -55 -98 -174q-16 -45 -33 -182q-20 -168 -37 -238q-33 -141 -100 -205q-92 -82 -240 -34q-23 6 -33 26.5t-3 42t27.5 31.5t41.5 2q88 -29 133 14q43 39 70 148q14 61 32 225q18 150 39 207q33 90 82 162q-92 29 -149.5 104.5t-63.5 175.5q-6 66 4 164q12 100 13 131 q0 63 -26 115.5t-95 107.5q-39 33 -41 35q-25 -16 -33 -20q-18 -10 -39.5 -5t-33 24.5t-6 41t25.5 33.5z" />
<glyph unicode="~" horiz-adv-x="1392" d="M-20 430q53 160 180 223q150 72 299 -37q35 -25 92 -104q41 -55 65 -68q68 -35 138 -28q100 10 174 112q25 31 67 107l70 119q14 18 37.5 23t43 -8t25 -36.5t-7.5 -44.5q-18 -27 -65 -110q-45 -78 -76 -119q-106 -143 -256 -158q-104 -12 -203 41q-49 25 -104 100 q-49 66 -70 80q-92 68 -176 27q-86 -41 -123 -156q-8 -23 -29.5 -34t-44 -2.5t-33.5 29.5t-3 44z" />
<glyph unicode="&#xa1;" horiz-adv-x="583" d="M348 936q-6 -16 -12 -37q-2 -10 -4 -14q-6 -16 -17 -27q-25 -25 -63 -16q-2 2 -7 3t-11.5 2t-14.5 3q-23 4 -35 22.5t-8 41t22.5 35t41.5 7.5q4 8 6 17q8 23 28.5 32t42 0.5t30.5 -29t1 -40.5zM334 672q-18 -537 28 -989q2 -25 -13 -43.5t-38.5 -20.5t-42 13.5 t-20.5 37.5q-47 461 -29 1006q0 25 17.5 40t42 15t40 -17t15.5 -42z" />
<glyph unicode="&#xa2;" horiz-adv-x="1206" d="M360 207l76 164q156 336 205 491q6 20 14 51q-23 8 -45 11q-74 6 -148.5 -42t-129.5 -155q-74 -145 -66 -281.5t94 -238.5zM872 1206q-47 -43 -73 -159q-6 -27 -15 -70q121 -84 177 -254q8 -23 -3.5 -44.5t-34 -29.5t-44 3.5t-29.5 33.5q-33 100 -92 162q-2 -12 -6 -23 q-55 -180 -209 -503l-92 -195q51 -35 112 -57q49 -18 88 -15q41 4 97 33q20 12 43.5 37t38 45t38.5 61q8 10 11 15q14 20 37.5 25t43 -8t24.5 -36.5t-7 -42.5q-2 -2 -16 -24l-21 -33l-20 -29q-14 -23 -27 -35l-25 -28q-16 -16 -32.5 -28.5t-34.5 -20.5q-143 -78 -279 -27 q-63 25 -119 59q-43 -100 -73 -186q-8 -25 -29.5 -35t-45.5 -2t-34 29.5t-2 44.5q39 104 90 223q-135 129 -156.5 314.5t76.5 373.5q68 133 172.5 201t216.5 57q31 -2 58 -10l10 45q33 150 109 219q16 16 40.5 15.5t41 -18t15 -42.5t-19.5 -41z" />
<glyph unicode="&#xa3;" horiz-adv-x="1314" d="M-39 627l4 4q2 2 6 7t11 11q27 29 57 35q31 8 74 0t47 -8q12 -2 26 -2q-74 242 -16 418q27 80 88 162.5t131 134.5q121 88 232 75q100 -10 180 -98q115 -129 162 -385q4 -23 -10.5 -43t-37 -24.5t-43 10t-24.5 37.5q-41 225 -133 329q-49 55 -105 60q-68 8 -155 -56 q-53 -39 -103 -106q-51 -70 -71 -133q-20 -61 -20.5 -131t12 -123t36.5 -131h51h56q12 0 51 -1t56.5 -3t51 -4.5t56 -5.5t51.5 -8t55 -11q25 -4 37 -24.5t7 -44t-25.5 -36t-42.5 -6.5q-119 27 -367 29q63 -209 14 -348q-4 -14 -16 -33q20 -8 47 -22q119 -57 184.5 -82 t121 -27t123 14.5t198.5 59.5q23 6 44 -4.5t28.5 -33t-3 -44t-32.5 -29.5q-139 -45 -216 -62.5t-147 -15.5q-74 4 -150.5 32t-199.5 89q-43 20 -70 27l-12 -15q-37 -47 -67 -73q-20 -16 -35 -27q-31 -18 -60 -14q-25 4 -41 24q-14 18 -14 43q0 20 12 43q10 20 33 47 q57 74 129 86l12 17l25 37q14 47 14 100t-11 99t-32 114q-39 2 -73 4q-10 0 -60 10q-16 2 -24 2q-2 -2 -5 -2q-27 -29 -28 -30q-18 -16 -42 -14.5t-39 20t-13 42.5t20 38z" />
<glyph unicode="&#xa4;" horiz-adv-x="1253" d="M322 870q-2 -25 -23 -39q-20 -16 -47 -10q-55 -78 -57 -164t36 -145q4 -8 9 -14q20 8 40.5 1t32.5 -26q14 -27 2 -55q72 -47 158 -49q86 0 193 61q29 16 51 39q4 27 26 43q8 6 19 8q33 45 55 109q47 137 -2 227q-6 10 -14 18q-16 -12 -39 -9t-37 20q-27 27 -12 61 q-20 10 -45 19q-100 31 -201 6q-94 -23 -125 -80q-6 -13 -20 -21zM168 907q-100 127 -143 205q-12 20 -6 44t27.5 36t45 6t35.5 -29q39 -68 123 -176q49 39 108 74q18 10 41 6q18 8 41 12q131 33 262 -8q53 -16 99 -45q29 27 131 133q16 18 40.5 18.5t43 -16t18.5 -41 t-16 -43.5q-104 -109 -127 -129q14 -20 27 -41q76 -135 10 -321q-29 -82 -72 -143q45 -59 148 -179q16 -18 14 -42.5t-20.5 -41t-43 -14.5t-41.5 21q-96 113 -139 169q-23 -18 -47 -34q-145 -82 -272 -75t-228 85l-24 -27q-90 -102 -99 -110q-16 -16 -40.5 -16.5t-42 17 t-17.5 42t19 43.5q4 4 92 102q16 20 32 35q-10 14 -18 31q-61 96 -52 219.5t91 232.5z" />
<glyph unicode="&#xa5;" horiz-adv-x="1361" d="M45 567q27 -2 166 -14t211 -2h12q-25 14 -41 45q-4 10 -6 16t-3 7.5t-1 3.5t-2 2q-43 57 -86 123q-10 -2 -21 -3q-168 23 -311 -4q-23 -4 -43 9.5t-24.5 37t9 44t38.5 24.5q133 27 280 14q-35 63 -69 138l-76 163l-62 138q-10 20 -1.5 43.5t30 34t45 2t33.5 -30.5 l78 -170l86 -180q29 -63 81 -151.5t107 -158.5q2 -2 4 -6l25 35q53 76 127 193l129 206q72 113 84 131q78 98 207 183q20 14 44.5 9t38 -25.5t8.5 -45t-26 -37.5q-115 -74 -178 -157q-14 -16 -80 -121l-96 -154q59 -2 164.5 -17t111.5 -15q25 -4 40.5 -22.5t12 -43.5 t-21.5 -40t-43 -13q-37 4 -91 13t-85 13t-81 7.5t-77 -3.5q-4 -2 -6 -2l-86 -127l-16 -24q4 -16 0 -33q-6 -16 -11 -31q250 39 385 39q25 0 42.5 -17.5t17.5 -42t-17.5 -41.5t-42.5 -17q-121 0 -409 -43q-31 -195 2 -476q2 -25 -13.5 -43t-40 -21t-43 12.5t-22.5 39.5 q-31 274 -6 471q-78 -8 -230.5 4.5t-154.5 12.5q-25 2 -41 19t-15 42t18 41t42 16z" />
<glyph unicode="&#xa6;" horiz-adv-x="485" d="M219 1487q-43 -268 0 -506q4 -25 -10 -44t-38 -23.5t-43 10t-24 37.5q-45 256 0 542q4 25 23.5 38t43.5 10t37 -22t11 -42zM264 547q-10 -178 -10 -516q0 -25 -16.5 -41.5t-41 -16.5t-41 16.5t-16.5 41.5q0 340 11 524q2 23 19 39t40.5 14t40 -19t14.5 -42z" />
<glyph unicode="&#xa7;" horiz-adv-x="1202" d="M426 817q-66 -33 -104.5 -61.5t-69.5 -75.5q-53 -78 -64.5 -165t13 -161.5t87 -133t152.5 -81.5q27 -6 95 -10q55 -4 77 -6q-2 41 35 57q6 4 62 27q43 16 67 31q66 35 78 61q35 80 -37 213q-31 61 -74 112.5t-81 75.5q-33 23 -109 56q-92 43 -127 61zM737 1079 q-2 20 -2 49v43q0 37 -10 56q-29 51 -86 64.5t-125 -13.5q-72 -29 -116 -83t-40 -116q4 -90 121 -155q31 -18 123 -60q84 -39 125 -65q51 -35 104.5 -97.5t90.5 -134.5q98 -184 39 -317q-29 -63 -132 -117q-31 -16 -73 -35l-19 -6q23 -12 41 -26q61 -47 66 -134 q4 -102 -90 -204q-86 -92 -201 -129q-135 -43 -236 20q-113 74 -133 264q-2 25 13.5 43.5t40 21.5t43 -12.5t22.5 -39.5q12 -135 78 -179q53 -33 137 -6t150 96q61 66 57 121q-2 31 -20 47q-20 16 -70 25q-31 6 -109 10q-78 6 -114 15q-121 31 -206 110.5t-118 180 t-16 216.5q16 115 82 213q59 90 165 150q-76 76 -79 180q-4 106 63.5 190.5t167.5 123.5q63 25 129 25.5t129.5 -31t97.5 -99.5q25 -43 27 -108v-48q0 -25 2 -36q2 -25 -13.5 -44.5t-40 -21.5t-44 13t-21.5 40z" />
<glyph unicode="&#xa8;" horiz-adv-x="770" d="M195 1282l-23 -53q-10 -23 -32.5 -32t-45 0t-32 31.5t-1.5 45.5l23 53q10 23 32.5 32t45 0t32 -31.5t1.5 -45.5zM537 1272q-27 -31 -50 -47q-33 -25 -65 -21q-45 6 -60 53q-4 18 -2 41q2 16 7 33q6 25 18 37q16 18 41 18q29 2 49 -18q31 8 55 -12q18 -16 20.5 -41 t-13.5 -43z" />
<glyph unicode="&#xa9;" horiz-adv-x="1658" d="M1241 281q-70 -109 -96 -140q-197 -223 -461 -200q-231 20 -426 213q-88 90 -150.5 201.5t-91 234.5t-7 252t96.5 239q80 115 194 207t239 125q156 41 325.5 -13t306.5 -175q141 -121 215 -283t44 -324q-29 -151 -189 -337zM1204 422q92 121 111 217q23 127 -37.5 259 t-181.5 236.5t-263.5 150.5t-265.5 13q-100 -27 -197.5 -105.5t-164.5 -176.5q-80 -117 -85 -261.5t54 -277.5q59 -131 168 -239q166 -164 352 -181q205 -16 361 162q18 20 65 92q4 16 15 27l10 14l31 45q10 17 28 25zM930 842l-53 76l-31 45l-10 14q-8 6 -14.5 10t-10.5 7 t-11 4t-10.5 2t-13.5 2.5t-14 1.5h-19h-20q-53 2 -82 0l-49 -9q-57 -39 -84 -188q-25 -150 6 -225q27 -61 143 -99q104 -33 144 -6q14 10 55 64l53 75q14 18 38 22.5t43.5 -10t23.5 -38t-10 -43.5l-54 -76q-51 -72 -84 -92q-86 -57 -245 -6q-166 51 -213 164 q-47 109 -15 290q33 197 133 267q33 23 107 26q35 2 90 2h25q20 0 26 -1t23.5 -2t27.5 -5l27 -10q14 -6 28.5 -15.5t28.5 -21.5q12 -8 31 -35l33 -45l55 -80q12 -20 8 -43.5t-24.5 -37t-44 -9t-37.5 24.5z" />
<glyph unicode="&#xaa;" horiz-adv-x="917" d="M461 1161q-12 0 -25 -4q-18 -4 -94 -47q-117 -66 -147 -106q-14 -18 -13 -31q6 -20 54 -49q8 -6 43 -13l38 -4q29 8 82 58q16 14 50 49l18 16q-2 14 -3 54t-1 61q-2 8 -2 16zM90 1257q10 100 70.5 161t158.5 77q4 2 13 4q14 2 20 4q39 8 68 -6q117 -59 145 -237 q39 -18 31 -64q-4 -20 -21 -33v-12q0 -20 2.5 -60t2.5 -42q20 -29 2 -60v-4q6 -49 14 -61h8q43 -2 45 -4q25 -2 38 -21.5t10 -43.5t-22.5 -37t-41.5 -9h-8h-11h-16q-41 2 -68 20q-29 20 -43 62l-10 -8q-74 -70 -131 -86q-31 -8 -88 2q-55 10 -84 26q-86 55 -102 121 q-14 66 32 127q45 59 181 135q92 51 121 60q20 4 40 6q-20 90 -71 119q-4 0 -15 -4q-12 -4 -20 -5q-125 -23 -139 -139q-2 -23 -20.5 -38t-41 -12t-38 21t-11.5 41z" />
<glyph unicode="&#xab;" horiz-adv-x="1161" d="M498 737l-43 -32l-49 -41l-50 -35q-29 -20 -55 -35q-8 -4 -53 -19h-2q0 -10 8 -22q16 -29 61 -59q27 -20 56.5 -38t66.5 -37.5t43 -23.5q20 -10 26.5 -33.5t-4.5 -44t-35 -26.5t-44 6l-29 14q-25 12 -45 23.5t-51 30.5l-53 34q-61 47 -90 93q-43 72 -11 139q16 39 68 55 q8 2 14 4t9.5 2t6.5 1t5 3q29 14 54.5 33t68.5 53.5t57 44.5q18 14 42 11.5t38 -21t11 -42.5t-21 -38zM913 733l-53 -35l-39 -22q-31 -16 -112 -39l-60 -16q2 -2 35 -62q43 -76 75 -113.5t93 -80.5q20 -14 24.5 -38t-10 -43.5t-38 -23.5t-42.5 10q-74 53 -113.5 100.5 t-86.5 131.5q-39 68 -43 78q-25 49 -13 84q12 39 64 59q18 6 86 25q72 20 88 28q10 6 29 19l55 36q20 12 43 7.5t36 -25t7.5 -43.5t-25.5 -37z" />
<glyph unicode="&#xac;" horiz-adv-x="1218" d="M145 799q16 -4 33 -8l27 -9q10 -4 20 -6q25 -2 135 6q39 4 123 13l109 8q147 12 223 14q49 2 80 0q20 -2 33 -6q27 -6 43 -23q8 -8 12 -20q2 -4 2 -6q0 -4 1 -7t1 -7v-15q0 -18 2 -51q2 -53 4 -154q4 -254 4 -262q2 -25 -14 -42t-40.5 -18t-42 15.5t-17.5 40.5 q0 4 -6 264q-2 100 -5 152v22q-23 2 -55 0q-72 -2 -217 -14q-23 -2 -106.5 -9t-124.5 -9q-121 -10 -156 -6q-4 0 -96 22q-23 6 -35 27.5t-7 44t26 35t44 8.5z" />
<glyph unicode="&#xae;" horiz-adv-x="1720" d="M528 711q18 20 52 24q12 2 36 4q57 2 82 6q96 16 125 93q20 55 2 92q-16 33 -61 53q-49 20 -109.5 18t-103.5 -24q-8 -4 -16 -14q-9 -78 -7 -252zM729 637q12 -10 25 -19q51 -41 97 -105t69.5 -112.5t54.5 -119.5q10 -23 1 -44.5t-30.5 -30.5t-43 0t-30.5 30 q-45 106 -88 176.5t-100 115.5q-35 29 -102 62q-33 14 -45 24q-4 4 -7 9q0 -182 -28 -291q-6 -23 -26.5 -35t-43 -6t-35 26.5t-6.5 42.5q27 100 25 322q-2 170 0 231q-4 2 -6 7q-16 18 -15.5 41.5t17.5 37.5l14 15l4 28q4 25 22.5 38.5t41.5 9.5q10 0 18 -7q68 31 149.5 32 t147.5 -30q84 -35 119 -106q39 -82 2 -182q-49 -131 -201 -160zM727 94q43 -8 74 -2q207 39 382 226.5t201 396.5q16 150 -43 299t-178 256.5t-264 138.5q-141 29 -367 -20q-217 -49 -321 -207q-90 -135 -119 -389q0 -6 -3 -34t-4 -36t-3 -31.5t-2 -34.5v-30q0 -18 2 -29.5 t5 -27t8 -28t11 -22.5q186 -322 586 -403q21 -5 35 -23zM586 27q-385 106 -578 436q-12 23 -21.5 48.5t-13.5 54t-6 50t0 54t3 47t5.5 49.5t6.5 39q31 281 135 440q129 197 391 254q250 55 416 21q172 -37 313 -163t211 -302t47 -353q-29 -246 -229.5 -460.5t-444.5 -259.5 q-20 -4 -41.5 -5.5t-45 2t-38 5.5t-40 7t-31.5 7q-27 4 -39 29z" />
<glyph unicode="&#xaf;" horiz-adv-x="817" d="M-27 1327q45 8 97.5 13.5t90.5 8.5t100.5 4t88.5 1h101h88q25 0 41 -16.5t16 -41t-16.5 -41t-40.5 -16.5h-90h-99q-25 0 -86 -1t-96 -4t-83 -8t-91 -14q-25 -4 -44.5 10.5t-23.5 38t10 43t37 23.5z" />
<glyph unicode="&#xb0;" horiz-adv-x="851" d="M186 1333q12 20 33 25q16 4 45 12t41 11t41 8.5t47 3.5l51 -2q111 -12 158 -101q41 -72 25 -170q-14 -88 -73.5 -163.5t-145.5 -94.5q-94 -18 -201 21q-125 47 -158 143q-8 29 0 72q4 33 17 71q29 86 57 119q16 20 47 37zM260 1247q-8 -6 -20 -12l-17 -8q-12 -6 -14 -8 q-14 -18 -37 -84q-10 -33 -14 -56l-2 -16q14 -47 90 -76q78 -29 137 -14q47 8 85 56t48 112q10 57 -10 96q-20 37 -74 43q-18 2 -32.5 2t-32 -2t-23.5 -4l-35 -10q-27 -6 -39 -11q-4 -4 -10 -8z" />
<glyph unicode="&#xb1;" horiz-adv-x="1343" d="M51 639q74 0 195 14q147 14 205 17l43 2q-2 195 20 329q4 23 23.5 37.5t43 10t38 -23.5t10.5 -44q-20 -125 -19 -305q367 12 412 14q23 2 41 -14.5t19 -40t-15 -42t-41 -18.5q-41 -2 -412 -14q6 -188 7 -258q0 -25 -16.5 -41t-41 -16t-41 16.5t-16.5 40.5q0 53 -8 252 h-43q-31 -2 -197 -18q-127 -12 -207 -13q-25 0 -41 16.5t-16 41t16 41t41 16.5zM100 98q37 4 175.5 15.5t206 15.5t177.5 4q109 0 197 -10q78 -8 100 -12q10 -4 17 -7q39 2 90 2q25 2 42 -15t18 -40.5t-16 -41t-40 -17.5q-51 -2 -92 -4h-17q-12 0 -24 6q-2 2 -4 2 q-25 6 -86 12q-82 8 -186.5 8t-169 -4t-201.5 -15t-178 -13q-25 -2 -42.5 13t-19.5 39.5t13 42t40 19.5z" />
<glyph unicode="&#xb2;" horiz-adv-x="833" d="M14 1141l13 26q10 20 22 40t23 34q55 66 136 94.5t157 12.5q86 -18 129 -91q43 -76 18 -186q-4 -25 -35 -76q-27 -45 -41 -61q-6 -8 -18 -16l-23 -15l-63 -45q-102 -70 -164 -125q-41 -33 -62 -59q-8 -10 -14 -17q18 -4 45 -4q143 0 207 4q41 2 118 9.5t89 9.5 q23 2 41 -13.5t20 -39t-13 -42t-40 -20.5q-10 0 -88 -8t-119 -10q-68 -4 -215 -4q-78 0 -119 22q-59 35 -47 103q8 39 47 84q27 33 74 73q61 53 174 131l66 45l20 15l27 41q20 37 22 43q14 66 -8 102q-16 29 -53 37q-43 10 -94 -8.5t-84 -59.5q-10 -10 -16.5 -21 t-14.5 -28.5t-18 -34.5q-12 -20 -35 -26t-43.5 6t-26.5 35t6 43z" />
<glyph unicode="&#xb3;" horiz-adv-x="770" d="M-25 1130q2 6 5 17l6 22q10 39 27.5 62.5t49.5 38.5q6 2 21 8q8 2 12 4q125 66 221 59q137 -6 203 -145q27 -57 15 -104q-18 -76 -60 -115q4 -4 10 -8q76 -90 61.5 -201t-93.5 -182q-70 -59 -209 -64q-150 -6 -215 70q-18 23 -31 59l-8 25q-4 10 -6 16q-10 23 -1 44.5 t30.5 30.5t43 0t29.5 -30q4 -12 10 -26q0 -2 3 -10.5t3 -12.5q6 -16 13 -22q29 -35 127 -33q98 4 137 39q49 43 57 109.5t-30 107.5q-2 2 -5 2h-36q-35 0 -56 4q-45 12 -65 49q-16 33 -17 53q0 31 21 50q16 14 41 14q12 2 37 -4q20 -4 28 -6q25 -2 39 4q20 14 35 65 q0 6 -10 31q-35 76 -107 80q-66 2 -166 -47q-8 -4 -22 -8q-12 -6 -14 -9l-7 -4q-4 -4 -8 -20q-2 -2 -2 -6t-1 -8.5t-3 -6.5q-2 -16 -6 -28q-8 -20 -28.5 -30.5t-42 -3.5t-32 27t-4.5 43z" />
<glyph unicode="&#xb4;" horiz-adv-x="673" d="M422 1401l-27 -17q-12 -6 -21 -13t-20.5 -17.5t-17.5 -16.5t-17 -18l-16 -21q-4 -4 -16 -22l-17 -25l-18 -26q-14 -23 -19 -31q-12 -20 -35.5 -25.5t-44 7t-25.5 36t7 43.5q6 8 21 33l20 33l21 31q14 20 22 28.5t22.5 25.5t26 27.5t27.5 23.5t34.5 24.5t39.5 21.5 q20 12 43.5 5t35 -28.5t4.5 -45t-30 -33.5z" />
<glyph unicode="&#xb5;" horiz-adv-x="1202" d="M221 201q10 -74 19 -92q12 -25 51 -37q88 -27 213 123q45 55 106 147q80 127 84 133q92 129 119 197q41 104 53 215q0 23 2 33v6l4 12q6 18 23 27q25 14 51 4q16 -8 27 -23l8 -24v-4v-7q0 -10 -2 -28v-6v-48q0 -84 -61 -247l-48 -123q-25 -66 -34 -105q-8 -31 -15 -67 q-6 -39 -9 -62.5t-8 -77t-5 -69.5q-4 -23 -21.5 -38t-41 -12t-39 20.5t-13.5 41.5l21 191q-63 -98 -115 -158q-172 -209 -332 -158q-78 25 -113 82q-4 -16 -6 -29q-14 -63 -51 -180q-39 -115 -51 -170q-6 -23 -25.5 -35t-43 -6t-36 25.5t-6.5 44.5q14 57 54 176 q33 106 49 170q10 43 22 117l31 186q16 113 27 184q29 172 53 277q33 139 67 190q12 20 36 24.5t43.5 -8t23.5 -36t-8 -41.5q-23 -35 -52 -156q-23 -100 -51 -268l-43 -264q39 -10 43 -47z" />
<glyph unicode="&#xb6;" horiz-adv-x="1288" d="M162 817q-23 -8 -47 4h-2q4 -43 16 -80l21 50zM379 -342q-14 174 2 557q8 186 10 266q-86 -35 -201 13q-109 45 -155.5 161.5t-42.5 253.5q6 133 57 253t144 175q141 88 411 101h160l4 16q4 25 24.5 38t45.5 7q23 -4 36 -22.5t11 -40.5q84 -2 125 -2q25 0 42 -17.5 t17 -42t-17.5 -42t-41.5 -17.5q-41 0 -152 4q-33 -131 -39 -203q-8 -137 -9 -184t5 -186.5t8 -192.5q10 -500 29 -840q0 -23 -16.5 -41t-40 -19t-42 15.5t-20.5 40.5q-16 340 -28 840q0 45 -7.5 188.5t-6.5 194.5t9 196q8 76 37 193q-66 0 -129 -2q-72 -2 -127 -10 q-4 -37 -14 -97.5t-14 -103.5t0 -86q2 -37 24 -115q2 -2 6 -2q31 -16 33 -51q0 -12 -2 -25q-4 -10 -12 -24l4 -37q0 -25 2 -49q8 -10 12 -25q2 -10 2 -22q0 -18 -4 -39q-4 -12 -6 -23q0 -127 -12 -401q-16 -375 -2 -543q2 -23 -14.5 -42t-40 -21t-43 14t-21.5 41z" />
<glyph unicode="&#xb7;" horiz-adv-x="544" d="M209 506l-12 6l-27 8q-12 6 -28.5 14.5t-26.5 16.5q-39 31 -45 74q-6 45 22 94q55 96 125 92q68 -4 96 -80q23 -59 4 -110q-10 -25 -28 -39q8 -23 -2 -47q-10 -23 -32.5 -31t-45.5 2z" />
<glyph unicode="&#xb8;" horiz-adv-x="722" d="M389 -260q0 16 -10 33q-27 45 -109 32q-27 -4 -34 -4q-16 -2 -29 4q-39 12 -41 54q-2 20 10 41l14 18q12 16 43 47l21 23l27 26l22 23q16 18 40 18t41 -16t17 -40t-16 -40l-35 -39q82 -14 127 -86q35 -57 25 -119q-8 -39 -60 -82q-35 -31 -86 -59q-49 -29 -92 -43 q-27 -8 -45 -10q-31 -6 -55 4q-39 18 -68 69q-4 10 -12 27t-14 25q-14 18 -10.5 41.5t23 38t43.5 10.5t38 -25q2 -2 35 -61q4 -10 8 -15q8 0 18 5q35 12 76 34.5t68 46.5q10 9 20 19z" />
<glyph unicode="&#xb9;" horiz-adv-x="645" d="M295 1171q-74 -53 -201 -98q-20 -6 -40.5 3t-28 29.5t2 41t29.5 29.5q150 51 226 122q0 2 2 5.5t6 11.5l6 12q12 23 27 33q37 31 77 4q14 -10 21 -27q2 -6 2 -12v-8v-10q0 -6 -2 -19q-2 -10 -8 -51q-14 -82 -17 -111l-4 -61q-2 -31 -2 -66v-61q0 -25 2 -66t2 -60t4 -67.5 t7 -60.5l4 -70q4 -53 4 -61q2 -23 -12.5 -39t-37 -18t-39 12t-18.5 37q0 10 -4 61t-5 67.5t-5 62.5t-5 68.5t-2 64.5t-1 69v66q0 35 2 67l4 64q2 13 4 36z" />
<glyph unicode="&#xba;" horiz-adv-x="872" d="M186 1470q8 23 27.5 34.5t42.5 4.5q47 -12 71.5 -19t70.5 -23.5t76 -35t64.5 -45t59.5 -64.5t41 -83q23 -82 4.5 -164t-70 -153.5t-126 -114.5t-158.5 -31q-72 12 -148 74q-117 98 -129 219q-8 98 58 240q4 8 12 32q10 27 18 43q29 61 78 84q4 2 8 2zM289 1364h-27h-8 h-12q-14 0 -19 -2q-8 -4 -20 -27q-4 -10 -13 -35l-18 -40q-51 -113 -45 -181q6 -74 88 -139q51 -43 94 -49q41 -8 87 18.5t84 79.5t51.5 111.5t-3.5 101.5q-23 68 -75 107t-136 65q-14 -8 -28 -10z" />
<glyph unicode="&#xbb;" horiz-adv-x="1173" d="M274 797l109 -92l63 -56l23 -20q4 -4 8 -6q6 -8 12 -19q14 -29 3 -67q-8 -25 -27 -54q-27 -41 -82 -102l-92 -92l-62 -62q-14 -16 -36.5 -16t-39 14.5t-16.5 37t15 38.5l61 59l92 95q47 53 70 86l10 20l-10 8l-62 56l-104 90q-18 12 -20.5 34.5t11 40t36 19.5t38.5 -12z M649 811q41 -25 103 -80q59 -49 88 -69l7 -3.5t13 -4.5t21 -7q63 -23 71 -74q8 -55 -49 -90q-12 -6 -20.5 -11t-12.5 -7t-6 -4q-119 -109 -215 -240q-12 -18 -34.5 -22t-40 9t-21.5 35.5t10 39.5q102 141 228 256q8 8 24 18q-23 6 -33 14q-33 23 -100 80q-57 49 -90 70 q-18 12 -23.5 33.5t7 40t34 23.5t39.5 -7z" />
<glyph unicode="&#xbc;" horiz-adv-x="1689" d="M375 1141q-20 -14 -47 -25.5t-41.5 -16.5t-47 -13.5t-34.5 -8.5q-23 -6 -44.5 6.5t-27.5 36t6.5 45t36.5 27.5l33 8q23 6 30 8t23.5 7.5t22.5 9.5t17 9t17.5 12t12.5 18l2 4q0 4 2 13t2 11q4 27 14 43q27 39 72 35q70 -8 72 -90q0 -12 -2 -33v-18q2 -84 -13 -279 q-10 -170 -4 -266q0 -25 -15.5 -43t-40 -19t-43 14t-20.5 40q-6 90 7 282q8 138 10 183zM1315 1315q-43 -141 -178 -316l-109 -137q-63 -82 -100 -135q-70 -104 -205 -344q-133 -238 -213 -350q-14 -20 -39 -24.5t-44 9t-23.5 38t8.5 42.5q80 115 209 342q145 256 208 353 q39 57 107 141l106 137q123 160 162 281q6 23 27.5 34t45 3.5t35 -28.5t3.5 -46zM1468 795q-16 -53 -25 -109.5t-18 -140.5l-14 -119q-6 -41 -18 -113q23 -2 39 -19.5t16 -39.5q0 -25 -17.5 -42t-41.5 -17h-9h-8q-8 -68 -8 -125q0 -25 -17.5 -42.5t-42 -17.5t-42 17.5 t-17.5 42.5q0 55 8 125q-106 -2 -198 -7q-4 0 -9.5 -1t-16.5 -4t-23 -5q-68 -14 -105 25q-18 16 -18 41q0 8 2 16q2 6 5 13.5t9 17.5q8 12 25 39q49 76 61 96q20 33 88 160q57 106 96 166q14 20 38 25t44.5 -9t25.5 -37.5t-9 -44.5q-35 -53 -90 -156l-91 -165 q-14 -20 -36 -58q100 4 221 6q18 100 21 129t13.5 115t20.5 149.5t27 120.5q8 25 29.5 36t45 4t34.5 -28t5 -44z" />
<glyph unicode="&#xbd;" horiz-adv-x="1730" d="M98 1186q4 2 30 4t42 4q27 4 41 10l2 8q8 18 16 29q25 29 62 27q43 -6 63 -56q8 -23 15 -59q6 -51 12 -158q12 -270 22 -319q4 -25 -8 -44.5t-35.5 -23.5t-43 8.5t-23.5 34.5q-12 59 -25 338q-4 72 -8 113q-29 -12 -74 -21q-14 -2 -42.5 -4t-32.5 -2q-23 -4 -41.5 10.5 t-21.5 38t11 42t39 20.5zM922 600q0 4 7 23.5t15 38t19 32.5q37 57 112.5 92t151.5 35q92 2 145 -47q63 -59 45 -166q-14 -80 -35.5 -133t-66.5 -113q-10 -12 -23.5 -24t-34.5 -27l-32 -24q-12 -10 -37 -29l-33 -20q-51 -37 -74 -56q-6 -8 -12 -14q6 -2 14 -6 q39 -16 121 -29q43 -6 148 -14q90 -8 116 -15q23 -6 35.5 -26.5t6 -43t-27 -34.5t-42.5 -6q-18 6 -97 12q-117 8 -155 14q-96 14 -148 37q-96 41 -90 119q4 43 56 90q29 25 84 64q123 84 135 102q37 47 53 88q16 39 29 109q8 45 -13 61q-20 18 -65 19q-53 0 -103.5 -23.5 t-68.5 -52.5q-6 -10 -10.5 -19.5t-9.5 -26t-13 -32.5q-8 -20 -29.5 -29.5t-43 0t-30.5 30.5t1 44zM1243 1305q-63 -49 -129 -170q-18 -33 -55 -108t-58 -109l-534 -938q-12 -20 -34.5 -26.5t-43 5.5t-27 34.5t6.5 43.5l534 938q20 35 55 106q35 72 56 107q80 143 160 207 q18 14 41.5 11t38 -21.5t11 -42t-21.5 -37.5z" />
<glyph unicode="&#xbe;" horiz-adv-x="1677" d="M80 1133q4 6 6 16l6 22q12 35 29 56q35 45 101.5 76.5t133.5 37.5q82 10 140 -18q74 -39 90 -125t-43 -164q-10 -14 -27 -30q23 -14 51 -48q53 -63 56.5 -140t-30.5 -139.5t-91 -105.5q-63 -45 -137 -54t-156 29t-150 124q-14 18 -11 41.5t21.5 38t42 11.5t38.5 -22 q49 -63 105 -89.5t99 -19.5t80 34q59 43 73.5 106.5t-26.5 112.5q-6 8 -10 12q-20 -14 -41 -18q-45 -12 -102 10q-31 12 -39 41q-8 33 16 59q10 10 33 23l16 8q8 4 11 6h4q66 55 84 80q29 37 22 74q-6 31 -31 43q-29 14 -75 10q-49 -6 -94.5 -28.5t-63.5 -45.5 q-6 -6 -10 -20q-2 -4 -3 -7.5t-2 -7.5t-1 -6q-4 -16 -9 -24q-10 -23 -31.5 -32t-43 0t-30.5 31t-1 42zM1440 752q-18 -63 -4 -177q2 -20 7 -57t5 -45q8 -63 10 -104q2 -66 -6 -189q-6 -123 -4 -180q0 -25 -16.5 -41t-40 -17t-40 15t-18.5 39q0 63 6 182q-98 -8 -180 -10 q-90 -2 -143 0q-35 4 -58 8q-43 12 -59 41q-10 23 -4 45q2 8 8 17q4 12 15 26l40 55l29 35l25 29q8 10 8 12q23 31 86 150q57 109 115 164q16 16 39.5 15t40 -17.5t15.5 -40t-18 -39.5q-43 -41 -92 -133q-63 -125 -96 -168l-8 -11l-25 -30q-16 -18 -28 -35l-9 -10 q41 -2 115 0q98 2 188 10q2 39 0 74q0 37 -8 94q0 8 -4 45q-6 35 -8 57q-16 137 6 219q6 23 26.5 35t43 6t35 -26t6.5 -43zM1333 1317q-63 -82 -135 -250q-90 -211 -129 -279q-84 -143 -260 -374q-207 -272 -266 -361q-12 -20 -36 -24t-43.5 8t-23.5 35.5t9 42.5 q57 86 270 366q168 221 252 365q37 61 123 266q78 180 149 274q14 18 38 21.5t42 -11t21 -38t-11 -41.5z" />
<glyph unicode="&#xbf;" d="M526 952l11 19q12 20 35.5 27.5t44 -5t27.5 -36t-5 -44.5l-10 -18q-12 -20 -36 -27.5t-44.5 5t-27.5 36t5 43.5zM612 674q35 -154 -41 -268q-43 -66 -170 -152q-111 -76 -141 -117q-49 -66 -29 -157q10 -51 86 -138q145 -164 301 -88q72 37 135.5 114t104.5 173 q8 23 30.5 32t45 -0.5t32 -32t-0.5 -44.5q-47 -113 -124 -206t-169 -140q-102 -55 -220 -27.5t-221 141.5q-96 109 -114 191q-31 145 51 252q41 55 168 143q106 72 139 121q47 72 23 178q-4 23 8 43.5t35.5 25.5t44 -7t26.5 -37z" />
<glyph unicode="&#xc0;" horiz-adv-x="1372" d="M332 475q113 27 313 23q215 -4 268 -2l-16 47q-27 82 -61 170l-80 198q-45 109 -68 168l-22 70q-20 63 -37 106l-6 13q-8 -29 -21 -64l-24 -53q-8 -23 -25.5 -59.5t-24.5 -53.5q-279 -610 -378 -1020q-6 -23 -26 -35t-43.5 -5.5t-35.5 26t-6 43.5q104 422 383 1040 q10 18 28.5 57.5t26.5 59t19.5 50t19.5 59.5v8v10q0 8 2 23q2 59 39 88q41 31 86 4q20 -12 41 -41q23 -35 51 -109q18 -47 39 -112q20 -61 21 -64l69 -168l82 -200q35 -90 62 -172q12 -37 67 -250q41 -154 72 -240q8 -23 -1 -44t-31.5 -29.5t-44 1t-30.5 31.5 q-35 90 -75 252l-21 82q-59 -6 -301 0q-184 4 -287 -18q-23 -6 -43 7t-25 35.5t8 43t36 24.5zM598 1692q16 -14 29 -29q14 -12 17 -14t10.5 -8.5t8.5 -7.5t15 -11l29 -23q18 -14 21 -37.5t-11.5 -42t-38 -21.5t-41.5 11q-53 39 -117 97q-16 16 -18 39.5t14 41t40 19.5 t42 -14z" />
<glyph unicode="&#xc1;" horiz-adv-x="1388" d="M377 553q68 -12 133 -14t162.5 2t146.5 4h6q-14 53 -53 260q-45 236 -100 360l-17 49v5q-4 -16 -8 -29q-12 -33 -35 -82q-29 -57 -34 -74q-31 -74 -84 -207q-55 -139 -86 -209zM86 86q10 74 37 159t49 138l70 149l59 132q33 72 87 211t83 204q8 16 37 78q23 45 33 74 q2 6 6 33q6 37 16 55q10 23 29 35q27 16 57 10q37 -6 82 -51q23 -25 35 -64q10 -37 12 -39q59 -135 107 -383q51 -266 86 -364q45 -125 188 -344q12 -20 7 -43t-25.5 -36t-43 -8t-36.5 25q-147 229 -197 365l-8 22q-16 -14 -37 -14q-35 0 -146.5 -4t-189 0t-155.5 20 q-109 -233 -127 -376q-4 -23 -22.5 -37.5t-42 -11t-38 21.5t-12.5 43zM655 1630q-61 -76 -161 -225q-12 -18 -36 -23.5t-43.5 8t-24.5 37t9 43.5q100 152 166 234q14 18 39 20t43.5 -12t20 -39t-12.5 -43z" />
<glyph unicode="&#xc2;" horiz-adv-x="1421" d="M326 526q231 33 555 9l-41 143l-29 108q-68 250 -139 400q-8 18 -17 45q-12 35 -14 39q-10 27 -20 39q-12 -18 -25 -58q-12 -37 -31 -106q-16 -68 -22 -82q-129 -279 -217 -537zM94 119q102 465 346 989q4 6 17 63q18 74 32 115q25 74 58 109q29 29 63 30q39 4 74 -24 q37 -31 61 -90l15 -43q8 -20 14 -33q74 -158 146 -420q76 -281 81 -299q27 -18 23 -51q0 -6 -2 -12l16 -50q27 -78 85.5 -220t72.5 -183q10 -23 0 -43t-31.5 -29.5t-42 1t-28.5 30.5l-74 184q-59 145 -88 224l-17 53q-381 33 -628 -12q-49 -160 -82 -314q-6 -23 -25.5 -35 t-42 -7t-35 24.5t-8.5 42.5zM569 1630l-22 -28l-15 -19l-4 -8l-6 -6q-2 -4 -8 -21l-25 -55q-10 -20 -31.5 -29.5t-42 1t-29.5 32t1 41.5l25 55q8 20 14 31q2 4 53 72q14 18 37 22t41 -10t22 -37t-10 -41zM774 1686q12 -14 37 -47t37 -48l33 -39q20 -23 41 -41 q16 -16 16 -39.5t-15.5 -40t-39 -16.5t-39.5 15q-23 23 -45 49l-37 43q-14 16 -41 51l-33 43q-14 18 -12 40.5t20.5 37t41 12.5t36.5 -20z" />
<glyph unicode="&#xc3;" horiz-adv-x="1456" d="M348 549q59 4 330 8q131 2 215 10l-66 160q-20 55 -47 158l-39 149q-18 63 -59 131q-18 33 -37 49l-2 -6l-47 -88l-76 -153q-43 -92 -172 -418zM37 29q10 82 37.5 164.5t81.5 205.5l65 146l58 145q41 109 73 182l62 144l80 158l47 90q10 20 18 32q4 6 6 10.5t6 8.5 q8 10 21 16q61 29 121 -20q35 -29 69 -86q47 -80 70 -158q8 -25 41 -154q23 -92 45 -145q31 -80 74 -182l6 2q23 4 43 -8.5t26 -36.5q8 -41 -26 -62l22 -51q104 -221 150 -348q8 -23 -2 -45.5t-32.5 -30.5t-45.5 2t-31 33q-47 131 -143 340l-35 76q-102 -14 -264 -17 q-283 -4 -352 -10q-14 -2 -27 4q-6 -16 -35.5 -82.5t-40 -91t-30 -76t-28.5 -91.5t-15 -81q-2 -25 -21.5 -39t-44.5 -11t-39 22.5t-10 44.5zM285 1528q27 141 96 188q66 43 158 4q39 -16 114 -71q29 -20 41 -27l15 -8q31 -2 82 37q23 18 51 45l47 45q16 16 40.5 15t41 -18.5 t15.5 -42t-19 -40.5l-45 -43q-33 -33 -60 -53q-90 -68 -166 -60q-27 2 -59 23q-18 10 -51 32q-66 47 -94 60q-33 14 -48 4q-29 -18 -45 -111q-4 -25 -24.5 -38t-44 -9t-36.5 24.5t-9 43.5z" />
<glyph unicode="&#xc4;" horiz-adv-x="1415" d="M330 547l63 -12q55 -10 90 -13q72 -6 232 6q106 8 151 9q-27 72 -45 131q-8 35 -43 200q-23 115 -53 179q-2 4 -14.5 32.5t-28.5 63.5t-33 65q-20 41 -37 68q-12 -27 -26 -70l-25 -71q-14 -39 -22.5 -66t-10.5 -33l-98 -241q-67 -162 -100 -248zM66 49q20 129 65 275 q47 147 86 245l107 269q72 170 98 239q4 6 12 33l21 64l22 69q25 66 41 103q12 27 21 40q8 10 16 19q18 18 41 20q33 2 63 -24q14 -14 33 -39q25 -37 58 -100l32 -70l29 -64q14 -29 16 -32q35 -74 62 -205q33 -162 43 -191q20 -74 65 -186q16 -16 17 -39q55 -135 76 -199 q10 -27 44.5 -139t57.5 -172q8 -23 -2 -44t-31.5 -29.5t-43 2t-30.5 30.5q-23 61 -57 176l-45 140q-23 68 -70 182q-66 4 -190 -6q-172 -14 -248 -8q-41 4 -102 16q-78 14 -84 16q-78 -219 -113 -411q-4 -23 -22.5 -36t-42 -9t-36.5 22t-9 43zM528 1632l-45 -135 q-6 -23 -27.5 -33t-44 -3t-32.5 28.5t-2 44.5l45 135q6 23 27.5 33t44 3t32.5 -28.5t2 -44.5zM881 1655l39 -101q8 -23 -1.5 -44t-32 -29t-44 1t-29.5 31l-39 101q-8 23 1 44t31.5 29.5t44.5 -0.5t30 -32z" />
<glyph unicode="&#xc5;" horiz-adv-x="1411" d="M342 569q236 -16 324 -18q37 0 114.5 3t120.5 1l-72 164q-23 55 -61 170q-39 109 -61 162q-2 6 -11.5 31.5t-23.5 56.5l-25 61q-8 16 -14 31l-37 -76q-37 -72 -47 -98q-133 -300 -207 -488zM66 115q80 307 376 987l52 104q31 61 45 99v20q2 20 10 37q12 23 37 33l-8 2v-2 q-14 -18 -39 -20.5t-43 11.5q-115 92 -107 201q4 96 100 162q51 35 117 49t135.5 -3t116.5 -73q59 -76 46 -155.5t-79 -134.5q-68 -57 -157 -54v-2q16 -12 32 -37q25 -33 52 -92l26 -61l23 -60q10 -27 12 -30l64 -170q37 -111 59 -162q23 -55 96 -219h10q23 -4 37.5 -23.5 t10.5 -44.5q-4 -16 -15 -28q88 -207 115 -398q2 -25 -12.5 -43t-38 -21t-42 11t-22.5 37q-27 188 -121 403q-29 6 -137 2t-151 -4q-78 0 -367 23q-84 -221 -123 -373q-6 -23 -26.5 -35t-43 -6t-34.5 26.5t-6 43.5zM557 1542q39 -33 79 -43t67.5 -3t48.5 24q33 29 38 65.5 t-18 63.5q-35 39 -100.5 40t-118.5 -36q-47 -33 -51 -72q0 -12 4 -27q28 8 51 -12z" />
<glyph unicode="&#xc6;" horiz-adv-x="2105" d="M913 559q0 18 -5 137t-6 161t-2 133t2 161t11 139h-16q-76 -8 -119 -14l-41 -10q-78 -57 -168 -252q-29 -59 -72.5 -168t-60.5 -146l-100 -213q212 58 577 72zM27 63q76 197 303 687q18 37 62 145.5t71 167.5q102 221 205 297q27 18 90 31q49 8 129 14q133 12 352 20 q113 4 239 7.5t230 4.5t117 1q25 2 42 -15.5t18 -41t-16.5 -41t-39.5 -17.5q-14 -2 -117.5 -3t-228.5 -5q-115 -2 -240 -6t-213 -11q-20 -195 -8 -520q119 6 358 8q283 2 369 9q25 2 43 -13.5t19 -40t-14 -43t-40 -18.5q-125 -8 -375 -10q-240 -2 -356 -8q2 -72 4 -113 q20 -16 21.5 -43t-19.5 -45v-6v-66v-102q2 -61 4 -97q0 -16 2 -24q6 -2 49 -10q37 -8 109 4q12 0 34.5 4t29.5 6q43 6 69 8q207 14 395 -8q25 -2 40.5 -21.5t12.5 -43t-22.5 -39t-42.5 -11.5q-180 20 -375 8q-23 -2 -57 -8q-8 -2 -30.5 -6t-35.5 -6q-92 -14 -151 -2l-10 2 q-12 2 -20.5 4t-23 6t-24.5 9.5t-22.5 14.5t-20.5 19q-12 16 -18 45q-2 16 -4 41q-2 39 -2 103q-2 29 -1 92t1 65q-399 -14 -613 -86q-14 -4 -31 -2q-82 -184 -141 -331q-8 -23 -29.5 -33t-44 -1t-32.5 30t0 44z" />
<glyph unicode="&#xc7;" horiz-adv-x="1499" d="M1159 983q-61 129 -106 197.5t-97 103.5q-104 74 -329 23q-25 -6 -56.5 -12.5t-43 -9.5t-30 -11t-42.5 -25q-152 -104 -213 -360q-53 -223 -17 -451q20 -131 103 -198q80 -66 211 -107q80 -27 145 -29q31 20 64 5q6 0 10 2q63 16 149 104q166 170 260 334q12 23 36 29 t45.5 -6.5t27.5 -36t-6 -43.5q-100 -180 -277 -359q-109 -113 -202 -137q-25 -6 -50 -8q-33 -43 -55 -76l-12 -18q25 4 43 4q84 4 127 -50q49 -59 30 -178q-18 -113 -141 -172q-111 -53 -215 -20q-29 10 -59 35l-19 16q-8 8 -12 10q-20 14 -24.5 39t10 45.5t39 24.5 t45.5 -10l22 -19l17 -14q12 -10 18 -13q59 -18 127 15q66 31 74 84q10 63 -4 82q-6 8 -31 6q-18 0 -80 -12q-29 -6 -45 -7q-61 2 -72 58q-6 37 19 88q16 31 45 74l10 14q-47 10 -96 24q-152 49 -248 127q-119 98 -148 273q-39 246 21 497q72 305 262 433q31 20 60.5 34.5 t46 18.5t52.5 11t54 9q274 63 422 -39q70 -49 123 -130t119 -216q12 -23 4 -46t-30.5 -34.5t-46.5 -3.5t-34 31z" />
<glyph unicode="&#xc8;" horiz-adv-x="1394" d="M618 1716q82 -61 216 -213q14 -18 12 -42.5t-19 -41.5q-10 -6 -22 -10q16 0 31 -2q31 0 145 -10q82 -8 131 -6q25 2 43.5 -13.5t19.5 -40t-14.5 -43t-40.5 -18.5q-59 -4 -151 4q-111 10 -138 12q-264 8 -469 -22q-12 -2 -32 -4h-11h-16q-23 -2 -33 -6q0 -6 6 -23 q12 -41 15 -55q29 -197 18 -391v-9q102 0 309 -14q295 -20 406 -20q25 0 41 -16.5t16 -41t-16 -41t-41 -16.5q-78 0 -412 20q-201 12 -319 13q-4 -31 -19 -109q-14 -72 -20 -117q-18 -123 -25 -186q-4 -57 2 -90q4 -2 11 -4q31 -8 88 -17q104 -14 278 -22q371 -18 477 -4 q25 4 43.5 -10.5t22.5 -39t-10.5 -43t-38.5 -22.5q-117 -16 -498 2q-180 8 -291 25q-66 8 -104 20q-23 6 -39 14q-29 14 -41 39q-23 51 -14 158q4 76 24 199q6 45 20.5 121.5t16.5 91.5q-27 16 -26 47q-2 20 10 36.5t33 20.5q0 12 2 23q8 182 -19 366q0 4 -10 37 q-14 39 -11 70t22.5 56.5t48 37.5t71.5 14q4 2 14 2h13q14 0 22 2q188 29 424 25q-16 6 -27 16q-123 143 -194 197q-18 14 -22.5 37.5t10 43t38 23.5t43.5 -10z" />
<glyph unicode="&#xc9;" horiz-adv-x="1429" d="M1083 1257q-121 35 -178 41q-41 4 -336 -2q-121 -4 -207 -6q-43 -2 -67 -4h-4q-27 -37 -43 -127q-23 -111 -29 -285q-2 -78 -2 -165q59 25 130 41t123 24t141 9t124 0t137.5 -5t116.5 -6q25 0 41.5 -17.5t15 -42t-18.5 -41t-42 -14.5q-23 0 -112 4.5t-120.5 5.5t-107.5 1 t-118 -5.5t-102 -13.5t-108.5 -25.5t-93.5 -39.5q-2 -2 -4 -2q4 -135 12 -222q2 -16 10.5 -91.5t10.5 -114.5q2 -8 0 -21h2q37 2 180 2q53 0 111.5 -4t142.5 -12t111 -10q209 -18 340 10q23 4 43 -8.5t25 -36t-7 -44t-37 -26.5q-150 -33 -375 -12q-31 2 -109.5 11t-135 13 t-109.5 4q-139 0 -172 -2h-2q0 -2 -18 -8q-57 -16 -90 21q-27 33 -21 84q2 8 3 14t1 8t1 4t1 4q-4 41 -12 114t-8 89q-23 242 -13 531q6 186 29 303q31 158 96 207q10 6 21 10q4 0 7 1t9 1q8 0 23 2q25 2 69 2q86 4 209 6q301 8 351 2q68 -6 198 -45q23 -6 35 -27.5t5 -44 t-28.5 -35t-44.5 -4.5zM549 1587q-78 -18 -119 -39.5t-90 -77.5q-16 -18 -40 -19t-42 15.5t-19 40t15 41.5q61 70 119 101q55 31 151 53q23 4 43.5 -8.5t25.5 -36t-7 -44t-37 -26.5z" />
<glyph unicode="&#xca;" horiz-adv-x="1423" d="M1155 1350q-80 -12 -213 -13q-145 0 -199 -4q-39 -4 -118 -18q-84 -12 -127 -17q-6 0 -121 -8q-47 -2 -74 -4h-8q-2 -2 -2 -6q-8 -27 -10 -74q-2 -14 -7 -151q-2 -96 0 -267q16 -2 37 -4q96 -16 123 -18q68 -6 195 -19.5t229.5 -22.5t196.5 -15q23 0 39 -18.5t15 -42 t-19.5 -40t-42.5 -14.5q-92 4 -195.5 13t-232.5 23.5t-197 20.5q-27 2 -129 17l-16 4q2 -135 -3 -228q0 -12 -12 -149q-8 -90 -2 -127q2 -10 10 -16h2q4 -2 10.5 -3.5t12.5 -3.5q33 -4 88 -10q96 -8 258 -14q264 -10 453 -10q25 0 41 -16.5t16 -41t-16.5 -41t-40.5 -16.5 q-188 0 -457 10q-166 6 -264 14q-59 4 -96 11q-49 8 -70 20q-51 35 -62 96q-10 55 0 160q12 133 15 142q2 94 0 233q-41 12 -41 55t41 56q-4 170 0 266q2 139 4 155q4 59 14 97q18 68 64 86l18 2q2 2 8 2q8 0 27 2q25 2 74 4q113 6 114 6q41 4 119 17q98 16 127 18 q59 6 211 6q125 0 193 10q25 4 44 -10t23 -37.5t-10 -43t-37 -23.5zM872 1518q-47 35 -106 94q-74 72 -96 92l-4 4q-80 -94 -140 -203q-12 -23 -34.5 -30t-44 5.5t-28.5 35t5 43.5q66 121 154 225q16 18 39.5 20t41.5 -12l7 -6q16 18 39.5 19t42.5 -15l100 -96 q55 -53 94 -86q20 -14 23.5 -38t-12 -43.5t-39.5 -22t-42 13.5z" />
<glyph unicode="&#xcb;" horiz-adv-x="1423" d="M1143 1300q-10 0 -133 5.5t-132.5 4.5t-132.5 -3q-39 -2 -186 -27q-123 -20 -205 -14q-18 2 -41 10q-4 -18 -6 -45q-8 -78 -12 -215q-4 -102 -4 -234q98 4 203.5 -2t240.5 -19t197 -18q25 -2 40 -19t13 -42t-19.5 -40t-41.5 -13q-68 4 -203 18.5t-235.5 19.5t-194.5 1 v-50q0 -20 -5 -119.5t-7 -160.5q-2 -96 2 -152q2 -20 4 -34h8q25 -2 65 0q20 0 49 1t47.5 2t26.5 1q53 -2 291 -29q197 -23 256 -14q10 0 27 8l45 22q23 8 45 -1t30.5 -30.5t-1 -44t-29.5 -30.5q-8 -2 -14.5 -5t-13.5 -7.5t-13 -6.5q-33 -16 -60 -20q-76 -10 -284 14 q-231 27 -283 29q-6 0 -23.5 -1t-44 -2t-47.5 -1q-47 -2 -75 0q-18 0 -31 2q-23 4 -37 12q-31 16 -43 62q-6 25 -10 63q-4 61 -2 164q2 61 7 160.5t5 117.5v33v49q-4 8 -4 17q0 12 4 24q0 150 4 279q4 147 13 223q6 49 12 78q6 20 12 33q12 29 39 39q35 14 80 -4 q25 -8 26 -9q68 -4 179 13q152 27 196 28q47 2 105.5 2t96.5 -1t109.5 -4t98.5 -3q25 0 40 -17.5t15 -42t-17 -40t-42 -15.5zM455 1522q-8 88 -11 161q0 25 16.5 42.5t40 17.5t41 -16.5t17.5 -38.5q2 -72 10 -154q2 -25 -13 -43t-38.5 -20.5t-42 13t-20.5 38.5zM844 1548 l-33 43q-16 23 -23 39q-4 14 -6 41q-2 33 -5 56.5t11.5 42t38 21.5t42 -11.5t22.5 -38.5q2 -27 6 -62v-10q2 -2 4 -6l37 -45q12 -20 9 -44t-22.5 -37t-43 -10t-37.5 21z" />
<glyph unicode="&#xcc;" horiz-adv-x="546" d="M158 1706q86 -45 88 -45q6 -4 67 -72q14 -18 13.5 -41.5t-18 -39t-41 -14.5t-40.5 17l-22 25l-12 16q-4 6 -7.5 9.5t-4.5 5.5t-3 2l-8 4l-23 12l-43 23q-20 10 -27 32.5t4 43t34 27.5t43 -5zM311 1419q-55 -301 -30 -592q2 -41 13 -135t17 -172t2 -147q-4 -39 -12 -87 t-15 -81t-21.5 -88.5t-18.5 -73.5q-6 -25 -25.5 -37t-43 -6t-36 25.5t-6.5 42.5q6 27 21 79l20 82q6 31 12 74q8 43 11 78q4 66 -2 133q-4 70 -17 162q-10 88 -14 143q-25 305 35 621q4 23 23.5 36t42 9t35.5 -23.5t9 -42.5z" />
<glyph unicode="&#xcd;" horiz-adv-x="557" d="M35 1552q70 90 176 201q16 16 39.5 17.5t40 -15t17.5 -40t-15 -40.5q-104 -109 -168 -192q-14 -18 -38 -21.5t-42 11t-21 38t11 41.5zM338 1466q0 -55 -7 -115.5t-18.5 -132t-15.5 -106.5q-8 -74 -9 -152.5t2 -189.5t3 -158q0 -90 -5 -271t-5 -271q0 -23 -17.5 -40.5 t-40 -17.5t-40 17.5t-17.5 40.5q0 90 5 271t5 271q0 41 -2 155t-1 198t11 159q4 45 14.5 114t16.5 122t6 106q0 23 17.5 40.5t40 17.5t40 -17.5t17.5 -40.5z" />
<glyph unicode="&#xce;" horiz-adv-x="770" d="M334 1413q-6 -51 -4 -131q4 -106 2 -143q0 -20 -13 -123q-12 -104 -14 -113q-10 -129 -12 -290.5t0 -292t-2 -289.5q0 -25 -17.5 -42.5t-41 -16.5t-41 18.5t-15.5 40.5q2 162 0 294t1 294.5t13 291.5q0 12 13 119l14 113q0 33 -4 135q-2 88 6 152q2 23 21.5 38t43 12 t39 -22.5t11.5 -44.5zM-35 1524q59 125 127 217q14 18 39 22t43.5 -10t22.5 -38.5t-11 -43.5q-61 -82 -114 -196q-10 -23 -33 -31t-45.5 2t-30.5 32.5t2 45.5zM440 1495q-39 72 -116 195q-12 20 -7 43.5t25 36t44 7.5t36 -26q78 -123 121 -199q12 -20 5 -43.5t-27.5 -36 t-44.5 -5t-36 27.5z" />
<glyph unicode="&#xcf;" horiz-adv-x="757" d="M356 1366q-31 -63 -47 -240q-14 -156 -14 -381q0 -352 24 -671q2 -23 -13 -40.5t-37.5 -19.5t-40 13.5t-19.5 38.5q-27 324 -27 679q0 231 15 392q18 197 61 278q10 20 31.5 27.5t42 -2.5t27.5 -32t-3 -42zM47 1538l-10 64q-4 23 -5 34t1 33v66q0 23 16.5 39t39 16 t38.5 -16.5t16 -38.5v-66v-27q0 -6 4 -22l11 -66q4 -23 -10.5 -41t-37 -22t-41 10t-22.5 37zM426 1585l-25 133q-4 23 9.5 42.5t36 23.5t42 -9.5t23.5 -35.5l25 -133q4 -23 -9.5 -42.5t-36 -23.5t-42 9t-23.5 36z" />
<glyph unicode="&#xd0;" horiz-adv-x="1439" d="M303 645q-2 -23 -5 -198t-3 -265q76 -14 117 -13t135 11q6 0 18 2q184 18 258 58q170 86 236.5 251.5t27.5 350.5q-41 184 -174 317q-133 131 -327 152q-145 16 -297 -13q18 -225 14 -534q307 -6 369 -6q25 0 42 -17.5t17 -42t-17.5 -42t-41.5 -17.5q-60 0 -369 6z M-43 764q100 4 229 2q2 293 -12 504q-23 -2 -41 10t-24 33q-6 25 6 45t35 28l28 7q16 23 41 24q16 0 33 -6q178 37 346 19q236 -27 395.5 -186t208.5 -378q25 -100 15.5 -208.5t-45 -204t-112.5 -180.5t-183 -140q-16 -8 -34 -15t-37.5 -13.5t-34.5 -10.5t-38 -8l-37 -6 q-10 -2 -35.5 -6t-34 -4t-36 -3.5t-31.5 -5.5l-100 -8q-35 -4 -88.5 -2t-100.5 15q-14 -12 -34.5 -12.5t-37 14t-20.5 34.5q-31 27 -16 66q6 12 14 20q2 90 5 261.5t3 197.5q-125 2 -223 -2q-25 0 -42 16.5t-18 41t15 42t41 19.5z" />
<glyph unicode="&#xd1;" horiz-adv-x="1480" d="M147 80q-10 137 -10 457v360q2 55 31 195q23 109 16 170v4q0 2 -4 8l-6 18q-18 57 10 94q29 35 72 17q10 -4 19.5 -12.5t23.5 -24.5q20 -23 51 -68l72 -102q53 -72 176 -188q133 -129 188 -201l45 -62q20 -33 41 -73l33 -62l33 -73q25 -49 31 -64q4 -8 16 -37l31 -69 l31 -74l14 -31q25 106 31 152q4 35 14 114l18 127q6 43 13.5 109.5t8.5 124t-1 112.5q-2 45 -23 115q-31 100 -37 135q-8 43 -14 211q0 25 16.5 41.5t40 17.5t40 -15.5t18.5 -39.5q4 -160 10 -194q6 -29 35 -121q25 -84 29 -145q2 -72 -4.5 -163t-11.5 -137.5t-23 -168.5 l-19 -140q-6 -51 -35 -172q-12 -55 -22 -88q-4 -20 -10 -33q-2 -8 -7 -14q-6 -10 -12 -16q-27 -23 -59 -11q-16 6 -29 21l-12 16q-10 16 -23 41q-20 39 -49 107q-14 31 -31 71l-30 70q-12 27 -17 35q-8 16 -30 65l-33 72q-10 20 -29.5 57t-38 65t-39.5 54q-49 66 -178 189 q-127 125 -186 204l-35 48q-4 -43 -18 -109q-27 -129 -27 -176v-356q0 -313 10 -449q0 -23 -14.5 -41t-38 -19t-42 13t-20.5 39zM362 1432q-35 84 -34 92q-14 61 24 129q53 96 135 98q57 2 127 -53q18 -12 50 -39l45 -39q41 -31 57 -31q29 -2 57.5 21.5t73.5 77.5 q14 18 37.5 20t42 -13.5t20.5 -39t-14 -41.5q-2 -2 -6 -8l-51 -58q-23 -23 -70 -48t-94 -25q-53 2 -123 57q-14 10 -49 41q-29 25 -43 35q-39 31 -58 30q-16 0 -38 -39q-16 -33 -13 -51q0 -8 4 -16t13 -25l14 -34q8 -20 -1 -42t-30.5 -31t-43.5 0t-32 32z" />
<glyph unicode="&#xd2;" horiz-adv-x="1609" d="M807 1360q-195 10 -338 -141q-90 -94 -145 -236q-53 -141 -62 -295q-12 -92 -3 -195.5t48 -170.5q49 -86 136 -152t190 -98q123 -33 243.5 -2.5t219 123t137.5 215.5q49 164 43 419q-8 276 -88 369q-53 61 -133 89t-211 50q-25 5 -37 25zM1038 1409q152 -43 236 -139 q106 -121 115 -441q8 -274 -50 -454q-33 -113 -110.5 -206t-180 -149.5t-220 -75t-232.5 20.5q-119 39 -222.5 117t-164.5 182q-37 63 -52.5 144t-13.5 149l4 139q10 170 73 330t167 270q78 82 170 127t209 51.5t244 -42.5q18 -7 28 -23zM754 1505l-37 64l-39 69 q-14 25 -33.5 64t-34 74.5t-26.5 72.5q-6 23 5 43.5t33.5 27.5t43 -4t28.5 -34q8 -33 20.5 -64.5t30.5 -66.5l33 -59l37 -66l37 -63q12 -20 6 -43t-26.5 -35t-43 -6t-34.5 26z" />
<glyph unicode="&#xd3;" horiz-adv-x="1622" d="M948 1321q-14 -2 -26 2l-23 8q-14 2 -33.5 4t-44 4t-39.5 4q-18 2 -30 13h-19q-90 -6 -231 -123q-137 -115 -187 -211q-18 -39 -27 -86t-14.5 -123t-9.5 -113q-31 -274 68 -401q100 -129 377 -170q137 -20 254 55q18 12 35.5 29.5t29.5 32t30.5 42t27 41t29 50.5t26.5 47 q121 207 139 330q25 166 -56 319.5t-231 229.5q-20 10 -45 16zM930 1444q70 -12 117 -37q182 -90 280 -277.5t68 -390.5q-23 -145 -152 -370q-6 -10 -25.5 -45t-29.5 -52l-33 -49q-20 -33 -37.5 -53t-42 -44t-51.5 -40q-152 -98 -332 -72q-324 47 -452 213q-131 168 -90 490 q2 12 7 98t17 147.5t39 112.5q59 117 215 246q172 141 297 149q88 6 127 -2q23 -4 78 -24zM518 1544q25 57 57.5 107.5t81 102.5t78.5 81l92 86l84 76q16 16 41 15t41.5 -18.5t15.5 -42t-20 -40.5l-84 -76l-90 -84q-27 -27 -70 -73t-71.5 -89t-48.5 -90q-10 -23 -33 -32 t-44.5 1.5t-30.5 33t1 42.5z" />
<glyph unicode="&#xd4;" horiz-adv-x="1511" d="M731 1352q-186 -4 -315 -108.5t-185 -303.5q-37 -139 -20 -240q8 -49 38 -114.5t50 -98.5l68 -114q61 -98 113 -160.5t114 -83.5q76 -29 221 33q137 59 203 135q14 14 22.5 24.5t16.5 22.5t11 18.5t9 21.5t8 22l11 28l12 37q43 123 62.5 271.5t-1.5 256.5 q-16 86 -153 179q-123 80 -244 110q-20 4 -32.5 22.5t-8.5 41.5zM942 1343q72 -33 135 -73q178 -119 203 -250q20 -147 0 -299t-66 -287q-4 -8 -14 -37l-10 -32q-2 -6 -9 -26t-13.5 -28t-15.5 -24.5t-21.5 -30.5t-26.5 -33q-84 -96 -246 -164q-184 -78 -301 -36 q-47 18 -91 50.5t-83 81t-59.5 79t-51.5 81.5q-4 4 -18 29l-21 35l-20 33q-16 25 -23 37l-18 36l-20 39q-6 14 -15.5 38t-15.5 41.5t-11.5 39t-9.5 41.5q-20 121 25 285q80 289 293 411q213 123 504 66q23 -4 36 -23.5t8.5 -42.5t-24.5 -37zM485 1559q14 96 43 145 q18 31 97 111q16 16 39.5 16t40 -15.5t16.5 -39t-14 -39.5q-70 -72 -82 -90q-18 -29 -29 -105q-4 -23 -22.5 -37t-41 -10t-37 22.5t-10.5 41.5zM905 1550l-61 82q-2 6 -39 94q-10 20 -1 42t30.5 31t43 0t29.5 -32l15 -36q8 -16 10 -22.5t4 -11.5t4 -7q2 -4 6 -11l17 -20 l32 -43q14 -18 10 -41t-22 -37t-41 -10t-37 22z" />
<glyph unicode="&#xd5;" horiz-adv-x="1583" d="M971 1229q-18 0 -33 10l-4 4q-29 10 -57 14q-18 2 -32 15.5t-16 32.5q-139 61 -274 4q-86 -35 -157.5 -117t-116.5 -197q-61 -164 -82 -383q-16 -186 49 -288q33 -49 89 -96.5t155 -116.5q8 -4 32 -21l29 -20l25 -17q20 -14 28 -18l25 -15q18 -8 29.5 -12t26.5 -10 t30.5 -9t32.5 -5q68 -10 161 69q53 45 152 164q133 156 172 307q25 98 13.5 222t-60.5 233q-78 182 -217 250zM987 1343q199 -76 303 -319q55 -125 68.5 -267.5t-17.5 -260.5q-45 -174 -192 -353q-104 -123 -166 -176q-133 -111 -250 -94q-27 4 -51.5 10t-50.5 19l-43 16 q-14 6 -44 24.5t-36 22.5l-41 29q-37 25 -37 26q-106 72 -169.5 126.5t-104.5 115.5q-88 135 -68 363q20 233 90 411q49 131 136 230.5t198 146.5q239 98 475 -70zM424 1507q-6 12 -16 37q-14 25 -17 41q-12 57 45 111q80 72 150 71q55 0 114 -47l25 -20q12 -10 19.5 -15.5 t17.5 -13.5t16 -10l17 -6q8 -2 17 -2t19 4q27 6 61 21.5t54 29.5l66 41l57 39q20 12 43 7t35 -24.5t7 -42t-24 -34.5l-53 -35l-73 -49q-25 -14 -69 -35t-79 -29q-27 -2 -46 -4t-42 5t-37 13.5t-31 18.5l-28 18q-10 8 -23.5 20.5t-17.5 14.5q-29 25 -45 25q-27 0 -72 -43 q-8 -6 -12 -10q2 -4 6 -11q12 -29 18 -45q10 -23 0 -43t-31.5 -29.5t-42 1t-28.5 30.5z" />
<glyph unicode="&#xd6;" horiz-adv-x="1581" d="M872 1346q-246 49 -411 -60q-176 -113 -217 -356q-27 -156 10 -312q39 -156 147.5 -283.5t268.5 -178.5q147 -49 237 -43q39 2 82 26.5t74 61.5q109 121 158 305t10 338q-2 8 -27 65q-29 74 -33 88q-41 115 -110.5 202t-159.5 122q-19 7 -29 25zM1044 1372 q154 -111 234 -338l33 -82q29 -70 30 -80q47 -184 -10 -395t-182 -354q-43 -49 -105.5 -85t-128.5 -40q-113 -8 -282 47q-117 39 -212 111.5t-155.5 164t-99.5 199t-45 215t10 213.5q23 137 90 252q68 113 176 182q248 160 607 48q42 -15 40 -58zM526 1585q23 119 45 215 q4 25 24.5 37t44.5 7t36 -25.5t6 -42.5q-23 -96 -41 -211q-4 -23 -23.5 -37.5t-43 -10t-38 23.5t-10.5 44zM870 1587q-2 18 -10 70q-8 35 -2 55q4 18 25 49q25 35 41 62q12 20 35.5 25t44 -7t25.5 -35.5t-7 -44.5q-18 -29 -45 -65l-6 -10q0 -4 2 -9q8 -53 12 -73 q2 -25 -12.5 -43.5t-38 -21.5t-42 11t-22.5 37z" />
<glyph unicode="&#xd7;" horiz-adv-x="1214" d="M74 117q59 80 174 168q150 115 174 137l78 76l-94 75l-146 136q-84 82 -139 125q-20 14 -23.5 38.5t11 44t39 22.5t42.5 -11q63 -49 152 -133q106 -102 141 -131l101 -82l49 49q133 131 231 205q18 14 43 11t39.5 -22.5t11 -44t-23.5 -39.5q-90 -70 -217 -194l-43 -43 q25 -23 43 -45q25 -27 78 -90.5t89 -97t83 -64.5q20 -12 26 -36t-7 -44.5t-36.5 -26.5t-44.5 9q-55 35 -100 75.5t-105 110.5l-69 86q-18 20 -41 41l-90 -86q-27 -27 -181 -146q-104 -82 -151 -143q-14 -20 -39 -23.5t-44 11t-22 39.5t11 43z" />
<glyph unicode="&#xd8;" horiz-adv-x="1630" d="M305 336l320 317q66 70 159 187l162 209q88 109 160 182q-180 115 -272 133q-174 35 -323 -59.5t-237 -270.5q-88 -168 -84.5 -360.5t103.5 -323.5q4 -6 12 -14zM1165 1128q-59 -61 -131 -151l-162 -207q-94 -121 -165 -195l-320 -317q72 -63 156 -121q90 -61 162 -94 q74 -33 106 -29q55 8 115 82q23 27 57 78q39 55 57 76q318 393 125 878zM305 178q-139 -135 -231 -233q-16 -16 -40 -17.5t-40.5 15t-17.5 40t16 40.5q92 98 231 233l-20 25q-84 109 -112 251t-5 283t86 268q102 205 282.5 320t399.5 72q90 -16 211 -86q6 10 18 18 q20 12 43 6t35 -27q20 -33 39 -67q61 51 125 90q20 12 43 6t35 -26.5t6 -43t-27 -34.5q-68 -41 -131 -99q78 -178 95.5 -350t-37 -348t-183.5 -334q-14 -18 -51 -71q-37 -55 -61 -84q-90 -109 -187 -121q-66 -10 -170 37q-78 35 -178 104q-98 65 -174 133z" />
<glyph unicode="&#xd9;" horiz-adv-x="1490" d="M301 1366q-35 -262 -39 -578q-2 -195 14 -323q18 -145 56 -193q127 -168 308 -167t306 167q209 276 209 1022q0 25 16.5 41.5t41 16.5t41 -16.5t16.5 -41.5q0 -784 -230 -1091q-104 -137 -251.5 -188.5t-296 -2.5t-254.5 191q-53 72 -76 248q-16 135 -15 337 q2 328 39 594q2 23 21.5 38.5t43 12.5t39 -22.5t11.5 -44.5zM698 1448q-141 113 -237 307q-10 20 -2 43t29.5 34t44 3t34.5 -31q82 -170 205 -266q18 -14 21.5 -37.5t-12 -43t-39.5 -22.5t-44 13z" />
<glyph unicode="&#xda;" horiz-adv-x="1433" d="M262 1350q-8 -37 -4 -106.5t8 -106.5t16.5 -111t16.5 -119q0 -4 18 -237q14 -188 37 -289q31 -154 84 -236q57 -86 142 -90q74 -2 182 68q96 63 162 143q121 150 141 533q4 76 8 205q2 133 7 235t18 178q4 23 23.5 37t43 10t38 -23.5t9.5 -43.5q-12 -74 -16 -168 q-6 -94 -8 -224.5t-6 -211.5q-10 -195 -46 -345.5t-122 -254.5q-76 -94 -189 -168q-139 -90 -250 -84q-145 6 -233 141q-68 98 -102 276q-25 123 -39 304q-16 231 -17 233q-4 35 -16 109.5t-17.5 116.5t-9.5 121t6 124q2 25 21.5 39t44.5 11t39 -22t10 -44zM492 1497 q-2 55 14 107.5t51 101.5t59.5 77.5t67.5 74.5q16 16 40 17t41 -16.5t18 -41t-17 -41.5q-80 -84 -120 -146.5t-40 -128.5q2 -25 -14.5 -42t-41 -18t-41.5 15t-17 41z" />
<glyph unicode="&#xdb;" horiz-adv-x="1417" d="M256 1380q-8 -16 -16 -28l-13 -19q-4 -6 -6 -14q-6 -18 -2 -53q2 -6 2 -12.5t2 -14.5t2 -12q4 -27 4 -45q2 -78 0 -250q-2 -174 2 -260q10 -301 95 -467q37 -74 108 -107q74 -35 168 -28q90 6 175 46t134 101q104 127 144 551q10 111 14 219q6 111 9 252t3 154 q0 23 17.5 39t41 16t40 -17.5t16.5 -41.5q0 -8 -3 -153.5t-9 -256.5q-4 -113 -15 -221q-43 -459 -168 -615q-68 -82 -174 -132t-219 -56q-121 -6 -225 41t-160 156q-96 188 -106 516q-4 90 -2 266q2 170 0 244q0 12 -4 32l-5 41q-8 59 5 101q4 14 13 31.5t19 33.5l11 17 q12 23 34.5 28.5t44 -5.5t27.5 -34t-4 -43zM416 1495q14 45 37.5 87t36 60.5t51.5 69.5l47 60q14 18 37.5 21t42 -11.5t21.5 -38t-11 -41.5q-14 -20 -40 -52t-36 -48l-29 -41q-16 -25 -28 -50l-23 -53q-8 -23 -29.5 -33t-43 -1.5t-31.5 30t-2 41.5zM897 1475 q-100 123 -172 262q-10 23 -3 45t28.5 32.5t44 3t32.5 -27.5q66 -129 160 -242q14 -18 12 -41.5t-20 -39t-42 -13t-40 20.5z" />
<glyph unicode="&#xdc;" horiz-adv-x="1376" d="M274 1405q-66 -238 -24 -606q41 -375 149 -594q41 -80 112 -118t157 -32q86 4 164.5 49.5t128.5 118.5q86 129 81 557q-2 129 -13 351.5t-11 289.5q0 23 17.5 40.5t40 17.5t40 -17.5t17.5 -40.5q0 -68 11 -290t11 -349q0 -469 -100 -620q-63 -96 -166 -154.5t-213 -66.5 q-119 -6 -220.5 47t-158.5 168q-117 236 -160 631t27 651q8 23 28.5 34t43 3.5t33.5 -27.5t5 -43zM496 1538q-14 45 -20.5 81t-3.5 74t7 58.5t18.5 67.5t18.5 69q6 23 26.5 35t43 6t35 -26.5t6.5 -42.5q-8 -27 -20.5 -72t-15.5 -60.5t-6 -44t2 -53t15 -59.5q8 -23 -3 -43.5 t-33.5 -27.5t-43 4t-26.5 34zM809 1569q-6 109 -6 373q0 23 17.5 40t40 17t40 -17.5t17.5 -39.5q0 -260 6 -365q0 -25 -15.5 -42t-39 -18t-41 14t-19.5 38z" />
<glyph unicode="&#xdd;" horiz-adv-x="1425" d="M131 1436q14 -51 44 -108.5t78 -125t81 -108.5l96 -123q66 -78 84 -103q70 -86 94 -125q18 20 45 19q4 0 11 -2l26 63l27 64q92 199 180 344t211 262q16 16 39.5 16t40 -17t16.5 -41t-18 -40q-111 -106 -194 -242.5t-173 -330.5q-2 -6 -22.5 -57.5t-36.5 -86.5 q-27 -51 -51 -82q-4 -4 -9 -10q-23 -367 2 -616q2 -25 -13 -43.5t-38.5 -20.5t-42 13.5t-20.5 37.5q-23 246 -4 596q-29 12 -41 52q-6 16 -8 20v2l-23 37l-12 20q-6 10 -14.5 20.5t-12.5 16.5t-21.5 26.5t-27.5 35.5q-14 16 -80 94l-98 127l-90 121q-51 74 -85 139.5 t-51 122.5q-6 23 5.5 44t34 27.5t44 -4.5t27.5 -34zM397 1495q8 25 20.5 49.5t24 43t31.5 42.5l31 35q10 12 37 35l32 33l37 30q29 25 33 27q18 16 42 14t39 -20.5t13 -42t-20 -37.5q-4 -4 -27.5 -24.5t-29 -24.5t-25 -21.5t-25.5 -23.5l-22 -23q-16 -16 -21.5 -24.5 t-17.5 -23.5t-17.5 -26.5t-12.5 -25.5t-11 -29q-8 -23 -29.5 -33t-44 -2.5t-33 28.5t-4.5 44z" />
<glyph unicode="&#xde;" horiz-adv-x="1314" d="M254 469q168 -25 391 10q266 45 320 144q47 88 -52 231q-43 66 -100 116t-104 70q-49 20 -217 23q-78 0 -138 -6q-59 -4 -78 -15q-10 -4 -17 -10t-20.5 -19.5t-29.5 -25.5l-2 -2v-10q8 -94 25.5 -256t19.5 -211q2 -19 2 -39zM221 1393q-27 -74 -22 -260q16 10 28 16 q37 16 117 25q66 6 148 6q190 -2 262 -33q63 -27 133.5 -89.5t122.5 -137.5q137 -201 57 -351q-80 -152 -403 -204q-221 -35 -406 -13q0 -53 -2 -152.5t-2 -144.5q0 -25 -16.5 -41t-41 -16t-41 16.5t-16.5 40.5q0 45 1 139.5t1 166t-4 139.5q-4 49 -21.5 209.5t-23.5 257.5 q-27 344 23 467q8 23 29.5 33t44 0.5t32.5 -30.5t0 -44z" />
<glyph unicode="&#xdf;" horiz-adv-x="1169" d="M154 16q-4 141 -3 208t10 206t11 201q2 12 3 83.5t3 109.5t7 100.5t14 113.5q45 276 188 385q74 55 154 64.5t143 -17.5q66 -29 119 -84q76 -78 110.5 -192.5t8.5 -220.5q-31 -123 -146 -168q72 -43 103.5 -110.5t48.5 -164.5q33 -180 12 -268q-35 -145 -229 -215 q-152 -53 -295 -37q-23 2 -38.5 20.5t-12 41t22 38t40.5 11.5q119 -12 246 33q135 49 155 133q16 66 -12 223q-16 92 -42.5 141t-88.5 72q-4 2 -8 2h-35q-43 2 -57 0l-33 -6q-18 -4 -28.5 -4t-20.5 4q-35 14 -37 51q-2 23 14 41l11 10q25 18 57.5 32.5t56 22t57 14.5 t44.5 11q45 12 69.5 32.5t34.5 67.5q20 76 -6.5 162t-83.5 145.5t-123 68.5t-141 -44q-109 -82 -146 -311q-8 -51 -12 -109q-6 -59 -8 -94l-2 -106q-2 -70 -2 -86l-13 -205q-8 -137 -10 -198.5t4 -198.5q0 -23 -14 -41.5t-37.5 -19.5t-42 13t-20.5 39z" />
<glyph unicode="&#xe0;" horiz-adv-x="1359" d="M678 524q-74 35 -182 2q-106 -35 -129 -43q-72 -27 -101 -53q-45 -43 -49 -117q-6 -74 31 -139q23 -41 57.5 -64.5t89 -26.5t123.5 32q27 12 39 20l29 15q16 8 21 12t28.5 20.5t40.5 26.5q8 6 18 8q-10 53 -14 135q0 10 -2 172zM109 788l51 74l30 45l11 15q6 10 8 12 q74 80 223 100q188 27 281 -102q63 -90 75 -277q2 -37 5 -63q18 -14 22 -38t-10 -44q-4 -6 -10 -10q2 -109 2 -144q6 -150 39 -196q27 -43 102 -70q14 -4 77.5 -20.5t82.5 -22.5q23 -6 35 -27.5t4.5 -44t-29 -35t-43.5 -3.5l-76 18q-55 14 -88 27q-115 39 -164 112 q-4 6 -6 12q-10 -8 -29.5 -21t-24.5 -16t-18.5 -12.5t-23.5 -15.5l-27 -12l-41 -21q-96 -47 -179 -42t-142 46q-61 39 -101 105q-53 88 -44.5 204.5t83.5 190.5q47 45 142 82q25 8 137 43q119 37 211 12q-12 152 -58 215q-49 72 -167 56q-109 -14 -154 -64l-10 -14l-31 -45 l-51 -74q-12 -20 -36 -24.5t-44.5 9t-24 37t10.5 43.5zM506 1126q-135 170 -221 408q-8 23 2 45.5t32.5 30.5t45 -2.5t30.5 -32.5q78 -221 201 -375q16 -20 13 -43.5t-22.5 -39t-43 -12.5t-37.5 21z" />
<glyph unicode="&#xe1;" horiz-adv-x="1277" d="M733 532q-131 55 -256 9q-23 -8 -84 -41t-69 -41q-31 -31 -37 -53q-4 -14 -6 -76q-6 -125 36 -191q33 -49 95 -57q63 -8 145 33t154 123q12 14 30 18q-2 39 -4 162q-2 73 -4 114zM135 672q-31 115 17.5 208t142.5 142q84 47 195.5 37t191.5 -88q131 -125 158 -361 q8 -72 10 -192q2 -135 6 -176q6 -86 10 -111q6 -23 11.5 -35t9.5 -14l4 -2q14 -2 41 4q61 10 63 10q23 4 41.5 -10t21.5 -37.5t-11.5 -42t-38.5 -20.5q-8 -2 -17.5 -4.5t-21 -4.5t-17.5 -4q-45 -8 -78 -2q-90 12 -118 137q0 6 -2 13q-82 -80 -176.5 -120t-180.5 -30 q-113 14 -174 109q-63 96 -57 256q4 76 12 104q14 51 68 103q18 18 94 59q68 37 96 47q141 53 283 12q-29 147 -115 230q-53 49 -125.5 57t-130.5 -24q-63 -33 -93 -91.5t-9 -130.5q6 -23 -6.5 -43t-35 -26t-43 6t-26.5 35zM371 1175.5q4 22.5 11 45t15.5 42t22.5 42.5 l22 38q10 14 30 37t28 34t30 34l31 31l29 28l28 27q16 16 40 16t40.5 -17t16.5 -41t-19 -40l-75 -74q-20 -20 -58.5 -65t-56 -82t-25.5 -76q-4 -23 -23.5 -36t-42 -9t-35.5 23.5t-9 42z" />
<glyph unicode="&#xe2;" horiz-adv-x="1376" d="M741 555q-66 14 -118 7t-125 -40q-25 -12 -74 -30.5t-78 -33t-51 -34.5q-113 -109 -94 -213q10 -49 44 -69.5t93 -18.5q106 4 240 63q18 10 31.5 16.5t25.5 14.5l20 8q6 4 19.5 15.5t16.5 14.5t20.5 19.5t25.5 22.5q0 31 2 96.5t2 95.5v66zM113 782q0 6 2 13v16q2 6 2 12 q4 35 16 60q39 78 123 122t182 52q96 8 187.5 -20.5t144.5 -94.5q55 -70 74 -209q6 -47 10 -106q12 -23 4 -47q0 -6 -4 -11q2 -37 0 -82q0 -31 -1 -85t-1 -74q0 -2 2 -4q14 -16 13 -39t-15 -37q0 -31 4 -51l4 -21q39 -49 95.5 -58t136.5 7q23 4 42 -10.5t22 -37t-11.5 -42 t-36.5 -21.5q-55 -8 -86 -10t-81 2t-92 28.5t-79 71.5q-14 18 -22 50q-41 -35 -125 -72q-154 -70 -281 -74q-94 -2 -156 35q-78 45 -96 145q-16 88 23 170t104 146q31 29 72 51.5t99 44t65 23.5q154 70 284 47q-2 25 -6 47q-14 106 -51 153q-31 39 -94.5 58.5t-139 13.5 t-133 -35.5t-77.5 -74.5q-4 -8 -7 -25q-6 -45 -6 -47q-4 -23 -23.5 -36t-42 -9t-35.5 23t-9 42zM633 1194q-100 102 -121 139q-8 10 -14 21q-53 -80 -140 -230q-12 -20 -34.5 -26t-43 6t-26.5 34.5t6 43.5q117 203 195 307l-6 31q-4 25 8 44t35.5 23t43 -8t23.5 -35 q23 -111 49 -151q14 -27 107 -121q16 -16 15 -40t-17.5 -40t-40 -15t-39.5 17z" />
<glyph unicode="&#xe3;" horiz-adv-x="1361" d="M698 494q-76 20 -198 -11q-80 -20 -140.5 -52t-93.5 -64.5t-53 -70.5t-20 -70.5t4 -63.5q23 -88 104.5 -135t183.5 -13q31 10 64 32t51 38l62 57q10 10 24 15q0 16 -2 32q-2 68 8 218zM57 674q12 61 20.5 98t35 94.5t63.5 96.5q66 70 161 91t177 -3q88 -20 162 -78 t108 -139q39 -90 33 -265q20 -10 26.5 -32.5t-3.5 -42.5q-10 -16 -27 -25q-2 -8 -6 -72q-10 -147 -8 -204q4 -82 26 -109q31 -39 103 -41q23 -2 149 12q25 2 43.5 -12t20.5 -38.5t-12.5 -43t-38.5 -20.5q-135 -14 -166 -13q-125 4 -189 82q-10 12 -16 27 q-109 -102 -197 -133q-152 -49 -277.5 22.5t-158.5 206.5q-37 145 61 273q98 129 324 188q137 37 231 16q2 119 -24 178q-23 53 -75 94.5t-116 57.5q-141 35 -229 -55q-35 -39 -53.5 -92.5t-32.5 -139.5q-4 -23 -24.5 -37t-43 -10t-37 24.5t-10.5 43.5zM145 1159q0 12 -2 41 q0 25 4 43q8 20 27 41q6 4 35 31q92 82 168 88q63 6 129 -37l31 -20l24 -19q8 -6 22.5 -13t24.5 -8t25.5 -1t32.5 4q29 8 60.5 39.5t51.5 64.5l51 82q10 20 34 26.5t44.5 -5t26.5 -35t-6 -43.5q-25 -45 -37 -64.5t-46 -64.5t-71 -73t-80 -38q-31 -8 -61.5 -8t-52 4t-45 16.5 t-37 20.5t-33 22.5t-23.5 16.5q-33 23 -53 20q-39 -4 -102 -61l-29 -25q2 -31 2 -45q0 -25 -16.5 -41t-41 -16t-41 16t-16.5 41z" />
<glyph unicode="&#xe4;" horiz-adv-x="1345" d="M737 561h-8q-2 0 -18 -2h-29q-160 4 -303 -88q-152 -96 -156 -238q-2 -84 74 -147q76 -61 154 -35q47 14 127 90l36 39q14 14 21 25l31 37l47 63q8 12 22 19v98q2 98 2 139zM131 745q0 16 -4 50q-4 31 6 51q6 16 31 37q18 16 35 32q2 2 28 31q23 27 43 41q123 86 299 31 q76 -23 140.5 -70t97.5 -108q35 -63 43 -193q2 -20 2 -47q6 -10 8 -14q14 -18 12 -41t-20 -37q0 -31 -2 -88q-2 -145 2 -203q2 -29 6 -49.5t8 -26.5l2 -6q20 -14 40 -20t34 -6t53 4t70 4q25 0 42 -16.5t17 -40t-16 -41t-39 -17.5q-12 0 -57 -4t-72 -4t-68 12t-73 39 q-41 33 -56 111q-33 -45 -88 -97q-96 -94 -168 -118q-78 -20 -143 -4t-121 61q-53 45 -85 108.5t-29 131.5q4 203 208 331q174 109 369 105h14q20 2 25 2h8q-8 76 -24 106q-49 88 -172 126t-201 -15q-8 -6 -23 -23q-29 -31 -32 -36q-18 -18 -39 -35q2 -25 4 -45 q2 -25 -14.5 -42.5t-40 -19.5t-41 14t-19.5 39zM313 1178l-6 155q0 23 15.5 41.5t39 18.5t42 -15.5t18.5 -40.5l6 -155q0 -23 -15.5 -41.5t-39 -18.5t-42 15.5t-18.5 40.5zM641 1202q-2 14 -4 31.5t-2 21.5q-4 27 0 48q4 8 14 38q12 31 25 68q8 23 29.5 33t44 3t33 -28.5 t3.5 -44.5q-14 -39 -28 -74l-8 -22v-6q2 -4 4 -21.5t4 -29.5q2 -25 -12.5 -43.5t-38 -21.5t-42 11t-22.5 37z" />
<glyph unicode="&#xe5;" horiz-adv-x="1357" d="M807 569q-74 35 -170 17q-139 -27 -264 -137q-121 -104 -140 -207q-16 -90 82 -133q90 -41 201 14q43 20 125 80.5t100 70.5q4 4 9 7q8 57 22 129q6 25 12 53l11 45q4 18 6 29q4 16 6 32zM350 1333q-4 2 -6 4q-20 14 -25.5 38t9.5 44l41 62l30 43q20 27 35 37 q109 78 195 45q80 -29 108 -129q23 -72 7.5 -169.5t-68.5 -152.5q-45 -49 -135 -45q-45 2 -105 18q-72 20 -92 64q-8 16 -12 43t-6 35q-11 40 24 63zM109 762q2 8 2 16v21q0 10 2 16q2 43 14 74q43 104 150.5 158.5t232.5 56.5t233.5 -48t155.5 -153q45 -106 33 -274 q12 -8 22 -19q16 -18 16.5 -42.5t-16.5 -43.5q-16 -14 -36 -16q-2 -14 -13 -57l-16 -66q-23 -106 -27 -176q-6 -88 15 -123q14 -20 59 -10q16 4 31 12l41 23q23 12 45 20q23 12 45 3t33.5 -31.5t2 -45t-31.5 -32.5q-6 -4 -33 -18.5t-54.5 -27t-49.5 -18.5q-133 -35 -191 66 q-25 41 -31 104q-121 -88 -174 -115q-160 -80 -303 -18q-90 41 -128 110.5t-23 153.5q27 143 178 277q152 131 321 163q109 20 201 -8q2 98 -25.5 159.5t-103.5 96.5t-174 34t-174 -40t-100 -100q-4 -12 -7 -37q-4 -59 -4 -62q-4 -25 -23.5 -39t-44 -11t-38.5 22.5t-12 44.5 zM440 1298q2 -8 9 -45l2 -4l18 -6q45 -12 76 -14q35 -2 45 8q27 29 37 90.5t-4 116.5q-12 43 -35 51q-27 8 -84 -33l-10 -12l-27 -39l-41 -57q-6 -10 -16 -17q24 -12 30 -39z" />
<glyph unicode="&#xe6;" horiz-adv-x="1845" d="M743 391q-10 59 -20 168q-25 -2 -53.5 -8t-48 -13.5t-60.5 -21.5l-63 -20q-147 -49 -224 -118t-71 -185q4 -102 137 -117q66 -8 130.5 10t100.5 53q25 25 51.5 63t69.5 105zM1505 618q33 84 -86 185q-53 47 -116.5 78.5t-106.5 38.5q-88 8 -195 -109q-59 -63 -135 -182 q8 -16 4 -35q-4 -20 -20 -33q154 -14 350 -4q135 8 221 29q43 10 68 22q10 6 16 10zM86 707q45 150 165 242.5t279 94.5q51 0 88 -6q68 -8 105 -43q37 -33 57 -102q4 -18 13 -49q6 -29 8 -37q6 -25 12 -55q55 82 105 137q147 158 290 141q61 -6 141.5 -45t145.5 -96 q74 -66 112 -148t3 -166q-18 -41 -70 -67q-37 -20 -94 -33q-92 -23 -240 -31q-195 -10 -356 5q4 -29 8 -54q0 -6 2 -12q4 -27 8 -47q29 -125 81 -191.5t145 -72.5q121 -10 219 59q18 12 35.5 26.5t41 40t32 34t40 46t33.5 39.5q14 18 37.5 19.5t42 -13t19.5 -38t-13 -41.5 q-6 -8 -29 -33l-30 -37q-10 -12 -32 -35.5t-37 -38t-36 -30.5l-39 -33q-131 -90 -293 -80q-223 16 -307 276q-80 -129 -129 -176q-57 -55 -146 -79.5t-175 -14.5q-96 10 -166 66.5t-74 158.5q-2 74 19.5 136.5t57.5 104.5t89 78t100 56.5t107 38.5q25 8 59 21l62 22 q25 8 60.5 16.5t68.5 10.5q-10 66 -21 106l-8 43l-10 41q-12 37 -27 51q-10 8 -43 15q-27 4 -72 2q-119 0 -210 -71t-127 -185q-6 -23 -27 -34t-43.5 -4t-33.5 27.5t-3 43.5z" />
<glyph unicode="&#xe7;" horiz-adv-x="1144" d="M776 690q-18 78 -39 125q-18 45 -55 84q-57 61 -125 80q-66 20 -131 -10q-94 -45 -159.5 -123t-93.5 -166t-34 -184.5t21 -180.5q47 -176 162 -229q63 -29 141 -4q20 39 63 29q31 18 64 47q39 31 76 69l84 92l73 84q16 16 41 17.5t42.5 -15t18.5 -41t-16 -42.5 q-20 -20 -69 -77t-91 -100t-81 -77q-57 -47 -115 -76q-12 -33 -33 -66q33 0 58 -4q57 -8 81 -49q70 -109 35 -197q-31 -74 -127 -112q-74 -27 -170 -31t-153 14q-25 6 -37 28t-6 45.5t27.5 35.5t43.5 6q43 -14 120 -11t132 23q49 20 62 47q12 29 -23 84q-2 0 -6 2 q-16 2 -53 0h-66q-20 0 -35 7q-37 10 -49 41q-20 53 29 98q-59 2 -113 27q-82 39 -139 118q-55 82 -84 187q-23 82 -27 166q-2 88 17.5 179t59.5 173t111 153.5t165 118.5q74 37 148.5 30t135 -39t111.5 -85q51 -55 76.5 -115.5t46.5 -146.5q6 -25 -7.5 -45.5t-37 -26.5 t-44 7t-26.5 36z" />
<glyph unicode="&#xe8;" horiz-adv-x="1196" d="M203 549q39 -4 128 -15.5t128 -13.5t103.5 0t113.5 21.5t100 54.5q57 39 74 72q18 35 2 84q-20 63 -70 108q-49 47 -116 68q-143 49 -274.5 -46.5t-186.5 -269.5q-10 -33 -19 -63h17zM578 1061q-109 80 -173.5 157.5t-95.5 196.5q-6 23 6.5 43.5t35 26.5t43 -6.5 t26.5 -34.5q25 -94 77 -156.5t146 -132.5q20 -14 23.5 -37.5t-9.5 -42.5q-10 -14 -26 -20q37 -6 71 -17q90 -31 160 -95t101 -155q31 -96 -11 -174q-31 -57 -110 -112q-53 -37 -111.5 -59.5t-108 -32t-114 -8.5t-105.5 8l-110 12l-103 12q-6 0 -12 4q2 -76 27 -135 q63 -150 252 -192q139 -29 235 36q33 23 63.5 58t49.5 61l51 80q14 20 36.5 25.5t43 -8t26 -36t-7.5 -42.5l-53 -84q-20 -29 -61 -74t-82 -74q-139 -94 -326 -53q-246 53 -332 258q-74 176 -6 389q55 172 188.5 294t297.5 118z" />
<glyph unicode="&#xe9;" horiz-adv-x="1202" d="M242 561q197 -39 393 4q125 27 184 84q59 59 41 154q0 4 -29 39q-16 20 -51 55q-41 37 -53 43q-63 31 -188 -14q-113 -41 -185 -107q-72 -68 -108 -235q-2 -11 -4 -23zM121 555q4 27 10 53q45 205 145 297q88 80 224 131q170 61 276 11q31 -14 84 -66q41 -41 62 -66 q47 -57 53 -88q31 -158 -74 -260q-84 -82 -242 -116q-211 -45 -432 -5q-2 -98 33 -161q59 -115 240 -140q145 -20 207 7q18 8 34.5 18t34 27.5t27.5 29.5l33 39q23 27 34 39q16 18 40 19.5t42.5 -15t19.5 -40t-16 -42.5q-6 -8 -28.5 -34.5t-36.5 -42t-38 -38t-49.5 -39 t-51.5 -28.5q-90 -39 -269 -14q-238 33 -325 198q-57 111 -43 269q-8 20 -2 41q2 8 8 16zM315 1114q14 57 37 104.5t54.5 84t58.5 61.5t72 62.5t69 60.5q16 16 41 15t41.5 -18.5t15 -42t-19.5 -40.5q-33 -31 -90 -79t-78.5 -69.5t-47.5 -65.5t-38 -102q-6 -23 -26.5 -35 t-44 -6.5t-36 25.5t-8.5 45z" />
<glyph unicode="&#xea;" horiz-adv-x="1150" d="M260 535h12q168 16 236 26q131 18 205 51q78 33 92 80q35 104 -37 197.5t-178 85.5q-98 -10 -234 -113q-59 -45 -77 -86q-20 -43 -21 -147q0 -61 2 -94zM264 1075q0 4 -2 8t-4 13l-4 16q-12 41 -2 72q16 70 102 151l68 58q43 37 51 43q16 14 37.5 14t38.5 -12l-12 53 q-6 23 5 44t34.5 26.5t45 -6t25.5 -35.5q72 -268 127 -381q12 -23 4 -45.5t-28 -32.5q-2 -2 -5 -2q106 -55 157.5 -171t12.5 -233q-31 -96 -157 -149q-86 -39 -234 -62q-70 -10 -239 -24l-13 -2q8 -43 23 -78q43 -104 104.5 -154.5t126.5 -50.5q68 -2 137.5 44t127.5 138 q12 20 35.5 25.5t44 -6.5t25.5 -36t-7 -44q-70 -115 -166 -177.5t-199 -60.5q-106 2 -194 75t-142 202q-20 49 -32 111q-23 -4 -37 -9q-25 -8 -45.5 4.5t-27.5 36t5 44t36 27.5t56 11v109q0 129 30 195.5t114 131.5q160 121 291 134q49 4 94 -5q-57 113 -105 287 q-6 -12 -16 -22q-8 -8 -50 -43t-67 -58q-61 -57 -72 -94l5 -12q12 -45 12 -47q4 -25 -10.5 -44.5t-38 -23.5t-43 10t-23.5 37z" />
<glyph unicode="&#xeb;" d="M197 545q43 2 85 0t91 -6t67 -4q170 -10 324 59q41 18 57 31q23 14 25 22q14 53 10 80q-6 27 -35 68q-96 129 -229 140t-258 -99q-108 -96 -137 -291zM82 530q27 258 178 392q156 141 342 127q184 -16 309 -189q45 -61 56 -110q10 -53 -11 -132q-14 -51 -73 -90 q-25 -14 -74 -36q-178 -82 -375 -72q-25 2 -81 6t-78.5 5t-84.5 1q2 -47 11 -94q23 -145 102.5 -233.5t202.5 -84.5q100 2 188 89q31 31 80 92q68 86 86 104q14 16 38 17.5t41 -14t18 -39t-15 -42.5q-23 -25 -80 -96.5t-88 -101.5q-119 -119 -264 -123q-92 -2 -168 31.5 t-126 94t-82 133.5t-46 154q-8 53 -10 111q-25 12 -29 41q-8 43 33 59zM328 1174q-4 20 -15 67q-6 31 -2 51q2 18 19 47l30 64q10 20 32 28.5t43.5 -2t29.5 -32t-2 -43.5q-12 -27 -33 -68l-6 -10q0 -6 2 -12l12 -74q4 -23 -9 -41.5t-36.5 -22.5t-42 9.5t-22.5 38.5z M641 1202l-14 37l-6 21q-10 29 -11 51q2 14 11 45q12 37 20 71q6 23 26.5 35.5t43 6t35 -27t6.5 -42.5q-10 -37 -23 -76l-4 -18q0 -2 2 -7l6 -20q8 -23 15 -39q8 -23 -2.5 -43t-33 -28.5t-43 1.5t-28.5 33z" />
<glyph unicode="&#xec;" horiz-adv-x="567" d="M152 1452q66 -102 182 -242q16 -18 13 -41.5t-20.5 -39t-41 -12.5t-37.5 20q-121 147 -191 254q-12 20 -8 42.5t24.5 35t43.5 8t35 -24.5zM309 1016q0 -180 -19.5 -511t-21.5 -454q-2 -23 -18.5 -39t-40 -15t-39.5 17.5t-16 40.5q4 121 22.5 451t18.5 510q0 23 17 40 t39.5 17t40 -17t17.5 -40z" />
<glyph unicode="&#xed;" horiz-adv-x="612" d="M295 961q-12 -61 -13 -125t1 -144q4 -78 2 -139q-2 -63 -21 -291q-14 -176 -14 -282q0 -23 -16.5 -39.5t-39 -16.5t-39 16.5t-16.5 39.5q0 106 15 292q16 213 20 285q2 43 -2 127t-2 159t14 138q4 23 23.5 36t42 9t36 -23t9.5 -42zM86 1210q33 47 104 142q68 86 99 133 q14 20 36.5 24t42 -9t23.5 -35.5t-8 -41.5q-35 -51 -104.5 -141t-98.5 -133q-14 -20 -36.5 -24.5t-42 9t-23.5 36t8 40.5z" />
<glyph unicode="&#xee;" horiz-adv-x="706" d="M285 973q-25 -135 -33 -286.5t-8 -355.5t-2 -300q-2 -23 -19.5 -39.5t-40 -15.5t-39 18.5t-16.5 40.5q4 88 4 294t8 365q8 156 35 299q4 23 23.5 36t42 9t36 -23t9.5 -42zM-31 1171q18 84 101 179q23 27 67 71q43 45 60 64l10 10q6 25 31 37q23 10 44 2t31 -29 q29 -61 87.5 -168.5t80.5 -152.5q10 -20 3 -43t-28.5 -33t-44 -3t-32.5 30l-68 127l-61 114l-33 -35q-41 -41 -61 -65q-63 -74 -76 -129q-4 -23 -24.5 -35t-43 -8t-35 24t-8.5 43z" />
<glyph unicode="&#xef;" horiz-adv-x="704" d="M297 1047q-10 -66 -16.5 -134.5t-6.5 -150.5v-139q0 -53 5 -156l8 -139q2 -37 11 -154t11 -139q0 -23 -15 -41.5t-38 -19.5t-41 14.5t-19 38t-10.5 137.5t-11.5 155.5t-8 142t-6 160t1 143.5t8 157.5t17 140.5q2 25 21.5 38t43 10t37 -22t9.5 -42zM154 1362l-4 -31 q-2 -16 -3.5 -21t-1.5 -12v-6v-4q0 -4 1 -10t6.5 -26.5t11.5 -53.5q4 -23 -8.5 -42t-36 -23.5t-43 8t-23.5 37.5l-8 43l-8 36q-4 14 -4 23q-2 10 10 98q2 23 20.5 37.5t42 11t38 -21.5t10.5 -43zM485 1312.5q0 -22.5 -17 -40t-39.5 -17.5t-40 17.5t-17.5 40t17.5 40t40 17.5 t39.5 -17.5t17 -40z" />
<glyph unicode="&#xf0;" horiz-adv-x="1159" d="M727 795h-8q-104 31 -207.5 25.5t-179.5 -44.5q-168 -90 -137 -311q31 -215 202 -324l60 -37q37 -20 51 -22q131 -23 233 127q47 68 70 147q23 78 12 140q-8 45 -20 87t-39 109.5t-35 93.5zM473 1239q-125 -100 -188 -176q-14 -18 -38 -20.5t-42.5 13t-20.5 39t15 42.5 q70 82 198 188q-63 63 -137 125q-16 14 -19 37.5t12 41t38.5 20.5t42.5 -13q82 -68 151 -141q84 68 133 112q18 16 41 15.5t39.5 -18t15.5 -40t-18 -39.5q-49 -45 -135 -114q178 -215 275 -488l32 -88q29 -72 43.5 -121t22.5 -102q14 -84 -13.5 -184.5t-84.5 -184.5 q-63 -90 -153.5 -140t-195.5 -32q-33 6 -86 35q-18 10 -65 41q-213 135 -252 402q-23 154 31 260q53 109 164 165q168 88 395 48q-80 174 -201 317z" />
<glyph unicode="&#xf1;" horiz-adv-x="1167" d="M219 1010q-2 -80 0 -170l39 41l68 65l24 23q12 12 19 16q78 49 231 41q168 -8 229 -82q115 -131 117 -465q2 -74 -3 -162t-11 -176t-8 -123q-2 -25 -19.5 -41t-41 -14t-40 19.5t-14.5 40.5q2 37 8 122.5t10 171.5t4 162q-2 291 -88 391q-31 35 -147 41q-115 6 -164 -22 l-4 -4l-22 -23l-66 -63l-66 -66q-12 -14 -20 -22l-2 -2v-13q0 -2 1 -5t1 -7v-6v-27q-2 -31 -27 -47q2 -41 6 -106q18 -358 19 -518q0 -25 -16.5 -41.5t-41 -16.5t-41 16.5t-16.5 41.5q0 156 -18 514q-18 350 -15 520q0 23 17.5 39t41 16t40 -17t16.5 -42zM170 1206 q2 2 25 39l38 53q68 80 142 76q39 -2 74 -33q4 -2 18 -16q8 -8 12 -10q135 -94 332 43q18 14 42 10t38 -23.5t10 -43t-24 -37.5q-262 -184 -463 -43l-25 20q-12 12 -14 12l-6 7q-18 -2 -47 -35l-31 -43q-25 -39 -27 -41q-14 -20 -37.5 -24.5t-43 10t-23.5 38t10 41.5z" />
<glyph unicode="&#xf2;" horiz-adv-x="1101" d="M629 928q-12 8 -29 10q-29 4 -111 -10q-111 -20 -195.5 -111.5t-121.5 -220.5q-39 -123 -15.5 -247t105.5 -202q82 -76 191 -86q190 -20 274 201q37 98 42 216t-21 196q-2 12 -7 31q-4 20 -4 24q-4 18 -10 25q-10 14 -23.5 26.5t-35 28.5t-41.5 35q-16 14 -17.5 37.5 t15.5 42.5zM750 889q49 -39 71 -70q18 -27 27 -67q0 -2 4 -27l6 -18q29 -98 24 -233.5t-48 -250.5q-51 -133 -149.5 -212t-244 -64.5t-256.5 119.5q-74 68 -111.5 166t-36.5 196t27 201q45 154 152 268.5t254 140.5q100 18 147 13q76 -12 138 -80q16 -18 15 -42t-17 -38z M314.5 1489q17.5 -16 32.5 -34.5t30 -41.5l22 -37q8 -12 22.5 -38.5t18.5 -34.5q55 -96 117 -129q20 -10 27.5 -33t-4 -43.5t-34 -27.5t-42.5 5q-90 47 -162 172l-20 35l-21 37q-6 12 -18.5 30.5t-23.5 32t-23 25.5q-16 16 -17.5 39.5t15 40t40 17.5t41 -15z" />
<glyph unicode="&#xf3;" horiz-adv-x="1142" d="M475 958q-53 -29 -74 -38q-86 -43 -148.5 -123t-89 -172.5t-17 -191.5t56.5 -181q53 -88 99 -130t130 -65q117 -31 234 78q111 102 141 238q8 33 0 106q-10 70 -37 152q-27 84 -59 137q-31 49 -56 57q-23 8 -46 13.5t-56 9.5l-57 10q-23 6 -35 25.5t-8 42.5q4 20 22 32z M606 958q-53 33 -84 23q-12 -4 -35 -14q16 4 33 2q12 -4 48 -9.5t67 -12.5t57 -15q61 -20 113 -107q41 -66 72 -159q66 -207 41 -318q-18 -78 -65.5 -156.5t-111.5 -138.5q-162 -152 -338 -102q-111 29 -173 85t-122.5 158.5t-72.5 225.5t21.5 236.5t110.5 211t185 150.5 q12 8 70 39q41 23 67 30q80 25 175 -34q20 -12 25 -35t-7 -42.5t-35 -24.5t-41 7zM653 1421q-4 0 -41 -2h-2q-25 -27 -75 -127l-43 -88l-37 -74q-10 -20 -33 -26t-43.5 4t-26.5 32.5t4 43.5q8 14 35 69l43 90q66 129 107 164q25 20 63 23h14h7q2 0 4 1t4 1q23 4 42 -9.5 t23 -36t-9 -42t-36 -23.5z" />
<glyph unicode="&#xf4;" horiz-adv-x="1206" d="M498 987q-74 -18 -144 -78q-117 -98 -166 -243q-37 -115 -20 -236q18 -121 78 -229q35 -63 69 -92q37 -29 88 -31q70 -2 150 33.5t151.5 100t115.5 142.5t50 148q8 96 -45 223q-55 131 -129 180q-14 10 -28.5 14.5t-22.5 4.5t-39 -2t-49 -4q-25 -2 -42 14t-19 39 q0 8 2 16zM670 1036q47 -6 92 -37q100 -68 168 -229q66 -156 55 -276q-8 -98 -63.5 -193.5t-139.5 -172.5t-184 -123t-199 -42q-90 2 -149.5 51t-102.5 129q-72 127 -92 270.5t23 288.5q61 176 203 295q166 139 344 109q23 -4 37 -23.5t10 -44.5zM590 1454q14 -63 52 -111.5 t108 -109.5q18 -14 20 -38t-13.5 -42t-39 -20.5t-41.5 14.5q-127 106 -172 203q-102 -117 -154 -234q-10 -20 -32.5 -28.5t-44 1t-29.5 32t0 44.5q70 152 223 314q0 10 -2 18q-2 25 13.5 43.5t39 20.5t42 -13.5t20.5 -38.5q0 -8 2 -14q12 -18 8 -41z" />
<glyph unicode="&#xf5;" horiz-adv-x="1193" d="M498 973q-74 4 -142 -35q-115 -66 -174 -229q-35 -111 -37 -219.5t45.5 -212t135.5 -164.5l22 -19q16 -10 21.5 -13t16.5 -11.5t17.5 -10.5t15.5 -6t19 -6l21 -4q49 -6 63 0q8 2 17 8l26 19q16 12 41 26q84 51 148.5 137t91.5 183q57 215 -84 362q-37 39 -70 58 q-31 20 -74 28q-23 4 -86 -2q-16 -2 -34 -4l-35 -4q-18 -2 -27 -2q-23 -4 -41 10.5t-21 38t11 42t39 20.5q6 2 31 4zM698 958q72 -27 146 -102q94 -98 120.5 -227t-10.5 -244q-33 -117 -109.5 -219.5t-180.5 -167.5q-12 -6 -33 -20.5t-36 -23.5t-28 -15q-45 -20 -125 -7 q-23 2 -42 8.5t-30.5 10.5t-29.5 16l-25 13q-6 4 -28.5 20t-26.5 18q-86 61 -141.5 151.5t-73.5 189t-10 198.5t41 191q74 201 225 288q174 100 373 2q23 -10 30 -32.5t-4 -42.5q-2 -3 -2 -5zM186 1163q0 2 -1 5t-4 9.5t-7 16.5q-18 47 -2 82q23 53 102 88q70 33 125 25 q29 -2 62 -23q29 -16 33 -18q84 -33 139 -17q53 14 102 86q14 18 37 22.5t42.5 -9t23.5 -36t-9 -42.5q-74 -102 -165 -131q-92 -27 -211 20q-14 6 -50 27q-14 8 -20 10q-23 2 -64 -16q-27 -12 -40 -27q14 -35 18 -47q6 -23 -6 -42.5t-36 -25.5t-43.5 6t-25.5 37z" />
<glyph unicode="&#xf6;" horiz-adv-x="1175" d="M532 971q-61 4 -120 -37q-102 -70 -154 -227q-25 -78 -28 -161t17.5 -164t73 -155.5t132.5 -126.5q135 -90 241 4q102 88 133 269q37 217 -22.5 342t-255.5 239q-11 7 -17 17zM705 987q143 -102 202 -225q74 -156 31 -410q-16 -96 -60 -185t-110 -149q-78 -68 -171 -73.5 t-206 61.5q-98 66 -162.5 157t-88 190.5t-20.5 197.5t32 190q61 195 198 287q158 104 326 12q31 -18 29 -53zM403 1366l11 -201q2 -23 -13.5 -40t-39 -18t-41 14.5t-17.5 39.5l-10 201q-2 23 13.5 40t39 18t40.5 -14t17 -40zM764 1360l-6 -45q-4 -18 -5 -26.5t-2 -14.5 t-1 -19v-12v-18v-23q0 -23 -16.5 -39t-39 -16t-39 16.5t-16.5 38.5v23v18v10v31q0 6 2 15.5t5 31t7 45.5q4 23 22.5 37t41 10t37 -22t10.5 -41z" />
<glyph unicode="&#xf7;" horiz-adv-x="1359" d="M629 971l-31 -133q-6 -25 -26.5 -38.5t-44 -7t-37 27t-7.5 42.5l31 133q6 25 26.5 38.5t44 7t37 -26.5t7.5 -43zM598 197l-8 -29q-2 -14 -3 -20.5t-2 -10.5t-1 -6v-2v-8q0 -4 2 -22.5t6 -45.5q2 -25 -13.5 -44t-40 -21t-44 13t-21.5 40q-8 90 -8 92q0 8 18 88 q4 25 24.5 38t45.5 8t38 -25t7 -45zM84 590q154 -41 479 -23l174 11l195 12q84 6 149 6q25 0 42.5 -17.5t17.5 -42t-17.5 -42t-42.5 -17.5q-66 0 -148.5 -4t-191 -12t-172.5 -12q-344 -18 -514 26q-25 6 -37 27.5t-6 45t27.5 36t44.5 6.5z" />
<glyph unicode="&#xf8;" horiz-adv-x="1423" d="M870 739q-84 -104 -114 -137q-76 -82 -205 -209l-189 -186l25 -23q49 -45 74.5 -65.5t62.5 -38.5q39 -18 80 -21q104 -6 184 109q84 119 103 299q16 151 -21 272zM748 911q-12 10 -52 47l-2 5q-8 4 -14 6h-4q-4 0 -28.5 1t-43.5 1q-78 4 -125 -1t-78 -28 q-96 -74 -151 -231.5t-29 -278.5q16 -68 66 -137l190 188q131 129 193 197q18 18 149 176q-16 23 -33 41q-22 0 -38 14zM1171 1044q-72 -35 -208 -194l-7 -8q72 -170 50 -387q-23 -209 -123 -353q-117 -168 -287 -157q-45 2 -86 15t-82 42t-58.5 43t-60.5 53l-22 23 q-78 -92 -133 -182q-12 -20 -36 -25.5t-44.5 6.5t-25.5 36t7 44q61 100 154 207q-76 98 -98 201q-37 152 30.5 342t190.5 282q39 31 94 44.5t99 11t83 -2.5q20 0 58 -2q14 4 30 0l4 -2q18 -2 33 -8q10 -4 21 -10q84 -39 141 -115q137 156 223 199q23 10 45.5 3t32.5 -28.5 t2.5 -44.5t-27.5 -33z" />
<glyph unicode="&#xf9;" horiz-adv-x="1169" d="M225 995q-20 -70 -22 -225.5t22 -329.5q29 -180 82 -284q49 -96 113 -93q25 0 67.5 35t92.5 99q94 123 129 219q10 31 20 65q2 72 8 137q14 125 43 232q18 63 29 90q10 29 27 43q25 27 57 21q31 -4 47 -35q10 -18 8 -47q0 -12 -4 -31q-4 -29 -14 -72q-2 -10 -5 -20.5 t-5 -20.5l-5 -16q-2 -10 -4 -16.5t-3 -11.5t-3 -9v-2q-2 -8 -37 -170q-12 -51 -22 -88q-4 -193 39 -481q4 -23 -10.5 -43.5t-38 -23.5t-44 11.5t-22.5 38.5q-23 141 -33 250q-31 -49 -65 -92q-55 -74 -111 -119q-72 -57 -137 -61q-137 -6 -221 157q-63 119 -94 320 q-25 178 -24 350t26 256q8 23 29.5 35t44 5t34.5 -28.5t6 -44.5zM424 1466l39 -69l45 -76q12 -23 36.5 -60.5t49.5 -66.5q14 -20 11 -44t-22.5 -39t-43 -12t-39.5 21q-25 33 -52.5 75t-42 65.5t-45 80t-38.5 68.5q-12 20 -6 44t27.5 36t45 6t35.5 -29z" />
<glyph unicode="&#xfa;" horiz-adv-x="1134" d="M236 1006q-43 -258 -9 -510q23 -172 97 -295q41 -70 82 -86q41 -18 90 18q115 80 186 287q14 43 28.5 96t22.5 90l21 99q14 61 20 86v8v8v18q4 53 35 82q25 20 55 15q37 -6 47 -45q6 -14 2 -39q0 -8 -2 -29q-2 -14 -2 -16q-2 -45 -8 -129q-8 -78 -10 -117 q-16 -246 -6 -570q0 -25 -16.5 -42t-41 -18t-42 15.5t-19.5 40.5q-4 184 -2 330q-78 -182 -199 -268q-106 -74 -207 -29q-76 33 -135 135q-88 145 -114 338q-35 266 12 547q4 23 23.5 37t43 10t38 -23t10.5 -44zM655 1393q-70 -45 -102.5 -124t-60.5 -214q-4 -23 -25 -37 t-44.5 -9t-37.5 25.5t-8 44.5l18 88q6 29 24.5 85.5t39 92t54.5 76.5t77 70q20 14 44.5 9t38 -25.5t8 -45t-25.5 -36.5z" />
<glyph unicode="&#xfb;" horiz-adv-x="1157" d="M227 1044q-18 -61 -6 -153q2 -20 15 -86q10 -59 12 -94q2 -16 3 -43t3 -67t4 -71q8 -150 25 -249q23 -137 59 -205q33 -55 72 -49q43 8 96 79q51 70 104 193q49 115 136 389q2 4 18 53q4 31 8 54q10 53 23 84q10 25 26 39q35 35 80 12q25 -12 31 -41q2 -6 0 -15v-8 q0 -2 -2 -6l-2 -8l-8 -23l-25 -69l-16 -45q0 -6 -6 -53q-8 -90 -52 -693q0 -25 -18.5 -40t-43 -14t-39.5 19.5t-13 42.5q4 57 11 168t7 127l-8 -20q-59 -133 -119 -215q-80 -109 -168 -125q-121 -20 -192 106q-49 86 -74 244q-16 100 -27 260q-2 37 -2 72q-2 39 -4 64.5 t-2 39.5q-4 33 -12 86q-12 70 -15 93q-16 117 11 200q6 25 27.5 36t45 4t34.5 -28.5t3 -44.5zM256 1180q80 86 135 188l31 64q20 41 45 53q31 18 63 2q18 -8 33 -29q14 -18 39 -65l146 -289q12 -20 4.5 -43t-29 -35t-44 -5t-34.5 30l-143 280l-8 -18q-61 -115 -152 -211 q-16 -18 -41 -19.5t-42 15t-18 41.5t15 41z" />
<glyph unicode="&#xfc;" horiz-adv-x="1146" d="M246 1049q-37 -293 -13 -566q18 -180 65.5 -279.5t121.5 -101.5q39 0 51 9q16 12 57 96q39 76 88 199q63 162 134 366q29 82 47 156v10q0 2 -1 12.5t-1 16.5q2 27 8 43q10 25 35 32q23 10 49 2q29 -12 37 -43q2 -10 2 -22q0 -14 -2 -39q-4 -35 -15 -98q-4 -29 -11 -69 t-11 -64l-6 -39q-39 -383 -15 -656q2 -23 -12 -40t-37.5 -19t-41 12.5t-19.5 38.5q-18 207 -6 436l-29 -77q-51 -129 -92 -209q-53 -106 -92 -136q-41 -31 -121 -28q-141 4 -217 164q-55 117 -76 317q-27 285 12 588q2 25 20.5 38t42 11t37 -20t11.5 -41zM444 1352v-43v-25 q0 -4 1 -15.5t1 -14.5t3.5 -23.5t7.5 -43t-10.5 -41t-37 -22.5t-41 10.5t-22.5 37t-7 46t-4 26.5t-2 17.5t0 17.5t1 28v45q0 23 16.5 39t39 16t38.5 -16t16 -39zM758 1348q-4 -16 -6 -28.5t-3 -17t-2.5 -6.5t-1.5 -6v-4q0 -2 2.5 -15.5t2.5 -33.5q2 -23 -13.5 -40t-38 -19 t-40 13t-19.5 38q-4 66 -4 70t12 69q4 23 23.5 36t42 9t36 -23t9.5 -42z" />
<glyph unicode="&#xfd;" horiz-adv-x="1050" d="M170 987q-43 -143 -25 -246q8 -45 44 -151.5t81 -204.5q55 -117 107 -172q41 -47 63 -39q4 4 21 23q20 27 47 71q49 88 104 217l25 58l10 57q20 104 37 156q10 37 21 55q10 20 26 31q39 25 76 -4q25 -20 24 -58q0 -14 -4 -32q-6 -31 -22 -82q-23 -68 -55 -154l-21 -104 q-16 -94 -24 -121q-20 -76 -70.5 -202t-114.5 -237q-84 -143 -166 -210q-119 -94 -233 -33q-35 20 -74 63l-24 31q-14 14 -23 25q-16 16 -16 40.5t16 41t41 16.5t41 -17q12 -12 29 -32l24 -29q25 -27 43 -37q45 -25 105 23q66 51 137 178q43 76 84 170q-10 -6 -23 -10 q-96 -39 -190 67q-61 68 -125 201q-49 104 -87 217t-48 168q-25 129 28 299q6 25 28 36t45.5 4t34.5 -28.5t3 -44.5zM700 1403q-43 -25 -75.5 -49.5t-67.5 -68.5t-50 -65.5t-63 -93.5q-14 -20 -37.5 -24t-44 9t-24.5 36.5t8 44.5l16 22l80 113q27 39 81.5 90t119.5 88 q20 12 44 5t36 -27.5t4.5 -44t-27.5 -35.5z" />
<glyph unicode="&#xfe;" horiz-adv-x="1165" d="M219 246q39 6 60 -29q47 -86 153 -133q141 -63 258 66q55 61 92 153t47 193q23 215 -75 321q-109 117 -353 27q-68 -25 -102.5 -55.5t-71.5 -94.5q-4 -8 -12 -14q6 -104 6 -170q2 -92 -2 -264zM238 1368q-39 -195 -29 -510q55 55 156 92q311 115 471 -57 q133 -143 104 -410q-12 -115 -55 -223t-113 -184q-49 -55 -107.5 -87t-130 -37t-147.5 30q-106 49 -170 127q-2 -270 43 -451q6 -23 -5 -43.5t-33.5 -25.5t-43 6.5t-24.5 33.5q-35 135 -44.5 276.5t-4 335t5.5 265.5q-2 63 -8.5 209.5t-7.5 233.5t7 214q6 125 25 226 q4 23 23.5 36t42 9t36 -23.5t9.5 -42.5z" />
<glyph unicode="&#xff;" horiz-adv-x="1038" d="M162 1008q8 -63 10 -181q0 -145 2 -184q12 -207 90 -303q43 -51 144 -80q92 -27 131 4q4 8 8 15q10 23 24 61q25 63 52 152l4 28q12 106 16 133q16 123 37 162q10 20 22 31q31 23 66 8q20 -8 35 -29q6 -10 10 -22q6 -16 4 -37q0 -12 -4 -27q-4 -29 -14 -69 q-20 -80 -56 -187l-4 -18q-8 -55 -16 -94q-14 -72 -65.5 -204t-114.5 -253q-80 -150 -160 -231q-111 -113 -217 -91q-35 6 -76 35l-27 19q-12 10 -20 14q-23 12 -29 35.5t6.5 45t36 28t43.5 -6.5q14 -8 31 -20l25 -18q23 -14 34 -17q43 -8 109 57q66 68 139 205 q43 80 78 164q-63 -8 -141 14q-135 39 -201 119q-104 127 -117 371q0 14 -4 190q-2 106 -10 164q-2 25 12.5 44.5t39 22.5t44 -11t23.5 -39zM367 1348l-9 -142q-2 -25 -20.5 -40t-43 -14t-39.5 19.5t-15 42.5l8 142q2 25 20.5 40t43 14t40 -19t15.5 -43zM680 1356 q-2 -31 -3 -52.5t-2 -21.5t1 -10q0 -4 1 -8t7 -24.5t16 -49.5q6 -23 -6 -44.5t-34.5 -28.5t-44 5.5t-29.5 34.5q-27 96 -29 100q0 6 4 103q2 25 19.5 41t42 15t41 -18t16.5 -42z" />
<glyph unicode="&#x400;" horiz-adv-x="1372" d="M1087 1298q-72 12 -185.5 8.5t-186.5 -12.5l-191 -16q-117 -12 -196 -16q-14 0 -74 6q-25 2 -35 -2q-20 -8 -20 -82q-2 -31 4 -82q4 -59 4 -76q0 -25 2 -99.5t0 -117.5q47 0 127 4q143 10 207 8q61 -2 194 -14t187 -12q25 0 41 -16.5t16 -41t-16.5 -41t-40.5 -16.5 q-66 0 -197 12.5t-188.5 14.5t-196.5 -7q-88 -6 -139 -6q0 -2 -20.5 -131t-28.5 -213q-10 -113 -2 -180q6 -49 18 -66h6q8 0 17 -2h6q37 -2 98 -4q102 0 287 4q84 4 201.5 8.5t195.5 6.5t109 2q25 0 41 -16.5t16 -41t-16.5 -41t-40.5 -16.5q-31 0 -108 -2t-194.5 -6 t-201.5 -8q-184 -4 -291 -4q-66 2 -105 4q-53 4 -73 14q-66 35 -80 154q-8 80 4 206q6 82 26.5 212.5t20.5 134.5q2 6 2 12q-12 16 -10 35.5t14 36.5q2 41 0 122.5t-2 110.5q0 10 -4 66q-6 57 -4 94q2 147 90 186q37 16 92.5 10t57.5 -6q70 4 186 17l195 16q78 8 197.5 11 t197.5 -7q25 -2 39 -20.5t12 -43t-20.5 -39t-43.5 -12.5zM627 1511q-20 53 -84 129q-92 106 -117 144q-31 51 -113 229q-10 23 -2 45.5t29.5 31.5t44.5 1t31 -29q80 -174 108 -217q18 -31 105 -131q78 -92 104 -162q8 -23 -1 -44t-31.5 -29.5t-44 0.5t-29.5 32z" />
<glyph unicode="&#x401;" horiz-adv-x="1394" d="M440 1538q-29 4 -43 29q-2 2 -4 6q-10 10 -16 18q-31 39 -19 78q10 37 48 53q23 12 51 12.5t51 -8.5q41 -16 51 -53q10 -41 -20 -78q-6 -8 -15 -14q-2 -12 -8 -22q-12 -18 -34 -24.5t-42 3.5zM856 1610q0 -23 -12 -39q-16 -18 -40 -20.5t-42 12.5l-4 4q-18 0 -33.5 12 t-20 30.5t2.5 32.5q-4 18 2 33q12 37 49 47q20 6 42.5 3t39.5 -15q41 -25 32 -68q-4 -18 -16 -32zM1092 1294q-74 12 -465 25q-195 6 -281 8q-59 0 -92 -2h-10q0 -2 -2 -6q-2 -23 6 -62q4 -27 16 -75q14 -51 17 -68q18 -129 22 -319q322 -2 739 -33q25 -2 40.5 -19.5 t13.5 -42t-19.5 -40t-42.5 -13.5q-414 31 -729 33q-2 -92 -8 -150q-27 -219 -27 -227q-8 -84 -8 -135v-43l4 -2q29 -4 86 -8q96 -4 273 0l196 4l193 6q76 2 104 2q25 0 40.5 -17.5t15.5 -42t-17.5 -40t-42.5 -15.5q-29 0 -102 -2l-189 -6l-196 -4q-180 -4 -281 2 q-63 2 -100 8q-25 4 -39 10q-31 12 -43 35q-12 20 -14 56q-4 23 -3 57q0 57 9 145q2 10 26 230q8 59 8 157q-14 16 -14 37t12 37q-4 195 -22 324q0 10 -12 55q-14 53 -19 84q-10 55 -6 94q6 61 47 92q12 8 27 13q6 2 14 2q12 2 33 2q35 2 96 2q88 -2 285 -8q395 -12 477 -25 q23 -4 37 -22.5t11 -42t-21 -38t-43 -12.5z" />
<glyph unicode="&#x402;" horiz-adv-x="1544" d="M545 741q156 80 243 86q111 8 259 -71q125 -70 194.5 -174.5t80.5 -221t-20.5 -236.5t-103.5 -228q-2 -4 -27.5 -48.5t-50 -76t-53.5 -52.5q-147 -111 -365 -110q-25 0 -41 16.5t-16 41t16.5 41t40.5 16.5q178 0 295 86q20 16 35 35.5t35 56.5q18 31 37 59 q82 125 102.5 257t-35.5 249q-53 119 -178 186q-119 66 -196 60q-63 -4 -199 -74q-37 -18 -66 10q-4 -39 -6 -71q-4 -70 -6 -153t-2 -141.5t1 -155.5t1 -146q0 -25 -16.5 -41.5t-41 -16.5t-40.5 16.5t-16 41.5q0 47 -1.5 146t-1.5 158.5t2.5 144.5t6.5 155q4 55 18 192 t19 211q12 217 -29 338q-319 -2 -467 -51q-23 -8 -44.5 2t-28.5 32.5t3.5 44t32.5 27.5q82 29 215 43.5t222 16.5t258 -1t200 -3q25 0 104 4q76 4 115 2q23 -2 39 -19.5t14 -41t-19 -40t-42 -14.5q-37 2 -100 -2q-82 -4 -111 -4q-47 0 -147.5 2t-124.5 2q37 -133 24 -344 q-4 -76 -22 -244q2 0 4 2z" />
<glyph unicode="&#x403;" horiz-adv-x="1179" d="M895 1288q-100 12 -293 8q-223 -4 -309 4q-6 0 -14 3v-3q-4 -39 -4.5 -102t6.5 -178q10 -201 -7 -516q-20 -383 -20 -506q0 -25 -16.5 -41t-41 -16t-41 16t-16.5 41q0 125 21 512q16 328 6 502q-6 119 -6 186q0 70 4 115q4 31 10 51q10 33 33 49q35 27 82 8l16 -6 q92 -10 294 -5t308 -7q25 -4 39.5 -22.5t11 -42t-21.5 -38t-41 -12.5zM444 1546q57 76 152 185q113 127 152 176q14 20 37.5 22t43 -12t21.5 -38t-12 -42q-43 -55 -156 -182q-96 -111 -147 -178q-14 -18 -38 -21.5t-42.5 11t-21.5 38t11 41.5z" />
<glyph unicode="&#x404;" horiz-adv-x="1492" d="M1151 1004q-39 170 -171 258t-302 81.5t-306 -101.5t-179 -259q-31 -121 -31 -219q367 27 569 6q23 -2 38 -20.5t13 -42t-20.5 -39t-42.5 -13.5q-193 20 -545 -4q25 -98 84 -206.5t137 -192.5q190 -203 387 -154q102 27 219 156q102 117 160 246q10 20 33 28.5t44.5 -1 t29.5 -32t0 -44.5q-66 -143 -181 -273q-139 -158 -276 -190q-139 -35 -266 19t-232 165q-92 98 -157 223q-68 125 -95 240q-37 156 21 377q53 205 221 322.5t371 123.5q133 4 250.5 -39t211 -144t126.5 -247q6 -23 -7.5 -43t-36 -25.5t-43 8t-24.5 36.5z" />
<glyph unicode="&#x405;" horiz-adv-x="1355" d="M1020 1038q0 145 -101.5 240.5t-254.5 118.5q-150 23 -269 -37t-149 -186q-23 -96 6 -152q25 -45 92 -78q43 -20 162 -57q121 -39 178 -72q180 -102 293 -266q113 -166 96.5 -291t-180.5 -205q-143 -74 -318 -73q-195 2 -319 98q-152 117 -152 336q0 25 16.5 41t41 16 t41 -16.5t16.5 -40.5q0 -164 107 -246q94 -72 249 -74q147 0 267 62q109 53 116 118q12 82 -75 209q-98 143 -256 234q-43 25 -154 59q-129 41 -178 66q-102 49 -143 127q-51 94 -17 233q29 121 119 199t200.5 102.5t227.5 7.5q117 -18 217 -74.5t168 -161t68 -237.5 q0 -25 -16.5 -41t-41 -16t-41 16t-16.5 41z" />
<glyph unicode="&#x406;" horiz-adv-x="516" d="M291 1440q8 -131 -2 -326q-18 -299 -19 -317q-12 -395 17 -824q2 -25 -14.5 -42t-40 -19t-41 14.5t-19.5 38.5q-29 434 -16 836q0 18 18 319q10 188 2 312q-2 25 13.5 42t40 19t42 -13t19.5 -40z" />
<glyph unicode="&#x407;" horiz-adv-x="696" d="M262 1407q31 -330 8 -813q-2 -39 -20 -184q-14 -104 -8 -168q2 -35 12 -105q12 -76 16 -110q2 -25 -13 -43.5t-38.5 -20.5t-42 13.5t-20.5 37.5q-2 33 -15 107q-10 72 -14 112q-6 74 8 191q20 160 21 174q23 481 -9 797q-2 25 13.5 43t39 20t42 -13t20.5 -38zM18 1524 q-8 12 -24 32q-8 8 -12 15q-2 2 -4.5 6t-6.5 18.5t2 26.5q10 37 50 43q6 2 18 2q31 2 41 2q25 2 42 -13.5t19 -39.5q2 -31 -20 -49q6 -35 -25 -58q-18 -12 -42 -8.5t-38 23.5zM475 1605.5q0 -24.5 -16.5 -41t-41 -16.5t-41 16.5t-16.5 41t16.5 41t41 16.5t41 -16.5t16.5 -41 z" />
<glyph unicode="&#x408;" horiz-adv-x="1019" d="M776 1411q2 -31 10.5 -144.5t10.5 -166.5t4 -145.5t-4 -169t-17 -150.5q-6 -31 -24 -88q-16 -43 -19 -68q-4 -31 -6 -92q0 -88 -2 -111q-8 -150 -65 -229q-27 -35 -71 -57.5t-68.5 -26.5t-71.5 -10q-190 -23 -326 137q-121 143 -121 328q0 25 16.5 41t41 16t41 -16.5 t16.5 -40.5q0 -141 92 -254q96 -113 227 -96q57 6 85 15t44 34q39 51 45 166q2 20 2 106q2 68 7 107q6 35 24 90q16 45 19 69q12 68 17 138.5t3 159.5t-4 140.5t-10 164t-10 145.5q-2 25 14 42t39.5 19t41 -14t19.5 -39z" />
<glyph unicode="&#x409;" horiz-adv-x="2027" d="M1069 139q250 -55 377 -43q88 8 131 33q43 27 76 92q45 94 39 180t-48 155t-116 118q-106 74 -233.5 79t-233.5 -71q4 -68 4 -115q2 -57 -2 -143t-3 -156t9 -129zM43 143q61 -53 129 -37q66 14 88 91q8 27 10 45q4 18 5 44.5t6 55.5q2 12 34 172q20 100 27 162 q8 72 14 231q8 156 17 240q2 16 2 22.5t-1 22.5t-1 31q0 66 25.5 106.5t101.5 50.5q45 6 118 4q41 0 117 -4q59 -4 72 -4q20 0 65 4q37 2 58 4l12 9q47 41 92 12q27 -18 35 -55q6 -18 6 -47q2 -41 -6 -109q-2 -35 -12 -107q-6 -53 -6 -63q-2 -84 4 -211q137 68 278.5 52.5 t259.5 -97.5q92 -61 147.5 -151.5t66 -206t-51.5 -238.5q-47 -98 -121 -141q-66 -39 -176 -49q-147 -12 -418 47q-6 0 -10 2q-23 -2 -42 10t-23 35q-16 72 -18.5 156.5t0.5 187t3 143.5q0 49 -8 212t-6 253q0 14 8 74l12 104q4 39 5 66q-20 -4 -82 -6q-45 -4 -68 -4 q-12 0 -84 4t-111 4q-63 2 -100 -4q-14 -2 -24 -4q-4 -12 -5 -39v-88q-8 -80 -16 -232q-6 -164 -14 -239q-6 -66 -31 -175q-25 -123 -31 -163q-2 -14 -5 -44t-7 -59.5t-12 -58.5q-20 -70 -67.5 -113t-106.5 -57q-123 -27 -228 63q-18 14 -20 39t13 42.5t40 19t41 -14.5z" />
<glyph unicode="&#x40a;" horiz-adv-x="2011" d="M1024 709q-10 -18 -29 -27q-29 -401 86 -541q63 -78 238 -51q80 12 152.5 43t111.5 68q72 66 88.5 146.5t-16.5 146.5q-33 74 -103.5 127t-160.5 69q-63 12 -165 11t-182 1q-10 1 -20 7zM1049 1419q2 -68 3 -106.5t-5.5 -119.5t-11.5 -128t-15 -133t-14 -135q18 23 47 20 q16 -2 171.5 -1t186.5 -11q119 -23 212 -94.5t136 -171.5q49 -98 24.5 -215t-122.5 -209q-53 -49 -142 -87t-182 -51q-242 -37 -346 91q-82 100 -103.5 256.5t-6.5 359.5q-16 2 -133 0t-136 -2q-203 0 -327 33q0 -25 2 -51q2 -23 12 -127q8 -82 6 -138q-2 -66 -16 -186 q-12 -119 -15 -178q0 -23 -17 -39t-40.5 -16t-40 17t-16.5 42q2 63 16 186q12 115 14 178q2 49 -6 123q-10 106 -12 133q-14 287 -68 773q-2 25 12.5 43t39 20t43 -12.5t20.5 -38.5q41 -377 57 -606q121 -39 336 -41q10 0 139.5 2t139.5 -2q4 61 17.5 173.5t18.5 163 t10 147.5t-3 126q-2 25 13.5 43t39 20.5t42 -13t20.5 -38.5z" />
<glyph unicode="&#x40b;" horiz-adv-x="1583" d="M571 696q-23 -506 -22 -704q0 -25 -16.5 -41.5t-41 -16.5t-41 16.5t-16.5 41.5q0 141 5 302t14.5 352.5t13.5 301.5q2 25 -8 232q-4 90 0 149q-233 -2 -385 -49q-23 -6 -43.5 5t-27.5 33.5t4 43t34 29.5q168 51 434 55q20 33 60 27q25 -6 38 -29q76 0 230.5 -6t226.5 -6 q25 0 41 -16.5t16 -41t-16 -41t-41 -16.5q-80 0 -236.5 6t-220.5 6q-4 -55 0 -145q10 -209 9 -240q-2 -61 -4 -133q141 -10 212.5 -16.5t168 -21.5t157.5 -40q61 -27 109 -67q98 -84 127 -246q27 -162 -2 -408q-2 -23 -20.5 -38t-42 -13t-39 20.5t-13.5 43.5q23 260 2 376 q-20 121 -88 179q-63 53 -188.5 75.5t-389.5 40.5z" />
<glyph unicode="&#x40c;" horiz-adv-x="1433" d="M236 1444q6 -45 10 -121q4 -82 8 -113q4 -27 25 -133q18 -90 20 -149q4 -98 -2 -250q18 14 41 41q74 76 98 96q14 10 78 62l88 73l70 60q49 41 85 74.5t68 68.5q37 35 129 156q86 111 150 164q16 16 40.5 14t40 -19.5t13.5 -42t-20 -39.5q-49 -43 -131 -147 q-98 -125 -140 -168q-92 -92 -239 -217q47 -49 86 -109.5t86 -150.5l57 -113q166 -297 303 -473q14 -18 11 -41.5t-21.5 -38t-42 -11.5t-37.5 22q-137 174 -311 485q-18 33 -64.5 123t-80 141t-76.5 94l-68 -57q-20 -14 -88 -86q-61 -63 -113 -92q-8 -6 -16 -6 q-2 -78 -2 -140q0 -27 5 -119t3 -160.5t-12 -129.5q-4 -23 -24.5 -37t-43 -10t-37 24.5t-10.5 42.5q10 57 12 115q0 59 -4 146t-4 128q0 78 6 265q6 174 2 258q-2 47 -18 129q-23 104 -27 145q-2 23 -8 119q-4 72 -10 110q-2 25 12 43.5t38 21.5t42.5 -11t22.5 -37z M469 1556q63 25 109.5 67t116 132t96.5 121q14 18 38.5 20t42 -13t19.5 -39.5t-14 -41.5q-23 -27 -72 -90t-83 -103t-91.5 -87t-116.5 -72q-23 -8 -45.5 1t-30.5 30.5t1.5 44t29.5 30.5z" />
<glyph unicode="&#x40d;" horiz-adv-x="1454" d="M225 1440q27 -184 21 -525q-6 -358 8 -507q2 -33 20 -132l11 -65l18 27l70 110q43 70 55 86l518 735q20 31 64 86l59 78l2 2v4l2 7q2 6 6 14q25 57 78 55q47 -2 68 -49q8 -20 10 -55q2 -43 -10 -127q-2 -23 -21 -133q-16 -109 -20 -160q-14 -168 -15 -383q0 -84 -3 -252 t-3 -252q0 -25 -16.5 -41t-41 -16t-40.5 16.5t-16 40.5q0 84 3 252t3 252q0 217 14 391q4 53 21 166q18 113 22 133q-51 -63 -72 -94l-518 -735q-10 -16 -53 -84q-43 -70 -72 -111q-45 -68 -73 -104q-20 -23 -37 -37q-12 -10 -25 -15q-31 -12 -57 5q-47 25 -35 88q4 18 6 20 q-2 47 -14 127q-18 100 -23 137q-14 145 -8 523q6 330 -20 505q-2 23 11 42.5t36.5 22.5t43 -10t23.5 -38zM715 1503q-135 117 -211 344q-6 23 4 44.5t32.5 28.5t44 -3t29.5 -33q66 -199 174 -295q18 -16 20.5 -39.5t-14 -41t-40 -19.5t-39.5 14z" />
<glyph unicode="&#x40e;" horiz-adv-x="1404" d="M1182 1395q-39 -150 -156 -407t-139 -316q-8 -20 -70 -226q-45 -154 -96 -233q-53 -84 -135 -143.5t-184.5 -77t-200.5 42.5q-20 12 -26.5 34.5t6 43t35 26.5t42.5 -6q92 -51 195.5 -8t169.5 149q25 39 47 93q-41 -8 -88 14q-35 18 -74 53q-68 61 -100 115 q-33 55 -62 115.5t-65 150.5q-37 86 -50 115l-67 143q-55 121 -86 201t-47 162q-6 23 7 43t35.5 25t43 -8t24.5 -36q16 -76 44 -148.5t81 -187.5l72 -149q14 -33 49 -119t61.5 -141.5t57.5 -108.5q25 -39 78 -86q29 -25 49 -37q4 -2 8 -2q14 23 23 31q25 29 59 18 q39 131 57 183q33 88 141.5 324.5t149.5 385.5q6 23 26.5 35t43 6t35 -26t6.5 -43zM434 1696q47 -92 94 -117q37 -18 88 -2q37 10 76 33.5t96.5 64.5t92.5 64q20 12 42.5 7t36 -25.5t8.5 -43t-26 -35.5l-84 -57q-63 -45 -113.5 -74.5t-93.5 -44.5q-96 -31 -174 11 q-84 43 -145 165q-10 23 -3 45.5t28.5 33t44 3t32.5 -27.5z" />
<glyph unicode="&#x40f;" horiz-adv-x="1433" d="M225 1438q25 -150 33 -316t10 -385t6 -311q0 -18 6.5 -124.5t6.5 -162.5q0 -6 -2 -18q16 -2 41 -4q59 -4 155 -4q172 4 260 14q41 4 90.5 7t83 3t93 -1t82.5 -1h2v84q-4 152 -5 162q16 203 11 506q-10 512 -11 514q0 25 16.5 41t41 16t41 -16.5t16.5 -40.5l10 -510 q6 -309 -10 -518q0 -4 4 -152v-96v-35q0 -10 -2 -16q0 -16 -10 -31q-29 -37 -84 -27q-14 2 -18 4h-2q-27 0 -84.5 1.5t-89 1.5t-77.5 -3.5t-85 -7.5q-8 0 -27 -2q6 -133 10 -246q0 -25 -16 -42t-40 -17t-41 16.5t-17 38.5q-4 113 -11 242l-129 -4q-102 0 -168 4 q-41 4 -67 10q-41 10 -60 31q-29 29 -20 74q2 14 4 20v2q0 55 -6 158.5t-6 124.5q-4 100 -6 316t-10.5 376t-32.5 307q-2 23 11 42.5t36.5 22.5t43 -10t23.5 -38z" />
<glyph unicode="&#x410;" horiz-adv-x="1456" d="M326 537q90 -2 256 14q248 25 284 27q-104 260 -157 448q-29 96 -66 201l-29 73l-14 -38l-33 -101q-20 -63 -24 -74q-94 -208 -217 -550zM29 -6q23 59 53 174q37 141 53 184q203 561 301 785q4 8 21 59l32 104q23 63 39 99q10 25 23 39q8 12 18 20q23 16 49 12 q33 -4 58 -38q12 -16 26 -46q20 -45 50 -118q41 -111 67 -209q53 -186 199 -547q164 -406 215 -553q8 -23 -3 -44t-33.5 -29.5t-44.5 3t-30 33.5q-49 145 -211 539q-78 0 -319 -25q-201 -20 -307 -16l-39 -109q-14 -39 -51 -174q-33 -119 -60 -184q-8 -23 -30.5 -33t-44 -1 t-31.5 32t0 43z" />
<glyph unicode="&#x411;" horiz-adv-x="1402" d="M276 649q6 -229 21 -487q10 -4 16 -12q57 -57 114.5 -74t164.5 -17q154 0 270 33q86 25 129 47q59 33 72 74q33 109 -76 262q-49 68 -111.5 122t-115.5 79q-92 43 -252 41h-29q-23 0 -29 -1t-23 -1t-22.5 -1t-18.5 -3t-17 -4l-17 -7q-10 -4 -16 -8l-17 -12q-8 -6 -16 -14 q-11 -13 -27 -17zM291 1452q426 -2 772 -47q23 -2 37 -20.5t11 -42t-21.5 -38t-42.5 -10.5q-340 45 -762 47q-16 -244 -13 -557q20 12 41 20.5t35 12.5t42 7t36 3h45h37q184 2 297 -49q70 -33 143.5 -96.5t128.5 -140.5q141 -199 92 -361q-27 -86 -127 -139 q-51 -29 -151 -55q-131 -37 -299 -37q-102 0 -169 13t-130 61q-16 -20 -41 -23q-23 -2 -40 13.5t-19 37.5q-57 862 -13 1395q2 25 19.5 39t40.5 12q18 -2 32.5 -14.5t18.5 -30.5z" />
<glyph unicode="&#x412;" horiz-adv-x="1433" d="M254 1292q-14 -215 -14 -485q164 -10 290.5 20.5t235.5 120.5q94 76 108 129q25 84 -32 140q-59 57 -187 86q-115 23 -224 18.5t-177 -29.5zM479 700q-104 -16 -239 -8q0 -109 3 -320.5t3 -312.5q209 -31 411 -12q281 25 381 137q45 49 56.5 98.5t-4.5 116.5 q-37 145 -216 224q-164 70 -335 47q-42 -5 -60 30zM172 1378q78 45 226.5 55.5t281.5 -18.5q160 -35 242 -115q106 -104 63 -256q-25 -86 -145 -186q-55 -45 -115 -78q102 -14 195 -53q231 -98 280 -299q25 -92 7.5 -170t-83.5 -152q-129 -143 -456 -174q-219 -20 -439 13 q-16 -16 -40.5 -16.5t-41 16t-16.5 41.5q0 125 -3 371.5t-3 367.5q-10 16 -8 33q2 14 8 24q0 301 16 531q0 6 2 12q-2 35 29 53z" />
<glyph unicode="&#x413;" horiz-adv-x="1343" d="M285 1475q59 -4 190 -17l205 -16q76 -6 185.5 -11.5t201.5 -5.5q23 0 40 -17t17 -39.5t-17 -40t-40 -17.5q-90 0 -199.5 6t-178 11t-206.5 15l-186 17q-2 -115 -35 -635q-29 -446 -16 -705q0 -23 -15.5 -40t-39 -18t-41 14.5t-19.5 39.5q-12 262 19 715q35 514 34 707 q0 23 17.5 40t40.5 17q27 0 43 -20z" />
<glyph unicode="&#x414;" horiz-adv-x="1519" d="M995 1311q-23 -8 -32 -11q-18 -4 -113 -14q-63 -8 -86 -18q-20 -8 -33 -25q-20 -29 -34.5 -66.5t-33 -106.5t-26.5 -91q-6 -25 -38 -129.5t-46 -147.5t-48 -136t-61.5 -149.5t-69.5 -128t-87 -126.5q16 -2 28 -2q61 -2 369 -2q12 0 116.5 5t178.5 5h16q0 76 12.5 395.5 t8.5 483.5q0 39 -12 172q-5 55 -9 92zM133 170q45 41 84 91t74 116l57 112q23 47 53 134l41 125q14 39 44 139t40 129l19 63q12 49 22.5 82t28.5 77t41 75q31 43 82 65q39 14 119 25q88 10 100 12q6 2 17.5 6t25.5 11q55 16 94 -7q8 -6 14.5 -13t8.5 -11l2 -6q2 -4 3 -10.5 t3 -14.5q2 -14 6 -37q4 -39 8 -104q12 -137 15 -178q4 -139 -11 -494q-10 -266 -12 -391q25 -2 43 -4q43 -4 70 -15q51 -18 63 -59q8 -37 0 -84q-10 -47 -10 -49q-14 -170 20 -313q6 -25 -7 -45.5t-36.5 -26.5t-44 7t-26.5 36q-39 164 -25 350q2 10 12 66q2 4 3 10 q-12 4 -33 6q-14 2 -33 2q-14 -33 -53 -35q-41 0 -56 39h-20q-72 -2 -177.5 -7t-117.5 -5q-309 0 -373 2q-18 2 -82 12q-35 6 -51 2q-14 -4 -20 -8v-8q-2 -14 -2 -41q-2 -47 -2 -121q2 -135 8 -199q2 -25 -14.5 -43t-41 -20t-43 14.5t-20.5 40.5q-4 66 -6 205q-2 78 0 127 q2 31 4 51q2 29 10 45q20 43 76 64q2 4 6 8z" />
<glyph unicode="&#x415;" horiz-adv-x="1374" d="M289 1413q35 0 100 2q125 2 195 6q43 2 147 13q111 8 186.5 12t147.5 4q25 0 42 -17.5t17 -42t-17 -42t-42 -17.5q-72 0 -145.5 -4t-181 -12t-146.5 -12q-68 -4 -203 -7q-82 0 -121 -2q-39 -272 -47 -581q141 43 357 53q23 0 176 5t233 13q25 2 43.5 -13t21.5 -39.5 t-12.5 -43t-40.5 -22.5q-80 -8 -237.5 -12.5t-177.5 -6.5q-225 -10 -365 -59q0 -238 19 -508q299 45 462 49h181q137 0 211 6q25 0 43 -15.5t19 -40t-14.5 -43t-39.5 -20.5q-76 -4 -213 -4t-182 -2q-156 -4 -492 -53q-12 -6 -25 -8q-8 0 -16 2l-31 -4q-25 -4 -44 10t-21 39 q-4 23 9 42t36 23q-49 709 31 1244q-18 16 -21 41q-2 43 37 59l4 20q4 25 23.5 38.5t44.5 9.5q23 -4 36 -20.5t13 -39.5z" />
<glyph unicode="&#x416;" horiz-adv-x="2099" d="M1014 696l-6 -6q4 0 6 6zM1860 1399q-45 -39 -340 -273q-217 -172 -332 -272l-113 -102l-39 -35q18 -14 49 -35l117 -82q96 -68 311 -262q193 -174 306 -248q20 -14 24 -36.5t-9 -42t-35.5 -23.5t-41.5 8q-115 76 -317 260q-201 182 -303 254l-117 80l-39 31 q-2 -98 -4 -166q0 -31 -3 -122t-3 -135t1 -114t7 -127q2 -25 -12.5 -42t-38 -19t-41 12t-19.5 37q-6 66 -8 135q-2 74 0 121l2 137q2 92 4 121q0 66 2 159l-32 -28l-127 -107l-205 -159q-152 -119 -248 -203t-178 -176q-14 -18 -38 -19.5t-41 14t-18 39t15 39.5 q84 96 185.5 185.5t256.5 210.5l201 155l125 105l33 28q-29 14 -43 27q-16 12 -46 39t-38 33q-61 53 -174 160l-166 155l-150 123q-92 78 -147 135q-16 16 -16.5 39t16 39t39 16t39.5 -16q53 -53 141 -127l151 -127l166 -154l174 -157q8 -8 35 -33l45 -39l45 -22l4 -2 q8 403 19 643q0 23 17.5 39t40 15t39 -18.5t13.5 -39.5q-10 -233 -16 -609l14 15l115 100q111 100 338 278q236 184 334 271q18 14 40.5 12t38 -19.5t13.5 -40t-18 -38.5z" />
<glyph unicode="&#x417;" horiz-adv-x="1335" d="M68 965q0 2 -4.5 29.5t-5.5 45t-1 47.5q20 145 144.5 234.5t277.5 105.5q100 8 191.5 -15t163 -94t86.5 -181q23 -143 -52 -246q-43 -59 -120 -111q158 -55 270 -196q43 -55 68.5 -115.5t28.5 -132.5t-32 -139q-39 -80 -134 -135.5t-212 -81.5q-100 -27 -214.5 -24 t-184.5 42q-84 45 -139 117q-55 68 -111 172q-12 23 -5 46t28.5 34.5t45 4.5t33.5 -28q51 -94 96.5 -151.5t108.5 -92.5q45 -25 131 -26.5t185 20.5q98 25 170.5 66t95.5 90q59 121 -51 262q-51 63 -122 109.5t-136 58.5q-16 2 -68 -8q-74 -14 -119 -2q-8 4 -16 6 q-20 12 -27 35q-12 35 15 61q6 8 18 12q10 6 31 11q33 6 35 6l90 45q106 57 145 112q45 63 33 162q-16 102 -102.5 151.5t-210 38t-214 -78t-102.5 -160.5q-2 -18 -1 -24.5t5 -28t6 -41.5q2 -25 -13 -44.5t-39.5 -21.5t-44 13.5t-21.5 40.5z" />
<glyph unicode="&#x418;" horiz-adv-x="1470" d="M285 1470q0 -55 10 -217q6 -141 2 -227q-4 -78 -13.5 -239.5t-15.5 -286.5t-6 -240q0 -68 4 -149l117 184q8 10 68 104l73 115l68 102q53 82 76 113l67 100l78 113l72 98l78 107q12 12 25 28.5t32 36.5l29 33q45 53 61 90l2 11q0 2 2 28q2 25 6 37q4 10 10 19 q18 23 48 20q23 0 39 -16q6 -6 10 -15q12 -18 16 -53q4 -27 6 -63q2 -55 -2 -154q-4 -125 -14 -252q-43 -578 -14 -977q2 -23 -13.5 -40t-38 -19t-40 13t-19.5 38q-31 401 14 993q10 137 15 246v27l-4 -7q-4 -4 -35 -41q-29 -33 -45 -53l-78 -104l-74 -101l-74 -106 l-69 -102l-74 -111q-49 -74 -66.5 -102.5t-72.5 -110.5l-68 -107l-123 -190l-55 -86l-16 -27l-4 -8l-3 -2l-2 -2q-2 -2 -2 -4q-2 -2 -6 -4q-4 -4 -8 -6q-18 -12 -39 -8q-29 6 -43 34q-4 8 -8 21q-4 14 -6 41q-4 39 -6 104q-4 88 -4 164q0 115 5 241t15 289.5t14 239.5 q4 68 -4 217q-8 164 -8 223q0 23 16.5 39.5t39 16.5t39 -16.5t16.5 -39.5z" />
<glyph unicode="&#x419;" horiz-adv-x="1464" d="M258 1481q39 -446 4 -977q0 -27 -12 -151t-12 -187q57 92 102 156q82 121 250 417q168 295 262 424q29 39 94 107q57 63 82 96q2 2 2 4q2 4 4 12.5t4 12.5q6 25 19 39q29 35 73 24q39 -10 62 -55q12 -27 20 -68q12 -59 15 -164q2 -68 -6 -276q-2 -55 -2 -387 q0 -311 24 -606q2 -25 -13.5 -43.5t-39 -20.5t-42 13.5t-20.5 37.5q-25 274 -24 619q0 324 2 391q6 201 4 270q0 59 -6 105q-23 -31 -74 -84q-59 -63 -84 -96q-102 -137 -256 -410q-182 -324 -256 -428q-94 -137 -121 -188q0 -2 -8 -41q-10 -66 -57 -88q-47 -20 -82 16 q-14 16 -23 41q-2 14 -6 33q0 2 -1 9t-3 11q-10 51 -11 119t5 119l12 123q6 72 8 102q33 528 -4 961q-2 23 13.5 41t39 20t42 -13t20.5 -40zM530 1686q25 -76 72 -101q49 -27 129 -2l31 8q14 4 20 5t13.5 4.5t11.5 7.5q14 12 25.5 26.5t26.5 38t32 43.5q14 18 37.5 21.5 t43 -12t22.5 -39t-13 -44.5q-4 -4 -22.5 -31.5t-38 -52t-39.5 -40.5q-14 -10 -33 -19.5t-33 -13.5t-31.5 -8t-19.5 -4q-125 -39 -215 8q-92 47 -129 172q-8 23 3 44t34.5 28.5t45 -3.5t27.5 -36z" />
<glyph unicode="&#x41a;" horiz-adv-x="1374" d="M287 1477q10 -106 10 -163t-8 -161t-8 -147q-2 -106 -7 -238h5l73 76l66 74l78 88l71 84q115 129 209 219t193 143q20 12 43.5 6t35 -26.5t5.5 -44t-27 -33.5q-145 -82 -372.5 -340t-270.5 -301l149 -119l173 -135l139 -119q92 -78 161.5 -147.5t133.5 -145.5 q16 -18 14 -41.5t-20.5 -39t-42 -13.5t-37.5 20q-63 74 -132 142.5t-155 142.5l-143 119l-168 133l-156 123l-20 -19q-4 -4 -9 -6q-16 -440 -16 -622q0 -25 -16.5 -41.5t-41 -16.5t-41 16.5t-16.5 41.5q0 184 12.5 528t14.5 492q0 59 8 159.5t9 147.5t-11 143 q-4 25 10.5 44.5t38 23.5t43 -10t23.5 -37z" />
<glyph unicode="&#x41b;" horiz-adv-x="1308" d="M51 133q2 -2 31 -49l6 -10q33 -14 57 4q29 20 58 78q39 82 65 233q10 51 17 483q2 203 4 289q2 66 6 101q2 23 4 34q6 27 18 41q10 14 29 21q8 4 21 6q18 4 47 8q37 4 123 14q43 4 125 13q61 6 70 7t34 7l57 12l60 13l90 16q23 2 37 2h18q20 -4 35 -16q31 -25 24 -64 q-4 -16 -14 -33q-6 -12 -6 -14q-6 -41 -6 -85t2 -111.5t2 -94.5q2 -188 -4 -539.5t-6 -494.5q0 -25 -16.5 -41t-41 -16t-41 16.5t-16.5 40.5q0 143 6 493.5t4 540.5q0 18 -2 86t-2 116t4 93q-18 -4 -45 -8q-27 -6 -61 -14l-60 -13q-25 -4 -32 -6q-14 -2 -80 -8 q-88 -8 -123 -10q-76 -8 -119 -14q-12 -2 -20 -5v-4q-4 -33 -7 -94q0 -16 -4 -285q-6 -444 -16 -503q-31 -166 -78 -263q-39 -86 -94 -122q-78 -53 -168 -17q-35 14 -61 58q-4 10 -10.5 21t-10.5 17q-14 18 -11 42t21.5 38.5t42 11t37.5 -21.5z" />
<glyph unicode="&#x41c;" horiz-adv-x="1691" d="M121 -12q4 113 26.5 442.5t28.5 511.5q0 31 -2 79t-6 118l-6 104q-4 96 0 148q2 35 8 55q20 61 78 53q20 -2 37 -18l14 -15l20 -34q18 -31 43 -86l64 -148q41 -92 82 -201q43 -111 67 -184l72 -211l66 -192q12 -37 39.5 -105.5t29.5 -77.5l4 13q10 29 31 108q18 66 29 86 q23 51 100 207q61 123 88 199q23 61 51 186q33 131 56 197q39 109 69 172q35 63 66 92q29 25 59 29q43 6 74 -27q18 -18 27 -51q6 -23 10 -54q6 -49 8 -131v-131v-88q10 -350 10 -352q10 -461 -4 -684q0 -25 -18.5 -40t-43 -14t-40 19.5t-12.5 42.5q14 217 4 672 q0 4 -11 352q-2 12 -1 90t-1 131q-2 74 -6 117q-8 -12 -16 -27q-29 -57 -64 -155q-18 -55 -51 -186.5t-55 -196.5q-31 -86 -94 -215q-78 -152 -99 -199q-4 -12 -22 -74q-23 -80 -33 -110q-20 -70 -41 -105q-16 -29 -37 -43q-37 -29 -78 -10q-45 18 -51 78q-2 8 -2 14v8v5h-2 l-41 106q-29 74 -43 115l-63 190l-72 207q-25 74 -67 182.5t-81 196.5l-40 96q12 -299 12 -307q-4 -180 -26.5 -512t-28.5 -442q0 -25 -18.5 -41.5t-42 -15.5t-40 19.5t-14.5 41.5z" />
<glyph unicode="&#x41d;" horiz-adv-x="1437" d="M1081 -8q-6 104 -2 297q4 213 2 286q0 33 -2 80q-72 6 -184 23q-166 27 -221 31q-86 6 -129 6t-132 -3t-139 -3q-6 0 -12 2q-14 -422 6 -668q2 -23 -13 -41t-38.5 -20t-42 13t-20.5 40q-20 252 -4 690q18 494 10 682q0 23 16.5 40t39 18t39.5 -15t19 -39q6 -201 -8 -590 q4 2 8 2q41 0 125 3t155 3t132 -6q57 -6 225 -32q109 -16 164 -23q-6 217 0 346q4 47 19 176q10 102 10 164q0 23 17.5 40t40 17t40 -17t17.5 -40q0 -68 -13 -178q-14 -133 -16 -166q-4 -158 -5 -178.5t4 -176t7 -175.5q2 -53 -4 -295q-4 -180 4 -285q0 -23 -15.5 -41 t-38 -19t-41 14t-20.5 38z" />
<glyph unicode="&#x41e;" horiz-adv-x="1628" d="M571 1323q-139 -10 -249 -139q-137 -160 -170 -408q-23 -166 12 -305t134 -237.5t255 -114.5q231 -25 406.5 54t263.5 228q55 96 67.5 208t-30.5 243t-142 256q-43 53 -64.5 77.5t-57 56.5t-70.5 46q-31 12 -74 17.5t-66.5 5.5t-89 -3t-80.5 -3q-27 -2 -45 18zM692 1423 q182 10 275 -28q51 -18 102 -62.5t74 -68.5q16 -20 65 -82q113 -143 162 -293q49 -152 36 -290t-83 -257q-106 -180 -313 -272q-205 -94 -469 -66q-104 10 -189 49q-84 39 -140 98.5t-98 135t-60.5 158.5t-24.5 172.5t8 173.5q37 283 196 469q184 213 431 176q16 -3 28 -13z " />
<glyph unicode="&#x41f;" horiz-adv-x="1423" d="M1049 1333q-2 2 -7 2q-18 4 -51 4q-57 0 -157 -12q-53 -4 -166 -20q-92 -12 -117 -13q-63 -2 -209 4q-72 2 -115 2q4 -66 19 -184q23 -213 24 -311q2 -137 -14 -408q-16 -272 -16 -399q0 -25 -16.5 -41t-41 -16t-41 16t-16.5 41q0 131 16 408q16 272 15 399 q-2 92 -25 299q-14 135 -18 201q-29 14 -31 47q-2 35 29 53v12q0 23 17 39.5t42 16.5q23 0 39 -16.5t16 -41.5q45 2 121 -2q143 -6 201 -4q18 0 104 12l170 21q106 12 170 12q43 0 72 -6q41 -6 63 -29q31 -29 43 -100q8 -47 13 -119q0 -55 -2 -199q0 -18 -17 -264 q-10 -160 -6 -256q4 -63 24.5 -223t20.5 -240q0 -25 -16.5 -41t-41 -16t-41 16.5t-16.5 40.5q0 82 -18 224q-23 178 -27 235q-4 102 7 268q14 203 16 261q2 139 2 190q-4 63 -10 104q-4 21 -8 33z" />
<glyph unicode="&#x420;" horiz-adv-x="1318" d="M266 674q88 -20 215 -12t236 45q131 45 202.5 121.5t65.5 185.5q-2 72 -20.5 114.5t-65.5 81.5q-117 94 -330 95q-45 0 -190 -11q-74 -6 -121 -6v-41q6 -180 6 -198q0 -94 2 -375zM145 1389q0 31 2 57q2 25 20.5 39t42 13t38 -19.5t14.5 -40.5l-4 -37q43 0 113 6 q147 10 198 10q252 0 400 -121q72 -55 99.5 -120.5t31.5 -157.5q6 -156 -92.5 -260.5t-253.5 -157.5q-117 -39 -250 -50t-238 9q2 -375 -8 -616q-2 -25 -19.5 -40.5t-41 -14.5t-39 18.5t-15.5 40.5q8 166 10.5 342t-0.5 418.5t-3 341.5q0 18 -5 194q-2 35 -2 62 q-18 16 -18 45q2 23 20 39z" />
<glyph unicode="&#x421;" horiz-adv-x="1458" d="M1237 483q-39 -240 -201 -381t-366 -151q-211 -8 -381 124t-226 384q-47 219 9 454q55 233 209 390q102 104 276 139q233 45 403 -64.5t263 -328.5q10 -23 0.5 -45.5t-32 -31.5t-45 0t-30.5 32q-80 186 -215 273t-319 50q-141 -29 -220 -106q-129 -131 -178 -336t-6 -402 q45 -211 182 -315q137 -106 304 -100q166 8 296 122.5t162 313.5q4 23 23.5 37t43 10t38 -23.5t10.5 -44.5z" />
<glyph unicode="&#x422;" horiz-adv-x="1380" d="M-63 1442q61 0 149 10l154 18q537 51 872 5q23 -4 37 -22.5t10 -41t-22.5 -37t-40.5 -10.5q-193 27 -441 20v-6q-16 -143 -14 -368q4 -348 2 -379q-2 -66 -12 -189q-8 -127 -7 -214t19 -173q4 -23 -8 -42t-34.5 -24t-42 7t-26.5 35q-20 94 -21 193.5t9 230.5t12 180 q0 51 -2 373q-2 233 13 372q-119 -6 -291 -20q-27 -2 -51 -4q-25 -4 -56 -8l-47 -7q-94 -10 -161 -10q-23 0 -39.5 16.5t-16.5 39t16.5 39t39.5 16.5z" />
<glyph unicode="&#x423;" horiz-adv-x="1488" d="M1266 1391q-131 -420 -322 -783q-129 -246 -254 -391q-158 -182 -313 -211q-25 -4 -49.5 -6t-48.5 -2h-41q-16 0 -48 2t-45 4q-23 0 -38 17.5t-14 41t18.5 39t42.5 13.5q12 0 43.5 -2t44 -3t35 -1t41 2t38.5 6q117 20 250 174q51 61 107 141q-125 -33 -219 37 q-49 35 -127 174q-70 121 -143.5 282.5t-121.5 288.5q-25 68 -36 113q-14 57 -11 88q2 25 19 53l10 15q4 6 6 8q10 20 31.5 27.5t42 -3t28 -32t-3.5 -41.5l-10 -21l-8 -12l-4 -6q0 -10 8 -47q10 -39 33 -103q47 -129 117 -280q74 -158 139 -275q68 -119 96 -139 q31 -23 69 -25t74.5 11.5t85.5 40.5q10 6 21 6l37 67q184 350 313 764q6 23 26.5 33t43 4t33 -26t4.5 -43z" />
<glyph unicode="&#x424;" horiz-adv-x="1681" d="M793 1122q-10 -201 -11 -669q0 -45 4 -127q254 23 443 131q20 10 49 30l37 27q49 72 18 193q-43 160 -137 261t-229 138q-12 -2 -25 4l-4 2q-69 14 -145 10zM676 1128q-16 14 -21 35q-78 -2 -133 -22q-96 -35 -178 -109q-82 -76 -127 -172q-104 -209 12 -379 q41 -59 68 -75q147 -86 373 -87q-2 80 -2 134q0 466 8 675zM684 1280q4 76 12 147q2 23 20.5 38.5t42 13.5t39 -20.5t13.5 -43.5q-6 -78 -10 -145q94 -16 170 -47q176 -37 299 -163t174 -325q47 -174 -35 -286q-14 -23 -66 -58q-35 -23 -57 -37q-211 -121 -495 -145 q4 -131 -9 -219q-2 -25 -21.5 -39t-44 -11t-38.5 22.5t-10 43.5q10 82 8 197q-262 0 -436 104q-51 29 -105 109q-53 78 -71.5 166t-4 170t53.5 161q55 113 153.5 203t214.5 135q86 31 203 29z" />
<glyph unicode="&#x425;" horiz-adv-x="1368" d="M37 -61q10 57 36.5 108t74 117.5t55.5 79.5q115 184 305 448l-123 185q-27 41 -168 278q-100 164 -176 260q-16 20 -13 44t22.5 39t43 12t37.5 -21q76 -94 184 -275q141 -233 168 -272l99 -149l43 59q307 424 415 600q12 20 36 25.5t44.5 -7t25.5 -36t-7 -43.5 q-131 -211 -420 -609l-70 -94q287 -438 463 -678q14 -20 10 -43.5t-23.5 -38t-43 -10.5t-37.5 23q-174 236 -443 647q-164 -229 -274 -406q-20 -33 -61 -90t-60.5 -94t-27.5 -80q-4 -25 -25 -38t-44.5 -9t-36.5 24.5t-9 43.5z" />
<glyph unicode="&#x426;" horiz-adv-x="1589" d="M1247 1409q2 -66 -1 -208t-5 -207.5t-7 -207t-7 -206.5q-2 -45 -4 -142.5t-5.5 -171t-9.5 -143.5q57 -2 97 -35q59 -49 65 -156q6 -123 -57 -313q-6 -23 -27.5 -33t-44 -3t-33 28.5t-2.5 44.5q55 168 49 270q-2 57 -22 74q-25 20 -90 0q-20 -4 -40 4t-28 27 q-254 -23 -377 -27q-154 -8 -260 0q-137 10 -198 47q-45 27 -64 94q-14 43 -16 107q-2 39 0 106q2 74 2 78q0 293 20 590q4 39 -8 176q-12 131 4 201q6 27 25 57q0 2 8 15.5t12 21.5q12 20 34 27.5t43.5 -4t28.5 -33t-3 -43.5q-2 0 -25 -41q-10 -16 -12 -25q-12 -53 -2 -166 q12 -145 10 -194q-20 -293 -21 -582q0 -6 -4 -82q-2 -57 0 -96q2 -51 13 -82q6 -23 12 -26q39 -25 149 -33q96 -6 248 0q106 4 404 30q4 66 7 136.5t5 162t2 138.5q2 66 8 206t8 205.5t5.5 204.5t-0.5 205q0 25 16 41t39.5 17t40 -15t18.5 -39z" />
<glyph unicode="&#x427;" horiz-adv-x="1308" d="M1087 1421q-74 -834 -73 -1349q0 -25 -16.5 -41.5t-41 -16.5t-41 16.5t-16.5 41.5q0 274 16 592l-51 -25q-35 -18 -45 -25q-102 -51 -164 -63q-207 -45 -342 47q-115 80 -168 250q-72 242 -18 612q4 25 23.5 38t43 10t37 -22.5t11.5 -41.5q-51 -346 14 -561 q41 -133 123 -191q94 -63 252 -30q49 10 137 55q125 63 152 74q2 0 4 2q14 229 49 637q2 25 20.5 40t42 13t38.5 -20.5t13 -41.5z" />
<glyph unicode="&#x428;" horiz-adv-x="1906" d="M1686 1409q-45 -250 -62 -672q-16 -436 -37 -616q12 -16 12 -37q0 -33 -26 -49q-18 -39 -62 -33q-25 4 -38 25q-496 2 -545 2q-12 -37 -51 -39q-41 -4 -58 35h-14q-102 -6 -266 -27q-227 -31 -275 -35q-41 -4 -59 33q-18 4 -31.5 19.5t-13.5 35.5q-8 158 2 389 q2 45 10 178l12 205v105q0 25 -5 103.5t-5 105.5q-8 203 21 329q6 23 26.5 35t44 7t35.5 -25.5t8 -44.5q-25 -104 -18 -297q10 -276 8 -322q-2 -74 -10 -207q-8 -127 -10 -178q-10 -213 -5 -354q4 0 248 33q170 23 279 26l10 2q-2 55 1 116.5t7 135.5l6 113q2 70 5.5 285 t12.5 369.5t34 287.5q4 25 24.5 38t44 9t36.5 -24.5t9 -43.5q-25 -139 -33 -276q-10 -147 -12 -359t-6 -290q0 -43 -5 -116t-7 -131t-2 -110q51 0 547 -2q18 154 34 598q16 442 64 689q4 25 24.5 38t44 9t37 -24.5t9.5 -43.5z" />
<glyph unicode="&#x429;" horiz-adv-x="1951" d="M1694 1419q-23 -195 -29 -518q-8 -432 -14 -526q-4 -51 -19 -142l-6 -32q10 0 19 -2q20 -4 32 -15q18 -16 29 -49q6 -20 10 -51q8 -47 13 -123q4 -80 4 -199q0 -23 -17.5 -40t-40 -17t-40 17.5t-17.5 39.5q0 115 -4 193q-2 70 -8 113l-2 6q-18 -29 -52 -27q-37 4 -49 39 q-18 0 -39 -2q-35 -2 -82 -6l-75 -4q-31 -2 -39 -2q-68 0 -189 -1t-166 -1q0 -23 -15 -39.5t-38 -18.5q-23 0 -41 14.5t-20 39.5v2q-358 -10 -594 -80q-23 -6 -43.5 5t-28.5 34q-4 20 4 38.5t25 28.5q4 51 10 148l8 141q4 47 6 141t-4 142q-4 74 -19.5 261t-23.5 322t-8 262 q0 23 17.5 40.5t40 17.5t40 -17.5t17.5 -40.5q0 -127 7 -260t21 -317l23 -260q6 -31 3 -139.5t-4 -138t-8 -137t-9 -134.5q211 47 514 55q-16 399 75 1090q2 16 6 104q4 74 13 119q4 25 23.5 37t43 8t35.5 -23.5t8 -41.5q-6 -37 -10 -103q-2 -82 -8 -117q-88 -680 -74 -1071 q53 2 174 2t185 2q10 0 38.5 2t74.5 4.5t81 4.5q29 2 53 4l9 51q14 84 16 131q8 121 16 520q6 336 31 529q2 25 20.5 39t42 11t38 -21.5t10.5 -41.5z" />
<glyph unicode="&#x42a;" horiz-adv-x="1677" d="M600 63q123 -33 258 -14q225 35 352 117q104 68 125 191.5t-61 207.5q-29 27 -76 47.5t-84 30.5l-102 25q-203 45 -367 -11q0 -27 -2 -49q-6 -68 -19.5 -175t-20.5 -194t-3 -167v-9zM45 1417q8 0 272 4q104 4 160 4q37 0 58 -2q12 0 20 -2h10q14 -4 25 -12q41 -29 57 -92 q10 -41 10 -103q0 -39 -2 -96q-4 -55 -4 -63v-275q178 47 385 2q78 -16 111 -24t101.5 -39t107.5 -72q84 -82 98 -197.5t-36 -219t-142 -162.5q-150 -96 -402 -134q-162 -25 -313 17q-20 6 -32.5 24.5t-10.5 38.5q-35 14 -37 54q-2 84 5.5 178t21.5 205q12 106 16 165 q8 106 8 439q0 12 4.5 71.5t4.5 85.5q-2 47 -9 76q-4 10 -6 19h-49q-53 0 -158 -2q-266 -6 -278 -7q-25 0 -41 18.5t-16 43t18 41t43 16.5z" />
<glyph unicode="&#x42b;" horiz-adv-x="1792" d="M250 121q106 -31 220 -37t228.5 17.5t196.5 80.5q127 86 160 178q25 76 -15 150q-41 76 -140 135.5t-226 81.5q-143 25 -408 -4q-2 -37 -2 -72q-2 -39 -10 -181t-7 -174t3 -175zM291 1446q-8 -57 -13.5 -120.5t-7.5 -121t-3 -121t0 -123t1 -122.5q266 29 426 0 q147 -25 268 -97.5t177 -177.5q66 -117 22 -239q-45 -127 -200 -236q-100 -68 -234.5 -96.5t-259.5 -21.5t-244 42q-10 -6 -20 -8q-25 -2 -42.5 13.5t-21.5 37.5q-6 74 -6 159t2 142.5t7 156.5t8 142q2 31 2 66q-23 16 -25 43q-6 37 27 55v123q0 88 1 137t3 122t7 136.5 t15 124.5q2 23 21.5 37t42 11t37 -22t10.5 -42zM1571 1436q-10 -51 -13.5 -100.5t0 -129.5t3.5 -112q0 -76 -4.5 -256.5t-2.5 -278.5q4 -121 1 -279.5t-25 -285.5q-4 -23 -22.5 -36t-42 -9t-37 22.5t-9.5 42.5q20 123 23 269q4 150 -2 276q0 96 3 277.5t3 257.5q0 18 -2 105 t1 144.5t15 116.5q4 23 24.5 35t43 8t35 -24t8.5 -43z" />
<glyph unicode="&#x42c;" horiz-adv-x="1390" d="M295 139q12 2 24 0q86 -18 139.5 -26.5t124 -8.5t130.5 19q125 37 235 135q117 106 105 199q-27 184 -305 241q-207 43 -472 9q0 -96 3 -172q0 -27 10 -171.5t6 -224.5zM291 1450q-10 -41 -10 -88t4 -113.5t4 -107.5q0 -74 -8 -316q272 33 491 -12q356 -74 395 -340 q23 -154 -141 -301q-129 -119 -281 -164q-72 -20 -159.5 -21t-144 8t-146.5 30q-8 2 -14 4q-20 -33 -60 -27q-25 2 -39 21.5t-10 44.5q8 104 7 149t-9 151.5t-10 161.5q-2 115 4 324t6 287q0 25 -4 96.5t-3 130.5t13 111q6 23 26.5 36t44 7t37 -26.5t7.5 -45.5z" />
<glyph unicode="&#x42d;" horiz-adv-x="1531" d="M111 991q27 143 121 253t216.5 162t268 44t270.5 -86q119 -74 198 -205t106.5 -269t17.5 -278q-8 -133 -91 -277.5t-192 -230.5q-82 -61 -192.5 -95t-223.5 -32q-121 4 -226 48.5t-171 134.5q-33 45 -53.5 117.5t-23.5 107.5t-9 115q-2 23 13.5 40t38 19t40 -13.5 t19.5 -37.5q8 -98 10 -111q4 -35 17.5 -87t37.5 -85q96 -131 309 -135q96 -2 188.5 25.5t155.5 79.5q92 70 163 193.5t79 232.5v14q-55 0 -262 6t-320 6q-23 0 -39 16.5t-16 39t16.5 39t38.5 16.5q113 0 321 -5t261 -8q-12 166 -80.5 308.5t-187.5 216.5q-102 63 -220 69.5 t-217.5 -35.5t-175 -130.5t-96.5 -202.5q-4 -23 -23.5 -36t-42 -9t-35.5 23t-9 42z" />
<glyph unicode="&#x42e;" horiz-adv-x="2048" d="M1225 1493q10 20 30.5 30.5t42.5 2.5q109 -33 199 -96.5t151.5 -142.5t103.5 -173t59.5 -195.5t15.5 -203t-23 -197.5q-33 -152 -108.5 -276.5t-188.5 -202.5q-260 -178 -606 -41q-119 49 -205 153.5t-135 241.5q-53 150 -57 307q-18 0 -50 -1t-46 -1q-72 -2 -123 2 q0 -106 -1 -325t-1 -332q0 -25 -17.5 -42t-42 -17t-42 17t-17.5 42q0 113 1 340t1 364.5t-2 331t-10 357.5q0 25 16 42t41 18t42 -15.5t19 -40.5q10 -266 13 -621q47 -4 121 -2q12 0 47.5 1t56.5 1q6 49 16 92q33 123 96.5 232.5t151.5 196.5t206 129t245 24zM1317 1346 q-160 61 -297 10t-235.5 -177t-143.5 -296q-27 -96 -18.5 -217t49.5 -234q41 -117 111.5 -202t162.5 -121q287 -115 494 26q92 63 156.5 170t93.5 238q53 244 -26 474t-280 345q-28 -30 -67 -16z" />
<glyph unicode="&#x42f;" horiz-adv-x="1372" d="M1032 719q-2 39 -7 183.5t-5 188.5t4 187q-8 -2 -18 -2l-101 8q-74 6 -107.5 8t-97 2t-102.5 -6t-86 -20.5t-82 -36.5q-102 -66 -135 -182q-35 -117 8 -229.5t152 -166.5q117 -61 293 -24q59 12 284 90zM1149 1395q-14 -104 -15 -216t5 -278t8 -227v-31q8 -16 4 -35 q0 -8 -4 -14q0 -35 -6 -283q-4 -217 6 -354q0 -23 -15.5 -41t-38 -19t-41 14t-20.5 38q-10 141 -4 366q4 240 4 250q-6 0 -12 -2q-20 -4 -70 -31q-29 -16 -55.5 -39.5t-42.5 -43t-38.5 -57.5t-33 -57.5t-35.5 -68.5l-30 -65q-31 -59 -57.5 -99.5t-69.5 -82.5t-103.5 -63.5 t-136.5 -21.5q-94 2 -162.5 40t-144.5 108q-16 16 -17 39.5t15 40t39.5 17.5t40.5 -15q63 -59 113.5 -87t115.5 -28q100 -2 155.5 47t108.5 156q8 14 30 60t35 72t36.5 64.5t48.5 67.5q-209 -41 -361 35q-109 57 -170 161.5t-65 217t48 222.5t155 173q45 29 103 47.5 t106.5 25.5t120 8t110.5 -1t111.5 -8t93.5 -6q10 -2 20 -7q2 12 4 27q2 23 20.5 37t42 11t38 -21t10.5 -43z" />
<glyph unicode="&#x430;" horiz-adv-x="1343" d="M453 96q2 20 18 35q100 88 160 164q59 76 88 178q33 113 20 215q-12 106 -63 176q-109 154 -330 45q-74 -37 -131 -137t-77.5 -231t3 -242t86.5 -166q57 -51 166 -43q27 2 60 6zM1079 10q-152 -31 -241 86q-55 70 -78 189q-49 -82 -131 -164q39 -8 43 -49 q4 -23 -11.5 -41.5t-37.5 -20.5l-105 -16q-74 -14 -117 -17q-156 -10 -248 71t-121.5 220.5t-6.5 290.5q25 150 95 274.5t177 178.5q160 72 278.5 48t194.5 -130q33 -47 53 -105q6 12 13 23q14 20 28.5 35.5t32.5 26t28.5 15.5t33 13t28.5 10q23 8 44.5 -1t29.5 -31.5 t-1 -44t-32 -29.5q-12 -4 -31.5 -11.5t-24.5 -9.5t-14.5 -8t-14.5 -12t-13 -19q-37 -53 -58.5 -178t-7.5 -246q12 -131 62 -194q47 -59 129 -43q25 4 44 -8.5t23 -36t-8 -43t-35 -23.5z" />
<glyph unicode="&#x431;" horiz-adv-x="1228" d="M246 231q66 -109 219 -157q-2 6 -2 10q0 23 17.5 40t39.5 17q180 0 272.5 86t102.5 215q8 125 -58.5 229.5t-177.5 131.5q-150 35 -274.5 -52t-169.5 -237q-29 -102 -6 -195q12 -33 29 -61q8 -13 8 -27zM496 -51q-256 57 -357 239q-27 45 -39 99q-47 125 -47 366 q0 373 217 598.5t592 276.5q25 4 43.5 -10.5t21.5 -38t-11.5 -42t-36.5 -20.5q-330 -45 -516.5 -233.5t-194.5 -503.5q82 135 219 205q135 68 297 28q158 -37 246 -178t78 -301q-12 -164 -127 -279.5t-322 -125.5q8 -18 4 -37q-4 -23 -24 -35t-43 -8z" />
<glyph unicode="&#x432;" horiz-adv-x="1144" d="M573 829q66 74 106 154t50 167t-24 167l-7 12q-16 41 -25 54.5t-26 19.5q-76 29 -151 -45q-57 -55 -123 -182q-43 -84 -94.5 -245t-77.5 -325q188 59 274 129q18 14 37 31q-2 14 2 27q16 40 59 36zM604 694q-27 -27 -55 -49q-47 -39 -110.5 -70.5t-108.5 -47t-117 -38.5 q-14 -4 -29 -2q-12 -145 6 -247q25 -137 107 -181q66 -33 201 29q143 68 235 188q96 123 70 228q-31 110 -199 190zM686 782q188 -98 227 -247q43 -160 -88 -330q-111 -143 -278 -221q-186 -86 -303 -27q-133 68 -168 262q-29 150 4 369q27 180 84 362q55 178 106 279 q74 143 144 213q129 125 274 71q16 -8 31.5 -17t27 -21.5t19.5 -22.5t16 -27l13 -22q4 -8 10 -22.5t6 -18.5q47 -98 36 -205.5t-51 -198t-110 -176.5z" />
<glyph unicode="&#x433;" horiz-adv-x="1054" d="M49 680q-29 133 49 237.5t201 159.5q117 53 215 45q57 -6 99 -36.5t51 -92.5q6 -53 -9 -112q-8 -33 -43 -88l-77 -105q-156 -207 -189 -254q-104 -152 -129 -241q-14 -45 -8 -72q6 -20 29 -33q84 -47 288 35q117 47 217 117q20 14 43 10t37.5 -24.5t10 -43t-24.5 -37.5 q-111 -78 -242 -129q-254 -100 -383 -30q-68 37 -86 106q-14 57 8 133q31 109 146 273q4 6 192 260l72 98q25 39 29 53q8 37 4 72q-2 23 -45 27q-70 6 -158 -35q-96 -43 -149.5 -116t-36.5 -152q6 -25 -7.5 -44.5t-37 -24.5t-43 8t-23.5 36z" />
<glyph unicode="&#x434;" horiz-adv-x="1286" d="M1042 487q-8 -63 -30 -127q-59 -176 -202.5 -287.5t-309.5 -70.5q-152 37 -244 137q-92 102 -117 240q-25 133 15 268q39 135 133 242q90 102 192 147q150 68 266 -12q12 -8 21 -18q72 -35 125 -84q-25 61 -66 145l-18 41l-21 43q-4 8 -17 32.5t-21 37.5l-23 28 q-12 16 -24.5 29.5t-26.5 24.5q-43 33 -107.5 54t-101.5 28.5t-135 21.5q-25 2 -39.5 21.5t-11 44t23 39t43.5 10.5q4 0 42 -5.5t46 -6.5t42 -7t47.5 -10t44 -11t48 -15.5t43 -18.5t46 -23.5t38.5 -27.5q25 -18 47.5 -43t36 -42.5t34 -51t24.5 -43.5l24 -54q20 -41 23 -43 q43 -90 68.5 -154.5t47 -147.5t20.5 -165t-26 -166zM707 866q-2 2 -23 49l-4 11q-63 43 -152 4q-80 -37 -151 -119q-78 -88 -111 -197q-31 -111 -10 -215q18 -104 87 -179t185 -103q109 -27 215.5 55t157.5 227q6 18 10 37q-4 18 2 37q8 20 15 39q23 213 -133 338 q-4 -4 -9 -6q-20 -12 -43.5 -6.5t-35.5 28.5z" />
<glyph unicode="&#x435;" horiz-adv-x="1269" d="M197 481q125 -16 207.5 -18t183 20.5t174.5 77.5q45 35 74.5 94.5t31.5 122.5q8 143 -94 207q-61 39 -186 29q-141 -12 -244.5 -132t-136.5 -290q-10 -58 -10 -111zM88 379l-37 4q-25 4 -39 22.5t-11 42t21.5 38t40.5 12.5l19 -2q2 59 12 116q37 199 166 349.5t320 166.5 q162 14 256 -45q80 -51 116.5 -134t30.5 -177q-4 -88 -44 -169t-108 -132q-88 -66 -199.5 -95.5t-214 -25.5t-210.5 15q43 -207 221 -273q184 -63 340 53q35 27 67.5 66t53.5 72q14 23 53 86q12 20 34.5 26t43 -6t27 -34.5t-6.5 -43.5q-35 -59 -56 -92t-62 -82t-84 -82 q-207 -156 -447 -69q-133 47 -207 151q-76 105 -96 242z" />
<glyph unicode="&#x436;" horiz-adv-x="1689" d="M1421 -20q-125 -25 -229 -9q-106 16 -219 82q-160 92 -234 205q16 -150 47 -285q6 -25 -7 -45t-36.5 -26t-44 7t-26.5 36q-29 123 -45 256q-88 -115 -228.5 -183.5t-312.5 -66.5q-25 0 -42 18.5t-17 42t18 41t41 17.5q203 -4 344 102.5t180 255.5q-2 88 4 168 q-25 90 -98 149q-150 121 -455 97q-25 -2 -43 14t-20 41t14.5 43t40.5 21q350 29 537 -123q27 -20 47 -45q31 168 98 284q12 23 36 29t45.5 -6.5t27.5 -36t-6 -43.5q-84 -147 -105 -391q74 125 228.5 214t330.5 115q23 4 43.5 -10t23.5 -37.5t-11.5 -44t-38.5 -22.5 q-156 -25 -287 -101.5t-188 -177.5q-55 -98 -21 -192q45 -117 217 -217q96 -55 178 -68q82 -12 193 6q25 4 45 -10t23.5 -37.5t-11 -44t-37.5 -22.5z" />
<glyph unicode="&#x437;" horiz-adv-x="1013" d="M168 573v17l-2 22q-2 41 12 70q31 66 105.5 112t158.5 58q90 16 170 -17.5t109 -127.5q45 -156 -111 -275l-2 -2v-2q68 -27 119 -111q68 -113 68 -272q-2 -158 -68 -268q-84 -143 -261 -217t-333 -13q-47 18 -121 84l-53 54l-33 32q-18 16 -18 40t16.5 41.5t40 17.5 t39.5 -17q2 0 34 -31.5t52 -50.5q57 -53 84 -63q113 -43 251 13.5t204 166.5q49 86 51 213q0 127 -51 209q-33 53 -64 68q-18 6 -43 2q-10 -2 -24 -9q-20 -8 -31 -10q-43 -10 -70 23q-18 23 -14 63q4 20 18 37q8 8 18.5 16.5t37.5 22.5q57 35 84 53q94 72 69 152 q-25 86 -149 65q-61 -10 -112.5 -40.5t-67.5 -65.5v-15v-8q0 -2 1 -6t1 -6v-29q-2 -25 -19.5 -41t-41 -14t-40 19t-14.5 40z" />
<glyph unicode="&#x438;" horiz-adv-x="1308" d="M207 1016q0 -2 -6 -84t-9.5 -134.5t-8.5 -165t1 -175.5q6 -190 39 -279q14 -39 29 -47q8 -6 27 2q25 12 73 82q49 63 109 170q100 180 160 317q23 51 96 256q0 4 1 10.5t4 17.5t5 24q6 25 14 39q20 33 60 28q31 -4 47 -33q8 -10 8 -24v-12q0 -4 -2 -13q-2 -10 -4 -26 q-6 -23 -19 -72q-31 -113 -32 -131q-37 -207 -41 -320q-4 -102 10 -167.5t45 -85t98 -27.5q27 -2 72 -5t51 -3q25 -2 40.5 -20.5t13 -42t-20.5 -39t-41 -13.5q-6 0 -53 3t-74 7q-96 10 -147 43q-70 45 -95 156q-18 82 -14 199q0 16 2 34l-84 -157q-63 -111 -115 -183 q-68 -92 -118 -114q-76 -37 -138 2q-47 31 -75 104q-39 106 -45 316q-2 82 -2 141t4 140t8 126t8 100.5t4 63.5q2 23 19.5 39t41 14t40 -19t14.5 -42z" />
<glyph unicode="&#x439;" horiz-adv-x="1202" d="M223 1061q0 -133 -33 -365q-16 -121 -24 -247q-6 -111 -6 -166.5t2 -89.5l4 -29q20 -25 43 -23q6 2 24 17q27 20 62 61q66 76 145 199q72 106 133.5 213.5t79.5 150.5q47 111 52 123q23 49 38 78q10 18 19 31l14 14q18 16 43 16q37 0 55 -32q6 -12 9 -29q4 -16 2 -43 q-2 -37 -13 -104l-16 -105q-10 -51 -10 -53q-25 -233 -21 -363q8 -254 52 -301q12 -16 28 0q-4 -4 -8 0q-2 4 2 6q37 -4 39 -6q25 -6 36 -26.5t5 -44t-26.5 -34.5t-43.5 -5h-4h-8q-4 0 -14 2q-41 6 -64 31q-102 115 -110 374q-4 135 20 363q-80 -152 -190 -320 q-88 -131 -156 -211q-41 -47 -76 -75q-45 -37 -82 -41q-43 -6 -83 13t-66 50q-23 27 -29 90q-4 41 -4 105q0 57 8 172q8 141 25 256q33 229 33 348q0 25 16 41t40.5 16t41 -16t16.5 -41zM340 1462q0 -59 24.5 -121.5t63.5 -101.5q84 -84 188 -14q20 12 44 35.5t36 37.5 l45 58q31 39 37 45q14 18 39 20t43.5 -12t20.5 -38.5t-13 -43.5q-6 -6 -28 -33l-35 -45l-37 -45q-23 -25 -44.5 -44t-41.5 -34q-63 -41 -126.5 -48t-115 13.5t-94.5 63.5q-57 57 -89 141t-32 166q0 25 16.5 41.5t41 16.5t41 -16.5t16.5 -41.5z" />
<glyph unicode="&#x43a;" d="M225 1065q4 -80 4 -164t-2 -198.5t-2 -157.5q12 10 27 18q98 172 248.5 303t314.5 178q25 6 45.5 -6t27.5 -35.5t-5.5 -44t-34.5 -28.5q-111 -31 -217.5 -111t-192.5 -188q74 4 125 -31q82 -51 84 -178q2 -27 -2 -94q-4 -63 -2 -90q2 -96 49 -152q66 -78 232 -113 q25 -4 38 -24.5t8 -45t-25.5 -37.5t-45.5 -7q-207 43 -297 151q-74 86 -78 223q-2 37 2 102.5t4 84.5q-2 63 -28 82q-45 27 -131 -8q-16 -6 -31 -15q-78 -143 -92 -276q-2 -10 -6 -19q8 -74 22 -139q6 -25 -7 -45t-37.5 -25.5t-45 8t-24.5 37.5q-33 152 -40.5 349.5t0 352.5 t-3.5 339q0 23 16.5 41t40 19t42 -15t20.5 -41z" />
<glyph unicode="&#x43b;" horiz-adv-x="1097" d="M-20 39q10 -2 39.5 -4t43 -2t35 -1t38 2t32.5 7q106 29 254 258q86 133 194 365q61 131 105 237q2 2 3 7t2 16.5t3 23.5q4 31 16 47q25 41 72 35q25 -2 39 -22q6 -6 8 -12.5t2 -10.5t2 -6v-4v-2v-2v-6q0 -4 -2 -7v-38l-4 -119q-6 -178 -6 -191q-2 -25 -6 -109.5 t-5 -116.5t-2 -103.5t2 -114.5t11 -100.5t21 -106.5q6 -23 -6.5 -43t-35 -26.5t-43 6t-26.5 34.5q-14 55 -22.5 118t-11.5 110t-3 121.5t2 109.5t6 119t4 106q2 8 2 56l-24 -56q-113 -238 -201 -376q-170 -266 -321 -308q-23 -6 -46.5 -9t-51 -3h-42.5l-47 4q-31 2 -39 2 q-23 2 -38 19.5t-14 41t18.5 39t42.5 15.5z" />
<glyph unicode="&#x43c;" horiz-adv-x="1564" d="M12 51q2 0 49 17q18 6 25 12q84 63 113 272q12 90 16 346v23v57q0 35 2 66q0 59 4 96q2 23 6 37t9 22q18 35 55 35q55 0 84 -67q14 -31 22 -82q4 -27 13 -113q0 -6 6 -84t12 -134t16 -112q35 -203 105 -256q27 -20 47 -16q23 6 51 37q61 70 123 239q45 121 88 291l25 103 q4 23 6 31t4 12l4 8q2 6 6 10q14 18 37 23q47 10 78 -35q14 -18 20 -53q10 -43 15 -119v-80v-68l-2 -32q0 -88 1 -131.5t8 -102.5t21 -100q49 -133 219 -178q25 -6 37.5 -28t6 -45.5t-28 -35.5t-43.5 -6q-231 61 -301 252q-18 53 -27.5 125.5t-10.5 113.5t-1 136q0 2 2 28 q-27 -86 -51 -157q-70 -193 -148 -279q-55 -61 -117 -74q-72 -14 -139 37q-106 82 -151 330l-2 14q-4 -53 -11 -100q-37 -256 -155 -350q-23 -16 -60 -31q-2 0 -18 -5t-25 -9q-23 -8 -45 1t-31.5 31.5t-0.5 45t32 32.5z" />
<glyph unicode="&#x43d;" horiz-adv-x="1140" d="M227 1038q-8 -61 -4 -182q4 -147 2 -197q-4 -70 -4 -147q123 -16 172 -10q104 12 193 80q86 66 139 166l37 145q4 18 12 52t10 46q8 31 17 45q10 12 22 21q29 18 58 4q27 -12 34 -43q6 -14 5 -33q0 -10 -5 -22q-2 -20 -10 -52l-20 -82q-16 -61 -47 -118q-6 -39 -11 -78 q-16 -147 -20 -236q-6 -92 4 -214t43 -218q8 -23 -2 -44t-33.5 -29.5t-45 2t-30.5 34.5q-78 221 -47 592q-127 -117 -290 -137q-63 -6 -189 10q0 -74 -2 -208t-2 -183q0 -25 -18.5 -42t-42 -17t-41 18.5t-17.5 40.5q2 47 3 189.5t3 220.5q-31 20 -28 55q2 33 30 47 q2 80 4 150q2 45 -2 188q-4 127 5 199q4 25 22.5 40t43 12t39.5 -21.5t13 -43.5z" />
<glyph unicode="&#x43e;" horiz-adv-x="1282" d="M455 985q-45 -10 -82 -33q-117 -68 -184.5 -221t-57.5 -311t94 -242q90 -92 256 -67q135 20 251 111t171 216q39 82 43 164t-32.5 163t-116.5 144q-70 55 -133.5 76t-141.5 10l-22 -2q-16 -4 -35 -8h-10zM598 1114q137 -6 272 -115q102 -84 150 -188q47 -106 42 -211.5 t-52 -210.5q-68 -150 -206 -259.5t-306 -133.5q-223 -33 -357 100q-115 115 -127 318q-12 186 68 368q82 182 233 273q29 16 66 28.5t60.5 17.5t65.5 11t54 8q19 4 37 -6z" />
<glyph unicode="&#x43f;" horiz-adv-x="1214" d="M879 868q-20 16 -84 31q-80 16 -220 23q-90 2 -239 0h-109q2 -53 7.5 -166t5.5 -172v-312q0 -182 12 -303q2 -25 -12.5 -43t-39 -20t-43 12t-20.5 39q-14 127 -12 315v308q-2 57 -8 198.5t-6 218.5q0 25 16 41.5t41 16.5t41 -17h127q152 2 244 -2q150 -4 239 -24 q135 -29 168 -99q8 -20 8 -51q-2 -18 -8 -45q-6 -37 -26 -100q-47 -158 -48 -162q-41 -250 -41 -559q0 -25 -16 -41t-40.5 -16t-41 16t-16.5 41q0 319 41 579q2 10 51 175q16 59 24 92q3 16 5 26z" />
<glyph unicode="&#x440;" horiz-adv-x="1218" d="M225 131q6 -313 23 -571q2 -25 -14.5 -42.5t-40 -19.5t-41 14.5t-19.5 38.5q-6 88 -10 187l-8 172q-2 76 -4 192l-5 172v193v172v192v177q0 25 16.5 41t41 16t41 -16.5t16.5 -40.5v-170q14 12 92 69q160 121 305 133q199 18 300 -168q80 -150 79 -368q0 -238 -116 -357 q-119 -121 -355 -120q-131 0 -215 43q-45 24 -86 61zM221 573q0 -147 2 -268q12 -6 21 -18q59 -84 118.5 -115t163.5 -31q188 0 272.5 86t84.5 276.5t-68 315.5q-63 119 -186 107q-113 -10 -246 -109q-78 -59 -90 -69q-47 -41 -57 -68q-2 -4 -3 -21v-6q0 -4 1.5 -8t1.5 -6 v-29q-1 -21 -15 -37z" />
<glyph unicode="&#x441;" horiz-adv-x="1087" d="M731 678q35 129 -6 199q-35 55 -117 67q-88 10 -193.5 -31t-172.5 -120q-80 -94 -109 -235.5t4 -266.5q33 -131 123 -201t234 -51q18 2 37.5 8t34 11t37 17.5t32.5 18.5l35 25l32 22q6 4 36 28t36 28q18 14 43 11t39 -22.5t11 -44t-23 -39.5q-4 -2 -37 -27.5t-45 -33.5 l-41 -29q-31 -23 -49 -32l-49 -23q-29 -14 -56.5 -21.5t-56.5 -11.5q-195 -27 -318.5 70.5t-166.5 267.5q-41 147 -6.5 318.5t133.5 285.5q88 102 220 155.5t253 37.5q137 -18 200 -123q66 -113 17 -291q-6 -23 -26.5 -35t-44 -5t-36 27.5t-4.5 45.5z" />
<glyph unicode="&#x442;" horiz-adv-x="1132" d="M516 1040q170 -2 344 -14q23 -2 38 -19.5t13 -40t-19.5 -38t-39.5 -13.5q-170 12 -334 13q0 -135 -4 -282.5t-12 -338.5l-13 -284q0 -23 -17 -39.5t-39.5 -15.5t-39 18.5t-14.5 40.5q2 92 11 282.5t13.5 337t4.5 281.5q-182 -2 -357 -19q-25 -2 -42 12.5t-19 38t12 41 t37 19.5q180 16 367 20q2 20 17 33.5t36 13.5q23 2 39 -12.5t18 -34.5z" />
<glyph unicode="&#x443;" horiz-adv-x="1140" d="M227 1059q-23 -61 -20 -223q4 -180 39 -344q39 -184 106 -277q66 -86 152 -59q29 8 71 37l62 43q31 96 58.5 213.5t42 195.5t37 212t30.5 173q4 25 23.5 38t44 9t38 -23.5t9.5 -43.5l-29 -170l-37 -209q-14 -80 -42 -202t-58 -218q2 -29 -17 -49q-14 -43 -35 -92 q-236 -586 -720 -586q-25 0 -42.5 17.5t-17.5 42t17.5 42t42.5 17.5q385 0 585 450q-14 -6 -30 -12q-164 -49 -279 104q-84 113 -129 322q-37 174 -39 367q-2 182 27 266q8 23 29.5 33t45 1.5t33.5 -29.5t2 -46z" />
<glyph unicode="&#x444;" horiz-adv-x="1732" d="M936 229q94 -104 158 -125q113 -33 178 -14q53 16 82 68q53 94 41 323q-10 162 -42 270.5t-116 163.5q-29 20 -82 23q-53 0 -98 -16q-104 -37 -166 -174q-8 -18 -29 -29q4 -33 11.5 -102.5t9.5 -96.5q10 -96 16 -168q12 2 25 -4q23 -8 32 -30.5t-0.5 -45.5t-19.5 -43z M991 1190q-2 2 -30 35q-16 0 -31 -19q-27 -31 -45 -98q-29 -92 -33 -199q70 88 168 123q51 23 137 22t146 -40q63 -43 106 -107.5t62.5 -146.5t26.5 -136.5t11 -134.5q16 -264 -53 -389q-53 -92 -151 -120q-100 -31 -244 14q-76 23 -150 94q0 -25 -2 -47q-8 -276 -98 -426 q-119 -193 -371 -176q-25 0 -40 18.5t-14 43t19.5 40t43.5 13.5q180 -10 264 122q74 121 82 369v2q-55 -41 -117 -57q-162 -39 -320 86q-94 74 -155 186q-61 111 -73.5 246t46.5 272q53 119 145.5 191.5t196.5 81.5q129 8 221 -84q10 96 33 174q27 88 68 137q59 74 145 59 q35 -6 64 -39l10 -14l6 -6l4 -4q18 -16 19.5 -40t-15 -42t-40.5 -19t-42 15zM733 748q-29 104 -85 148t-122 40q-68 -4 -135 -57.5t-108 -147.5q-47 -106 -37 -215q10 -106 59 -198.5t125 -151.5q113 -88 219 -62q82 18 144 109q-6 117 -25 295q-2 16 -11 97t-12 120 q-10 11 -12 23z" />
<glyph unicode="&#x445;" horiz-adv-x="1122" d="M893 995q-33 -53 -79 -110.5t-102.5 -121t-82.5 -95.5l-99 -123q207 -328 351 -518q12 -20 9 -44t-22.5 -37.5t-43 -10t-38.5 21.5q-137 188 -327 489q-174 -242 -273 -471q-10 -23 -31.5 -30.5t-44 1.5t-30.5 30.5t0 43.5q111 256 311 531q-217 348 -317 493 q-14 20 -9 44t24.5 37.5t43 8t35.5 -23.5q102 -150 299 -461l72 92q33 41 88 102.5t96 112t72 101.5q12 20 35.5 25t44 -7t25.5 -36t-7 -44z" />
<glyph unicode="&#x446;" horiz-adv-x="1284" d="M952 1024q25 -569 -4 -860q27 -2 43 -10q53 -23 68 -95q4 -27 4 -61.5t-2 -60t-10 -68.5l-11 -57q-4 -16 -15 -61.5t-11 -47.5q-6 -23 -26.5 -35t-44 -7t-36 25.5t-8.5 45.5q2 4 11.5 42t12.5 49t10 44t9 49t4 42t2 45.5t-4 35.5q0 6 -2 8q-25 6 -86 6q-70 -2 -174 -10 q-188 -16 -293 -35q-6 0 -24.5 -4t-40 -8t-39.5 -6q-39 -6 -68 -6q-45 0 -72 16q-8 6 -14 14.5t-8 12.5v6q-2 4 -3 9t-1 13q-2 10 -2 29v82q-2 35 -2 57.5t1 46t1 25.5q0 502 14 743q0 23 18.5 39.5t42 15.5t40 -19.5t14.5 -43.5q-14 -238 -15 -735v-25v-47v-57q0 -39 2 -66 q14 2 35 4q18 2 39 6.5t38 8.5t24 4q106 18 303 35q96 8 159 10q29 285 7 852q-2 25 14 42t41 18t42 -15t17 -41z" />
<glyph unicode="&#x447;" horiz-adv-x="1124" d="M786 1006v-7v7zM188 1063q-16 -111 -23 -180.5t-6 -155.5t19 -143q29 -86 98 -117q88 -41 252 -4q63 12 105.5 46t66 88t34.5 110.5t18 140.5q2 37 0 90q0 12 -2 40t-2 38q0 20 2 35q4 33 26 51q39 29 82 -4q12 -10 29 -31q12 -18 16 -49v-41q0 -39 -6 -100l-10 -99 q-6 -57 -8 -61q-4 -63 -17.5 -194.5t-19.5 -206t-11.5 -184t-3.5 -200.5q2 -25 -15 -42t-40.5 -18t-41 16.5t-17.5 39.5q-6 199 24 518q-72 -74 -184 -98q-201 -43 -326 12q-115 51 -159 189q-23 70 -25 173t6 173t25 184q4 25 23.5 39.5t43 10t37.5 -23.5t10 -42z" />
<glyph unicode="&#x448;" horiz-adv-x="1576" d="M154 150q-2 2 -7 -3q3 3 7 3zM735 1057q68 -207 83.5 -453t-27.5 -463l38 2q176 4 277 11q57 4 90 6l6 2q2 8 6 22q2 14 6.5 37t6.5 29q31 129 16 336l-8 86q-6 66 -7 91t-4.5 92t1.5 93q2 25 19 41.5t41 14t40 -19.5t14 -40q-4 -25 -1 -87t4 -85.5t7.5 -87t8.5 -88.5 q16 -225 -21 -375q0 -4 -4 -25.5t-8 -35.5q-4 -25 -10 -41q-10 -29 -23 -43q-10 -12 -26 -19q-8 -4 -17 -6q-12 -2 -35 -4q-35 -4 -96 -8q-102 -6 -281 -10q-90 -2 -192 -4t-183 -3.5t-87 -1.5q-8 0 -60 -4q-47 -2 -80 -2q-121 2 -168 60q-12 12 -14 30q-2 8 -2 19 q0 12 2 31q2 27 10 73l13 70l4 27l2 8q20 233 24 364q6 238 -22 336q-6 23 5 44.5t33.5 27.5t44 -5.5t27.5 -33.5q35 -117 27 -373q-4 -135 -25 -368q0 -6 -2 -21l-6 -27l-12 -69q-6 -39 -8 -62q39 -16 69 -16q29 0 72 2q53 4 62 4q4 0 112.5 1t196.5 3q0 2 2 6 q41 203 28.5 440.5t-79.5 434.5q-6 23 4 44t32.5 28.5t44 -2.5t29.5 -33z" />
<glyph unicode="&#x449;" horiz-adv-x="1689" d="M645 143q8 86 6 428q-2 276 31 443q4 25 23.5 38t43 8t37 -24.5t7.5 -42.5q-29 -156 -27 -420q2 -346 -6 -438v-2q223 8 330 14l40 5q41 2 74 4q41 102 29 288q-4 49 -16 174q-12 109 -15 173q-2 45 2 124q4 86 4 119q0 25 16.5 41.5t41 16.5t41 -16.5t16.5 -41.5 q0 -35 -4 -123q-4 -80 -2 -116q2 -55 12 -164q14 -127 19 -180q10 -176 -23 -291q16 -2 29 -2q25 -2 43 -6q35 -8 49 -29q23 -31 22 -96q0 -41 -10 -103q-16 -111 -37 -168q-6 -23 -27.5 -33t-44 -2.5t-32.5 29t-2 43.5q16 49 31 150q8 51 8 86v14h-8q-33 2 -89 0 q-31 0 -64.5 -3t-62 -5t-32.5 -2q-193 -12 -502 -21q-188 -4 -303 -2q-63 2 -107 6q-23 2 -39 7q-27 6 -43 20q-8 10 -14 23q0 4 -2 10t-2 14q-2 10 -2 31q-2 35 -4 100q-2 98 -4 299q-2 309 -2 314q-2 152 -4 182q-2 23 13 41t38.5 20t42 -13t20.5 -40q2 -33 4 -188 q0 -6 2 -314q2 -201 5 -299q2 -59 4 -92v-2q35 -2 98 -4q109 -2 295 2q27 2 53 2v14z" />
<glyph unicode="&#x44a;" horiz-adv-x="1259" d="M432 530l-2 -41q-8 -119 -2 -188q14 -197 137 -254q70 -33 144.5 -10.5t135 88t78 143.5t-19.5 148q-43 80 -219 106q-107 16 -252 8zM8 1051q109 -82 209 -72q2 0 29 6l57 12q37 6 59 11q14 2 27 2h14q18 -4 32 -15.5t20 -29.5q0 -4 1 -10.5t1 -12.5q0 -12 -2 -31 q0 -23 -6 -80q-10 -131 -11 -157v-31q150 6 262 -10q229 -35 301 -164q39 -70 38 -149.5t-30.5 -147.5t-80.5 -123t-117 -90t-142.5 -42t-152.5 28q-180 86 -201 348q-4 78 2 203q10 147 11 178q0 33 10 166q2 33 4 51l-16 -4l-58 -10q-31 -8 -39 -9q-143 -14 -286 93 q-18 14 -22.5 36.5t10 41t37 22.5t40.5 -10z" />
<glyph unicode="&#x44b;" horiz-adv-x="1439" d="M791 397q-2 4 -7 9q-12 14 -34 34q-39 35 -56 47q-117 76 -252 72q-31 -2 -49 -3t-36.5 -5t-29 -7t-40.5 -14l-58 -18q-4 -2 -8 -2q2 -90 10 -164q14 -123 68.5 -187.5t126.5 -76.5q72 -10 154 32t145 138q68 98 66 145zM281 1077q-51 -160 -58 -336q-2 -72 -2 -110 l33 12q23 6 30 8t23.5 7.5t26.5 7.5t27.5 4t36 3t40.5 1q172 6 318 -88q27 -18 73 -60q27 -25 43 -45q29 -33 33 -61q12 -92 -82 -234q-82 -119 -193.5 -177t-221.5 -42q-117 18 -195 114.5t-96 252.5q-16 129 -8 411q4 195 61 369q8 23 29.5 34t44 3t34 -29.5t3.5 -44.5z M1219 1079q0 -66 -7.5 -145.5t-14.5 -131.5t-22.5 -146.5t-21.5 -129.5q-47 -322 0 -520q4 -25 -8 -45t-36 -25.5t-44.5 7t-26.5 34.5q-51 221 0 566q6 41 21.5 133t23 142t14.5 125t7 136q0 25 16.5 41.5t41 16.5t41 -16.5t16.5 -41.5z" />
<glyph unicode="&#x44c;" horiz-adv-x="1112" d="M238 657q10 0 62 1t71.5 1t66.5 -1t75 -4t68 -8t73.5 -13t66.5 -21q141 -51 168 -184q20 -111 -49 -233q-66 -117 -185 -189q-121 -72 -252 -43q-66 12 -114.5 47t-77.5 86t-45 98.5t-27 106.5q-23 135 -18 320q4 190 45 458q4 25 23.5 38t43 10t37 -22.5t11.5 -41.5 q-37 -236 -43 -406zM236 543q2 -123 18 -221q18 -109 57 -170.5t117 -77.5q86 -16 174 35t137 141q49 86 37 156q-14 70 -96 100q-31 10 -70 18t-65.5 12.5t-79.5 6.5t-71.5 2t-83 -1t-74.5 -1z" />
<glyph unicode="&#x44d;" horiz-adv-x="1132" d="M352 530q94 10 248 6t188 -4q-23 162 -124 262.5t-226 120.5q-119 18 -196 -41q-84 -63 -84 -200q0 -25 -17.5 -42.5t-42 -17.5t-42 17.5t-17.5 42.5q0 197 131 295q119 90 287 63q164 -27 293 -155.5t157 -331.5q29 -225 -67.5 -385t-257.5 -205q-168 -45 -309.5 58.5 t-180.5 330.5q-4 25 9.5 44.5t38 23.5t44 -9.5t23.5 -37.5q23 -125 81 -200t124.5 -94.5t138.5 -0.5q94 27 164.5 116.5t79.5 229.5q-49 -2 -199 2q-143 6 -227 -6q-25 -2 -44.5 13t-22.5 38.5t12 43t38 23.5z" />
<glyph unicode="&#x44e;" horiz-adv-x="1642" d="M598 705q18 -10 26.5 -30t2.5 -38q-10 -31 -17 -62l4 -6q12 -33 -12 -59q-8 -133 57 -229q63 -96 172 -144q129 -57 254 -28q127 29 181 133q43 86 41 200q-4 111 -50 222q-45 111 -122 180q-80 72 -179 82q-80 8 -156.5 -17.5t-129.5 -77.5q-58 -54 -72 -126zM240 1004 q-8 -98 -11 -248q-2 -182 -4 -209q76 -2 264 -2q0 12 3 22q-27 102 0.5 192.5t97.5 158.5q72 68 172 100q102 33 207 22q135 -12 237.5 -104t159.5 -227q53 -129 56 -265.5t-54 -255.5q-51 -102 -153.5 -154t-214 -50t-216.5 47q-121 53 -201.5 156.5t-95.5 242.5 q-190 -2 -268 2q-4 -53 -18 -164q-20 -143 -23 -221q0 -23 -17.5 -40t-41 -16t-41 18.5t-15.5 41.5q0 80 20.5 233.5t25.5 221.5q2 31 4 252q2 158 12 258q2 23 20.5 38t42 13t39 -20t13.5 -43z" />
<glyph unicode="&#x44f;" d="M782 895q-8 6 -16 10q-29 12 -104 17q-170 10 -297 -58q-129 -68 -172 -162q-37 -80 10 -135q61 -74 239 -84q109 -6 224 23l32 65q10 18 29 27q16 164 55 297zM819 1010q18 47 41 86q10 20 34 27t45.5 -4t28.5 -34.5t-5 -46.5q-25 -47 -48 -108l13 -15q16 -18 13 -42.5 t-21 -38.5q-16 -14 -37 -15q-45 -184 -51.5 -413.5t22.5 -387.5q4 -25 -9.5 -44t-38 -23t-44 9t-23.5 38q-29 160 -26 362q-205 -295 -613 -442q-23 -8 -45 2t-30.5 32.5t2 45t32.5 31.5q334 121 512 340q-68 -8 -137 -4q-229 14 -323 127q-92 113 -27 260q59 131 221 216 t365 72q96 -6 143 -28z" />
<glyph unicode="&#x451;" horiz-adv-x="1267" d="M195 479q127 -14 209.5 -17t183 19.5t176.5 79.5q45 35 74.5 93.5t33.5 123.5q8 143 -96 209q-63 39 -188 29q-154 -14 -260.5 -148.5t-128.5 -318.5q-4 -35 -4 -70zM90 381l-39 4q-23 2 -37 20.5t-12 41t20.5 37t40.5 12.5l21 -2q0 35 4 69q16 135 75.5 256t169 208 t247.5 99q162 14 254 -45q82 -51 118.5 -134t30.5 -175q-4 -88 -45 -169t-109 -132q-86 -66 -197.5 -95.5t-214 -25.5t-212.5 15q25 -119 100.5 -196t198.5 -93q160 -20 262 67q86 72 178 226q10 20 32.5 25t43 -6t26 -33.5t-7.5 -43.5q-102 -172 -198 -254 q-141 -119 -348 -92q-178 23 -277.5 136.5t-124.5 279.5zM403 1327q-6 -14 -9 -25.5t-5 -16.5t-4 -8t-2 -5v-4v-6v-17v-41q0 -23 -16.5 -39t-39 -16t-39 16.5t-16.5 38.5v82q0 4 25 78q8 20 28.5 30.5t42 3.5t31.5 -27.5t4 -43.5zM768 1348q-12 -29 -27 -56l-4 -6 q0 -4 1 -10t3 -15.5t4 -17.5q4 -23 -9 -42t-35.5 -23t-42 9t-23.5 36q-2 12 -5 27.5t-3 17.5q-4 25 0 43q4 12 16 35.5t22.5 46t32 30t43 -2t28.5 -31t-1 -41.5z" />
<glyph unicode="&#x2013;" horiz-adv-x="1409" d="M-27 592q248 41 584 41t586 -45q23 -4 36 -23.5t9 -42t-23.5 -36t-42.5 -9.5q-248 45 -565 43q-328 0 -567 -39q-23 -4 -41.5 9.5t-22.5 37t9 42t38 22.5z" />
<glyph unicode="&#x2014;" horiz-adv-x="1970" d="M213 616q125 0 266.5 -9t314.5 -24.5t265 -21.5q221 -14 624 47q23 4 42.5 -10t23.5 -37.5t-10.5 -43t-38.5 -23.5q-412 -63 -649 -48q-98 6 -265 21q-170 16 -309 25.5t-264 9.5q-25 0 -41 16.5t-16 41t16 40.5t41 16z" />
<glyph unicode="&#x2018;" horiz-adv-x="538" d="M303 1081q10 -18 7 -38.5t-17 -32.5l-4 -4q-37 -68 -99 -60h-2h-2q-35 -6 -59 17q-16 18 -21 45q-18 29 -30 65q-16 43 -13 74q18 174 162 332q14 16 37 17t39 -14.5t17 -38t-15 -38.5q-111 -121 -131 -252q29 16 57 6q43 -14 64 -65v-2z" />
<glyph unicode="&#x2019;" horiz-adv-x="608" d="M152 1380h2q0 4 8 21q12 18 24 29q31 23 66 8q90 -31 123 -164q25 -98 6 -178q-12 -59 -64 -138q-8 -14 -34 -53l-37 -55q-12 -20 -35 -26.5t-43.5 6t-26.5 35t6.5 43t39 59.5t34.5 53q39 61 49 100q12 53 -6 127q-10 39 -22 64l-4 -8q-16 -16 -40 -18.5t-41.5 14t-19 40 t14.5 41.5z" />
<glyph unicode="&#x201a;" horiz-adv-x="589" d="M250 0q-80 -35 -127 -2q-25 16 -32 43t-3 46t10 36q33 66 95 78q82 14 131 -78q74 -131 34 -275q-20 -74 -71 -126t-131 -66q-25 -4 -44.5 10.5t-23.5 38t10.5 43t36.5 23.5q86 14 113 108q14 58 2 121z" />
<glyph unicode="&#x201c;" horiz-adv-x="821" d="M121 1143q4 4 8 6q23 14 49 8q10 -2 25 -10q18 -10 35 -27q20 -18 30 -39q18 -33 13 -65q-12 -43 -62 -55q-31 -6 -78 2q-41 8 -69 45q-4 8 -27 45q-39 68 -44 137.5t19.5 129.5t60.5 109.5t83 92.5q18 16 39.5 15t37 -18.5t14.5 -39t-17 -35.5q-170 -154 -117 -301z M532 1085q31 -4 43 -32q8 -20 0 -41t-28 -29q-47 -20 -68 -29q-6 -4 -12 -6q-4 -2 -10 -4q-4 0 -8 -2q-18 0 -33 8q-16 12 -23 31q-35 20 -55 68q-53 119 27 254q37 63 143 172q16 16 38.5 16t38 -15.5t15.5 -38t-14 -36.5q-98 -100 -129 -154q-49 -82 -25 -147q12 12 27 16 q27 6 51 -10q12 -9 22 -21z" />
<glyph unicode="&#x201d;" horiz-adv-x="790" d="M137 1257l-4 3q-10 6 -14 8h-13q-23 0 -40 12q-16 14 -23 37q-8 43 20 84q33 45 80 45q29 0 47 -21q16 -18 15 -45q0 -6 -2 -14q4 -6 6 -12v-11q14 -10 22 -24q12 -18 17 -51q4 -20 6 -51q2 -47 -2 -78q-8 -84 -39 -138q-33 -53 -102 -100q-20 -12 -43 -7t-35.5 24.5 t-7 42t23.5 34.5q49 31 67.5 63t24.5 93q2 23 0 61q0 23 -2 37zM444 1278l-12 6q-41 16 -57 37q-4 4 -8 10q-2 2 -3.5 5t-5.5 14.5t0 21.5q4 20 19.5 31.5t25 12.5t15.5 1q8 0 17 -3t26 -13q4 -2 12 -8l14 -9q6 -4 11 -6q14 -6 22 -18q8 -8 15 -17q61 -90 18 -200 q-14 -37 -82 -146q-12 -18 -34.5 -23t-42 7t-24.5 34.5t7 43.5q61 96 72 123q22 57 -5 96z" />
<glyph unicode="&#x201e;" horiz-adv-x="829" d="M66 84q2 0 2 2q-2 2 0 20q8 61 63 72q74 12 109 -80q23 -57 18 -135q-4 -86 -43 -161.5t-121 -112.5q-23 -8 -44 0t-30.5 30.5t-1 44t30.5 31.5q43 18 67.5 65.5t28.5 106.5q0 25 -2 45q-20 -8 -41 -2q-23 8 -32.5 29.5t-3.5 44.5zM408 59l-2 2q-4 10 -7 17 q-14 27 -18 47q-8 57 35 84q35 23 92 4q53 -16 82 -88q47 -117 -23 -252q-43 -82 -139 -182q-16 -16 -39.5 -16.5t-41 16t-17.5 40t16 42.5q84 86 119 153q31 59 29 109q-4 -4 -11 -6q-23 -8 -44 -0.5t-31 30.5z" />
<glyph unicode="&#x2020;" horiz-adv-x="1177" d="M18 981q164 14 433 0q-16 276 -17 457q0 25 16.5 41t41 16t41 -16.5t16.5 -40.5q0 -182 18 -463q207 -12 330 -8q25 0 42 -16.5t17 -40t-16 -41t-39 -17.5q-123 -4 -328 8q20 -297 24.5 -440.5t-9.5 -390.5q-16 -283 -17 -383q0 -25 -16 -41.5t-41 -16.5t-41 16.5 t-16 41.5q0 111 16 389q14 244 10 381q-4 145 -24 450q-262 14 -428 0q-25 -2 -43.5 13.5t-20.5 39t13 42t38 20.5z" />
<glyph unicode="&#x2021;" horiz-adv-x="1220" d="M29 977q113 47 313 27q33 -4 76 -11q0 57 6 189q10 174 4 268q-2 25 14.5 42t40 19t41 -14t19.5 -39q6 -102 -4 -282q-6 -143 -7 -199q59 -8 101 -10q43 -2 121 2q94 8 131 8q25 0 41 -16.5t16 -41t-16.5 -41t-40.5 -16.5q-33 0 -123 -6q-88 -6 -137 -4q-37 2 -90 10 q4 -111 24 -383q14 -201 19 -289q154 -2 360 13q25 2 42 -13.5t19 -40t-13 -42t-40 -19.5q-209 -14 -364 -12v-29q0 -25 4 -91.5t3 -119.5t-7 -102q-4 -25 -23.5 -38t-43 -10t-37 22.5t-11.5 41.5q6 45 7 90t-3 107.5t-4 99.5v31q-221 12 -395 59q-25 6 -36 26.5t-5 44 t26.5 35t42.5 5.5q160 -43 363 -55q-2 47 -19 278q-20 287 -26 406q-51 8 -88 12q-172 18 -256 -19q-23 -8 -44.5 0.5t-30.5 31t-1 44t31 31.5z" />
<glyph unicode="&#x2022;" horiz-adv-x="763" d="M319 692q-8 10 -16 19q4 -11 16 -19zM303 885q49 18 108.5 3.5t96.5 -57.5q35 -43 34 -94t-21.5 -88t-53.5 -69l-4 -2q-6 -23 -21 -39q-27 -33 -75 -35q-10 0 -21 2q-63 -23 -117 -6q-86 29 -114.5 108.5t-3.5 155.5q29 82 98 113q45 18 94 8z" />
<glyph unicode="&#x2026;" horiz-adv-x="1935" d="M317 104q-14 -2 -34 -10q-10 -2 -19 -2q0 -33 21 -37q6 2 14 11q16 16 23 36q-3 0 -5 2zM360 215q18 -4 35 -16q55 -37 39 -117q-12 -53 -51 -94q-51 -53 -109 -47q-68 8 -98.5 59t-25.5 109q4 53 39.5 100t99.5 45q37 -2 65 -33zM958 41q6 10 11 37q2 8 2 14 q-37 0 -51 -8q2 -10 12 -23q14 -16 26 -20zM938 205q14 18 38.5 20t41.5 -14l29 -23q20 -14 28 -30q12 -20 12 -49q0 -14 -4 -48q-18 -125 -110 -135q-72 -8 -129 62q-59 72 -31 141q29 68 125 76zM1692 78q4 -68 -19 -103q-25 -41 -74 -36q-29 4 -55 26q-37 31 -57 84 q-12 27 -14 51q-2 39 20 66q57 70 125 49q20 -6 43 -25q4 -2 13 -9t16 -11q18 -12 23 -35.5t-9 -44.5q-4 -6 -12 -12z" />
<glyph unicode="&#x2030;" horiz-adv-x="2121" d="M264 938h31q39 2 55 2q55 4 80 18q14 8 19 15q2 6 2 11t2 17l4 25q23 113 -32.5 185.5t-172.5 80.5q-43 4 -83 -35.5t-52.5 -105.5t14.5 -116t96 -66q27 -6 37 -31zM193 860q-117 31 -164 121q-45 90 -25 193q18 96 88 169q70 72 168 64q168 -12 255 -126t56 -275 q-12 -63 -16 -72q-18 -49 -72 -78q-47 -25 -127 -29q-16 -2 -57 -4q-33 0 -47 -2q-20 -2 -36.5 9.5t-22.5 29.5zM803 113q16 -2 45 -9q43 -8 61 -10q57 -8 86 8q31 18 56.5 71.5t32 121t-9 121t-46.5 73.5q-45 31 -166 7q-141 -31 -151 -140q-8 -106 86 -233q4 -4 6 -10z M721 41q-8 4 -14 12q-123 162 -111 314q8 90 69.5 153.5t172.5 85.5q170 37 256 -22q63 -45 87.5 -128t16.5 -173q-8 -86 -45 -164t-100 -115q-61 -37 -160 -24q-20 4 -68 14q-37 6 -57 8q-35 4 -47 39zM1556 8q-12 -2 -24 2l-12 4q-12 4 -27.5 8.5t-28.5 8.5l-47 16 q-29 12 -41 23q-53 47 -67.5 113.5t1 128t50.5 118.5q53 88 139 144.5t180 41.5q115 -20 170.5 -111t51.5 -204q-2 -106 -58.5 -197.5t-156.5 -107.5q-50 -8 -130 12zM100 -43q23 39 113 174q70 104 102 166l160 313q125 250 201 379q10 20 104 172q68 109 97 168 q6 16 14 32.5t17.5 37t13.5 33.5q29 63 55 108q12 18 35.5 24.5t43 -6t25.5 -36t-6 -43.5q-25 -39 -49 -95l-14 -32l-17 -39q-8 -18 -16 -33q-35 -74 -100 -180q-94 -150 -105 -168q-74 -129 -196 -375l-160 -313q-37 -68 -111 -178q-80 -117 -108 -166q-12 -20 -35 -26.5 t-43.5 5.5t-26.5 35t6 43zM1554 127q90 -20 111 -16q49 8 84 62t39 132q2 80 -32 133.5t-97 63.5q-47 8 -104.5 -28t-96.5 -103q-41 -66 -42 -124.5t32 -86.5q4 -4 10 -6q16 -6 41 -13l37 -12q10 0 18 -2z" />
<glyph unicode="&#x2032;" horiz-adv-x="661" d="M438 1436q-63 -289 -151 -533q-8 -20 -29.5 -30.5t-43 -2t-32 30t-2.5 43.5q84 233 148 516q4 23 24.5 36t43 8t35.5 -25t7 -43z" />
<glyph unicode="&#x2033;" horiz-adv-x="1036" d="M473 1434q-18 -41 -70 -142q-45 -86 -65 -137q-10 -25 -31 -98q-20 -70 -43 -113q-10 -20 -33.5 -27.5t-44 3t-27.5 34t3 43.5q16 33 35 90q23 80 34 109q23 57 70 147q53 104 70 140q8 20 30.5 28.5t44 -1t29.5 -31.5t-2 -45zM813 1413q-102 -342 -231 -563 q-12 -20 -35 -26.5t-43.5 6t-26.5 35t6 42.5q123 211 219 539q6 23 28 34t44.5 5t33.5 -27.5t5 -44.5z" />
<glyph unicode="&#x2039;" horiz-adv-x="688" d="M446 770l-159 -127q-47 -39 -51 -55q-4 -6 22 -41q33 -41 145 -144q16 -16 17.5 -39.5t-14 -41t-39 -18.5t-41.5 13q-119 111 -158 158q-61 76 -45 141q14 51 90 115l160 129q18 14 41.5 12t39 -20t13 -42t-20.5 -40z" />
<glyph unicode="&#x203a;" horiz-adv-x="681" d="M158 842q72 -59 176 -121l63 -37q35 -25 52 -49q41 -66 -33 -152q-39 -45 -189 -182q-18 -16 -41.5 -14t-40 19.5t-14.5 41t19 39.5q143 129 178 170q12 14 16 23q-4 4 -12 8q-8 6 -58 35q-111 63 -190 133q-18 14 -20.5 37.5t13 42t39.5 20.5t42 -14z" />
<glyph unicode="&#x203e;" horiz-adv-x="837" d="M-63 1370q14 0 74.5 5t81 6t75.5 4.5t81.5 3.5t76 1t83 -1.5t76.5 -5.5t82 -7q23 -4 37 -22.5t11 -42t-21.5 -37.5t-42.5 -12q-35 6 -76 8t-71.5 4t-77.5 1t-72 -1t-80 -4l-72 -4q-18 0 -81.5 -4.5t-75.5 -6.5q-25 -2 -42.5 14.5t-19.5 40t14.5 41t39.5 19.5z" />
<glyph unicode="&#x2044;" horiz-adv-x="782" d="M549 1323q-166 -213 -219 -299q-23 -35 -51 -115q-33 -96 -58 -139q-23 -43 -80 -113q-53 -68 -71.5 -99.5t-63.5 -117.5q-41 -82 -67 -125q-29 -43 -60 -73q-16 -14 -41 -62q-20 -33 -37 -100q-20 -92 -34 -125q-8 -23 -31 -32t-44.5 -1t-30.5 30.5t-1 43.5 q10 27 30.5 110.5t45.5 131.5q35 59 63 88q23 20 41 51q27 39 66 115q45 88 65 124q23 39 80 113q51 61 72 98q18 33 47 119q33 92 61 139q57 90 228 308q14 18 37.5 21t42 -11t21.5 -38t-11 -42z" />
<glyph unicode="&#x20ac;" horiz-adv-x="1576" d="M35 797l6 18l10 27q14 45 41 67q14 12 39 19q14 4 35 6q33 6 88 8q61 2 154 0q20 86 38 125q35 76 103 158q66 80 145 143q213 166 400 86q47 -20 86 -82q31 -41 57 -110q43 -109 61 -209q4 -25 -10 -44.5t-37.5 -23.5t-43 10.5t-23.5 36.5q-14 90 -54 187q-23 55 -45 90 q-23 33 -36 39q-123 53 -285 -70q-70 -53 -127 -125t-88 -135q-10 -23 -23 -78q68 0 154 -2l143 -6q57 -2 78 -2q25 0 41 -16.5t16 -41t-16 -41t-41 -16.5q-23 0 -165 5t-234 7l-2 -4q-23 -115 -29 -186q23 0 45 -2q39 -2 116 -9.5t120 -10.5t103 -2t112 10q23 2 42 -11.5 t22 -37t-10 -43t-38 -23.5q-55 -8 -122.5 -9t-115 2t-126 10t-111.5 9q-20 2 -39 2q2 -33 8 -63q23 -104 141 -226q178 -182 351 -83q150 86 278 335q10 20 33 27.5t44.5 -2.5t28.5 -32.5t-3 -45.5q-143 -281 -324 -383q-250 -141 -489 103q-141 145 -170 282q-10 41 -13 88 q-150 -8 -252 -71q-20 -12 -43.5 -7t-36 25t-7.5 44t26 36q133 80 315 90q6 76 29 188q-74 2 -127 0q-49 -2 -78 -6q-8 -2 -14 -2q-4 -6 -8 -16q0 -4 -2 -8t-3 -9.5t-3 -7.5q-6 -18 -13 -30q-10 -23 -32.5 -30t-44 3t-28.5 33t3 43z" />
<glyph unicode="&#x2111;" horiz-adv-x="1484" d="M231 1415q94 45 166 49t125 -22q25 -8 62 -27.5t67 -32.5q33 -12 74 -18q184 -29 459 90q23 8 44 0t30.5 -30.5t1 -44t-30.5 -31.5q-307 -131 -520 -99q-49 8 -93.5 24.5t-87.5 37.5l-49 26q-25 16 -75 13.5t-123 -37.5q-23 -10 -44.5 -2t-31.5 29.5t-2 43t28 31.5z M1116 1135q-41 -66 -57.5 -124.5t-14 -97.5t16.5 -88l24 -69q16 -51 25.5 -85t18 -91.5t4.5 -112.5q-2 -20 -8.5 -46t-12.5 -45.5t-18.5 -47t-19.5 -40t-21.5 -39t-16.5 -32.5q-39 -74 -85 -126t-117 -77q-53 -16 -103.5 -19t-82.5 1t-79 24.5t-61 28.5l-59 35 q-53 33 -86 46t-90.5 13t-122.5 -28q-23 -8 -44.5 0t-30.5 30.5t-1 44t30 31.5q68 29 127.5 37t111.5 -5t85 -27.5t80 -43.5l70 -39q18 -12 58 -26.5t78 -11t83 19.5q74 25 137 145q4 6 19.5 35t19.5 38t15 32.5t16 38.5l8 28q6 18 6 33q4 45 -2 91t-17 73l-24 78 q-16 49 -25 76q-18 63 -21 117.5t18.5 129t70.5 156.5q12 20 35.5 25.5t44 -7t25.5 -36t-7 -43.5z" />
<glyph unicode="&#x2118;" horiz-adv-x="1468" d="M340 145q-53 -76 -90 -145q-84 -158 -78 -250q4 -51 27 -61q27 -12 75 6q55 20 100.5 64t55.5 85q2 16 3 36t-1 35t-8 36.5t-11 36t-16.5 40t-17.5 37t-20.5 41t-18.5 39.5zM465 909q-188 -225 -94 -536l14 14q150 170 301 275q176 119 309 116q168 -4 228 -139 q47 -104 12 -266q-31 -139 -109 -264q-80 -135 -170 -181q-59 -31 -102 -34h-94q-25 0 -41.5 16t-16.5 40.5t16.5 41t41.5 16.5q18 0 37.5 -1t24.5 -1t20 2q23 2 61 23q61 31 127 137q66 111 92 229q27 125 -4 195t-126 72t-240 -97q-141 -96 -281 -256l-53 -61 q10 -25 22 -51q6 -10 21.5 -41t23.5 -49l23 -52q14 -31 21.5 -56.5t13.5 -57t6 -62.5t-8 -61q-16 -74 -83 -139.5t-145 -94.5q-94 -33 -161 -2q-86 41 -95 158q-8 125 90 311q55 104 140 215q-160 418 92 715q14 18 37.5 20.5t42 -13t20.5 -39.5t-14 -42z" />
<glyph unicode="&#x211c;" horiz-adv-x="1839" d="M903 811q63 39 121 82q168 133 182 246q2 18 -10 63t-25 66q-68 100 -206 71q-129 -27 -248 -129l-6 -6q45 -135 45 -354q0 -49 -4 -100q90 37 94 41q30 12 57 20zM305 678q-195 72 -250 221q-47 129 23 279q59 129 172 211q127 90 239 57q106 -31 173 -133 q135 109 278 139q217 45 326 -123q23 -33 41 -94q20 -70 14 -113q-23 -154 -217 -311q37 -20 65 -59q41 -57 54 -174q8 -80 2 -205q0 -33 -4 -94.5t-4 -85.5q-2 -37 0 -56v-8q12 -8 40 2q23 8 99 53l41 25l28 20l25 17q6 6 29 26l45 39q18 14 41.5 12.5t39 -20t13.5 -42 t-21 -40.5l-45 -37q-25 -20 -33 -26t-24 -19.5t-33 -23.5l-49 -29q-86 -51 -117 -61q-113 -41 -174 38q-16 20 -20 66q-2 25 0 68q2 25 5 86t5 94q4 117 -4 188q-8 86 -33 121q-23 33 -67 31q-27 0 -60 -10q-106 -61 -192 -82q-6 -2 -13 -2q-2 -2 -4 -2q-33 -264 -94 -428 q-20 -53 -65 -107q-45 -55 -95 -90q-111 -80 -225 -47q-102 31 -168 137q-61 98 -65 221t63 244q12 20 36 25.5t44 -7t25.5 -36t-7.5 -44.5q-51 -86 -48 -178t50 -166q43 -68 103 -86q61 -18 127 31q37 27 70.5 68t48.5 75q35 94 67.5 271.5t34.5 347.5q2 201 -41 324 q-47 133 -143 159q-57 16 -140 -41q-90 -63 -137 -166q-47 -104 -16 -190q35 -100 182 -154q20 -8 30.5 -29.5t2.5 -43t-29.5 -31.5t-44.5 -2z" />
<glyph unicode="&#x2122;" horiz-adv-x="1865" d="M455 1323h-213q-25 0 -41.5 16.5t-16.5 41t16.5 41t41.5 16.5h231q12 8 29 10q23 2 41 -12q145 -2 262 -9q25 -2 41 -19t14 -41t-19.5 -40t-39.5 -14q-106 6 -232 8q4 -86 -4 -215q-16 -258 -16 -279q0 -25 -16.5 -41t-41 -16t-41 16.5t-16.5 40.5q0 33 17 287 q8 127 4 209zM911 893q-4 92 -4 156q0 100 4 165v7v28q0 47 4 80q10 59 39 88q25 27 62 27q31 -2 61 -23q35 -25 74 -110q29 -61 63 -160l39 -117q20 66 74.5 181.5t61.5 134.5l2 8q4 14 6 20q20 59 73 60q57 0 97 -60q25 -35 41 -90q18 -63 26 -141q4 -39 4 -98 q2 -76 2 -93q4 -90 5 -221q0 -25 -16.5 -41t-41 -16t-41 16.5t-16.5 40.5q0 129 -4 217q0 16 -2 95q0 55 -4 88q-8 68 -23 120q-4 16 -10 31q-16 -37 -50 -107.5t-54.5 -122.5t-32.5 -100q-2 -14 -3 -28.5t-1 -36t-3 -39.5v-6q4 -20 5 -23q2 -23 -5 -39q-12 -41 -53 -48 t-67 26q-10 14 -17 37q-2 6 -4 22l-2 10q-8 18 -41 119q-29 92 -53 162q-35 96 -59 152l-19 36q-2 -23 -2 -51v-24v-4v-4v-11q-4 -63 -4 -157q0 -59 4 -152q0 -23 -15.5 -40t-39 -18t-41 14t-19.5 40z" />
<glyph unicode="&#x2135;" horiz-adv-x="1497" d="M184 147q129 160 99 273q-14 55 -52 112q-49 74 -55 97q-25 66 19 135q39 57 147 143q18 14 42 12.5t38 -21t12 -43.5t-22 -38q-92 -74 -119 -117q-14 -20 -10 -34q4 -8 45 -72q45 -72 65 -141q47 -172 -119 -379q-14 -18 -38.5 -20.5t-43 12t-20.5 39t12 42.5z M1004 1430q0 -6 2 -21q23 -162 49 -203l2 -4q18 2 35 -6q31 -14 32 -49q41 -18 105 -29q23 -6 37 -25.5t9 -42t-24.5 -37t-42.5 -9.5q-76 14 -129 38l-145 -274q-16 -31 -51 -31q236 -266 147 -587q-6 -25 -26.5 -36.5t-44 -5t-35 27t-4.5 42.5q31 125 9 233.5t-92.5 202 t-168 165t-215.5 122.5q-12 6 -69.5 27.5t-91.5 37t-80 45t-75 64.5q-63 80 -74.5 174t33.5 176q45 84 137 129q20 10 43 3t33 -28.5t3 -44t-29 -32.5q-88 -43 -104.5 -132t48.5 -171q20 -25 53 -46.5t60 -32.5t78 -32l80 -30q190 -82 327 -211q0 12 6 24l154 287 q-16 18 -29 39q-8 12 -15 27.5t-11 27.5t-9.5 32.5t-8.5 32t-7 37t-5 34t-5 38t-6 37.5q-2 25 12 43.5t38 21.5t42.5 -11t22.5 -37z" />
<glyph unicode="&#x2190;" horiz-adv-x="1519" d="M614 877q-47 -86 -254 -267l-47 -39q94 -2 392 -16q338 -16 534 -10q25 0 42 -15.5t17 -40t-15 -42t-40 -17.5q-170 -6 -545 10q-313 14 -411 17q119 -74 205 -146.5t147 -165.5q14 -20 9 -43.5t-24.5 -37t-43 -8.5t-35.5 24q-53 80 -132 145.5t-192 136.5 q-2 2 -23.5 15.5t-37.5 21.5l-39 27q-10 6 -17 12l-10 11q-12 14 -14 30q-2 20 8 37q2 6 8 14q6 6 15 17l8 6q4 6 10 10l27 23l129 110q193 166 227 234q12 20 34.5 27.5t43 -4t27.5 -34t-3 -42.5z" />
<glyph unicode="&#x2191;" horiz-adv-x="1294" d="M260 887q145 125 266 327q2 4 17 56q18 68 67 90q16 6 33 6q12 4 27 4q37 -2 49 -37q18 -14 39 -37q49 -51 121 -151q49 -68 112 -166t72 -109q12 -18 9 -41.5t-22.5 -37t-43 -10.5t-37.5 24q-6 10 -72 108l-113 166q-37 53 -67 90q-6 -168 4 -479q14 -446 8 -627 q0 -23 -17.5 -39t-41 -16t-40 17.5t-16.5 42.5q6 166 -8 618q-8 266 -6 430q-121 -193 -266 -315q-18 -16 -42 -14.5t-39 20t-13 42.5t20 38z" />
<glyph unicode="&#x2192;" horiz-adv-x="1492" d="M825 938q16 -12 224 -180l129 -103l43 -39q10 -8 16 -14q10 -10 16 -18q33 -61 13 -111q-8 -20 -37 -45q-16 -14 -47 -37l-135 -96q-190 -135 -224 -191q-12 -20 -34.5 -26t-43 6t-26.5 34.5t6 43.5q45 78 256 227l78 55q-25 -6 -325 -2t-324 4q-31 0 -88.5 1.5t-90 1.5 t-76.5 -4.5t-81 -12.5q-23 -6 -43.5 6.5t-26.5 35t6.5 43t34.5 26.5q43 10 96.5 15t89 5t96 -1t83.5 -1q76 0 220 -3t260 -2t218 7l-4 4l-127 103q-217 174 -225 182q-18 16 -20.5 39.5t14 41t40 19.5t39.5 -14z" />
<glyph unicode="&#x2193;" horiz-adv-x="1302" d="M344 561q41 -53 166 -233l111 -158q-2 125 0 462t-5 462q-2 35 -8 106q-8 76 -10 117q0 25 16.5 42t40 17t41 -16.5t17.5 -38.5q0 -33 8 -108.5t10 -114.5q6 -88 4 -431t-2 -431q31 41 107 116q102 104 139 152q14 18 37.5 21t42 -11t21.5 -37.5t-11 -42.5 q-39 -53 -147 -164q-96 -98 -134 -153q-23 -33 -38 -62v-2l-1 -2t-2.5 -7t-3.5 -13q-16 -53 -61 -66q-53 -14 -86 41l-7 14l-3 5v4h-2q-63 80 -168 233q-115 170 -162 230q-14 18 -11 41.5t21.5 38t42 11t37.5 -21.5z" />
<glyph unicode="&#x2194;" horiz-adv-x="1456" d="M893 827q29 -25 131 -120q76 -70 125 -105h2q2 0 3 -1t6 -2t14 -5q47 -16 59 -57q10 -33 -14 -72q-10 -18 -35 -47q-35 -39 -101 -103l-110 -100q-55 -51 -64 -61q-16 -16 -39.5 -18.5t-41 14t-19.5 40t14 41.5q14 14 74 68l107 98l53 54l-189 -17q-141 -12 -214.5 -15 t-190.5 1t-211 24q43 -37 117 -110q78 -80 114 -113q18 -14 20.5 -38.5t-13 -42t-40 -19.5t-40.5 14q-41 35 -123 119q-74 74 -117 108l-2 3l-12 8l-39 28q-25 18 -41 33q-31 33 -31 66q0 20 12 39l15 18q14 16 39 41q37 35 110 98l117 101q59 51 68 59q16 16 40.5 16 t41 -16t16.5 -40.5t-17 -41.5q-14 -14 -75 -65l-115 -99l-53 -47q70 -16 142.5 -24.5t161.5 -7.5t143 4.5t168 13.5t155 12q-31 25 -70 62q-104 98 -125 114q-18 16 -20 40t13 42.5t39 20t42 -12.5z" />
<glyph unicode="&#x21b5;" horiz-adv-x="1458" d="M475 903q-10 -12 -39 -39l-76 -73l-73 -72l-43 -43l32 -6q70 -12 111 -17q131 -10 365 -14q125 -2 213 2q98 4 120 12q6 4 11 11l2 18q4 25 6 63q6 61 10 179q8 207 8 303q0 25 16.5 41t41 16t41 -16.5t16.5 -40.5q0 -98 -8 -307q-4 -119 -10 -185q-4 -41 -7 -67 q-6 -37 -14 -54q-23 -49 -76 -67q-39 -14 -151 -21q-90 -4 -221 -2q-238 4 -371 15q-47 4 -123 18l-49 10l82 -82q156 -158 184 -200q12 -20 7 -44t-25.5 -36t-44 -7t-35.5 25q-20 33 -166 180l-103 101l-32 33l-8 10l-5 4q-2 0 -4 2q0 2 -2 4q-6 10 -8 21q-6 20 4 43 q4 12 12 24q14 20 37 47q37 41 107 109l76 73l69 68q25 25 33 35q16 18 40 20t42 -13t20 -39t-12 -42z" />
<glyph unicode="&#x21d0;" horiz-adv-x="2027" d="M561 467q18 -18 27 -29q49 -61 114 -192q10 -23 3 -45.5t-28.5 -32.5t-44 -3t-32.5 28q-61 123 -102 172q-14 18 -217 204q-96 88 -129 123q-29 29 -46 47q-10 12 -14 21q-16 25 -12 49q6 33 43 63q20 16 53 37l51 29q27 14 31 16q119 80 224.5 193t174.5 233 q10 20 34 26.5t44.5 -4.5t26.5 -35t-6 -44q-82 -145 -211 -276q68 -4 192 -17q219 -25 326 -18q80 4 338 26q215 18 348 19q25 0 41 -16.5t16 -41t-16 -41t-41 -16.5q-121 0 -338 -18q-262 -23 -344 -27q-104 -6 -342 18q-203 20 -307 17q-47 -39 -94 -72q-10 -6 -41 -22 l-47 -27q-14 -8 -25 -16l20 -23l127 -119l101 -90q51 12 113.5 19.5t97.5 9.5t113.5 3t99.5 1q162 4 866 4q25 0 41 -16.5t16 -41t-16 -41t-41 -16.5q-705 0 -862 -4q-31 0 -86.5 -1t-86 -2t-73.5 -4t-80 -7z" />
</font>
</defs>
</svg>
